<?xml version="1.0" encoding="utf-8"?>
<!-- Generator: Adobe Illustrator 19.2.1, SVG Export Plug-In . SVG Version: 6.00 Build 0)  -->
<!DOCTYPE svg PUBLIC "-//W3C//DTD SVG 1.1//EN" "http://www.w3.org/Graphics/SVG/1.1/DTD/svg11.dtd">
<svg version="1.1" id="Layer_1" xmlns="http://www.w3.org/2000/svg" xmlns:xlink="http://www.w3.org/1999/xlink" x="0px" y="0px"
	 width="308.2px" height="42.3px" viewBox="0 0 308.2 42.3" enable-background="new 0 0 308.2 42.3" xml:space="preserve">
<g opacity="0.9">
	<path fill-rule="evenodd" clip-rule="evenodd" fill="#0E3660" d="M264.1,3.2C233.8,4.8,194,3.2,158.8,3.8
		C192.5,2.6,235.5,3.5,264.1,3.2z"/>
	<path fill-rule="evenodd" clip-rule="evenodd" fill="#0E3660" d="M265.2,3c1.1,0.2,2.4,0.4,3.9,0.2C268.3,4.1,265,4.2,265.2,3z"/>
	<g>
		<path fill-rule="evenodd" clip-rule="evenodd" fill="#0E3660" d="M301.3,7.5c2-0.3,4.8,0.4,6.8-1.3c-3.3,0.4-6.5,0.6-8.7-0.2
			c0.7,0.1,2.4,0,2.7-0.8c-31.5-1-73.2-1-116.4-0.7c-43.8,0.6-85.8-0.1-118-0.8c24.6-0.5,55.4,0.8,83.7,0.2c2.4,0,6.2,0.8,6.4-0.6
			c-12.2,0-26.1,1-35.5-0.8c44.6,0.2,93.3,0.7,138-0.5c-0.7-0.1-1.4-0.2-2-0.1c0.9-0.9,3.8-0.3,5-0.3c-0.1,0.1-0.3,0.2-0.5,0.3
			c1.4,0,2.9-0.1,4.3-0.1c-0.2,0-0.3-0.2,0.2-0.4c4-0.7,7.6,0.8,10.9-0.6c-31.9,0.1-67.7-0.5-98.6-0.2C112.3,2.4,42-4,0.9,4.6
			c1.3,0.8,3-0.4,3.4,0.7C2.2,5.1-0.1,5.3,0,7.1c1.7,1.2,3.3-0.2,3.9,1c-5-0.7-3.5,4-1,6.7c1.3,0.8,3-0.4,3.4,0.7
			c-1.7,0.2-4-0.4-4.7,1.2c1.6,1,2.3,0.6,3.4,0.7c-0.4,0.7-3,0.7-1.8,2.1c0.5-0.5,1.8,0,2.5-0.1c-0.1,1.2-3.6-0.3-2.3,1.5
			c0.7-0.6,3.5-0.6,4,0.1c-1.3,0.1-2.8-0.2-3.6,0.5c0.8,1.1,0.6,0.2,1.9,0.9c-0.4,1-2.6-0.6-2.3,1.5c2.4,2.1,4.4,0.7,6.4,0.8
			c-0.5,0.9-4.9,0.6-3.7,0.9c2.6,0.4,4.4-0.4,6.7-0.4c-2,1.4-5.2,0.8-7.4,1.8c1,1,1.9-0.2,1.9,0.8c-0.6-0.1-1,0.1-1.1,0.8
			c0.8,0.4,1.5,0.6,2,0.5c-1.3,0.9-4.1-0.6-3.9,2.5c1.5,0.9,2.2,0.7,3.4,1.1c-0.4,1-2.2,0-2.7,0.9c1.3,1.2,3.1-0.1,2.8,1.7
			c-0.2,0.3-1.9,0.3-1.8,1.7c1.3,2.6,4.3,2.9,6.3,2.6c-2.8,0.5-0.1,1.5-2.3,1.3c3,1.8,6.2,0.4,9.1,0.1c9-1,19.7-1.9,29.3-1.6
			c-3.1,0-5.7,0.6-8.6,0.7c-2.2,1.4,2.5,0.1,3.6,0C59.2,39,73.7,38.5,92.1,38c47.3-0.4,118.3,0,170,1.2c3.2-1-1.7-0.3-3.4-0.3
			c-2.5-0.1-5-0.1-5.9-0.5c6.1-0.2,13.7-0.3,17.4-0.8c-0.8,0.2-1.8,0.1-2.1,0.7c7.1-2.3,13.9,0,20.3-2.1c-5-0.2-11.7,1.1-13-0.8
			c2.7-0.6,5.8-0.4,8.8-0.4c2,0,8,0,6.8-0.6c-2.7,0-5.5,0-7.1-1c-6.4,0.2-12.2-0.3-18.5-0.5c8.9-0.4,16.9-0.2,24.9-0.4
			c0.8-0.1,1.3-0.7,0.1-0.4c-7.1,0.1-13.8-0.2-21.4-0.1c-0.6-0.3-1.4-0.4-1.8-0.9c-6.8,0.6-15.5,0.2-22.8-0.3
			c16.3-1.2,33.6,0.8,48.4-2c-6.5,0.3-13.4,0.7-18.8-0.4c7.7-0.9,15.2-0.1,21.5-1.4c-3.3-0.6-8.5,0.6-11.5-0.4
			c3.4-0.9,7.3,0.9,9.3-1.1c-4.8,0.1-10.4,0.8-13.9-0.5c4.9,0.1,11.4,0.6,16.6-0.9c-5.3-0.3-12.4,0.8-16.8-0.6
			c5.5-0.3,11.9,0.4,17.1-1c-5.6,0.3-11.3,0.4-16.9,0.2c-5.6-0.2-11.7,0-16.5-1.4c13-0.1,26.1,0.7,38.6-1.6c-4.3-1.1-12.1,1-15.7-1
			c2.6-0.3,4.2,0.2,6.8-0.2c-7-1.2-21.1,0.6-29.6-1.2c4.1-0.6,9.7,0.8,15.3-0.8c-2.8,0-5.9,0.2-8.3-0.2c7.7-0.4,15.1-0.7,22-0.8
			c1-1-2-0.5-3.3-0.5c-5.5-0.2-10.9,0.1-15.5-0.4c11.7-1.4,21.8,0.1,31.6-1.6c-3.3-0.7-8.2,0.1-11.9-0.5c2.5-0.9,4.3,0.7,6.4-1
			c-8.3,0-16.1,1.2-22.6-0.7c7.9,0.2,17.6,0.3,25.2-1.1c-0.9,0.2-1.6,0.1-1.8-0.4c1.7-0.4,4.3,0.1,5.4-0.9
			C304.4,7.7,302.1,8.4,301.3,7.5z M121.8,2.8c-3.6,0.8-8.3,0.3-12.6,0.2C112.4,1.9,117.6,3,121.8,2.8z M108.7,2.5
			C105.8,3.8,101.1,3,97.1,3C100.3,2.1,104.8,2.6,108.7,2.5z M94.6,2.4c1.1,1.3-2.8,0.8-4.3,0.7C91.2,2.2,93.4,2.9,94.6,2.4z
			 M282.3,18.8c0.8-0.2,1.7-0.3,2.5-0.5C285.4,19.5,281.4,20.2,282.3,18.8z M276.9,19.4C281,18,282.2,20.1,276.9,19.4L276.9,19.4z"
			/>
		<path fill-rule="evenodd" clip-rule="evenodd" fill="#0E3660" d="M267.8,1.8c-0.2,0-0.4,0-0.6,0C267.3,1.9,267.6,1.9,267.8,1.8z"
			/>
		<path fill-rule="evenodd" clip-rule="evenodd" fill="#0E3660" d="M262.9,2c-0.9,0-1.7,0.1-2.6,0.1C261.3,2.2,262.2,2.3,262.9,2z"
			/>
	</g>
	<path fill-rule="evenodd" clip-rule="evenodd" fill="#0E3660" d="M58.9,39.6c-1.3,1.4-4.5,1.3-7,1.6C44.7,41.9,35.6,42,28,42.3
		C37.6,40.9,49,41.5,58.9,39.6z"/>
</g>
</svg>
