<?xml version="1.0" encoding="utf-8"?>
<!-- Generator: Adobe Illustrator 19.2.1, SVG Export Plug-In . SVG Version: 6.00 Build 0)  -->
<!DOCTYPE svg PUBLIC "-//W3C//DTD SVG 1.1//EN" "http://www.w3.org/Graphics/SVG/1.1/DTD/svg11.dtd">
<svg version="1.1" id="brush-stroke" xmlns="http://www.w3.org/2000/svg" xmlns:xlink="http://www.w3.org/1999/xlink" x="0px"
	 y="0px" width="125px" height="16px" viewBox="0 0 125 16" style="enable-background:new 0 0 125 16;" xml:space="preserve">
<filter  id="drop-shadow">
	<feGaussianBlur  in="SourceAlpha" stdDeviation="2px"></feGaussianBlur>
	<feOffset  dx="0" dy="2px" result="offsetblur"></feOffset>
	<feFlood  flood-color="#000000"></feFlood>
	<feComposite  in2="offsetblur" operator="in"></feComposite>
	<feMerge>
		<feMergeNode></feMergeNode>
		<feMergeNode  in="SourceGraphic"></feMergeNode>
	</feMerge>
</filter>
<g style="opacity:0.85;filter:url(#drop-shadow);">
	<path style="fill-rule:evenodd;clip-rule:evenodd;fill:#0E3660;" d="M43.8,14.4c0.4,0.5,2.1,0.4,2.1,1c-0.7,0-1.4,0-2.1,0
		C43.6,14.8,43.3,14.8,43.8,14.4z"/>
	<path style="fill-rule:evenodd;clip-rule:evenodd;fill:#0E3660;" d="M48.1,15.5c0-0.2,0-0.5,0-0.7C49.7,14.7,49.7,15.7,48.1,15.5z"
		/>
	<path style="fill-rule:evenodd;clip-rule:evenodd;fill:#0E3660;" d="M122.8,4.6c0-0.2,0-0.5,0-0.7c1.1,0,2.2,0,2.1,0.5
		C123.7,4.3,123.8,4.6,122.8,4.6z"/>
	<path style="fill-rule:evenodd;clip-rule:evenodd;fill:#0E3660;" d="M1.3,6.6C0.3,6.5,2,6,2.1,5.7C2.2,5.4,0.6,5.7,0,5.6
		c1.3-0.7,3.6-0.1,3.4-1.2c1.9,0.1,1.4,0.1,3,0.2c0.9-0.1-1.6-0.7,0.9-0.7c-1.2,0.8,2.4-0.5,3,0c0-0.3-1.2-0.2-0.9-0.7
		C10,3.4,10.3,3.4,10.3,3c0.4,0.1,0.7,0.5,0.9,0.2c0.5,0,0.4,0.3,0.4,0.5c0.6-0.2,1.1-0.2,1.7,0c-0.2-0.8,3-0.2,3-0.8
		c0.8,0,0.3,0.6,0.9,0.7c1.6-0.8,5.1,0,5.6-1c1.8,0.2,2.6-0.1,3,0.7c4-0.1,7.1-0.2,10.3,0C44,1.7,54.4,2.7,61.8,2
		c3.1,0.6,8.3,0.2,10.3-0.2c1,0,1.6,0,1.7,0.3c0.5,0,0.4-0.3,0.4-0.5c1.4,0.8,5.5-0.6,6.4,0.5c0.5,0,0.4-0.3,0.4-0.5
		c2.7,0.5,4.7,0.4,7.7,0.7c0.8,0,0.3-0.6,0.9-0.7c1.6,0.1,1.9-0.3,4.3,0c0.6-0.1,0.8-0.4,0.9-0.7c0.4-0.5,0.6,0.3,0.4,0.5
		C96.9,1.7,96,0.9,97.5,1c0.3-0.2,0.4-0.7,1.3-1c1.1,0,1.5,0.6,0.4,0.2c-1,0.5,1.8,1.8,3,1c6.1,0.5,14.3,0.2,21.9,1
		c1,0.7-1.2,0.9,0.4,1.2c-0.8,0.1-3.2-0.4-4.3-0.3c-1,0,0.6,0.4,0,0.8c0.4,0.3,0.6,0,1.7,0.2c-0.1,0.2-0.8,0.1-1.3,0.2
		c2.5,0.4,0.8,1.4,4.3,1.4c0,0.2,0,0.5,0,0.7c-1.7,0.1,0.5-0.6-1.7-0.5c-1.2,0.2,0.1,0.7,0,1c1.1,0.2,1.8-0.5,1.7,0.2
		c-1.3,0-2.4,0.1-3,0.3c1,0.6,2-0.6,3,0c-1.5,0.7-0.8,0.3,0,0.8c-0.8,0-0.9-0.2-1.7-0.2c0.3,0.2,0.5,0.3,0,0.3
		c-0.3,0.5,2-0.1,1.7,0.3c0,0.5-1,0.2-1.7,0.2c0.3,0.5,0.3,0.3,0,0.8c0.4-0.2,0.9-0.3,1.3-0.5c1,0.3-0.2,1.2-1.3,1.2
		c0.1,0.2,0.8,0.1,1.3,0.2c-0.1,0.3-0.7,0.4-1.7,0.3c0.3,0.2,0.8,0.3,1.3,0.3c-0.3,0.5-0.9-0.2-1.7,0c1.9,0.7-1.1,1.3-3,1.9
		c1.4,0.6,0.1,1-1.7,1.2c0.7,0.2,1.1,0.5,0.9,1c-11.9-0.8-29.3,0.4-47.2-0.5c-0.8,0.3,0.3,0.4,0,1c-6.2,0.7-15.1-0.1-21,0
		c-0.9,0-0.2-0.6-0.4-0.8c2.2,0.2,1.8-0.2,3,0c-1.5-1.4-4.1-0.6-6.9-0.5c1-0.7-2.1-0.1-3,0c0-0.2,0-0.3,0-0.5
		c-1.5,0.3-3.9,0.1-6,0.2c0,1.3-3.7,0.7-4.7,1.2c-0.5,0-0.4-0.3-0.4-0.5c-1.6,0.7-5,0.4-6.4,0c-1.9,0.5-6.3,0.2-7.7-0.3
		c-1.9,0.4-1.8,0.1-4.3,0.2c-0.1-0.3,0.5-0.4,0.4-0.7c-1.2,0.9-1.7-0.4-5.2,0c-1.1-0.7-2-0.7-3-0.7c-0.1-0.5,1-0.5,2.1-0.5
		c0.3-0.5-1.2-0.3-0.9-0.8c0.6,0,1.1,0,1.7,0c-0.5-0.2-0.2-0.3,0-0.5c-1.7,0.1-2.5-0.1-4.3-0.2C4.4,10.9,5,10.8,6,10.8
		c-4.4-0.7-3.1-3.3-3-4.7C2.1,6.4,1.9,6.5,1.3,6.6z"/>
</g>
</svg>
