<?xml version="1.0" encoding="UTF-8"?><!DOCTYPE svg PUBLIC "-//W3C//DTD SVG 1.1//EN" "http://www.w3.org/Graphics/SVG/1.1/DTD/svg11.dtd"><svg xmlns="http://www.w3.org/2000/svg" style="display:none"><symbol id="icon--arrow-left" viewBox="0 0 10.3 16"><path d="M8.1 4.5c-.1.1 0 .1 0 0zm-.8 10.6c0 .1 0 .1 0 0-.1 0-.3-.3-.4-.4.2.1.3.3.4.4 0 .1-.1 0 0 0zm-.4-.2c-.1 0-.1 0 0 0-.1 0 0 0 0 0zm-2-7s-.1.2-.2.2l.2-.2zM1.6 5.6c.1-.1.7-.9.8-.8-.6.7-1.3 1.4-2 2 .3-.4.8-.8 1.2-1.2.1-.1-.1.1 0 0zm3.6 8.2c.1.1.4.3.3.5 0 0-.3-.4-.3-.5.1.1 0 0 0 0zm-.2-6c0-.1 0-.1 0 0 .1-.1 0 .1 0 0-.1 0 0-.1 0 0zm.9 6.7c.1.1.1.1.2 0h-.2c0-.1 0 0 0 0l-.1.1h.1v-.1zm0 .2c0 .1.1.2.2.2.2-.2-.1-.2-.2-.2zm0-.3s0-.1 0 0c-.1 0 0 0 0 0zm0 0zm1.2.8l.3.3c-.1 0-.4-.4-.5-.5.1 0 .2.1.2.2 0 0 0-.1 0 0zm-2.5-2.1c.1 0 .3.2.3.3-.2.1-.3-.3-.3-.3zm2 2.3c.2 0 .1.2 0 0 0 .1 0 0 0 0zM5 7.5c0 .1 0 .1 0 0-.1 0 .1 0 0 0zm1.1 6.6c.1.1.3.2.4.4-.2-.1-.4-.2-.4-.4.1.1 0 .1 0 0zM5 13.5v.1c0 .1-.1-.1 0-.1-.1-.1 0 0 0 0 0 .1-.1 0 0 0zm.3-6.2c0 .1-.1.1-.2.1 0-.1.2-.1.2-.1-.1.1 0 0 0 0zm0 0zm-1.1 5.4c.4.1-.1 0 0 0zm.8 1s0-.1 0 0z"/><path d="M5.2 13.8c.1.1-.2-.2-.2-.1.1-.1.2-.1.2.1 0 0 0-.1 0 0zM4.6 8c.1 0-.1.1 0 0-.1.1-.1 0 0 0 0 0-.1 0 0 0zm1.2 1.6c-.1 0-.2-.1-.2-.2.1 0 .2.1.2.2 0 0 0-.1 0 0zm2.3 6.3c0 .1-.2.2-.3.1.1 0 .2-.2.3-.1 0 0 0-.1 0 0zm-.5-.2l-.2-.2c.1 0 .1.1.2.2 0 0-.1-.1 0 0zM4.8 7.8c0 .1-.1.1 0 0-.1 0 0 0 0 0zm4.7 6.1l.1.1s-.1 0-.1-.1zm-1.2-2s-.2 0-.1-.1c0 0 0 .1.1.1zm-.2-.1zM.4 6.9c0 .1-.3.3-.4.4.2-.2.3-.4.4-.4zM7 15.8c0-.1 0-.1.1-.1 0 0-.1 0-.1.1zm1.9-3.5c0-.1 0-.1.1.1 0-.1 0-.1-.1-.1 0 0 .1 0 0 0zM4.8 7.7c.1.1 0 .1 0 0 0 .1 0 .1 0 0 0 .1 0 .1 0 0zm4.1 4.9s.1.2.1.1c0 0 0-.2-.1-.1 0 0 .1 0 0 0zm-2.4 1.7s.1 0 .1.1l-.1-.1zM2.6 4.7l-.1.1c0-.1.1-.1.1-.1zM6 14c-.1 0-.1-.1-.1-.1s0 .1.1.1c-.1 0-.1 0 0 0zm.6.7c-.1 0-.1-.1-.1-.1s.1 0 .1.1zm-.7-.7c.1 0 0 .1 0 .2 0 0 .1-.1 0-.2zm0-4.8c-.1 0-.1 0-.1-.1l.1.1c-.1-.1-.1-.1 0 0zM2.8 4.4c0 .1 0 .1-.1.1l.1-.1c-.1.1-.1.1 0 0zM9 3.1c0-.1.1.1 0 0 0 .1 0 .1 0 0zm-2.5 7.1l-.1-.1.1.1zm1.2 5.6s-.1 0 0 0zm-1-1l-.1-.1c.1 0 .1.1.1.1zM4.6 7.9c.1.1-.1.1 0 0zm1.8 6.2c.1 0 .1.1.1.1s-.1 0-.1-.1zM5 7.5zm0 0c.1 0 .1 0 0 0zM2.6 4.6zm0 .1zm2.8 4c-.1 0-.1 0 0 0-.1 0 0 0 0 0zm.2.6c0 .1-.1 0 0 0 0 .1 0 0 0 0zm.4.4s-.1 0 0 0zm0 .1c.1 0 .1 0 0 0zm3.2 2.8c0 .1 0 0 0 0zM7.3 11c.1 0 .1 0 0 0zM5.7 9zm-.2.3s0-.1 0 0c0-.1 0 0 0 0zm0 0zm-3.8.1c-.1 0-.1 0 0 0zm7.7 5.4c0 .1-.1.1 0 0-.1 0-.1 0 0 0zM5.2 9c-.1-.1.1.1 0 0zm3.9 4.2c.1 0 0 0 0 0zm-2.3-2.7c.1 0 .1 0 0 0zm-3.7.2c-.1 0-.1 0 0 0-.1 0-.1 0 0 0zm5.7 1.4zm-.7-.4c0 .1 0 .1 0 0 0 .1 0 .1 0 0zm-3.7 1.1s-.1 0 0 0c-.1 0-.1 0 0 0zM1.6 9.3c-.1 0-.1 0 0 0zm4.7.7zM4.6 8zm2.1 6.5zm.3-3.8zm-1 3.4s.1 0 0 0zm2.8-2zm0 0c0 .1 0 0 0 0zm0 .2c-.1 0-.1 0 0 0-.1 0-.1 0 0 0-.1 0-.1 0 0 0zm-2 2.3zm2.3-2.1s.1 0 0 0zm-2.4-2.1c.1 0 .1 0 0 0 .1 0 0 0 0 0zM4.8 7.7c.1 0 .1 0 0 0zM1.5 9.3c.1 0 0 .1 0 0zm6.8 2.3zm0 0zm0 0c0-.1 0-.1 0 0zm-.3.1zm.1-7.2c-.1 0 0 0 0 0zM6.4 6zm1.4 5.3zM9.2 2.7c-.1.2 0-.1 0 0zM9.3.5c-.1-.1-.1-.1 0 0-.1-.1-.1 0 0 0zm0 0z"/><path d="M10 1.3c-.1-.1-.2-.3-.3-.5 0 0-.3-.2-.4-.3 0 0-.2 0-.2-.1h.2c0-.1-.2-.2-.3-.3-.2-.1-.4-.1-.6-.1-.2 0-.2 0-.4.1s-.4.2-.5.3C6.7.9 6 1.4 5.4 2 4.1 3.2 2.8 4.6 1.6 5.9l.6-.5c.1-.1.2-.3.3-.4.1 0 .1-.1.2-.1.3-.4.7-.9 1.2-1.2 0 .1-.1.1-.1.1.2-.1.5-.4.7-.6.1-.2.5-.7.7-.7 0 .1-.3.4-.4.4-.2.3-.5.5-.7.7-.3.4-.7.9-1 1.2-.8.8-1.7 1.8-2.5 2.7-.2.2-.6.5-.6.7 0 .2.7.6.9.8.6.5 1.2 1.1 1.8 1.7l2 2c.1 0 0-.1 0-.1v.1c.2 0-.2-.3-.2-.3l-.6-.6c-.2-.2-.5-.4-.7-.6l-.6-.6c-.4-.3-.7-.7-1.1-1.1-.4-.4-.8-.8-1.2-1.1-.3-.2-.3-.2 0-.5l.5-.5c.7-.7 1.3-1.4 2-2.1-.2.4-.7.8-1 1.2-.5.5-1 1.1-1.6 1.6.3.2.6.7.9.8 0-.1-.5-.5-.6-.6-.2-.2-.2-.1 0-.3.1-.2.4-.5.5-.5 0 0-.5.6-.6.7 1 .9 2 1.9 3 2.8.4.4.8.7 1.1 1.1.2.2.3.4.5.6.2.2.4.4.5.6 0 .1-.6-.6-.6-.5-.1.1.4.5.4.5.1.1.2.2.2.4-.2-.1-.6-.9-.8-.9 0 .1.9 1.2.9 1.2.1-.1-.1-.2 0-.3 0-.1.1.1.1-.1.1 0 .5.6.6.6-.1 0-.1-.1-.1-.1.1-.1.1.2.1.2.1 0-.5-.6-.4-.7.2.1.5.5.6.7.3.3.5.7.8 1 .2.2.3.4.6.4h.2c.2 0 .1.1.2-.1l.1.1c.1 0 .1.2.2.1-.1-.2-.2-.2-.3-.4l.1.1-.1-.3c0 .1.5.4.5.4.2-.4-.2-.2-.2-.5.2 0 0-.2.1-.1s.3.2.3.3c.1 0-.1-.2-.1-.2s.1.1.1 0h.1c-.1 0-.1-.1 0-.1 0-.1 0-.3.1-.3-.1-.1-.1 0-.1-.2l.2.1c-.1-.1-.2-.1-.1-.2-.1-.1 0-.2 0-.3 0-.1-.1-.1-.1-.2 0 0-.2-.2-.2-.3 0 0-.1-.2 0-.2s.1 0 .1.1c0 0-.1-.4-.1-.5v.1l-.4-.4c.1-.1-.1-.1-.1-.2 0 0-.2-.1-.1-.1l-.3-.3c0-.1-.1-.3-.2-.3v.1c-.1 0-.2-.1-.3-.3 0 0-.1 0 0 0-.1-.1-.1-.2-.2-.2 0-.4 0-.4-.1-.5-.2-.1-.3-.3-.5-.5-.3-.3-.6-.6-1-.9-.1 0-.2-.1-.2-.2 0 0-.3-.3-.1-.2-.1-.1-.4-.2-.5-.4H5c-.2-.1-.2-.1-.3-.1 0 0-.3-.4-.4-.5.3-.3.7-.7 1-1.1l.6-.6c-.1.2-.1.3-.2.4-.1.1-.4.4-.4.5.7-.4 1-1.2 1.5-1.7-.1.1-.2.2-.3.4.2-.2.3-.4.5-.5-.1 0-.1.1-.2.1 0-.1.5-.5.7-.6.2-.2.4-.3.6-.4.2-.2.4-.5.6-.7.1-.1.1-.5.2-.6l.2-.3c-.2 0 0-.3.1-.3 0-.1 0-.1.1-.2-.1 0-.1-.1-.1-.2.3 0 .4-.3.7-.2-.2-.1.1.1.2-.1s0-.3.2-.3c-.1-.1-.2-.2-.3-.4zm-7.1 4c0-.1 0-.1.1-.1l-.1.1zm6.3 8.9c.1.1 0 0 0 0zm0 .5c-.1 0-.1 0 0 0 0-.1 0-.1 0 0zm-.1-.5s-.1 0 0 0c0-.1 0-.1 0 0zM9 12.9c-.1.1-.1.1 0 0zm-.8-.7c-.1 0-.1 0-.1-.1.1 0 .1 0 .1.1zm-.2 3h-.1.1zm-.1-3.4c.1.1.1-.1 0 0 .1.1 0 0 0 0zm0-.1c-.1.1-.1 0 0 0-.1 0-.1 0 0 0zm-.1 3.6s-.1 0 0 0c0-.1 0-.1 0 0zm-.1-3.8c-.1 0-.1 0 0 0-.1 0 0 0 0 0zm-.1-.2s-.1 0-.1-.1l.1.1zM4.7 8.8c.5.2.8.7 1.2 1 .6.5 1.2 1.1 1.7 1.6-.2 0-.7-.6-.8-.8-.4-.4-.9-.8-1.3-1.2-.3-.2-.6-.5-.8-.6 0-.1 0-.1 0 0zM6.2 6c-.1.1-.1.2-.2.4.1-.2.1-.4.2-.5.1-.2.4-.3.5-.5.2-.1.4-.5.7-.5-.3.4-.8.7-1.2 1.1zM9.4.4h-.1.1zM6.9 14.7zm-.7-.8z"/></symbol><symbol id="icon--arrow-right" viewBox="0 0 10.5 16"><path d="M5.5 7.9l.2.2s-.1-.2-.2-.2zm3.4-2.2c-.1-.1-.7-.9-.8-.9.6.7 1.3 1.4 2 2-.4-.4-.8-.8-1.2-1.1-.1-.2.1.1 0 0zm-4.4 8.9s-.5 0-.3.1.3-.1.3-.1zm.7-.7c-.1.1-.3.3-.2.5 0 0 .3-.5.2-.5 0 0 .1 0 0 0zm.3-6.1s-.1-.1 0 0c-.1 0 0 .1 0 0 0 .1 0 0 0 0zm-1.3 6.6c.1.1.4.1.4-.1-.1.1-.3.1-.4.1 0 .1.1 0 0 0zm-1 .7l-.3.3c.1 0 .4-.4.5-.5-.1 0-.1.1-.2.2 0 0 .1-.1 0 0zm2.7-2c-.1 0-.3.2-.3.3.1.2.2-.2.3-.3zM3.1 15c.1-.1.2-.2.3-.4-.1.1-.4.4-.4.6 0-.1.1-.1.1-.2 0 0 0 .1 0 0zm.6.3c-.2 0-.1.2 0 0 .1.1 0 .1 0 0 0 0 0 .1 0 0zm1.7-7.7c.1 0 0 .1 0 0 .1 0 0 0 0 0zM4.2 14c-.1.1-.3.2-.4.4.2 0 .4-.2.4-.4-.1.2 0 .1 0 0zm1.3-.4c-.1 0-.1.1-.1.1.1 0 .2-.2.1-.1 0-.1 0-.1 0 0zm-.3-6.3c0 .1.1.1.2.1 0 0-.3-.1-.2-.1 0 .1 0 0 0 0zm0 0zm1.1 5.4c-.4.2.1.1 0 0-.1 0 0 0 0 0zm-.9 1zm-.1.1c-.1.1.2-.1.2-.1-.2 0-.2 0-.2.1zm.6-5.7c-.1 0 .1 0 0 0 .1 0 0 0 0 0zM4.6 9.6c.1 0 .2-.1.2-.2l-.2.2c.1 0 .1-.1 0 0zm-2.3 6.3s0 .1 0 0c.1.1.1 0 .2 0h-.2s.1 0 0 0zm.4-.3l.2-.2c0 .1-.1.1-.2.2 0 0 .1-.1 0 0zm3-7.7c0-.1 0 0 0 0zM.8 14.2l-.1.1s.1 0 .1-.1c-.1 0 0 0 0 0zM2.2 12s.2 0 .1-.1c0 0-.1 0-.1.1zm.1-.2c0 .1 0 .1 0 0 0 .1 0 .1 0 0zm7.8-4.9l.2.2c-.2-.1-.2-.1-.2-.2zm-6.7 8.8l-.1-.1s0 .1.1.1zm-1.9-3.4c0-.1 0-.1-.1.1 0 0 .1 0 .1-.1 0 0 0 .1 0 0zm4.1-4.5s.1 0 0 0c.1 0 .1 0 0 0 0 0 .1 0 0 0zM1.1 13l.1-.1c-.1 0-.1.1-.1.1.1 0 0 0 0 0zm2.7 1.2s-.1 0-.1.1l.1-.1zm4.1-9.5l.1.1-.1-.1zm-3.5 9.2c.1 0 .1-.1.1-.1-.1 0-.1.1-.1.1zm-.7.7c.1 0 .1-.1.1-.1s-.1 0-.1.1zm.8-.5h-.2.2zm.1-4.9c.1 0 .1 0 .1-.1l-.1.1zm3.1-4.7c0 .1 0 .1.1.1 0-.1-.1-.1-.1-.1zM.6 3.9c0-.1-.1 0 0 0zM4 10.2l.1-.1c-.1 0-.1.1-.1.1zm-1.4 5.5s.1 0 0 0zm1-1l.1-.1c-.1 0-.1.1-.1.1zM5.8 8c-.1 0 .1 0 0 0 0 0 .1 0 0 0zm-1.9 6c-.1 0-.1.1-.1.1.1 0 .1 0 .1-.1zm1.5-6.5zm0 0c0 .1 0 0 0 0zm2.4-2.9c0 .1.1.1 0 0 .1 0 .1 0 0 0zm.1.1zM5.1 8.8c0-.1 0-.1 0 0 0 0 0-.1 0 0zm-.3.6c.1 0 .1 0 0 0 .1-.1.1 0 0 0 .1 0 .1 0 0 0zm-.3.4c0-.1 0-.1 0 0 0 0 0-.1 0 0zm-.1 0zm-3.3 3s-.1 0 0 0c0 .1 0 0 0 0zm1.7-1.4z"/><path d="M9.8 7.4l-.5-.5c-.6-.7-1.3-1.4-1.9-2-.4-.5-.8-.9-1.2-1.4l-.6-.6c-.1-.1-.4-.3-.4-.4.2 0 .6.5.8.7.1.1.5.6.7.6 0-.1-.1-.1-.1-.1.3.2.5.5.8.8.2.2.3.3.5.4.1.1.2.3.3.4l.6.6C7.7 4.5 6.4 3.2 5 2 4.4 1.4 3.7.9 3 .4 2.8.3 2.6.1 2.4 0H2c-.2 0-.4 0-.5.1-.1 0-.4.2-.4.3 0 0 .2 0 .2.1S.9.5.9.5C.9.7.7.7.6.7L.3 1c-.1.3.1.5-.2.7.3 0 .2.1.1.3 0 .1-.2.8-.2.8.1.1.1-.1.2-.1h.3c.1 0 .2-.1.3-.1.2.1 0 .1 0 .2.1.1.2.2 0 .3.1.2.1.4 0 .5-.1.1-.2.2-.1.3 0 0 .4.1.4.2.2.1.4.2.5.3.4.2.8.4 1.1.6l.6.6c.2.2.4.6.6.6-.1-.1-.3-.2-.4-.4.2-.1 1.5 1.4 1.7 1.5.1-.1-1-1-1.1-1.1-.4-.4-.8-.7-1.2-1.1.3 0 .8.6 1 .8.3.2.5.5.8.7l1 1c.1.1.2.3.3.4.1.1.2.2.1.3-.1.1-.5.3-.4.4-.1 0 0-.1-.2.1h.1c-.1 0-.1 0-.2.1s0 .1-.1.2-.1-.1-.2.1c.2-.1 0 .1-.1.2l-.2.2c-.3.3-.6.6-1 .9-.2.2-.5.4-.7.6 0 0 .1 0 .1-.1-.1 0-.1 0-.1.1-.1 0-.1.2-.2.3-.1.2-.2.3-.3.3v-.1c-.1.1-.2.3-.3.4 0 0-.2.1-.1.1 0 0-.3.2-.2.3-.2 0-.4.3-.5.5-.2.1-.6.6-.5.7 0 0 .1-.2.1-.1v.1c-.1.1-.1.1-.1.2s.1.1 0 .1c0 .1-.1.1-.1.1 0 .1.1.2 0 .3.1.1 0 .1-.1.2l.2-.1-.1.2c.1 0 0 .2 0 .3 0 .3 0 .1.2.2 0 0-.2.2-.1.2.1-.1.3-.2.4-.3.1-.1.2-.3.4-.3 0 .4-.7.9-.6 1.2.2.1.5-.7.7-.6 0 .3-.4.5-.5.8.1.1.6-.6.7-.6 0 .2 0 .1.2.2h.2c.2-.1.4-.4.6-.6.3-.3.5-.6.8-1 .2-.2.4-.6.6-.7.1.1-.1.2-.1.3.1.1.2 0 .3 0 0 .1 0 .1-.1.1.1 0 .2-.1.3-.2 0 .2.1 0 .1.1s-.1.2 0 .3c.1 0 .9-1 .9-1.2 0 0-.3.3-.4.3-.2.2-.3.4-.5.6.1-.2.1-.3.3-.4 0 0 .4-.4.4-.5-.1 0-.6.6-.6.5.1-.2.3-.5.5-.7.1-.2.3-.4.4-.5.2-.4.6-.8 1-1.1 1-.9 2-1.8 3-2.8 0 0-.6-.6-.6-.7.3.1.6.5.7.7-.1.1-.8.7-.8.8.4-.2.6-.5.9-.8-.5-.6-1-1.1-1.6-1.6-.1-.3-.3-.5-.5-.7-.2-.2-.4-.4-.5-.6.4.3.7.8 1.1 1.1.6.6 1.1 1.2 1.7 1.8-.9.9-2 1.8-2.9 2.7l-.8.8-.6.6c-.1.1-.5.4-.3.4.1.1.6-.5.7-.7l.5-.5c.8-.8 1.7-1.6 2.5-2.4.1-.1.3-.3.5-.4.1-.1.5-.4.5-.5 0-.2-.5-.6-.7-.8zM1.1 2.1c0-.1-.1 0 0 0 0-.1.1 0 0 0zm2.4 3.7s-.1 0-.1-.1c0 0 .1 0 .1.1zM2.2 2.2c.1 0 .2.1.3.1-.1.1-.2 0-.3-.1.1.1.1.1 0 0zM1.8 2c.2.2-.4-.1-.4-.2.2.1 0-.1 0-.2.1 0 .2.1.3.2.1-.1-.2-.1-.2-.2 0-.2.4.1.4.1.1.1.9.5.8.7-.1.1-.8-.5-.9-.4zm-.7 12.6c-.1 0 0 0 0 0zm0 .4c0-.1 0-.1 0 0 .1 0 .1 0 0 0zm.2-1.7c-.1.1 0 .1-.1.1-.1-.1 0-.2.1-.1zm.6-.9c0-.1 0-.1 0 0zm.4-.2c-.1 0 0-.1 0-.1v.1zm.1-.1c-.1.1-.1 0 0 0zm.1-.2s0-.1 0 0c0 0 0 .1 0 0-.1.1 0 0 0 0zm-.1 3.4l.1-.2c.1.1 0 .2-.1.2zm.2-3.5s0-.1 0 0c.1 0 0 0 0 0zm.2-.2zm.1-.3c0-.1.1-.1 0 0 .1 0 0 .1 0 0zm2.8-2.5c-.2.3-.5.5-.7.7-.4.4-.8.7-1.2 1.1-.2.2-.4.3-.5.5-.1.1-.3.4-.4.4.6-.6 1.2-1.2 1.9-1.8.2-.2.4-.5.7-.7l.2-.2zm.1 0c0-.1 0-.1 0 0 0-.1 0-.1 0 0zm.1-.1s0-.1 0 0zm1.5-3.5c.1 0 .1 0 .1.1 0 0 0-.1-.1-.1zm-1.7 7.5z"/><path d="M4.8 9c-.1.1-.1.1 0 0 0 .1 0 .1 0 0zm.1.3c.1 0 .1 0 0 0 .1 0 0 .1 0 0zm0 0zm3.8.2c.1-.1.1-.1 0 0 .1-.1 0-.1 0 0zM.9 15.2c0-.1 0-.1 0 0zm.1-1.6c-.1 0 0 0 0 0zm2.5 1.2zm.1-4.3c0 .1 0 .1 0 0 0 .1 0 .1 0 0zm3.8.3c.1-.1.1-.1 0 0 .1-.1 0-.1 0 0zm-5.7 1.3c-.1 0-.1 0 0 0-.1.1 0 0 0 0zm.7-.3c-.1 0-.1 0 0 0-.1 0 0 0 0 0zm3.7 1.1zm2.8-3.6s.1 0 0 0zm1.5-1.7s0-.1 0 0c0 0 .1 0 0 0zM4.2 10c-.1 0-.1 0 0 0 0 .1 0 .1 0 0zm1.7-2s-.1 0 0 0zm-2.3 6.4zm-.2-3.7zm.9 3.3zm-2.7-1.8zm0 0zm.1.2s0-.1 0 0c0-.1 0-.1 0 0 0 0 0-.1 0 0zm-.4.1c0 .1 0 0 0 0zm2.4-2zm1.9-2.7zM9 9.4c-.1 0 0 0 0 0zm-6.9 2.2zm0 0zm0 0c.1 0 .1 0 0 0 .1 0 .1 0 0 0zm.3.1zm0 .1s0-.1 0 0c0-.1 0-.1 0 0zM4 6.3c-.1-.1-.1 0 0 0zm-1.4 5zM5 8.8s0 .1 0 0zM1.6 1.9h-.2c.1 0 .2.1.3.1 0-.1 0-.1-.1-.1 0-.1.1 0 0 0zm.1.1c.1 0 .1 0 0 0z"/></symbol><symbol id="icon--facebook" viewBox="0 0 15.74 16"><path d="M3 1.54l-.02-.06c-.15.12-.15.12-.16.23l.16-.1v-.06zM5.5.63C5.4.6 5.4.6 5.36.66c.05.02.1.02.12-.03zM5.27.55c-.1-.03-.17 0-.25 0 0 0 0 .04-.03.08.1-.02.2 0 .27-.08zM4.34.48c.03 0 .05 0 .06-.04V.4h-.03c-.03 0-.06.02-.06.06l.04.02zM.1 5.88c.04-.06.04-.06.04-.14-.05-.02-.07.03-.08.06 0 .03-.02.07.03.08zm.17-1.13c0-.04.02-.08.03-.1V4.6c0-.02 0-.05-.03-.06-.13.03-.13.04-.14.2.04.04.1.03.14 0zm2.57-2.68c.12-.05.12-.05.1-.12-.07 0-.07 0-.1.12zM1 4.86c.07 0 .07 0 .04-.07-.05 0-.06.02-.04.06zm.1-.94c-.1-.07-.1-.07-.15.04.06 0 .12.02.15-.04zm.3-1.02c0-.02.02-.04 0-.06 0-.02-.02-.02-.03 0l-.02.04s.02.02.04 0zM.26 5.6c.13-.04.15-.12.06-.18-.07.04-.1.1-.06.2z"/><ellipse cx=".94" cy="4.59" transform="rotate(-45.9 .94 4.588)" rx=".03" ry=".03"/><path d="M.68 4.04h.08C.78 4 .8 4 .8 3.96c0-.03-.03-.04-.05-.05-.02 0-.04 0-.06.02-.03 0-.05.02-.06.03 0 .04 0 .06.04.07zM.96 3c-.06-.03-.1 0-.13.05.08.07.1.07.13-.06zm14.08 2.7c0 .02.02.03.04.02.03-.03.02-.07.02-.1l-.02-.22v-.05c-.02-.03-.04-.04-.06 0 0 .05 0 .12-.02.18.03.05.04.1.04.17zm-.21-.8c.02-.06.02-.06-.06-.1 0 .07 0 .1.06.1zm.37-.1c.03 0 .03-.03.02-.05l-.16-.33c0-.02-.04-.05-.07-.03-.02.16.07.32.2.4zm.33.7c0-.06 0-.1-.06-.1 0 .05 0 .08.06.1zm-1.35-2.13c.02-.08-.03-.1-.1-.14 0 .1 0 .1.1.14zM7.84.06C7.84 0 7.82 0 7.8 0c-.06 0-.12 0-.17.06.08.02.14.03.2 0zM5.93.3C5.95.23 6 .2 6 .12 6 .08 5.94.07 5.9.1c-.08.13-.2.2-.32.25-.02 0-.03.03 0 .08.12-.03.22-.1.35-.14zM.64 5.4c0-.03-.07-.03-.08-.08 0-.04.02-.08.05-.1.1-.02.13.1.23.04-.05-.06-.1-.1-.1-.2l-.17-.08c0 .16-.05.28-.12.4.1.1.1.1.2.05zm13.98-.95c-.04-.05-.06-.12-.13-.15 0 .06.05.15.13.23v-.08zm-.02 7.37c-.07.03-.1.07-.14.13.1 0 .13-.04.13-.13zm-6.66 4.05c.06 0 .12.02.17-.02a.825.825 0 0 0-.28-.04c.02.07.07.07.12.07z"/><ellipse cx="6.91" cy="15.38" transform="rotate(-45.098 6.908 15.382)" rx=".02" ry=".03"/><path d="M12.54 14.06c.1.02.1.02.1-.05-.06 0-.06 0-.1.06zm1.96-1.76c-.03.03-.06.06-.04.1l.16-.1c.02-.02.03-.04 0-.08-.05 0-.1.04-.13.1zM2.06 3.2l.02-.1c.03 0 .04-.02.04-.04-.03-.02-.04 0-.05.02v.03c-.03.04-.1.06-.1.12.06.02.08 0 .1-.02zm5.08 12.52c.07.02.14.02.2-.04a.268.268 0 0 0-.22-.07c-.03.05 0 .08.02.12z"/><path d="M15.68 8.28s-.02 0-.03-.02c-.04 0-.08 0-.1.04-.04.1-.13.18-.2.27.04-.12 0-.25.07-.36v-.04c0-.08 0-.16.02-.24 0-.03 0-.06-.03-.07-.04-.02-.06.07-.12.02V7.8c.04-.08.03-.17.04-.26 0-.1 0-.2.1-.3-.07-.1-.08-.24-.06-.37 0-.03 0-.07-.02-.1 0-.02.03-.05.05-.07-.05-.07-.06-.14-.05-.2l-.06-.07v-.1c0-.02-.02-.05-.06-.08v-.02l-.08-.07c-.02-.12-.1-.15-.12-.26-.02-.13-.05-.25-.16-.33 0-.06-.02-.1-.03-.17 0-.1-.03-.18-.08-.26l-.1-.2c.04.08.1.15.18.2.02 0 .02-.02.02-.04-.03-.1-.1-.15-.2-.16v-.02l-.04-.12.12.1c0-.15-.02-.26-.12-.35 0 .02-.02.04-.04.05-.05 0-.07-.07-.12-.07 0-.08-.06-.14-.1-.2-.03-.08-.06-.16-.07-.25.03-.02.06 0 .07-.03-.04-.1-.16-.15-.24-.25.02-.1-.1-.15-.12-.23.02 0 .04.03.07.03-.02-.04-.03-.08-.06-.1v-.04l-.04-.04-.13-.16c-.04 0-.04.04-.03.05 0 .04.03.07.06.1h-.02l-.13-.17c.02-.04.06-.05.06-.1-.12-.16-.16-.18-.27-.14v.03l-.08-.14a.36.36 0 0 0-.15-.15c-.03-.02-.07-.03-.08-.06 0-.04.04-.03.04-.08-.15-.04-.24-.15-.32-.27a.99.99 0 0 0-.27-.27c-.18-.12-.37-.24-.53-.4l-.1-.07c0-.04 0-.06-.02-.07 0-.06.05-.1.04-.16-.06-.24-.2-.36-.45-.4-.18-.02-.36 0-.53-.04H11c-.16.07-.3.02-.47 0h-.07c-.1-.1-.23-.1-.36-.1L10.03.8 10 .67C9.92.64 9.83.6 9.8.52c-.1-.02-.15 0-.2-.04-.03-.14-.03-.15-.16-.14-.08 0-.15 0-.2-.05-.07.05-.14.1-.22.08-.14-.02-.28 0-.43.02C8.5.33 8.4.28 8.27.32c-.03 0-.06-.03-.1-.03-.1.05-.22.06-.34.06-.1 0-.2 0-.3.06-.03.02-.06.03-.1 0 .02-.03.07-.03.06-.08C7.47.3 7.43.3 7.4.3c-.12 0-.25-.02-.36.04-.02.05.04.07.03.1-.05.05-.12.07-.18.1C6.72.47 6.72.47 6.6.6c-.07 0-.14.03-.2.07L6.36.65c-.1-.06-.2-.06-.32 0l-.2.06H5.8c-.07 0-.12.04-.18.02H5.6c-.02.06.04.08 0 .1-.04 0-.05-.04-.1-.06-.07.03-.13 0-.18-.06-.07 0-.14 0-.22.02-.02 0-.02.04-.06.05-.08-.03-.16 0-.24.03-.1.02-.17.06-.2.16-.04 0-.07.02-.1.04V.98c-.03 0-.05 0-.06.03l.02.02-.1.05c-.23.08-.44.2-.62.34 0 .02-.02.03-.02.03-.02.03 0 .06 0 .1-.08 0-.08.07-.13.08-.08.02-.12.06-.16.12l-.03.04c-.03 0-.05-.04-.1-.04-.03 0-.06.03-.1.06 0 .08-.07.14-.13.2-.08.1-.18.15-.26.23v.03h-.03c-.02 0-.03.03-.04.04l-.08.05c-.03 0-.06.02-.08.05-.06.1-.14.13-.24.15-.1.02-.15.1-.15.2v.03c-.03 0-.07 0-.1.02v-.03c-.06-.02-.1-.02-.12.02 0 .03 0 .06.04.07.02 0 .04 0 .05-.03-.02.07-.1.13-.12.22.03 0 .05-.02.06-.03.03-.05.07-.1.1-.12h.04c.05 0 .03.06.07.05.1-.03 0-.1.04-.13.02.02.03.05.06.05.05 0 .05-.08.1-.06-.06.07-.12.17-.16.27-.04.04-.1.04-.13.1v.17c-.06.04-.1.1-.17.14-.06-.03-.1-.1-.2 0 .03.1-.06.18-.1.28-.03 0-.05.02-.07.03-.04.03-.02.1-.08.13l-.1.03c-.06.06-.1.12-.14.18 0 0-.03.04-.02.06.02.1-.05.17-.05.26l.07.1-.03.06c0 .06-.03.13-.06.2-.05.07-.08.17-.1.26a.048.048 0 0 0-.07 0s-.02.02 0 .03c0 .03.03.03.04.03-.02.1-.08.18-.1.28-.04.17-.14.32-.2.48v.04l-.05.03c-.02 0-.06-.02-.1 0-.04.13-.08.25-.04.38 0 .02 0 .04-.02.05-.05.08-.07.16-.05.25.02.1.04.18.04.28V7c0 .07 0 .14-.02.2v.04c-.14-.06-.22-.07-.3-.06-.03.1.08.13.1.2 0 .06 0 .12-.02.18-.03 0-.06.03-.1.05.02.12.02.22-.05.3 0 .06.02.1.03.14 0 .04 0 .08.03.12 0 .06 0 .1-.06.14-.04 0-.08-.04-.12 0-.03.02-.04.06 0 .1h.1c.06.07.07.14.06.22 0 .08.03.15.1.2.02 0 .07 0 .07.06-.03.1-.06.2-.12.3l-.04.08-.04.37c.05.06.1.1.13.16.05 0 .08-.04.1-.03.1.08.08.2.14.3.05.03.1 0 .15.06 0 .05.06.1.05.17-.06-.05-.1-.1-.16-.13H.53c-.03.03-.04.06-.04.1.04.06.1.13.12.2.02.1.1.18.13.27.06.02.1 0 .1-.04l-.07-.22c.02-.04.05-.03.05-.06s-.04-.05-.02-.08c.03-.02.05-.02.08 0 .07.08.12.18.16.3.03.07.06.14.12.2 0 .03 0 .06.03.08.04.03.06.08.08.12 0 0 0 .02-.02.03l-.03.03c-.07.02-.1-.04-.17-.04-.04 0-.07.02-.1.06.04.08.1.16.12.24.05.02.07 0 .1-.03 0-.08.04-.16.13-.2 0 .02 0 .03.02.04.04.06.07.12.13.16.08.06.1.13.14.22.07 0 .1.07.13.13h-.07c-.05-.05-.05-.1-.12-.13-.04.02-.1.03-.14.03 0-.03-.03-.07-.07-.07-.05 0-.04-.06-.1-.06l-.1.05c-.02.1.03.2.03.28 0 .07.07.1.15.1.05 0 .1 0 .12-.03.04.05.1.1.1.14.02.03-.02.07.05.1 0 .02.04-.04.08 0 .1.14.2.32.38.4.08.05.1.12.14.2-.1-.02-.1-.02-.12-.06-.05-.1-.15-.12-.26-.15.03.1.1.17.15.24.06.06.13.08.2.05.03-.02.05-.04.07-.02 0 .14.06.25.16.3.17.06.26.2.35.33 0 .1-.03.18.02.26h.1c.1 0 .18.05.24.14 0 .04.06.06.1.1.1.05.14.1.2.23-.18 0-.28-.15-.42-.2 0-.03 0-.04.02-.05l.02-.05c0-.03-.03-.05-.06-.05l-.08.02c-.1-.05-.18-.13-.3-.12-.03.04 0 .08 0 .1.14.18.28.33.5.4.03 0 .06.02.08.03.04.03.1.05.12.08.07.07.15.12.24.18.06-.02.12.02.2 0l-.1-.15c-.02-.04-.1-.06-.14-.1.06-.05.1-.08.15-.06.06.04.04.1.1.14.06 0 .13.03.2.05l.06-.07c.03 0 .07 0 .1.02h.02l.04.08c.05.1.12.16.18.23-.05 0-.1-.02-.15-.04-.1-.02-.14.04-.1.14.1 0 .22.02.34.04l.05.05h-.03l.04.02.05.04c.06.03.1.1.16.13.1.08.2.18.32.23l.07-.02c.25.18.25.18.3.17 0-.04-.06-.06-.03-.1.1 0 .18.07.27.1l.04-.02v.07c.07.06.17.06.24.1.15.1.3.13.48.14 0 .04.02.05.05.05-.02 0-.03-.02-.05-.04.04 0 .05.02.05.05.13.1.32.15.43.14h.03l.18.08c.13.06.27.05.4.08 0 0 .03 0 .03-.04-.05-.02-.1-.04-.1-.13 0-.04.04-.05.08-.06.1-.03.16-.12.26-.16l.1-.08c.03 0 .06.03.1.03l-.08-.04c.03 0 .06 0 .1-.02H8c0 .04 0 .06-.02.08h-.04s.02 0 .03.02l.1.1c.03.08.08.13.14.16h-.1c.03.04.08.05.13.06.02 0 .05 0 .04-.04h.39c.08 0 .15 0 .22-.03.1-.03.2-.06.3 0h.08c.15 0 .3-.04.45-.08l.34-.1c.26-.03.53-.1.8-.15 0 0 .02-.02.02-.05-.07-.03-.13 0-.2 0l-.2.02h-.2c-.05 0-.12.05-.22 0 .08 0 .13 0 .17-.02.03 0 .07 0 .1-.03.06-.05.13-.06.2-.07.04 0 .05-.02.04-.06-.04-.03-.07-.03-.1-.03l.1-.1c.03 0 .05 0 .07-.02 0-.02.02-.04.04-.05h.09c.07 0 .1.06.12.1.08-.03.12-.1.16-.15.05-.08.14-.1.2-.16.1-.02.16-.08.26-.06.07-.08.4-.26.48-.3.1-.02.18-.06.27-.1.04-.02.1-.04.12-.08.05-.07.12-.1.2-.14l.2-.1c.03-.02.04-.03.03-.05-.02-.02-.04-.02-.06 0-.2.07-.4.1-.57.2-.04 0-.08.02-.13 0 .02-.08.1-.12.13-.17 0 .08-.1.07-.1.13 0 .02.03.03.04.03.1-.04.2-.07.25-.15.03-.03.06-.06.1-.07.06-.02.1-.05.14-.1l.28-.2c.04-.04.1-.06.14-.08.05-.02.1-.05.12-.1 0 0 .02-.02 0-.04l.14-.1c.1-.06.15-.14.2-.24.04-.08.1-.16.17-.22l.1-.1c.13-.16.23-.35.4-.5l.06-.1c.1-.2.25-.35.36-.55.06-.12.14-.23.2-.33l.12-.2c.04-.08 0-.18.1-.24 0-.13.05-.25.12-.36 0-.02.02-.06 0-.08-.08 0-.1.05-.12.1-.1.16-.18.33-.26.5-.07.16-.13.32-.25.44l-.23.26-.02-.02v-.02c.1-.2.2-.4.32-.6h-.02s0-.02.02-.02c.07-.08.12-.2.22-.23.02-.04.04-.1.07-.13l.16-.27c.04-.08.1-.16.16-.23.04-.04.06-.1.03-.15-.04-.02-.06 0-.07.02-.07.1-.12.23-.2.32-.03 0-.03.04-.04.06l-.13.2-.03.05.02-.07-.05-.07.1-.06-.05-.1c.05-.1.1-.17.1-.26 0 .02-.03.04-.05.06v-.02c0-.02-.06 0-.04-.06 0-.06.08-.08.1-.15 0-.12.25-.3.35-.38-.03-.1.02-.2.06-.3.08-.17.15-.35.16-.54.04 0 .07-.05.07-.1s0-.1.03-.13c.04.03.03.1.1.12.1-.18.1-.16.02-.42zM.3 7.82c-.02-.03-.02-.05 0-.08.05 0 .07.03.1.06H.37v.03H.3zm.1.23c.02.03.02.06 0 .1 0-.04-.02-.07 0-.1 0-.03-.03-.06-.02-.1.02-.03.04-.04.07-.02.03.05-.02.08-.04.12zm.43-1l-.03.03-.04.04C.7 7.07.68 7 .66 6.92c.06.03.1.05.2.03-.02.03-.03.07-.03.1zm.12-1.1c-.02.06 0 .12-.02.18-.02.2-.06.4-.05.6 0 .05 0 .1-.05.12-.06-.02-.13-.04-.16-.1V6.7c.03 0 .05.03.08.02.07-.12.06-.12.07-.2.02-.18 0-.34.05-.5v-.08c.03-.02.07-.04.1-.1V5.7c.03.02.04.05.05.08l-.07.16zm.07-.4l.06-.12v.02c0 .04-.03.08-.06.1zm.3-1.15l-.05.07c0-.06.02-.12.03-.16h.03v.1zm1.62 8.95L2.6 13c-.02-.02-.05-.04-.07-.08-.06-.1-.15-.2-.23-.28-.03-.05 0-.08 0-.12-.02-.02-.07 0-.1-.02-.07-.08-.16-.13-.22-.22-.05-.08-.1-.15-.17-.22V12c.07 0 .1.1.17.1l.06.03s0 .02.02.03c.04.05.1.1.1.13.08.03.13-.05.18 0 .02.05-.02.08 0 .12.02.02.06 0 .08.05 0 .07.03.14.08.2.02.04.04.06.1.03 0-.08-.08-.14-.1-.22h.03c0-.02 0-.03-.02-.04.02-.04.05-.04.1-.04l.08.05c.05.03.1.06.1.13v.03c-.03.02-.06 0-.07.05.02.06.07.05.12.05v.04l.03.04.04.06c0 .06.03.1.06.16l.17.32.02.05c0 .07.04.13.08.2l.02.03c-.1-.07-.22-.15-.3-.25zM4.2 2.17c-.02.04-.08.06-.16.07 0 0 0-.02.02-.03.02 0 .04-.03.06-.05.02 0 .03 0 .03-.02V2.1l.1-.06c.02.07 0 .1-.04.13zm.17-.56c0-.03.02-.07.06-.08l-.06.1zm.9-.5c.06-.02.12-.05.2-.06-.02.03-.05.04-.08.03-.08 0-.13.04-.2.07.02-.02.03-.04.06-.05zM4.5 14.02l-.04-.05c.03 0 .06 0 .08.02 0 0 .02.03 0 .04-.02.02-.03 0-.04 0zm.28-12.7l-.03-.03v.04l-.13.07c-.05.04-.1.07-.16.08.02-.02.04-.05.07-.06.02 0 .02-.04.02-.06l.07-.03s.02 0 .03.02l.02-.02v-.1s.03-.03.06-.03.05 0 .06.04c0 .03-.03.03-.05.04 0 .02.03.03.05.03 0 0 0 .02-.02.02zm.44 12.94c-.07 0-.14-.04-.22-.02l-.02.03h-.02c-.02-.05 0-.1 0-.13.04 0 .06-.02.1-.03h.02c.06.04.1.08.17.1.02.04 0 .05-.03.05zm2.48 1.3c-.03.04-.08.04-.12.07-.1.08-.23.1-.34.16-.07-.02-.14-.04-.2-.04-.1 0-.16-.03-.22-.05l-.55-.2-.2-.1c-.1-.1-.2-.16-.3-.2l-.08-.05h.02c.07.03.15.05.22.1.2.1.4.18.62.24.02 0 0-.06 0-.14l-.12-.07h.1c0-.02 0-.04-.02-.07l.13.02-.1.05v.07c.03 0 .04 0 .06.02.04-.02.07-.04.08-.06.03-.03.03-.06 0-.08h.28s.02 0 0 .02h-.04v.05l.27.07c0-.05-.06-.05-.08-.08l.05-.1c.04 0 .08 0 .12.03 0 .06-.07.08-.04.14.02.02.05.02.08.02.06 0 .13 0 .2.03 0 .02.03.04.05.05.03.03.07.04.1 0h.08l-.06.07zM10.6 4.6H9.58c-.8 0-.97.4-.97.95v1.23h1.9L10.3 8.7H8.62v4.97h-2V8.72H4.96V6.8h1.67V5.35c0-1.66 1-2.56 2.5-2.56.7 0 1.3.05 1.48.08V4.6z"/><path d="M2.46 12.05l-.03-.03c.03 0 .03 0 .03.03zm-.61-.12zm1.78 1.77H3.6c.02-.02.03-.02.03 0zM4.36 2h-.04.04zm.79-.85h.02s0 .02-.02.02v-.02zM5 1.13h.03v.02c-.02 0-.02 0-.02-.02zm-.08.07c-.02 0-.03 0-.03-.02.03 0 .03 0 .02.03zm.43 13.87c.03-.02.05 0 .06.03-.03 0-.05 0-.05-.03zm4.89.23l.07-.04v.03h-.06zm.16-.06l.06-.03c0 .03-.03.05-.07.04zm1.44-.86c0-.03.02-.05.06-.03 0 .04-.03.04-.06.03zM.02 9.87c0 .05 0 .08.1.1l-.06-.08c0-.03-.02-.04-.04-.03zm5.12 5.91c.05.06.08.13.17.13 0-.1-.04-.13-.16-.12zM4.13 15c.04.08.04.08.1.1-.03-.1-.03-.1-.1-.1zm1.31.34c.04.04.08.04.12 0-.03-.03-.07-.03-.12 0zm-3.24-1.7c.05.07.05.07.12.04-.03-.03-.05-.07-.1-.04zM.23 10.16c.02.02.04.04.08 0 0-.05 0-.12-.07-.18-.06.07-.04.13 0 .18zm6.15 5.64v.02c.02.02.04.02.06 0 0-.03-.03-.04-.06-.03zm-5.03-3.54c0 .06.04.07.1.08-.04-.07-.04-.07-.1-.08zm4.35 3.31c-.03 0-.06 0-.08.02-.02 0-.03.04 0 .08.07 0 .15.04.26.03-.06-.07-.12-.1-.18-.13zm7.88-2.34c.03.02.05.02.06 0 .1-.08.2-.14.24-.26-.13.06-.2.13-.3.26zM7.7 15.66h.02m-.8.28V16h.04c.02 0 .02-.04 0-.05 0-.02-.03-.02-.04 0z"/></symbol><symbol id="icon--github" viewBox="0 0 16.81 16"><path d="M5.26 15.37s0 .02.02.02c.05 0 .1.02.15.04l-.1-.1c-.03 0-.06 0-.07.03zm.44.11c-.04 0-.08 0-.1.02.15.08.32.14.5.17l-.23-.12-.18-.07zm-.27-.04l.06.07-.02.02s.03 0 .04.02h.05v-.03h.02c-.02 0-.03 0-.04-.02l-.13-.04zm-.8-.34c0 .02.03.02.04.02-.02-.1-.02-.1-.1-.1l.03.06.03.03zm-2.11-1.32h.05l-.06-.03.02.03zm.68.02z"/><path d="M5.27 15.46c.03 0 .05.02.08.03l-.07-.1c-.04 0-.08.02-.1 0l.1.06zm5.28-.02zm.51-.47zm-3.93.99H7.1h.19c-.03 0-.04 0-.06-.02-.03.03-.07.03-.1.02zm.27.01c-.02 0-.02.02-.03.02h.1v-.05l-.12-.03c.03 0 .04.02.04.05zm3.5-.85c.08-.02.15 0 .2 0 .04.02.06.04.07.07-.04.04-.1.04-.15.05-.1 0-.15.04-.18.12l-.26.07c0 .02-.02.02-.02 0l-.17.06h.2c.06 0 .1 0 .15.02l.1-.08c.06 0 .12 0 .18-.03.08 0 .15-.04.23-.06v.02h.06l.08-.04.1-.06.04-.02.1-.05.04-.04h.05l.03-.02h.05c.03-.03.04-.1.07-.1.1 0 .16-.08.2-.15h-.02c-.1-.02-.2 0-.3.04l-.32.08c-.05 0-.1.03-.16.06-.1-.04-.23 0-.34 0h-.1l-.04.02c-.03 0-.05.02-.07.03-.02 0-.03.03-.05.04.07 0 .15-.02.23-.05zm.82-.08zm1.2-13.66h.02l.1.1v-.03c.06.02.1.04.18.05l.04-.1-.02-.02c-.03 0-.05-.02-.08-.03l-.03-.02c-.04 0-.08 0-.1-.03h-.1v-.03c.03 0 .07-.02.1 0 .02 0 .05 0 .07-.02 0 0 .02 0 .03-.02l.03-.03c-.04-.04-.05-.08-.03-.13l-.03-.04h-.07l-.08-.04h-.05l-.08-.04c-.03 0-.05-.02-.08-.03l-.03.02-.07-.03L12.6.9l.1-.05.04-.02-.02-.03-.03-.03c-.04 0-.06-.02-.1-.03h-.05l-.15.08.04.03c.05.04.1.08.12.15h-.04v.06c.03.03.06.02.08.03v-.02c.03-.04.06-.03.1 0l.14.13c0 .03-.02.04-.04.04l.03.05h-.06l.15.08zm.2-.2zM.47 4.97c-.02.05-.04.1-.03.16v.02c.02 0 .04-.02.06 0 .03.05-.02.12.05.16.06-.08.04-.2.1-.28l-.02-.06c-.06.03-.1.02-.16 0zM15.03 2.3c.06 0 .1-.03.05-.1l-.05-.05c-.1.05-.1.05-.03.14h.03zm.59 8.26v-.07c-.07.1-.12.23-.13.36 0-.02.03-.04.06-.03 0 .02-.02.04 0 .07.02.02.04 0 .07 0 .02-.03.02-.06.02-.1-.03 0-.06-.02-.07-.05v-.03h.04v-.16z"/><path d="M12.73 1.23h-.02v.02s.02 0 .03-.02zm1.57.85c0-.02-.02-.03-.03-.04l-.08-.08c-.04 0-.07-.02-.1-.04l-.05.08c.06 0 .12.02.18.04.03.03.05.04.08.04zm1.36 8.52c0 .02 0 .02 0 0l-.04.1v.05c.04 0 .05 0 .06-.03.05-.1.04-.2-.03-.27 0-.04.04-.08 0-.1v.03c-.02.02-.02.03-.02.05h-.02c-.06 0-.08.05-.1.1v.03c.05-.02.08-.1.15-.1l-.03.1c0 .02 0 .05.04.05zm-2.21-8.73c0-.02.02-.04.04-.05h-.1l-.06-.07c0-.03 0-.07.06-.08l.1-.03c-.1-.1-.2-.06-.32-.05 0-.02-.03-.03-.04-.04.04.04.1.1.12.14l.07.1h.02l.1.07zM2.96 2.1c.02 0 .04-.03.07-.06l-.08.08zm11.34.77s0-.02.02-.03v-.02h-.05c0 .02.02.03.03.05zm1.94 5.57c.04-.02.07 0 .1-.03.03-.2.02-.26-.1-.3v.34zm-.94 2.5c0-.03.02-.06.04-.1l-.02.02c-.03.02-.05.05-.03.08zm.07.26c-.02.02-.03.03-.03.05h.02v-.04zm-.19.28v.08c.07-.07.1-.15.15-.22.02-.03 0-.06 0-.1l-.06.12-.1.12zm.27-.18l.15-.18.03-.05c0-.03 0-.05-.03-.05-.03.06-.08.1-.15.13-.02.07-.05.12-.1.16v.06c.05 0 .07-.03.1-.06zM2.5 13.73l-.1-.15v.1c.02.03.06.05.1.05zm-1.33-1.61c-.07-.05-.03-.1-.04-.13-.02-.06-.07-.1-.1-.15l.02.13.07.14c.08.07.16.12.22.2l.08.08v-.08c-.07-.07-.12-.16-.18-.23-.02-.03-.05.03-.07.02zm-.59-1.6l.02.02v-.02c-.03-.08-.08-.16-.12-.23 0 .08.03.16.1.22zm.29.75l.06.2c.03.02.04.05.06.08v-.08c-.03-.08-.04-.16-.1-.22-.02 0-.02 0-.03.02zM.6 9.76"/><path d="M2 13.2c-.05.06-.03.12 0 .17.06.07.13.14.23.18l.02.02.1.16.07.1.13.08.08-.02c.03 0 .05.03.07.06 0 .02 0 .03-.02.05l-.02.03c.15.06.25.2.44.22-.05-.13-.1-.2-.2-.25-.04-.03-.1-.05-.1-.1a.32.32 0 0 0-.23-.13c.03.03.06.06.07.1-.02.03-.05 0-.06 0l-.06-.1-.1-.02c0-.03 0-.06-.02-.1l-.04-.04c-.03-.03-.07-.06-.05-.13l.1.1v-.08c-.05-.1-.1-.17-.17-.24-.04 0-.07 0-.1-.03-.05 0-.08-.03-.12-.02zm.02.13l.05-.1-.05.1zm.34.4zM.18 7.38c-.08.05-.08.05-.02.12.02-.04.07-.07.02-.12zM.1 6.7l.02-.1c0-.07 0-.16.03-.24 0-.03 0-.06-.02-.08l-.02.04c0 .14-.03.27-.06.4.03.03.05 0 .06 0zm0 .15c-.03.02-.06 0-.1.02v.26c.03.02.05.04.1.05.03-.1.03-.2 0-.33zm1.17 6.99l-.1-.1c0 .1.05.1.1.1zm-.07-.29c-.03-.08-.05-.16-.1-.23-.02-.06-.08-.06-.12 0v.02c.05.06.1.1.12.17 0 0 0 .02.02.03.03 0 .06 0 .08.02zM3.8 1.52V1.5c-.1.03-.17.07-.26.12.1 0 .2-.03.26-.1zM1.36 13.75c.04.06.08.1.15.05-.04-.04-.08-.07-.14-.05zM1 3.97v-.05H.94l-.15.2v.08c.03-.03.06-.06.1-.07.02-.06.06-.1.1-.16zM.37 5.23c0-.04.03-.06.06-.07v-.02c0-.06 0-.12.02-.18h.02c.03-.05.08-.1.13-.15.02.06 0 .1.02.16h.02l.03-.08.03-.06c-.07-.07-.08-.17-.02-.26 0-.02.02-.03.05-.03v.04c0-.1.03-.2.1-.27.03.04 0 .08 0 .12l.04-.07C.84 4.3.8 4.25.8 4.2l-.04.06H.74L.7 4.3l-.1.14c0 .07-.03.13-.06.2.02-.02.04-.02.06 0 .02.02 0 .04 0 .06-.03 0-.05 0-.07-.02l-.04.1c0 .02 0 .02-.02.03l-.02.07v.05c-.02 0-.03.02-.04.03 0 0 0 .02-.02.03 0 0 0 .02.02.03l-.04.12-.03.08-.03.08-.06.25c.04-.04.06-.1.1-.13-.02-.06 0-.12 0-.17zm.4-.92v.03H.73c0-.02 0-.02.03-.02zM16.23 9c.06-.14.08-.3.1-.44-.05-.03-.07 0-.08.02l-.02.1c0 .08 0 .17-.03.25 0 .02 0 .05.03.07z"/><path d="M.36 5.44c.03-.03.04-.07.06-.1-.03 0-.05.03-.07.06v.04zm15.11 5.06l.03-.03c0-.03 0-.05-.05-.05-.04.02-.04.08-.1.1-.06 0-.07.06-.07.1 0 .04 0 .07-.02.1.02.03.07.03.1.05l.1-.2v-.07zM.2 5.9H.17v.04s.02 0 .02-.03zm.24.18s.02 0 .02-.02V6c-.03.04-.05.05-.02.08zm.06-.51c.03-.04.04-.1.03-.14-.07.02-.08.07-.03.14zm.07.25H.5v.08c.05-.02.08-.03.07-.08zm4.16 9.38c.04 0 .07.03.1.05h.03c-.02 0-.04-.03-.05-.05-.02-.02-.04 0-.07 0zm-2.15-.8l-.05-.06-.1-.06-.04.02.2.2v-.1h-.02zm-.18-.12h.02m13.04-1.83h-.05s0 .02-.02.03v.1l-.03.03c0 .02.02.03.03.04l-.05.05s-.02 0-.03.02v.05l-.05.06v.05l.03.03c.02 0 .04-.02.05-.04l.05-.06v-.05l.03-.03v-.05s0-.02-.02-.03l.05-.05c0-.02.02-.03.03-.04l.03-.03v-.03c0-.02-.02-.04-.04-.05zM9.98 15.6h.1c-.06-.03-.06-.03-.1 0zm.22-.02c.1.07.14.07.2 0-.05-.02-.1 0-.2 0zM.44 5.16c0 .06 0 .12-.02.17l.03-.03v-.14zM7.88 16H8c-.03 0-.05-.02-.08-.04l-.04.03zM13.9 1.98l-.17-.15-.13-.03h-.04c0 .02.02.03.03.04.07.1.16.16.3.14zM.72 4.76c.02-.06.02-.12 0-.18v.18zm0 .06c0-.02 0-.03.02-.05-.02 0-.03.04-.04.06h.02zm.98 9.21c-.03 0-.04-.03-.06-.05l-.08-.08-.03.03c.04.06.1.13.13.2.02 0 .04.03.05.05l.07.05.03-.03v-.1c0-.02-.02-.03-.03-.03l-.08-.04zm.5-.29l-.05.05c.02 0 .05.04.07.06v-.07h.04v-.02c-.02 0-.04-.02-.06-.04zM10.74.3h.05V.25h-.1c.03 0 .03.02.04.03z"/><path d="M.7 4.9s0 .03.02.05l.14-.13V4.7c-.06.03-.1.1-.14.1 0 .02 0 .04-.02.06zm15.12 2.76c0 .04-.04.06 0 .1.05-.05.05-.08 0-.1zm-13.35 5.5c.02-.1 0-.16-.08-.22h-.02V13l.03.07v.05c0 .02.03.04.07.04zm-.39-.74h-.02.02zm9.02 2.54h.05c.05 0 .1.04.15.02l.1-.06h-.03c-.08 0-.17.02-.26.04zM2.18 12.5c-.05-.07-.07-.1-.1-.1l.02.02v.02h-.02v-.03c-.02 0-.02 0-.03.02 0 0 0 .02-.02.03l.14.24c0-.08 0-.14-.04-.2h.05z"/><path d="M2.2 12.7h-.03c-.08 0-.08-.08-.15-.1-.02-.02-.04-.02-.07-.03 0 .04-.03.06 0 .12.08.07.17.17.24.3 0 .03.05.05.08.1l.14.14c.05 0 .1-.02.14-.03l.07.1h.03c-.06-.05-.1-.12-.18-.13l-.03.03h-.02c-.02 0-.04-.03-.05-.06V13c-.05-.07-.08-.14-.12-.22.08.02.1.03.13.06l.08.12c.03.08.1.13.15.2h.04l-.05-.07-.07-.1c-.02 0-.04-.03-.05-.05-.03-.05-.03-.1-.07-.14a.233.233 0 0 1-.07-.13l-.03-.06-.02-.02-.1.04s.03.05 0 .1zm.05-.02h.03v.02h-.04v-.02zm-.45-.82c0 .05.07.05.1.1-.02.04-.1 0-.1.1l.1.16c.02.1.07.15.14.2v-.02c0-.06-.1-.08-.1-.15l.06-.03v-.04c-.04-.1-.1-.2-.1-.32l-.04-.07c0-.02-.02-.03-.03-.05l-.05.07v.04z"/><path d="M16.1 7.7c-.04-.1-.04-.22-.05-.34-.06.04-.07.04-.14-.02v.04c-.05 0-.07 0-.08-.04 0-.04-.02-.07-.03-.1 0-.12 0-.22.1-.3l.02.1.06-.08V6.87c-.06.02-.08 0-.1-.06 0-.04 0-.1-.03-.14l-.15-.46-.03-.12v-.24l.04.02h.02v-.02l-.03-.06v-.04c-.02 0-.02 0 0-.02 0-.02 0-.05.02-.07h-.08c.02-.1-.1-.15-.03-.24.02 0 .02 0 .02-.02-.03-.1-.07-.17-.12-.26L15.44 5l-.06-.02c0-.02.03-.05.02-.07l-.03-.06V4.8a.353.353 0 0 1-.08-.13l-.07-.06c0 .03-.03.05-.05.07h-.13c-.02-.04-.07-.06-.07-.1 0-.06 0-.1-.05-.15-.03-.03-.1 0-.12-.07l-.05-.12s0-.02-.02-.02c0 0-.02 0-.03-.02 0-.05 0-.1.03-.14-.05-.1-.07-.12-.05-.16l-.13-.14a.648.648 0 0 0-.17-.16c-.16-.13-.3-.27-.38-.46.1-.07.1-.18.1-.28H14s0 .04-.02.06c-.1-.03-.12-.13-.2-.16-.02-.04.04-.05.04-.1-.04-.04-.1-.1-.07-.18l.07.1.07.08c.03-.06-.06-.12.02-.17l-.14-.24c-.03-.04-.08-.07-.13-.1-.03-.02-.07-.03-.1-.06 0-.04.07-.02.06-.07-.13-.03-.2-.1-.3-.2-.03-.02-.06-.04-.08-.08l-.08-.12-.04-.04-.07-.05V1.5l-.07-.06c-.02 0-.03-.02-.05-.03 0 .02 0 .06.02.1.03 0 .05 0 .07.02.03.05.05.1.06.17 0-.02 0-.02-.02-.03-.12-.1-.2-.23-.35-.3-.02 0-.02-.03-.02-.04V1.3h.11l-.05-.04c-.1-.08-.2-.16-.3-.26-.04-.03-.08-.05-.1-.08-.02 0-.03-.03-.04-.04 0-.02 0-.04.02-.06-.1-.1-.22-.12-.33-.17h-.05L11.6.5h-.05c-.04-.04-.1-.06-.13-.1 0 .02-.02.03-.03.03-.02 0-.03-.02-.04-.03-.08 0-.1-.03-.1-.1h-.06c0-.02-.03-.03-.04-.03-.1.02-.17 0-.26 0l-.02.02c.02 0 .04.03.05.04l.05.05h.2c.04 0 .07.03.1.04.04 0 .06.02.1.03.03.04.05.08 0 .12h-.04L11.3.55h-.06L11.2.53s0 .02-.02.03c0 0-.02 0-.03-.02h-.05s-.02 0-.03.02h-.05c.06.13.17.18.3.2-.13-.02-.24-.06-.3-.2L10.94.5l-.08-.04-.02-.02s-.02 0-.03.02c0 0 0-.02-.02-.02h-.05L10.65.4h-.06c-.02 0-.03-.02-.03-.03 0 0-.02 0-.03.02 0-.02 0-.02-.02-.02L10.5.35l-.1-.02-.07-.03h-.06l-.1-.05h-.06l-.07-.02c-.1 0-.2 0-.26-.08-.02-.02-.07 0-.1-.02C9.5.08 9.33 0 9.15 0l-.18.02h-.15c-.1-.04-.15 0-.2.03.1.1.1.1 0 .22 0 0-.02 0-.03.02L8.44.26 8.1.35c-.38.03-.76.04-1.13.1L6.94.43H6.9c-.04 0-.06.02-.1.03h-.13c-.02 0-.04.03-.06.04h-.03c-.02 0-.04 0-.06.03V.5l-.1.04c-.02 0-.05 0-.08.02l-.48.06-.22.1S5.6.72 5.6.7c-.13.04-.27.1-.4.13L5 .87l-.1.05c-.03 0-.06.02-.08.03-.03 0-.06.02-.08.03-.24.1-.47.2-.7.32l-.1.08c.03 0 .05-.02.07-.03.08-.02.13-.07.18-.1.06.02.06.06.08.1l-.2.1v.06l-.14.14H3.8l.04-.08c.05 0 .07-.02.07-.03l.03-.04c-.04 0-.07.02-.1.04-.03.03-.03.07-.07.1h-.24c-.03 0-.05.02-.08.04-.03 0-.07.03-.1.05l-.3.2c-.05.05-.1.1-.16.13h-.03c-.12.07-.23.16-.34.26l-.14.15h-.02v.05c0 .1-.04.17-.12.22-.18.1-.37.2-.55.28v.05c-.02 0-.03 0-.04.02l-.13.07c.06.02.1-.03.17-.03h.03c0 .04-.04.07-.06.1v.04l.18-.2c.04-.04.08-.08.13-.1.1-.02.14-.08.2-.14.1-.1.22-.2.32-.32l.35-.3c.02 0 .04-.02.06-.04l.07-.06-.1.05c-.02-.02 0-.04 0-.04l.1-.06c.04-.04.03-.12.12-.1l-.04.07.03-.04c0 .04-.03.07-.05.1l.1-.06c.1.12.1.12.24.04l.12-.02s.02 0 .03-.02c.04.04.02.08-.02.1l-.28.25c-.14.05-.23.2-.4.18-.06-.13.12-.1.13-.2-.22.04-.28.23-.38.36 0 .04.02.07.03.1l-.05.07c-.05 0-.1 0-.13.04a.45.45 0 0 1-.1.13c-.15.08-.2.22-.26.37l-.07.05-.25.22-.02.02v.05c-.03 0-.05.03-.07.05-.1.02 0-.1-.1-.1-.08.14-.17.3-.2.5 0 .03 0 .06-.02.08 0 .03-.03.07-.05.1v.04c0 .06-.03.1-.07.14l-.08.1-.04.04c-.03.03-.06.07-.05.1.03.08-.02.14-.03.2v.02c-.02 0-.04.03-.05.05 0 .08-.03.16-.02.22 0 .1-.02.18-.06.27.06.07.02.15 0 .24-.06.17-.15.33-.12.52v.22c0 .06.06.07.1.1v.04c0 .05-.06.05-.07.1 0 .02.04.03.03.1-.07.02-.1.1-.1.2-.02.03-.02.07.04.08.07-.07.05-.2.14-.27.04 0 .06 0 .1.04v.06H.92l.06.23c-.04.05-.02.12-.08.15v.07c0 .02 0 .05-.03.07l-.03.04a.333.333 0 0 1-.08-.18c0-.02 0-.05-.02-.07 0-.02-.02-.05-.05-.04-.02 0-.04.04-.06.07 0 .02 0 .03-.02.04 0-.03.02-.02.03-.03.02-.04 0-.07 0-.1.05-.1.06-.1.04-.17-.02-.12-.03-.26-.07-.37.02-.06.07-.05.1-.07.02-.05 0-.1 0-.14l.03-.06c0-.02.02-.04 0-.07 0-.06-.07-.08-.08-.15.03-.05.02-.12.04-.18.04 0 0 .07.06.06C.74 6 .74 6 .7 5.9c-.1.1-.12.25-.2.38v-.12c0-.04.04-.07 0-.1-.06.02-.07.02-.07.06 0 .08-.03.15-.07.2v.2c-.03 0-.08-.03-.1-.05-.04.03-.03.05 0 .12.02-.02.04-.02.07-.03.03.14-.04.25-.06.37H.2c0 .03 0 .08-.02.12-.02.06-.04.12.04.15v.13c0 .03.04.04.04.07-.04.07-.04.07-.02.2-.02.02-.08 0-.1.08 0 .07 0 .16.04.25.04.1.04.2.1.27.03.03.03.07.03.1v.25c.06.1.06.2.13.3.03.03.03.08.03.13s0 .1.03.14v.04c0 .02 0 .04.03.04l.1.22.03.06c0 .05 0 .1-.03.15 0 .05 0 .1-.02.13l.1.04c0 .06 0 .12.02.2 0 0-.03 0-.05.02-.05-.05 0-.1 0-.14L.6 9.76v.3c-.02.07 0 .14-.02.2v.07c.02.07 0 .13.02.2l.02.04c.04.1.08.18.15.25.05.05.07.1.1.16 0 .02 0 .04-.02.05l-.04.03c0 .02 0 .05.02.07l.07-.05c0 .05 0 .1.02.14l.04.12.03.13c0 .02 0 .04.02.06l.04.02c.07 0 .1.05.1.12v.06c.08.08.1.2.12.3 0 .03.02.08.05.1.04.07.07.13.08.2l.16.14-.16-.4a.664.664 0 0 1-.06-.2c0-.07-.02-.14-.04-.22h-.05c-.05-.05-.06-.12-.13-.14 0 .02-.03.02-.05.03-.02-.08-.04-.15-.04-.24L1 11.2c0-.07-.03-.14-.04-.2H1c.04.02.08.07.14.1.02.1.04.18.08.27 0-.1 0-.2-.04-.3l-.08-.34v-.06c0-.02.03-.04.05-.07h.13c.02.04.07.06.07.1 0 .06 0 .1.05.15.03.03.1 0 .12.07.03.03.05.07.06.12 0 0 0 .02.02.02l.03.03v.05c0 .02 0 .05-.03.08.08.14.08.14 0 .25-.1-.12-.1-.27-.1-.42 0 0-.03-.04-.07-.06 0 0-.02 0-.02.02 0 .05 0 .1.02.16l.05.2c0 .06.04.1.08.15.04.04.1.05.15.04h.03c.02.07.05.13.1.2v-.04c.03-.02.04-.04.05-.06v.02l.16.34.03.06c.04.16.12.3.2.44.04-.02.07-.04.08-.07 0-.03 0-.06.03-.1.1.04.12.14.2.17.02.04-.04.05-.04.1.04.04.1.1.07.18 0-.03-.04-.06-.06-.1-.04-.04-.07-.1-.1-.15-.02-.02-.05-.03-.08 0v.07l.18.33.08.07c0 .02.03.04.04.06v.04l.03.03c-.02.03.02.06 0 .1.04 0 .07 0 .1.03 0 .05.04.06.06.08 0 .02 0 .04.02.06 0 0 0-.02.02-.03.03.04.06.06.1.08.06 0 .1.05.12.1l.08.1c0 .03.2.2.2.22h.03c.02-.04.02-.07 0-.1l-.08-.04a.325.325 0 0 1-.07-.17h.02c.12.1.2.24.35.32v.05s0 .02-.02.02h-.1l.02.04s-.02 0-.04.03l.16.13c.02.02.06.03.1 0 0 0 .05 0 .06.02v.07l-.03-.02c0 .06.06.1.1.15.08.08.18.13.26.2.03 0 .06 0 .08-.03.02-.03.02-.06 0-.1.02 0 .04 0 .05-.02.07.04.15.07.2.15-.05.05-.1 0-.13 0s-.06-.02-.08.02c0 .04 0 .06.04.07.02 0 .03.02.03.03v.02l.04-.06.04.03v.1c.1.02.16.06.24.1l-.02.07.06.1c.07.12.1.12.25.04-.03-.03-.07-.07-.05-.12.1.03.2.06.27.1.12.1.26.17.4.24.1.03.17.05.25.1.17.08.34.16.52.2v.04c.02 0 .03 0 .04.02h.04s0-.02-.02-.03c.03 0 .06 0 .08.02.02 0 .02-.05 0-.13-.04-.03-.1-.05-.13-.1l.1.02v-.07l.13.02-.08.04-.02.02h-.05c0 .02.03.03.04.04v.02l.04.02c.08.05.18.07.28.13H6.7c-.04 0-.07-.04-.1 0 .02.06.02.07.06.07.07 0 .14.03.2.07.08 0 .15 0 .22.04.05.03.1.04.16.06l.07-.04h.05c-.08-.02-.15-.06-.22-.1l-.03.03v-.03l-.05-.02h.05v-.03c.08 0 .14.03.22 0v.03l.25.02c.07 0 .14 0 .2.04.03 0 .06.03.1.02h.05l.07-.04c0 .02 0 .03.02.03H8l.17.08c.08.05.18.05.26-.02 0 0 0-.03.03-.03.03.02.04.07.1.07l.05-.02.04.02h.15s.02 0 .04-.03c0 0 .02 0 .03.02H9a.51.51 0 0 0-.2-.06s.03 0 .04-.02c-.02-.03-.05-.03-.07-.03H8.6c-.02 0-.03-.02-.04-.03-.03-.04.03-.07 0-.1-.1-.04-.08.06-.13.08 0-.03.02-.06 0-.08-.05-.03-.1.02-.14-.04.06-.1.06-.1.14-.1.03 0 .06.02.1 0 .1-.03.24-.03.36-.05.1.02.2.03.3.08.05 0 .1-.02.16 0 .03.02.05.02.07 0 .1.03.2.02.3.05.06 0 .13 0 .18-.03-.02-.04-.06-.03-.1-.03-.03 0-.08 0-.12-.02-.02 0-.06 0-.05-.06.05-.02.1 0 .14 0 .06.02.1 0 .14-.06 0-.03-.02-.04-.04-.04H9.6c.05 0 .1-.02.17 0l.08-.04c.08-.1.2-.07.3-.12 0 0 .03.02.04.05-.03.03-.06.04-.06.07 0 .03.02.03.05.04.04-.02.1-.03.13-.1.05.02.1 0 .14-.03.08-.04.16-.08.25-.1l.1-.1c.03.02.04.02.07.02l-.02-.04.04-.02.03-.03c.04-.04.1-.06.15-.08l-.08.07c.02 0 .05.02.07 0 .1-.04.22-.06.32-.12.1-.05.2-.1.3-.13-.1 0-.18.02-.26.05-.06.02-.1.04-.17.05.1-.06.18-.14.3-.16l.02-.03c.02-.03.05-.05.08-.06.05.06.15.1.24 0 .13-.1.3-.16.44-.26.03-.02.07-.05.1-.03l.18-.1.1-.08.08-.06h.04c.1 0 .1-.07.1-.12l.1-.07c.04-.04.1-.06.1-.13 0-.04.04-.05.07-.07l.12-.1c.03 0 .07-.02.1-.04.02 0 .04.02.05.03.03 0 .04-.03.06-.05 0-.02-.02-.03-.03-.03.02 0 .04 0 .05-.02 0-.05.02-.1.04-.13l.03-.04v-.02l.15-.22s.03 0 .05-.02c0 .02 0 .03.02.04 0 0 0 .03.03.02.08-.06.05-.18.15-.24.06 0 .12 0 .14-.08h.04c.03 0 .02-.04.04-.05.08-.05.12-.16.24-.17 0 0 .03 0 .04-.02h.02l-.02-.02.03-.03s.02 0 .02-.02c0 0 0 .02.02.02.03 0 .03-.02.03-.05h-.02c0-.03.02-.05.03-.06l.2-.3c.02 0 .03.03.05.05l.1-.12c0-.04.04-.07.08-.1h.02v-.1h-.03c-.05.02-.04.08-.1.1 0 0 0 .03-.03.04l.03-.05c-.03 0-.06 0-.08-.02 0-.03-.05-.08-.1-.12l.03-.04-.06-.04.1-.22c.02.04.06.04.1.05v-.11h-.08l.13-.22c-.02-.02-.05 0-.06-.04.03-.07.08-.13.12-.2v-.07c0-.06.04-.1.08-.14l.12-.13c.03-.03.06-.07.05-.1-.02-.08.03-.14.04-.2v-.02c.02 0 .05-.03.05-.05 0-.07.04-.15.03-.22v-.14h.02c.02 0 .02-.03 0-.04 0-.03.02-.05.04-.08-.06-.08-.02-.16 0-.25.06-.18.14-.34.1-.52v-.04l.02-.18c0-.02-.02-.04-.03-.05-.04-.02-.08-.04-.08-.08s.07-.04.08-.08c0-.03-.04-.04-.03-.1.07-.04.1-.13.1-.2.02-.04.02-.08-.04-.1-.07.08-.05.2-.14.28-.04 0-.06-.02-.1-.05 0-.03 0-.07-.02-.1-.02-.07-.02-.13.02-.18.04-.06.02-.14.08-.18v-.06c0-.02 0-.05.03-.07.04-.06.05-.1.06-.17 0 .03.02.06.04.08 0-.04-.03-.08-.04-.12l.02-.08.1.06h.02c0 .02.02.02.03.03v-.1.1l.17.1c0-.02 0-.03-.02-.04 0 0 0-.03-.02-.03h-.04v-.1c0-.02.03-.02.07 0 .03.07.06.14.05.24v.02c.08-.05.1-.07.14-.04l-.02-.06zM.3 7.12zm.08.25c.03.06.06.12.04.2-.03-.07-.06-.13-.04-.2zm.07.3zm.02-.88C.37 6.7.45 6.6.4 6.55h.08c0 .08-.03.14 0 .23zm.17 1.35l-.03.03v-.03C.56 8.08.56 8 .57 7.9l.08.24zm0-.38C.62 7.75.6 7.57.62 7.5v-.02h.02c.02.02.04.04.04.06-.02.08 0 .13.03.18-.02.03-.03.05-.05.05zm.14-.04L.73 7.6l.05.1v.03zm.04 2.74v.02zM1 7.1c0 .04 0 .08-.02.1v-.1zm-.07 3.4zm.06.15l-.06-.03c0-.02.03-.02.06 0v.03zm.2-3.18zM1.1 6.6c.03 0 0 .02 0 .03V6.6zm0 1.04zm.2 2.9c-.08.03-.12-.05-.18-.07 0-.08-.03-.16 0-.22v-.02c.04.05.08.1.1.15l.03.03.07.1v.03zm.2-4.32v-.03h.02v.02zm.05-.08v-.02c0-.04.03-.08.05-.12l.03-.02c0 .08-.04.12-.08.16zm.1-1.2v.02h-.02c-.02 0 0 0 0-.02h.03zm.27 6.72v-.02l.02.02h-.02zm.06.15H2v.04-.05zm.07.04l-.03-.03s0 .02.03.04c.05.04.1.08.07.17a.283.283 0 0 1-.07-.16zm.05-7.6v.14c-.02.02-.05.03-.1.04.02-.02.06-.04.03-.08-.03.02-.06.03-.02.08-.02.04-.06.08-.06.13 0 0 0 .02.02.03 0 .02 0 .05-.03.07-.03.02-.03.07-.03.1-.03.02-.05.03-.1.02 0 .04 0 .07-.03.1v-.12c.02-.06 0-.1-.03-.15.05-.07.1-.13.12-.2 0-.07.05-.13.1-.2 0 .02 0 .02.02.03 0-.05.05-.08.08-.1.03-.04.06-.04.07 0l-.05.1zm.1 7.98zm.05-8.44l-.06.1c0-.08.06-.13.1-.18 0 .03 0 .06-.03.08zm.2 8.95h.03v.04c-.02 0-.03-.02-.04-.04zm.4.45l-.25-.34c.03.02.05 0 .07 0 0 .02.02.06.05.08.03.02.03.04.04.07 0 .07.02.1.1.1.04 0 .07.02.08.05-.03.02-.07 0-.1.03zm.77.88H3.6s.02 0 .03-.02v.02zm.73-12.8s0-.02.02-.02l-.07.06c0-.02.02-.04.04-.05zm-.66.5l.1-.1h.12c-.05.03-.08.07-.12.12 0 .02-.02.03-.04.05-.03 0-.07.03-.1.04l-.06.02c.03-.06.08-.1.1-.13zM3.38 13h.02-.05.02zm.12.38c-.05 0-.08-.04-.1-.07l-.1-.1c-.05 0-.07-.05-.08-.1.06 0 .1.03.1.06l.18.15c.02.04 0 .06 0 .08zm.15.02H3.6c0-.05-.03-.1 0-.14.1.02.08.1.1.13 0 .03.07.02.06.08h-.02l-.1-.08zm.13.38l-.04-.03.04.03zm.17.62c0-.02 0-.04-.02-.05l.06.03c-.02 0-.04 0-.05.02zm-.13-.48l.04-.05c.02-.03 0-.06-.03-.1.05 0 .08-.03.1-.07.02.02.03.05.03.08l.05.03H4c-.04 0-.06.03-.06.08l.04.03c0 .03 0 .04.03.06h.04c.04.02.1.05.12.1a.94.94 0 0 1-.34-.14zm.46.3c-.03 0-.06-.03-.07-.1.08-.02.13 0 .18.05-.04.07-.06.08-.1.06zm1.13.3c-.1-.03-.18-.05-.28 0-.07.02-.13-.04-.17-.1-.04 0-.1.04-.13 0-.02-.04 0-.1 0-.13.05-.05.1 0 .15-.04 0-.02 0-.04-.02-.05h.02c.04.02.08.06.13.06.04 0 .04-.05.07-.08v.02c.02.05.1.07.08.13.02.02.05.03.07.03.05 0 .1.03.12.07 0 .04-.02.07-.03.1zm-.53-.36h.08v.03c0-.02-.03-.05-.06-.03h-.03zm2.4 1.5c-.06-.02-.05-.07-.07-.1-.05-.02-.1 0-.14 0L7 15.54c-.02 0-.04-.02-.07 0H6.9h.03c.05.03.08.06.12.07h.03c-.03.05-.06.06-.1.04-.04 0-.08-.03-.1-.05H6.8c-.04-.02-.1 0-.17-.02 0 0 .02 0 .02-.02.02 0 .05 0 .04-.04h-.03c0-.02 0-.04-.04-.05.1 0 .17-.02.25-.05.1.05.22.05.34 0l.05.03c0 .06-.06.1-.03.14.02.02.05.02.08.03h.06c-.05 0-.08.02-.1.03zm-.3-.3H7s.03 0 .05.02H7s-.02 0-.03-.02zm1.12.08c-.12 0-.23.02-.34.03h-.33a.273.273 0 0 0-.12-.06v-.02l.05-.03c.1 0 .2 0 .3-.07.03.02.05.06.1.04.03-.02 0-.06.03-.08.04 0 .08 0 .1.02.05.02.08.03.12.02.05 0 .1 0 .14.02.07.02.14.05.2.1-.07.02-.16.04-.25.04zm.4-.02h-.05.12-.07zm.2-.12h.03c.02 0 .02.02.03.03-.03 0-.05-.02-.07-.03zm.03-.2s.02 0 .03-.02h.04c-.03.03-.05.03-.07.02zm.82.17c-.08.04-.17.08-.27.1 0-.03-.02-.05-.05-.05-.02 0-.02.03-.03.05h-.12c-.08 0-.16 0-.24-.02 0-.04 0-.06.04-.07.08-.02.15-.06.23-.05.08 0 .15-.02.2-.05.04 0 .06-.02.1-.03h.17c0 .06 0 .08-.02.12zm-.57-.13h.1s-.02 0-.02.02c-.03 0-.06 0-.08-.02zm1.32.04h.05s-.03.02-.05 0zm1.14-.57h-.02c.05 0 .1-.03.14-.05l-.12.06zm.2-.34s-.02 0-.03.02c0 0-.04 0-.05-.03l.1-.05v.06zM9.7 9.86c.24.22.46.63.46 1.26v1.85c0 .16.08.34.34.34a6.79 6.79 0 0 1-4.06.02c.26 0 .36-.2.36-.35v-1.15c-1.9.4-2.28-.9-2.28-.9-.3-.78-.75-1-.75-1-.6-.4.05-.4.05-.4.68.05 1.03.7 1.03.7.6 1.03 1.58.73 1.96.56.05-.44.23-.73.42-.9-1.5-.17-3.07-.75-3.07-3.34 0-.74.26-1.34.7-1.8-.08-.18-.3-.87.06-1.8 0 0 .58-.18 1.87.7.54-.16 1.12-.23 1.7-.24.56 0 1.14.08 1.68.23 1.3-.87 1.85-.7 1.85-.7.37.94.14 1.63.07 1.8.43.47.7 1.07.7 1.8 0 2.6-1.6 3.17-3.1 3.34zm2.94 3.82zm-.18.4c-.07 0-.04-.07-.1-.1-.04.03-.04.1-.1.12-.1.04-.2.1-.33.1-.04 0-.1 0-.15.02.07-.04.12-.1.17-.15l.1-.06h.06c.12-.04.24-.1.35-.16l.06-.03c.1-.02.22-.07.33-.13 0 .02.02.04.02.1l-.1.1-.3.22zm.4-.12v.02c-.02 0-.02.02-.02.02-.02.02-.06.04-.1.04.03-.08.1-.1.15-.14 0 .03 0 .04-.02.06zm.82-11.5c-.02-.03-.03-.07-.06-.1-.03 0-.03-.03-.04-.06 0-.08-.03-.1-.12-.1-.03-.02-.06-.03-.07-.06.03-.02.07 0 .1-.03l.02.02.24.33c-.05-.02-.06 0-.08 0zm.48 8.96c0 .05-.02.1-.05.12-.02 0-.03-.03-.02-.03l.06-.08zm.07 1.27s0-.02 0 0c0-.02 0 0 0 0zm.13-.27c-.04.06-.1.1-.13.17 0 0 0-.02-.02-.02l.15-.2c.03 0 0 .03 0 .05zm0-1.3h-.04c-.03 0-.04.02-.06.03-.03.03-.06.03-.07 0v-.02l.12-.03.03-.06c.02 0 .02 0 .03.02 0 .03-.02.05-.04.06zm.07-7.5zm.3 8.16v-.03c0-.02 0-.04.02-.07 0 .04-.03.07-.03.1zm0 0h.02zM15.1 5zm.06 2.84zm-.05-2.9c0-.02 0-.03-.02-.04l-.07-.1.02-.02c.1-.04.13.04.2.06-.02.08.02.16 0 .22l-.02.02-.1-.15zm.1 5.67l-.03-.04s.02 0 .03-.02v.05zm.02-1.9c-.03 0 0-.03 0-.04v.04zm0-1.06zm.07 2.45v.05s-.04 0-.04-.04h.03zm-.02.17c0-.04.03-.07.02-.12v.1l-.02.02zm.42-3zm.08.1l-.08-.2v-.02c.02 0 .03-.03.04-.04v.04c.05.07.05.13.04.24zM2.06 12.4"/><path d="M8.88 15.6c-.03.02-.06.03-.08.06-.03-.02-.05-.02-.06 0 0 .03.03.03.05.02v-.02c.06 0 .12.02.17-.03-.04-.02-.07-.02-.1-.02zm-5.43-1.57c0-.02-.02-.03-.02-.03-.03 0-.06-.03-.12 0 .05.06.1.04.15.03zM15.9 7.68v.27c0-.02.02-.02.04-.02v-.1l-.02-.13c0 .02 0 .04.02.05V7.7s0-.03-.03-.04zM2.72 13.7c0-.06-.03-.1-.1-.1 0 .06.04.08.1.1zM.3 6.64c-.03 0-.06-.02-.1-.04.03.06.04.12.08.17 0-.04 0-.08.03-.13zm7.04 9.26h-.02.02zM4.07 1.45v-.08h.08-.13l-.1.12h.02l.13-.05z"/><path d="M16.8 8.55h-.02c0-.04-.02-.06-.03-.1l-.03-.07-.03-.03c0-.05.02-.1.04-.16l.05-.12-.08-.13c0-.1-.02-.2-.04-.3V7.6c-.02-.4-.1-.77-.18-1.16l.02-.05c0-.14-.04-.27-.06-.4.02-.06 0-.12-.05-.16 0-.04 0-.1-.02-.13l-.05-.1v-.05l-.02-.14h.06l-.03-.12h-.16l.02-.03V5.2l.07-.08-.05-.1a.442.442 0 0 0-.16-.06l.08-.08-.02-.03.03-.03c0-.03-.02-.05-.03-.08l-.08-.13c-.02 0-.04-.02-.05-.04h-.17l-.05-.06v-.05c.03 0 .07 0 .1.02h.1a.207.207 0 0 1-.06-.1c0-.03-.02-.05-.03-.08l-.03-.04-.08-.13c-.04-.05-.02-.1.02-.13-.03 0-.05-.02-.08-.03l-.1-.16c-.02 0-.03 0-.04-.02-.07-.13-.18-.24-.2-.4l-.07-.08-.03-.03-.02-.03-.03-.02-.05-.03v-.02c-.02 0-.02-.02-.03-.03 0 0 0-.02.02-.03-.02 0-.03-.02-.03-.03l-.05-.06s-.02 0-.02.02v-.09l-.1-.08-.1-.1.02.08c0 .1.02.2.1.3.02.02.03.07.04.1.02.12.04.22.12.3 0 .02.02.03 0 .06 0 .07.03.1.1.12 0 0 .03 0 .04.02.06.1.06.2.13.28v-.12c.02 0 .04 0 .06.02h.02c.04.02.05.02.08.18l.1.18v.02c.04.13.04.28.04.42v.22c.02.02.02.04 0 .06v.1l.06.07.1.3c0 .02-.02.03-.03.04-.02.1 0 .18.08.24v.26a.332.332 0 0 1-.14-.27c0-.07-.02-.1-.1-.1l.05.08c.05.05.07.1.05.15.06.03.08.1.1.14 0 .03 0 .05-.03.05s-.04-.05-.06-.06c0 .02 0 .03.02.05.02 0 .04 0 .04.03v.04c.02.04.03.1.03.14-.02.05 0 .1.02.14.03.04.05.1.06.14.05 0 .1 0 .18-.04h.02l-.1.17c.12.08.1.17.05.28l.07.27-.06.04v.02c0-.02.02-.04.05-.05.04.05 0 .1.02.16 0 0 .02 0 .02.02v.05h-.02c-.02 0-.02-.02-.02-.02v.13c0 .08-.07.07-.1.1v.03l.05.1c0-.02.02-.03.03-.05l.03.04.02-.02c.02-.03.05 0 .08 0 0-.07-.12-.05-.08-.13.03-.04.06.02.1 0l.02-.04v-.18c0-.02 0-.05.04-.07.06.1.02.2.1.28 0 .07-.05.08-.08.1 0 .03.02.03.03.04.07.08.07.17.02.26-.06.1-.1.2-.06.3l-.03.1c-.02.06-.04.12-.04.2 0 .1-.03.23-.03.36 0 .1 0 .18.05.25 0 .05 0 .1-.03.14-.04.04-.1.02-.14.08.04.12-.05.24-.03.37 0 .04.06.04.07.08v.03c-.02.25-.1.5-.2.7-.05.1-.06.2-.1.28.04.1.02.2-.04.28-.05.07-.07.16-.15.2-.03.03 0 .06 0 .1l-.17.16c-.08 0-.15 0-.18.1-.05 0-.1-.02-.13.02 0 .05.06.02.07.06v.03c-.07.02-.1.1-.13.13-.1.1-.16.2-.25.28-.04.06-.08.1-.15.13 0-.08.04-.13.12-.15l-.03-.07-.06.12c-.1 0-.2.06-.28.13l.06.05c.03 0 .05-.05.1-.03.03.03.02.06 0 .1-.06.04-.1.1-.14.14-.03 0-.03-.03-.02-.05v-.05c-.03 0-.05 0-.07-.02-.03-.02 0-.05-.04-.07l-.33.44c.05 0 .1-.03.15-.07l.03-.07c.05-.02.08-.03.12 0 0 .03-.2.2-.2.22l-.13.08c-.05.03-.1.06-.1.1-.02.1-.08.14-.14.17-.06.04-.1.1-.16.15l-.1.1c-.1.04-.2.1-.28.15l-.4.32-.13.08a.22.22 0 0 0-.13.1c-.07.07-.17.1-.27.15-.02 0-.03 0-.05-.03 0-.07.12-.06.12-.14-.1.05-.2.1-.28.16-.1.07-.22.12-.33.18l-.2.1h.07c-.12.1-.26.15-.38.22.08 0 .15-.03.23-.05l.06-.02c.14 0 .27-.06.4-.08h.02c0-.02.02-.02.03-.03.1.05.05.14.06.2-.1.15-.28.2-.43.3h-.02l.06.06c.07-.07.13-.14.24-.08l.1-.05c.04-.08.1-.14.17-.16h.03l.08-.04.03-.02.12-.1s.02 0 .03.02l.1-.1h.06l.1-.08c0-.02.03-.04.05-.06l.02-.02c0-.05.03-.08.08-.08l.03-.02c.04-.04.07-.05.08.02l.08-.08.02-.03.03-.07.02.02.08-.08c.03 0 .05-.02.08-.03h.05l.03-.04.1-.1.06-.1.1-.16h.06l.02.07-.05.12.16-.1c.02 0 .03-.02.03-.03.04-.1.13-.14.22-.18l.03-.02c0-.08 0-.15.1-.16l.17-.1.05-.06-.03-.03.1-.2c.04-.04.07-.1.1-.15.04-.03.07-.08.12-.08.1 0 .1-.1.1-.16.06-.04.1-.1.15-.13 0 0 0-.02.02-.03l-.03-.03.05-.05H15v-.02s0-.02.02-.03l.02-.02c0-.03.02-.06.03-.08l-.03-.03.03-.02.03.02.03-.03h.06c.04 0 .07-.02.1-.04.02 0 .03-.02.04-.03v-.1l.05-.12s-.02 0-.03-.02v-.05l.05-.05c-.02-.05 0-.08.04-.1.02 0 .04-.03.05-.04v-.05l.04-.03c0 .02.02.03.03.04l-.06.18.04.07.07-.1c0-.04.02-.06.03-.1l.02-.02v-.06l.14-.08v-.06l-.08-.08.05-.06v-.05l.13-.14.1-.26v-.05l.04-.04v-.05c.04-.02.1-.04.13-.07l-.02-.03-.07.03-.02-.03.06-.2c-.04-.1-.02-.17.05-.23l.12-.05.03-.02.08-.08-.02-.02.04-.08.05.05c0-.03 0-.05.02-.08-.03 0-.05 0-.08.02l-.07-.08.06-.13c.04 0 .07 0 .1.04 0 .02 0 .05.02.07l.08-.12v-.47h-.03v-.12l.02-.03V9.1l-.03-.03c.03-.06.04-.07.05-.07 0 0 0-.02-.02-.03v-.2c.02 0 .03 0 .04-.02l.03-.03.1-.16zm-.85-3.57c.06 0 .08.04.07.1-.06 0-.07-.04-.07-.1zm.22.05c.05.06.05.06.03.14-.06-.03-.06-.03-.03-.14zm-3.93 9.7zm.08-.02zm1.52-.9c.06 0 .1 0 .1-.02l-.1.02zm.7-.88c-.02-.05 0-.1 0-.12l.03-.02c0 .05.03.1-.02.14zm1.7-3.1V9.8zm.2-.9c-.02-.02 0-.03 0-.04v.03zm.13.15c-.02-.04 0-.1-.02-.13 0 .04 0 .1.02.13zM1.64 11.16zM.34 6.37s0-.02.02-.03V6.3l-.06.1c-.02 0-.04 0-.05-.02l-.03.06.03.03.07-.04c.03 0 0-.04.02-.06zm1.53 6.11c0-.03.02-.06.04-.1-.05-.05-.07-.15-.14-.22-.06.02-.1-.03-.17-.03-.1 0-.1-.1-.2-.1 0 .02 0 .03.02.05.07.07.13.15.18.23.06.1.16.17.23.25.03.03.06.02.08.02l-.03-.1zm3.16 1.8v.03c.03.05.06.05.1 0-.03-.04-.06-.06-.1-.02zm-.63.5h-.06c-.03-.06-.1-.08-.14-.12l-.04-.03h-.04c0-.02-.03-.03-.04-.04.02.03.07.03.1.07 0 0 0 .02-.02.02h-.12c-.04-.04-.08-.1-.14-.1h-.12a.314.314 0 0 0-.1-.1l-.2-.06c-.08-.04-.06-.1-.13-.15-.04-.04-.1 0-.16.04.04.05.1.07.15.13l.1.16c-.08.02-.15-.02-.2 0-.1-.06-.2-.12-.27-.2l-.12-.06.05.06.36.35.2.14h.02l.06.03.05.06V15h.07l.03.04.03.03c.02 0 .03.03.05.04h.05l.06-.06.07-.03c0-.05 0-.1.06-.1.02 0 .03.03.05.05 0 0 .02 0 .03-.02.03 0 .05.03.07.04l.13.1.2.1c.08-.06.15-.06.22-.03l-.08-.08-.03-.03-.1-.06c-.08.02-.08.02-.12-.07.04 0 .06 0 .08.02h.1c0-.07-.02-.12-.08-.14-.05-.04-.08-.05-.1-.08zm-.58.24l-.1-.1c.02.04.06.07.1.1zm.4-.05c-.05 0-.07-.02-.07-.07h.02c-.1 0-.2-.04-.3-.03-.04-.1 0-.17.08-.14.07.03.14.04.22.04.07 0 .08.04.07.14H4.2l.03.07zm-.05-.27c.04-.02.06 0 .1.03-.06.03-.06.03-.1-.03zm.1.3c.02-.05.04-.04.06-.03 0 .04-.03.04-.07.02zm2.53.56c.02 0 .04 0 .06.02.02 0 .04-.03.05-.05h-.1v.03zm-4.27-2.31H2.5c0 .02 0 .04.02.04 0 0 .03 0 .03-.02 0 0 0-.02-.02-.03zm-.63-8.6s0 .02.02 0zm4.8 11.18l-.26-.1h-.07v-.04l-.04-.02h-.22l.35.15h.07l.08.03h.08c.02 0 .04 0 .05.02h.05l.08.03.05.02c.03 0 .06 0 .08.02v-.03c-.03-.02-.06 0-.08 0 0-.02-.03-.03-.05-.03h-.02a.37.37 0 0 1-.14-.04zm1.24.01h-.02.01zm-.74-.08h-.1v.03h.02c.06 0 .12.03.2-.03h-.05c-.02.02-.04.02-.06 0zm-5.4-3.03c-.02-.08-.05-.15-.14-.2-.03 0-.06-.03-.1-.05l.07.13.06.08c0 .04 0 .04.1.05z"/><path d="M1.63 12.6l-.07-.03.02.05c.02.08.05.15.1.22h.08a.323.323 0 0 1-.1-.17l-.03-.06zm-.61-1.53c-.02.03-.02.06.02.07.02-.03 0-.05-.02-.07zm.44.6c.07.08.03.17 0 .27.06.05.15.02.2.1 0 .02.05.03.08.04 0-.04 0-.07-.03-.1l-.05-.04-.03-.12-.06-.08c-.06-.08-.12-.16-.13-.26l-.03-.02c-.02 0-.03 0-.03-.02h.03c-.02-.1-.05-.2-.14-.27v.07c0 .07.03.14 0 .2l-.03-.06v.02c0 .03 0 .06.02.08.02.06.04.1.05.17.06 0 .1 0 .16.02zm.07.2c0 .02.02.03.03.05 0 0 0 .03-.02.03-.02-.02 0-.04 0-.08-.02 0-.02 0 0 0-.02 0-.02 0 0 0zm-.1-.33c.02 0 .03.02.03.04h-.02c-.03 0-.03-.02 0-.04zm-.13.02v-.02.02zm.5 1.28h-.04v.03c.07.06.1.12.14.2h.06c-.05-.05-.08-.13-.1-.24-.02-.02-.03 0-.06 0zm5.92 2.56"/><path d="M1.45 11.7c-.02.04 0 .06.02.1 0-.04 0-.07-.02-.1z"/><ellipse cx="1.96" cy="12.48" transform="translate(-.02 .003)" rx=".03" ry=".03"/><path d="M2.28 13.2c-.1-.02-.2-.08-.32-.12l.07.06c.08.03.13.08.2.13.06 0 .13.02.2.04h.06l-.08-.07c-.05 0-.1-.03-.14-.04zm.55.3c-.03 0-.05-.03-.07-.05-.07-.08-.16-.14-.27-.14.03.06.08.1.12.15.14.14.3.24.47.35 0 .02.04.03.07.04v-.02c-.07-.03-.07-.1-.07-.15-.06-.1-.18-.07-.24-.15 0-.03 0-.03.02-.04h.02v-.05c-.03.03-.04.05-.07.06zm12.81-3.15v-.05c-.02 0-.03 0-.03-.02 0 .04 0 .08-.02.1l.06-.03zm.56-2.9c0-.02 0-.03-.02-.04 0 .03 0 .06.02.08v-.03zm-1.06 3.82c.04-.03.1-.04.1-.1h-.06c0 .04-.02.06-.04.1z"/><path d="M14.97 11.35c.02 0 .03 0 .05-.03.04 0 .08 0 .1-.04.02 0 .02-.02.03-.04 0-.05 0-.06.04-.08l-.06-.05s0-.05.02-.07c0-.06 0-.12-.02-.17v-.02c0 .02-.03.04-.04.06v.07c0 .14-.08.26-.13.38zm1.21-3.95v-.03c-.02 0-.02-.03-.02-.04v.02c0 .02 0 .03.02.05zm.04.42v.05c.02 0 .02-.03 0-.05zm0 .08v-.03s-.02 0-.03.02h.02zm-.44-1.86c0-.04-.02-.08-.04-.1l.04.1zm-.12 4.73v-.01zm-.09-.37l-.07.07c.04-.02.06-.04.07-.07zm-1.61-7.9l.07.06.05.05c0 .02.02.02.03.03l.07.07c0-.04-.03-.08 0-.12l.15.24h.03l.06.08c.04.05 0 .08 0 .1l.15.18.2.27c.02.05.04.08.1.08l.2.4.06.1V3.9c0-.04 0-.07-.02-.1a1.67 1.67 0 0 1-.08-.4c0-.06-.03-.13-.06-.2l-.18-.43-.08.05c0-.05.02-.1.03-.14h.02l-.02-.07c-.03-.06-.06-.14-.12-.2a.43.43 0 0 1-.13-.17c-.08 0-.07.06-.03.13-.15.02-.24-.04-.3-.16l-.04-.08s.02 0 .03-.02h-.04c-.02 0-.04-.02-.05-.03h-.08c-.05 0-.1 0-.14.02L13.7 2c-.02 0-.04 0-.07.02 0 .03.04.05.02.1l.08.08s0 .02.02.03c0 .02.02.03.03.05.05.1.1.16.18.23zm.92 1c.02.03.03.05.02.1-.03-.04-.02-.07-.02-.1zm-.07-.17c.03.02.02.05.02.08 0 .02 0 .02 0 0l-.03-.04v-.03zm-.17-.28zm-.15-.37c.06.03.1.07.1.15-.1-.04-.1-.04-.1-.15zm-.1.1c.03 0 .04 0 .04.03s0 .04-.03.04-.04 0-.04-.03l.03-.02zm-.5-.65c.06 0 .1.03.1.1l-.02.12c-.08-.07-.1-.12-.08-.22zm1.77 5.43l.03.07v.12c0 .02.02.04.04.06v-.07h.02v-.1l-.02.06v-.17h-.03c-.02 0-.03 0-.04.03zm.09.27c-.03.03-.03.07-.03.1s-.02.05-.04.07h.06l.02.03c-.06.08-.07.08-.05.16.03.12.04.25.08.36-.02.06-.07.05-.1.07-.02.05 0 .1 0 .14 0 .02 0 .04-.02.06 0 .02-.02.04 0 .07.02.04.08.06.08.14-.03.05-.02.12-.03.18-.03 0 0-.07-.05-.06-.03.13-.03.13.02.22.1-.1.12-.2.18-.34l.04-.33c-.02-.06.02-.12 0-.2l.02.02.02-.2v-.08l-.1.12c.04-.12 0-.26.07-.38l.02-.02s-.04 0-.07.02l-.1-.15zm-.02-1.93v-.03.02zm-.67 5.78v.02l-.08.1c.03 0 .05-.04.08-.12zm-.26.58l.04-.07-.1.06h.05zm.12-.06l.07-.07c-.03 0-.06.05-.08.08zM15 12v.1l.16-.25c-.02-.03-.04-.03-.06-.02v.02c-.04.05-.1.1-.1.15zm-.16-7.9v.1c.02.03.04.07.08.1 0-.02 0-.02.02-.03v-.02l-.1-.14zM12.4.9h-.04l.06.04L12.4.9zm2.42 10.74h.02v.02l.1-.12.06-.05v-.03h-.02c0 .02-.02.06-.06.1l-.1.07zm1.08-1.5c-.05.06-.12.1-.2.15.04.05.02.12.05.18.1-.1.17-.2.16-.34zm-1.03 1.96l.02-.03v-.02.02c-.03 0-.04 0-.03.03zm1.11-2.04V10c0 .05-.03.1-.06.13.03 0 .05-.04.06-.07zm-.38-5.93c-.03-.06-.06-.1-.08-.17-.03.02 0 .07-.06.08.03.13.1.25.22.32l.02-.03c-.02 0-.05-.02-.06-.04l-.04-.17zm-1.95 9.24v.02c.02 0 .04 0 .04-.02 0 0 0-.03-.02-.03 0 0-.02 0-.03.02zm2.23-7l-.02-.02c0 .1.02.16.05.2v-.1c0-.02 0-.06-.02-.08z"/></symbol><symbol id="icon--google-plus" viewBox="0 0 16.26 16"><path d="M4.87 15.23h-.02c0 .02 0 .03.02.03l.02-.02h-.03zM5.7.16C5.6.14 5.6.14 5.54.2c.12.02.12.02.14-.04zM4.4.34c-.1 0-.16-.04-.23.02.1.07.14.07.22-.02zM8.37.2C8.32.1 8.32.1 8.25.16c.04.03.07.07.12.02zm-6.1 2.12c-.05.04-.1.07-.1.14.08-.05.16-.1.23-.18-.06-.03-.1 0-.13.04zm2.3 12.48c.03.04.04.1.1.1 0-.1 0-.1-.1-.1zM2.16 2.46c-.06 0-.1.04-.14.07-.02 0-.03.03 0 .06.07-.03.1-.08.14-.14zM1.02 4.07c-.04 0-.06.02-.06.08.04-.02.06-.03.06-.08zM4.68 15.1a.47.47 0 0 1-.16-.1h-.05c0 .05.04.07.06.1l.17.15.05.03c.03 0 .05 0 .05-.03-.05-.04-.1-.08-.12-.15zM8.9.12c-.03-.04 0-.07-.03-.1-.22-.04-.27-.02-.3.08.1.04.2.04.32.02zM.27 8.6c.02-.03.02-.05 0-.06-.03 0-.03.03-.02.05h.02c0 .06-.03.1.02.16.03-.02.03-.05.02-.08 0-.02-.02-.06-.05-.08zm-.17.8l-.05.2c0 .02 0 .05.05.06.05-.06.05-.12.04-.18 0-.04 0-.07-.05-.1zm1.12-5.3c-.06.03-.06.03-.03.07.02-.02.04-.04.02-.08zM2.3 2.6c-.07 0-.1.02-.1.07.05 0 .08-.03.1-.08zM.55 10.05v.02c.02 0 .02-.02 0-.02zm.71 1.65"/><ellipse cx="1.28" cy="11.78" transform="rotate(-30.922 1.28 11.777)" rx=".01" ry=".01"/><path d="M.42 9.9c.02-.05 0-.1 0-.2-.07.1-.06.15 0 .2zM1.9 3.36c0-.04.02-.07 0-.12-.05.05-.04.1-.03.14.02 0 .03-.02.03-.02zM.4 9.5c0 .03 0 .06.02.1.02-.07.02-.07 0-.1zm15.48-4.27V5.2s0-.02 0 0h-.02c0 .02 0 .03.02.03zm0 1v-.1c-.03.07-.03.07 0 .1zM13.7 2.65h.03V2.6c-.02 0-.04 0-.04.02-.02.02 0 .03 0 .03zM15.87 6c.07-.07.07-.12 0-.2-.03.08-.02.13 0 .2zm-10.4 9.28c-.04-.06-.1-.1-.15-.16-.03-.02-.05-.02-.06.02.03.05.1.08.1.15a.46.46 0 0 0-.28-.04c0 .03 0 .04.02.05.1.06.18.05.27-.02.03.02.07.06.1 0zM15.9 7.3c0 .04 0 .07.04.1-.02.02-.02.04 0 .05.03 0 .03-.03.02-.05l-.02-.02c0-.05.02-.1-.02-.15-.03.03-.03.06-.03.08zm.3-.96c0-.07.03-.13.04-.2 0-.03 0-.06-.05-.07-.06.05-.05.1-.05.17 0 .04 0 .08.05.1zM10.13.5c.04.03.08.04.13.03 0-.07-.05-.08-.13-.03zm1.41.4c.06.02.1.05.16.1h.05c0-.05-.04-.07-.06-.1L11.5.75l-.05-.03c-.03 0-.05 0-.05.03.05.04.1.08.12.15zM9.8.2h.02s0-.03-.02-.03c0 0-.03 0-.03.02h.03zM9.02.1c.03.02.06.03.1.03.08 0 .16 0 .24.03.02 0 .06 0 .08-.02C9.3.08 9.14.06 9 .04c-.02.05 0 .07.02.07zm.88.47L9.87.5H9.8c.04.05.05.08.1.07zm.85.15c.04.06.1.1.15.16.03.02.05.02.06-.02-.03-.05-.1-.08-.1-.15.1.05.18.05.28.04 0-.03 0-.04-.02-.05-.1-.06-.18-.05-.27.02-.03-.02-.07-.06-.1 0zm.9.48c-.03-.04-.04-.1-.1-.1 0 .1 0 .1.1.1zM10.47.38c-.07 0-.13-.04-.2 0 .04.03.15.06.27.06 0-.03-.04-.06-.07-.06zm.08.12c-.05.04-.1 0-.15.06.1.05.2.04.28.1.06-.05.13-.03.2-.05-.1-.1-.2-.16-.33-.15V.5zM5.32 15.53h.03l-.02-.02s-.02.02 0 .03z"/><ellipse cx="12.84" cy="14.07" transform="matrix(.0102 -1 1 .0102 -1.367 26.765)" rx=".03" ry=".03"/><path d="M12.3 14.47c-.03 0-.04.02-.05.03h.08c0-.04-.03-.04-.04-.03zm.98-.82h.13c.06 0 .1-.02.1-.08-.1-.02-.16 0-.22.08zM8.12.53c.04 0 .06.04.1 0-.04-.05-.07-.05-.1 0zM8.37.4c-.07-.03-.13 0-.2.03.1.02.15 0 .2-.04z"/><path d="M16.24 8.76c-.03 0-.04.02-.05.04l-.15.3v-.15c.02-.03 0-.04 0-.07 0-.1.02-.2 0-.3 0-.06.02-.12.05-.2 0-.02.03-.05.02-.1v-.1c0-.06.02-.12.06-.18.05-.08.05-.17-.02-.25 0 0-.03 0-.03-.03.02-.03.06-.04.07-.1l-.02-.05.02-.03c0-.12.04-.24 0-.37-.04.07-.06.13-.06.2 0 0 0-.03-.02-.04-.03.02-.03.05-.03.07 0 .06 0 .12-.02.17 0 0 0 .02-.02.03-.04.03-.07-.03-.1 0-.04.1.06.07.08.13-.03 0-.06-.02-.08 0-.03.05.02.1-.04.14-.1-.07-.1-.07-.1-.15 0-.03.02-.06 0-.1-.03-.1-.03-.23-.04-.35.02-.1.03-.2.08-.3-.02-.04-.03-.1-.02-.14h.02v-.06c.02-.1 0-.2.04-.3 0-.06 0-.12-.03-.17-.04.03-.03.07-.03.1v.13c0 .02-.02.06-.07.04-.02-.05 0-.1 0-.14.02-.06 0-.1-.06-.14-.02 0-.03.02-.03.04v.26c0-.06-.02-.1 0-.18l-.04-.08c-.1-.08-.07-.2-.12-.3l.06-.04c.02 0 .03.05.06.05.02 0 .03-.02.04-.05-.03-.05-.04-.1-.1-.14.02-.05 0-.1-.02-.14l-.14-.3V5.3c0-.12-.06-.24-.02-.35a.442.442 0 0 1-.05-.15l-.08-.32c-.03-.1-.06-.18-.05-.28 0-.06-.03-.1-.08-.14-.04 0-.04.04-.04.07.03.13.08.26.08.4l.02.06c.02.07.05.15.05.23 0 .1.02.18.04.27v.02c-.05-.1-.07-.22-.13-.32-.1-.15-.13-.33-.22-.48L14.75 4c-.1-.14-.18-.28-.27-.43l-.08-.1-.06-.07v-.04c0-.1-.07-.1-.12-.1l-.07-.08c-.04-.05-.06-.1-.12-.1-.04-.02-.05-.05-.07-.08-.03 0-.06-.03-.1-.07a.21.21 0 0 0-.04-.1c0-.02.02-.04.03-.05 0-.03-.03-.04-.05-.05h-.02l-.02.03c0-.02 0-.03-.02-.05-.05 0-.1 0-.13-.02 0 0 0-.02-.02-.03h-.02l-.22-.15s0-.03-.02-.05c.02 0 .03 0 .04-.02 0 0 .03 0 .02-.04-.06-.1-.18-.06-.24-.15 0-.06 0-.12-.08-.14v-.03c0-.03-.04-.02-.06-.04-.06-.08-.17-.12-.17-.24 0-.02 0-.04-.02-.05a.515.515 0 0 1-.13-.3c-.08 0-.14-.06-.2-.1h-.1c-.07-.03-.1-.08-.16-.12h-.1c-.02 0-.03.02-.02.03.02.04.08.03.1.08 0 .03 0 .06-.02.1-.03 0-.07.05-.12.1-.04-.03-.07-.08-.1-.12-.08-.06-.1-.07-.18-.04-.13-.05-.25-.13-.4-.13h-.14c-.06 0-.1-.04-.14-.08l-.13-.12c-.03-.03-.06-.06-.1-.05-.08.02-.14-.03-.2-.04h-.02s-.02-.04-.04-.04c-.08 0-.15-.03-.22-.02h-.15V.87c0-.02-.03-.02-.04 0-.04 0-.06-.02-.1-.03-.07.06-.15.02-.23 0C9.7.8 9.55.7 9.37.75h-.22C9.13.7 9.1.72 9.1.74c-.03.04-.05.08-.1.08-.04 0-.03-.07-.07-.08-.03 0-.04.04-.1.03-.04-.07-.12-.1-.2-.1C8.6.65 8.56.65 8.55.7c.07.07.2.05.27.14 0 .03-.02.06-.05.08l-.1.03C8.6 1 8.54 1 8.5.95c-.05-.04-.13 0-.16-.08h-.06c-.02 0-.05 0-.07-.03C8.18.8 8.13.8 8.07.78l.08-.05-.12.04c-.03 0-.06 0-.08-.02L8 .65c.07-.12.14-.22.2-.23.03-.1.1-.1.2-.13.02 0 0 .16 0 .15.02 0 .03.03.04.07-.06.02-.1.04-.15.08.02.03.06.03.1.03l.05.04V.6h.02c.07.05.07.05.15.04C8.76.62 8.9.6 9 .57c.06.02.05.07.07.1.05.02.1 0 .14 0 .03 0 .05.02.07.03.02 0 .04.02.07 0 .04 0 .06-.07.13-.08.05.03.1.02.17.03 0 .05-.06.02-.05.07.12.02.12.02.2-.02-.1-.1-.23-.12-.36-.2h.12c.03.02.07.05.1.02 0-.04-.02-.06-.03-.07h.02C9.6.4 9.53.4 9.47.37S9.35.33 9.3.32c-.05-.1-.07-.1-.16-.05 0 .02 0 .04.02.07h-.02C9 .37 8.9.3 8.8.3V.2h-.1c-.06-.03-.1-.04-.15.04h-.1c-.03 0-.04.03-.07.03C8.3.24 8.3.24 8.18.25c-.02-.02 0-.08-.08-.1-.06 0-.16 0-.24.04-.1.03-.2.04-.27.1-.03.02-.07.02-.1.02L7.3.3h-.08c-.1.07-.2.07-.3.14-.04.02-.1.03-.13.03-.04 0-.08 0-.13.03h-.04C6.6.5 6.6.52 6.6.54l-.23.1c-.02 0-.04 0-.06.02-.04 0-.1 0-.14-.03C6.02.6 5.88.6 5.76.6c-.07-.02-.14 0-.2-.02h-.07C5.4.6 5.34.6 5.27.6c-.14 0-.28 0-.4.05l-.05.07c-.32.06-.32.06-.35.1.02.05.1 0 .1.07C4.5.95 4.4.95 4.3 1v.03c0 .07-.05.1-.12.1h-.05c-.08.08-.18.1-.3.1l-.1.07c-.1.07-.2.1-.3.1-.03 0-.06 0-.08.02-.1.08-.2.12-.33.17-.06.04-.12.06-.18.08-.13.06-.23.16-.36.24 0 0-.02.02 0 .05.06-.03.12-.06.18 0 0 .04 0 .08-.02.1-.04.1-.02.22-.06.32.03.13-.04.23-.14.3-.02.03-.04.05-.04.08 0 .04.05.05.07.07-.03.03-.05.06-.06.1 0 .05-.04.1-.08.12l-.12.08s-.2.18-.2.2v.02c.03.02.07.02.1 0 0-.03.02-.06.03-.07.05-.04.1-.06.17-.07l-.02.02c-.1.12-.22.2-.3.35h-.07v-.12c-.02 0-.03 0-.05.02l-.02-.04-.13.15c-.02.03-.03.07 0 .1v.06H1.6v-.03c-.06.02-.1.07-.14.12-.08.08-.14.2-.23.27-.04.04-.06.1-.12.14v.03c0 .02.05 0 .07.03l-.03.03h-.1c-.02.08-.07.1-.13.1v-.1c.02-.02.03-.04.02-.08-.08.04-.08.04-.06.1-.03.05-.04.1-.05.13-.04.05-.08.08-.1.13l-.02.1c-.08.03-.1.12-.15.2a.27.27 0 0 0-.04.25c-.04.1-.04.18-.1.26-.1.2-.16.44-.2.67 0 .07-.04.12-.06.18-.02.05-.04.1-.03.15.02.08 0 .16-.04.24l-.07.24v.06c.04 0 .05-.02.06-.04l.03-.1c.05.08.05.15.05.23l-.03.36c0 .08 0 .14-.04.2v.1c.02.1 0 .2-.06.3-.05.07-.05.16.02.24 0 0 .02 0 .02.02-.03.04-.06.06-.06.12.06.06.02.18.08.27.03-.02.02-.05.03-.07v-.14l.02-.05v-.02c.05-.03.08.03.1 0C.3 8.27.2 8.3.2 8.24c.03 0 .06.02.08 0C.3 8.2.24 8.14.3 8.1c.1.08.1.08.1.16 0 .03-.02.06 0 .1.03.1.03.23.04.35v.03c0 .06.02.12 0 .18-.02.1-.02.17-.02.25-.02 0-.03 0-.05.02 0 .03 0 .05.02.07v-.02.08c0 .04 0 .08.04.12.04-.03.03-.07.03-.1V9.2c0-.03.02-.05.04-.06l.03.13c0 .06 0 .1.03.12 0 .04.03.1.02.15 0 .02 0 .06.03.08.1.08.08.2.13.3 0 0-.03.04-.06.04-.02 0-.03-.05-.06-.05l-.03.05c.03.05.04.1.1.14-.02.06 0 .1.02.15.04.1.1.2.13.3.03.1.08.2.13.3v.05l.1.32c.03.1.06.18.05.28 0 .06.04.1.1.14.03 0 .03-.04.03-.07-.02-.1-.06-.2-.07-.3l.16.4c.06.1.1.2.17.3l.26.44c.02.05.05.08.08.1l.24.3c.04.04.06.1.12.1.04 0 .05.04.07.07.03.05.06.1.1.13.04.07.1.13.1.22.07 0 .13.02.18.05l.27.18.04.12c.04.03.1.04.14.04.1 0 .16.05.2.13.12.17.2.36.3.55.02.05.04.1.08.13.02.02.04.04.07.02 0-.06-.04-.12-.04-.18 0 0 0-.02.02-.03l.08.08h.12c.06.02.1.07.15.1h.12l.1.1c.06.05.1.06.16.03.13.06.25.14.4.14H5c.06 0 .1.04.14.08l.13.12c.03.03.06.06.1.05.08-.03.14.02.2.03h.02-.02c.02 0 .03.04.05.04.07 0 .14.03.2.02.1-.02.2 0 .28.05.1-.06.17-.02.25 0 .16.05.32.14.5.1h.21c.06 0 .07-.06.1-.1h.04c.05 0 .05.06.1.07.02 0 .03-.04.1-.03.03.06.1.08.2.1.02 0 .06 0 .07-.05-.07-.07-.2-.05-.27-.14 0-.03.02-.05.04-.08.02 0 .04 0 .05-.02v.06l.2-.04c.06.03.13 0 .16.08h.05c.03 0 .06 0 .08.03l.04.03c-.02.07-.08.1-.15.1-.02 0-.05 0-.07.02-.02 0-.05.02-.04.05l.08.05s.03 0 .03.04c-.03 0-.03-.02-.03-.04l-.1.02c-.07-.06-.07-.07-.15-.05-.14.02-.27.03-.38.07-.06-.02-.05-.07-.07-.1-.05-.02-.1 0-.14 0 0 0-.03 0-.05-.02-.02 0-.04-.02-.07 0-.04.02-.06.08-.13.08-.05-.03-.1-.02-.17-.03 0-.04.07 0 .06-.06-.14-.04-.14-.04-.22 0 .1.1.23.12.36.2h-.12c-.03-.02-.07-.05-.1-.02.02.07.02.07.06.08.1 0 .17.04.24.1.02 0 .05-.02.06 0 .04.1.06.12.15.07 0-.02 0-.04-.02-.07.13-.03.24.04.36.06v.07h.13c.06.04.1.05.15-.03h.1c.03 0 .04-.04.07-.04.08.03.08.03.2.02.02.02 0 .08.08.1.06 0 .16 0 .24-.04.1-.03.2-.03.26-.1h.33c.1-.06.2-.06.3-.13.03-.03.08-.03.12-.03.05 0 .1 0 .14-.03h.04c.02 0 .04 0 .04-.03l.22-.1.06-.03c.05 0 .1 0 .15.03.14.04.28.02.4.04.07.02.14 0 .2.02h.07c.07-.02.14 0 .2-.02.15 0 .3 0 .42-.05 0-.02.02-.05.04-.06.32-.07.32-.07.35-.12 0-.04-.08 0-.1-.06.1-.08.2-.07.28-.13l.02-.05c0-.07.05-.1.12-.1h.05c.08-.08.18-.1.3-.1.03-.02.07-.03.1-.06.1-.08.2-.1.3-.1.03 0 .06 0 .08-.03.1-.08.2-.12.33-.17l.17-.07c.14-.05.24-.16.36-.24.02-.02.03-.03 0-.06-.05.03-.1.06-.17 0 0-.04 0-.08.02-.1.05-.1.03-.22.07-.3-.03-.15.04-.25.14-.33.02 0 .04-.03.04-.06 0-.04-.05-.05-.07-.07.03-.03.05-.06.06-.1 0-.05.04-.08.08-.1l.12-.1c.02 0 .2-.18.2-.2v-.02c-.03-.02-.06-.02-.1 0 0 .03-.02.06-.03.08-.05.04-.1.06-.17.07l.02-.02c.1-.12.22-.2.3-.35h.07v.12s.02 0 .03-.03l.02.04.13-.14c.02-.02.03-.06 0-.08v-.07h.08v.03c.05-.02.1-.07.13-.1l.22-.3c.04-.03.06-.1.12-.13v-.03c0-.03-.04-.02-.06-.05l.02-.04c.03 0 .06 0 .1-.02.02-.06.07-.08.13-.1v.13c-.02 0-.03.03-.02.07.1-.03.1-.03.08-.1.03-.05.04-.1.05-.14.04-.05.08-.08.1-.13l.02-.1c.08-.03.1-.12.15-.2.06-.08.08-.16.04-.26.04-.07.05-.17.1-.25.1-.22.17-.45.2-.7v-.03s-.02 0-.02-.02c0-.03.02-.06.03-.08l.12-.28c.02-.05.04-.1.03-.15-.02-.1 0-.17.04-.25l.08-.25c.04 0 .04-.02.02-.04zM9.16.4c.02.04 0 .06 0 .1-.07 0-.13-.04-.2-.02.05-.1.14-.03.2-.07zM8.62.3v.02zM8.1.46zM.22 6.65l.05-.1v.06c0 .04-.03.05-.05.05zm.1.27C.3 6.9.3 6.86.3 6.82c.03-.06.06-.1.08-.17H.4l-.07.27zm.22 1.3v.08l-.03.08V8.3C.54 8.2.5 8.06.5 7.9c-.02-.13-.04-.3-.03-.44 0-.03.03-.05.04-.08.04-.05.05-.1.02-.16-.02 0-.04.04-.05.06v-.03l-.04-.02V7.2l.12-.22c.02 0 .04.03.05.06-.03.15-.08.3.04.46-.02.02-.06.04-.04.1.02.02.06 0 .07.02 0 .02 0 .03.02.05l-.02.04c-.02.1-.05.16-.1.24.02.1 0 .2-.03.3zm.1.47s0 .03.02.04c-.02 0-.05 0-.06-.04v-.05c.04 0 .05.02.05.04zm-.02-.15V8.5v.05zm.03.8l-.04-.1c0-.1 0-.2-.04-.3l.04-.12c0-.03.05-.03.06-.06 0 .05.03.1.03.14 0 .08.03.14.05.2.04.08.04.16.03.26-.05 0-.08 0-.12-.02zm.1.78c-.02-.02-.02-.03 0-.05 0 0 .02.02 0 .04zm.02.12s0-.02 0 0c.02 0 .02 0 0 0zm.03-.52V9.7v.04zm.04-.7C.8 8.96.8 8.9.77 8.86c0-.05.02-.1.05-.12v.04l.03.07v.18zm0-.38a.17.17 0 0 1 0-.14c0 .02 0 .03.02.04v.1zm.12 1.58s0-.03-.02-.04l.02-.02c.04-.04-.06-.06-.06-.1.03-.04.07-.05.1-.07.05.07.03.16.04.23-.03.02-.05 0-.08 0zm.08.16v-.03c.02 0 0 0 0 .02zm.04.1h.05v.1l-.05-.1zm.1.37l.02-.06c0 .04.03.08.03.1l.07.28-.12-.3zm.73.9c0-.02-.02-.03-.03-.05v-.02l.04.06zm-.05-8.22s0 .02.02.02h-.02v-.02zm-.3.3c0 .02 0 .04-.02.06l-.02-.03c.03 0 .05 0 .06-.02zm.2 8.25a.4.4 0 0 1-.07-.13c-.05-.14-.14-.26-.2-.4-.02-.04 0-.08-.02-.14l-.1-.12c.02-.06 0-.13-.02-.2 0-.07.03-.14.02-.2l.1.23c0 .06.05.1.05.16 0 .1.07.2.14.3.1.1.17.23.17.4.1.05.1.16.17.23l-.04.1.02.04c-.06-.1-.12-.2-.2-.27zm.4.48a.422.422 0 0 1-.12-.1l-.06-.1c.04.05.1.04.12.05.05.04.05.1.12.12.02-.1-.02-.2-.1-.27a.48.48 0 0 1-.15-.2c-.03-.08-.07-.13-.1-.17.02-.05.06-.05.1-.07.05.1.12.2.14.3l.06.12c.03.03.07.03.1.07v.13c0 .1 0 .12-.12.13zm4.9 3.02v-.08c.08 0 .14.03.22 0-.07.1-.16.02-.22.08zm.55.1v-.02zM9.14 1.1c0 .04-.03.02-.04 0h.04zm-.87.08zM8.1 1.1v.02zM7.62.6c.07-.04.13-.04.23-.03-.08.04-.15.06-.22.08L7.57.6h.04zm.12.05zm-2.38.47c.08 0 .15-.03.22 0a.28.28 0 0 1-.14.1l-.03.03c0 .03-.04.05-.07.07H5.3c-.04-.1.03-.13.06-.2zM2.7 2.52a.25.25 0 0 1-.04-.14l.03-.13c0-.13.1-.24.12-.37.06-.04.13-.08.18-.13.06-.06.13-.1.2-.12l.57-.24c.07-.03.13-.06.2-.06.14 0 .26-.04.38-.1h.08c.1 0 .22-.02.32-.05l.32-.1h.07l.07.05v.13c-.03.02-.05.07-.1.07-.04 0-.1 0-.13.05-.03.02 0 .1-.07.1v.02c-.03.03-.07.05-.12.05h-.02c0 .03-.02.04-.03.05-.05 0-.1 0-.14-.03-.15.07-.15.07-.26-.02.12-.1.26-.08.4-.1.03 0 .07-.03.1-.07h-.18c-.06.03-.13.05-.2.05-.05 0-.1.04-.14.1-.04.03-.05.08-.04.13v.03c-.08.05-.16.07-.22.13L4 1.85c-.12.02-.2.07-.32.1 0 .02-.03.03-.05.03l-.02-.06c-.06 0-.08.08-.14.1 0 0 0 .03-.02.04h-.02c0-.02.02-.02.04-.03L3.42 2c-.1.04-.17.1-.25.14v.02c.04.02.08-.02.12 0 0 .05.06.14.1.17.04 0 .07 0 .1.02-.05.08-.15.12-.18.2-.04 0-.05-.04-.1-.05-.04.04-.1.1-.17.07l.1-.07.14-.1c0-.02.02-.05 0-.08H3.2l-.42.24-.1.08c-.03 0-.05.03-.08.03-.03-.02-.03-.05 0-.08 0-.03.04-.05.07-.08zm1.5-.6h-.02.03zm-.14.06H4l.04-.02s0 .02.02.02zm-1 .66c-.04.02-.08.03-.1.06 0 .03-.04.04-.07.04-.1 0-.1.03-.12.12 0 .03-.02.05-.05.07-.02-.03 0-.07-.02-.1h.02c.1-.1.22-.17.33-.25-.03.03 0 .04 0 .06zM2.7 13.2l-.05-.1c-.04-.03-.12-.02-.1-.1.03 0 .05.02.08.04l.07.06.06.1c-.03.02-.05 0-.06 0zm1.04 1.04l-.07-.03h-.02v-.06c.04 0 .07.02.1.05l-.02.04.03-.03v.04h-.04zm.34.14c.02 0 .03.03.05.05-.02 0-.04-.02-.05-.05zm.32-.55c-.07 0-.12-.04-.16-.1.03 0 .06.02.08.04l.08.06zm.86.4c-.06-.03-.1-.02-.15.02-.06-.04-.12-.08-.2-.1l-.17-.1.02-.04c-.05 0-.08-.04-.1-.07-.04-.03-.04-.06 0-.07l.1.05c.03.03.08.02.1.02h.04c.02.02.04.05.04.1-.02-.02-.04-.05-.07-.03 0 0 .02.04.06 0 .04.02.08.06.13.06l.02-.02c.02 0 .04 0 .06.02.03.03.07.03.1.03.02 0 .03.04.03.07.05 0 .07.02.1.04-.04.04-.08.03-.12.02zm.2.14l-.02-.03h.03v.03c0 .02-.02.02-.03 0zm1.14.1l-.12-.07-.02-.03c.08 0 .12.03.16.08H6.6zm.1.03h-.03v-.02h.02v.02zm.36.4c0-.04.03-.02.04 0h-.04zm.58.13c-.02 0-.05 0-.07-.02.02 0 .05 0 .08.02h-.02zm.3-.2zm-.1.78c.05-.02.1-.05.2-.03-.1.03-.15.06-.2.04zm.27-.05zm-.17-.17c0-.02.04-.04.06-.04.07 0 .12-.02.17-.04.02 0 .03.02.03.04-.02.04-.18.06-.27.04zm.2-.16h.03l-.13.05.1-.05zm-.05-.34h.02zm.5.52c-.07.04-.13.04-.23.03l.22-.08c0 .02.02.03.04.04H8.6zm-2.4-3.82c-1.97 0-3.57-1.6-3.57-3.58s1.6-3.58 3.58-3.58c.98 0 1.78.35 2.4.94l-.96.93c-.27-.26-.73-.56-1.43-.56C5 5.74 4 6.74 4 8c0 1.25 1 2.26 2.2 2.26 1.43 0 1.96-1.02 2.04-1.54H6.2V7.5h3.4c.02.17.05.35.05.58 0 2.05-1.37 3.5-3.44 3.5zm6.83-9.48zm-.42-.56v.07c0-.03-.03-.07-.06-.1.03 0 .05 0 .07.04zm-.8.63c.05 0 .08.02.12.05 0 0-.03.02-.03 0-.05 0-.08-.03-.1-.05zm-.34-.2c.02 0 .03 0 .05.03v.03c.02 0 .04.03.05.05.03.03.03.06 0 .07h-.02l-.03-.12c0-.03-.03-.04-.05-.05v-.02zm-.6 12.9c-.08 0-.15.04-.22.02v-.03c.04-.03.08-.07.14-.1 0 0 .02 0 .03-.02l.1-.07h.03c.03.1-.04.13-.07.2zm2.67-1.4c0 .06.03.1.03.15 0 .05-.03.1-.04.14-.02.13-.1.24-.13.37-.07.04-.14.07-.2.13-.05.06-.12.1-.2.12l-.56.24c-.07.03-.13.05-.2.05-.14 0-.27.04-.4.1h-.07c-.1 0-.22.02-.32.05l-.32.08h-.06l-.07-.04v-.13c.04-.02.06-.07.1-.07.05 0 .1 0 .14-.05.03-.02 0-.1.07-.1v-.02l.13-.05h.02c0-.02.02-.03.03-.04.05 0 .1 0 .14.02.14-.08.14-.08.25 0-.12.1-.26.1-.4.1-.03.02-.07.04-.1.08.02 0 .02.02.03.02h.16c.06-.03.13-.05.2-.06.06 0 .1-.04.15-.08.05-.04.05-.1.04-.15v-.03c.08-.03.16-.06.22-.1l.07-.04c.1-.02.2-.07.3-.1l.06-.03c0 .02 0 .04.02.06.07-.02.1-.1.15-.1 0-.02 0-.04.02-.05v.02l-.03.02.04.02.26-.14v-.02c-.04-.02-.08.02-.12 0 0-.05-.06-.14-.1-.17-.04-.02-.07 0-.1-.03.03-.08.13-.12.16-.2.04-.02.05.04.1.04.04-.03.1-.08.17-.06l-.1.07c-.04.05-.1.08-.14.12-.02 0-.03.04 0 .07.02 0 .04 0 .07-.02.15-.06.3-.15.43-.23l.1-.08c.02 0 .05-.03.08-.02.04.02.04.05.02.07-.03 0-.06.03-.1.06zM12 14.1l.03-.02H12zm.16-.1h.05c0 .02 0 .03-.02.03l-.02-.02zm1-.64c.04-.02.08-.03.1-.06.02-.03.04-.03.07-.04.08 0 .1-.03.1-.12l.06-.07v.1c-.1.1-.22.17-.33.25.03-.03 0-.04 0-.06zm.72-4.85h-1.02v1.03h-1.02V8.5h-1.02v-1h1.02V6.46h1.02V7.5h1.02v1zM14 3.67zm.37 8.8c0-.02 0-.03-.02-.04h.03v.03zm.02-8.13l-.07-.1-.02-.05a1 1 0 0 0-.13-.34l-.03-.06c-.03-.12-.1-.23-.14-.34l.08-.02.1.1c.1.1.15.2.23.3 0 .07-.07.05-.08.1.02.04.08.04.1.1.04.1.1.2.1.32 0 .05 0 .1.02.16-.04-.07-.1-.12-.15-.17zm.17.38l-.05-.1h.05c0 .02 0 .04.02.05 0 .02 0 .04-.03.06zm.1 7.45c0-.02 0-.04.02-.06v.03s-.03 0-.04.02zm.25-7.32l-.06-.14.06.1v.03zm.78 2.8V7.6zm-.23-1.7v-.06s.02.03 0 .05zm-.1 1.5l.02-.04v.06l-.02-.03zm.06-.22v-.1.03c.02.04 0 .06 0 .08zm.04-.3c0-.03-.02-.05-.03-.08v-.18c.05 0 .08 0 .1.02.05.08.08.17.1.26-.02 0-.04.02-.04.05 0 .02.03.02.05.03v.09c0 .07 0 .15-.02.22-.04 0-.06 0-.07-.04-.02-.07-.05-.14-.05-.22.02-.06 0-.12-.03-.18zm.14.53c0 .02 0 .04-.02.07v-.04c0-.02.02-.02.03-.03zm.15 1.3l-.05.12s-.02 0-.03.02l-.02-.06c0-.1 0-.2-.07-.3.02 0 .06-.03.04-.08-.02-.03-.06 0-.07-.03v-.02c0-.03 0-.06.02-.1.02-.03.03-.07.02-.1-.02-.06 0-.1 0-.15l.1-.2.03.25.03.33v.22c-.02.03 0 .06 0 .1zm.1.62h-.04c0-.05.02-.1 0-.12l.07-.1v-.04c.05.02.06.05.04.1 0 .04-.04.08-.06.15z"/><ellipse cx="3.38" cy="1.93" transform="matrix(.0102 -1 1 .0102 1.423 5.292)" rx=".03" ry=".03"/><path d="M2.94 2.35l-.13-.02c-.04 0-.08.03-.08.1.1.02.16 0 .22-.08zm9.13 12.21c.04.02.06 0 .1 0-.04 0-.07-.02-.1 0zM5.2 14.1s-.02 0 0 0c-.02 0 0 .02 0 .02v-.02zM3.93 1.53c.02 0 .03-.02.04-.03H3.9c0 .04.02.04.03.03zM11.9 14.6h.05v-.03c-.02 0-.03 0-.04.02zM4.3 1.4h-.03v.03c.02 0 .03 0 .04-.02zm-.15.04c-.03-.02-.06 0-.08 0 .02 0 .05.02.08 0zm-.17.06zm3.87 14.3c.05.1.05.1.12.03-.04-.03-.07-.07-.12-.02zm2.68.04c.08.02.08.02.14-.03-.12-.02-.12-.02-.14.04zm-4.78-.22c.07 0 .13.04.2 0a.536.536 0 0 0-.27-.06c0 .03.04.06.07.06zm1.45.28a.17.17 0 0 0-.1-.03c-.08 0-.16 0-.24-.03-.02 0-.06 0-.08.02.14.06.28.08.43.1.04-.05.02-.07 0-.07zm6.75-2.22c.05-.04.1-.07.1-.14-.08.05-.16.1-.23.18.06.03.1 0 .13-.04zm-6.62 2.2c.02.04 0 .07.02.1.2.03.26.02.3-.1a.86.86 0 0 0-.32 0zM6.1 15.5c-.05-.03-.1-.05-.15-.04 0 .08.07.1.14.04zm-.43 0c.05-.04.1 0 .15-.06-.1-.05-.2-.04-.28-.1-.06.05-.13.03-.2.05.1.1.2.16.33.15v-.06zm.66-.07v.06h.08c-.02-.05-.02-.08-.07-.07zm.09.37H6.4s0 .03.02.03c0 0 .03 0 .03-.02h-.03zm5.41-.14c.08 0 .15.04.22-.02-.1-.07-.14-.07-.22.02zM8.03.7L8.1.65h.1c.02 0 .04-.03.06-.05H8.2c-.04 0-.07-.02-.1 0s-.08.02-.1.04c0 .03 0 .04.03.05zm5.9 12.7c.06 0 .08-.02.1-.07-.06 0-.1.03-.1.08zM15 11.9c.05-.03.05-.03.03-.07-.03.02-.04.04-.03.08zm-.68.74c0 .03-.03.06 0 .12.05-.05.04-.1.03-.14l-.03.02zm-.26.9c.05 0 .1-.04.14-.07.02 0 .03-.03 0-.06-.07.03-.1.08-.14.14zm1.14-1.61c.04 0 .06-.02.06-.08-.04.02-.06.03-.06.08z"/></symbol><symbol id="icon--twitter" viewBox="0 0 15.92 16"><path d="M.06 9.36c0 .07-.02.13-.03.2 0 .02 0 .04.04.05.05-.04.04-.1.04-.16 0-.02 0-.06-.04-.08zM.2 8.4c.03.04.05.05.1.03 0-.03.02-.07-.03-.1-.04 0-.07.03-.06.08zm.06 1.77c0-.02 0-.05-.02-.06H.17c-.02 0-.03.03-.03.06v.06c.02.03.04.04.07.02.04-.02.06-.04.06-.07zM.06 8.2c0 .1-.04.23 0 .35.07-.13.08-.23.04-.4-.03 0-.04.02-.04.04zm.2-.27H.24c-.02 0-.02.02 0 .04.02 0 .04 0 .02-.04zm.68 3.54c-.02.08 0 .14.1.18.04-.13 0-.2-.1-.18zM.28 5.1c.03-.02.03-.05.02-.07L.28 5l-.02.02c-.02.02-.04.05 0 .08h.02zM.4 9.86v-.18c-.08.07-.08.12-.02.18C.3 9.88.3 9.9.34 10c.04-.06.1-.08.08-.14H.4zM.35 10.9a.078.078 0 0 0-.08-.02c-.06.12-.06.13.05.25.05 0 .08-.04.1-.1l-.06-.1v-.03zm.02-1.43v.08c.03-.05.03-.05 0-.08z"/><ellipse cx=".51" cy="11.81" transform="rotate(-.81 .504 11.817)" rx=".03" ry=".03"/><path d="M1.02 11.93c.02.03.04.06.08.04 0-.08 0-.08-.06-.14-.05.03-.03.07-.02.1zM9.35.14C9.3.07 9.25.08 9.18.1c.06.1.06.1.17.04zM5.5.4c-.08 0-.08 0-.14.04.1.03.1.03.14-.03zm5.3.35c.03.04.06.06.1.03-.03-.06-.03-.06-.1-.03zm.3-.32c0-.02 0-.04-.02-.04-.12-.05-.23-.1-.35-.13-.03 0-.06 0-.07.03.1.12.28.17.44.13zM4.23.58c-.08 0-.15-.04-.2.02.1.08.13.07.2-.02zM2 2.58c-.06 0-.1.02-.1.06.03 0 .07 0 .1-.06zm.17-.08c-.05.04-.1.08-.1.14.08-.05.16-.1.24-.18-.06-.02-.1.02-.13.05zM3.9 14.86c.03.04.06.05.12 0-.05 0-.06-.02-.08-.02-.02 0-.04 0-.04.02zM2.2 2.76c-.06 0-.08.03-.1.08.06 0 .1-.02.1-.08z"/><path d="M1.93 2.76c.07 0 .1-.06.14-.12-.05 0-.1.04-.14.07 0 .02-.03.04 0 .06zm9.67-1.72c.02 0 .03 0 .03-.02s0-.03-.03-.04V1c-.02.02 0 .04 0 .04zM1.13 4.3c.03-.02.05-.04.03-.08-.06.04-.06.04-.03.08zm-.17-.1c-.04 0-.06.02-.06.07.04 0 .07-.02.06-.07zm.16-.02c.08-.1.1-.24.16-.36-.02-.05-.02-.1-.06-.16-.06-.02-.1 0-.08.05.02.15 0 .28-.06.4 0 .04 0 .06.04.08zm12.5-1.72c.02 0 .03 0 .02-.02l-.03-.03h-.02v.05h.04zM11.82.7c-.03-.06-.06-.06-.1-.03.02.04.05.05.1.02z"/><path d="M15.88 7.6c-.03-.1-.04-.2-.04-.3v-.1c-.03-.23-.1-.44-.08-.66 0-.04 0-.08-.02-.12-.07-.2-.08-.44-.14-.65l-.1-.38c0-.1-.04-.17-.06-.25-.02-.08-.1-.13-.1-.23-.1-.1-.13-.22-.16-.35 0-.03-.02-.06-.06-.04-.04.05-.02.1 0 .15.06.18.12.37.2.55.05.16.1.3.1.48 0 .13.03.24.03.36h-.03c-.07-.23-.17-.44-.2-.66-.04 0-.06.03-.08 0-.04-.16-.04-.33-.14-.47-.03 0-.05 0-.08-.02 0-.03 0-.06.02-.1l-.1-.05c-.05-.06-.05-.14-.12-.2 0 0-.05.04-.07 0-.04-.05 0-.1-.03-.18-.08-.07-.02-.37 0-.5-.1-.06-.14-.15-.18-.25-.08-.18-.15-.35-.3-.5.02-.05 0-.1-.02-.13-.03-.05-.07-.08-.07-.13.05 0 .1.06.16 0-.07-.18-.04-.18-.3-.3h-.03c-.02.03-.05.06-.05.1.05.1.05.23.05.34-.06-.1-.18-.16-.2-.3l-.03-.03c-.08-.04-.1-.12-.16-.18-.02-.03-.04-.05-.07-.04-.04.02 0 .1-.07.1 0 0-.04-.02-.04-.04-.05-.1-.1-.15-.18-.22-.07-.08-.14-.16-.14-.28a.64.64 0 0 1-.3-.23c-.03-.04-.06-.05-.1-.07-.14-.07-.27-.15-.35-.28-.03-.05-.18 0-.22-.02-.08-.06-.16-.03-.25-.1-.1-.07-.2-.14-.35-.1a.527.527 0 0 0-.14-.1.493.493 0 0 0-.24-.14c-.13-.04-.26-.08-.37-.17-.06-.04-.13-.08-.2-.07-.04 0-.07 0-.1-.02-.05-.05-.12-.05-.2-.07C10.1.64 10 .6 9.96.54c0-.02.03-.03 0-.06-.1-.04-.2 0-.33 0-.06-.1-.17-.05-.25-.1-.04 0-.03-.06-.1-.08H9.2c-.05 0-.05.07-.1.07-.1 0-.22-.04-.33-.03-.1 0-.2 0-.3-.03h-.22c-.03.02-.07.04-.1.03-.03-.02.02-.06-.02-.08C8 .32 7.85.3 7.7.28c-.12-.02-.25-.02-.37 0-.23.05-.44.1-.67.1H6.5c-.04-.04-.04-.1-.1-.14-.2-.13-.4-.1-.6.04-.13.1-.25.24-.4.34-.02 0-.03.03-.04.05-.03.07-.07.12-.12.16H5.1c-.13 0-.27 0-.4.05-.02.03-.02.06-.04.07-.3.06-.3.06-.34.1.02.05.1 0 .1.07-.07.07-.18.07-.26.12v.02c-.05.04-.08.07-.13.08-.13-.07-.14-.07-.22.03-.04.06-.1.1-.18.1v.04l-.04.04c-.08.06-.17.1-.27.08-.02 0-.05 0-.08.03-.1.08-.2.12-.32.17l-.17.07c-.13.04-.23.14-.35.22 0 0-.02.02 0 .05.06-.03.12-.06.18 0 0 .04 0 .07-.02.1-.05.1-.03.2-.07.3.02.1 0 .15-.03.2h-.02c-.03-.02-.07 0-.1.02-.07.07-.18.15-.22.27.03.05.07.02.1.06 0 .06-.04.12-.07.18-.15.1-.15.1-.14.26-.06.04-.08.1-.1.16v.02h-.09c-.02.06-.08.06-.15.07-.04.03 0 .08-.04.1-.1 0-.1.1-.14.15-.08 0-.13.08-.15.15 0 .04-.02.07-.05.1l-.2.25c-.02.04-.04.08-.08.1l-.03-.02c.03-.04.06-.08.05-.15-.06.03-.1.06-.1.1-.02-.05 0-.08 0-.12-.12.13-.1.28-.12.43 0 .02.05 0 .06.04C.84 5 .78 5 .74 5l-.04.1c-.07.04-.13.03-.18 0a.39.39 0 0 0 0 .24c.02.1-.03.17-.03.26-.08.06-.1.16-.17.2 0 .12-.03.2-.07.3l-.1.26c-.03.05-.05.1-.04.15.02.07 0 .15-.04.22 0 .03 0 .05-.02.08l-.04-.03v.16L0 6.96C0 6.98 0 7 .02 7h.02l.03.05.05-.2c.07-.13.15-.27.2-.43 0-.04.03-.08.08-.1.06.08.02.17.03.24l-.05.1-.1.4c-.05.13-.06.27-.12.4-.02.06-.03.1-.02.16 0 .02 0 .04.05.04v-.03c.02-.08.06-.15.1-.22.03-.05.1-.1.1-.16.04-.1.1-.18.13-.27.03.2.07.4.03.62-.02 0-.04 0-.04-.03l-.03-.1-.04-.03V7.4c.04-.04.05-.1.02-.15-.05.04-.06.1-.1.14l-.1.13v.1c0 .02 0 .05.03.05.08-.05.08-.05.08-.07 0-.02 0-.05.02-.08.02.14.04.27.1.4 0 .02 0 .04-.02.06l.07.08c0 .06-.02.12-.04.17v.07c-.05.14-.05.3-.1.42 0 .06.02.12 0 .18-.03.1 0 .22-.04.33 0 .05 0 .1.04.16.03-.04.02-.07.02-.1v-.12c0-.02.02-.06.07-.04l-.02.14c0 .05 0 .1.06.12.03 0 .04-.03.03-.05V9.1c.06.06.06.17.1.25v.08c0 .06.05.1.03.15l-.06.1c0 .1.03.15.04.22 0 .02 0 .05.03.06.1.05.1.15.16.22h.02c-.02.05 0 .1 0 .16 0 .1.04.22 0 .33.03.05.04.1.05.15l.02.1-.17.05c.12.1.16.23.2.36h.07v.06c0 .05.03.1.08.12.04 0 .04-.04.03-.07 0-.05-.03-.1-.04-.16 0-.03.02-.05.03-.08v-.03H1.1c0-.04-.02-.08 0-.13 0 0 0-.02-.02-.02.04 0 .08-.02.1-.08-.04 0-.1 0-.12-.02l-.03-.18c0-.08-.02-.16-.03-.23l.04.03c.05-.05.05-.05-.02-.08-.02 0-.02.02-.02.04v-.03s-.03-.03 0-.07c0-.02.03-.02.07 0 0 .14.08.26.1.4.04.13.05.27.14.4.03-.08 0-.14 0-.2 0-.08.02-.15 0-.22.05.1.08.17.1.25 0 .05.06.1.05.16 0 .12.05.2.12.3v.1c-.02.03-.07.04-.08.1.04.1.1.22.22.28l.02.06c0 .1.05.15.13.2.02.04.05.05.08.05l.15.12c.06.05.13.1.18.17l.02.04c-.08.05-.15.1-.2.16.05.1.15.04.2.1l.12.1c0 .05 0 .08-.02.12.08.07.16.15.17.25.04.02.08.04.1.07l.1.07c.07.04.1.1.07.14-.02.03-.08.03-.1.08 0 .05.03.07.1.08 0-.02.04-.04.06-.06.1 0 .15.05.2.1.05.07.12.1.2.1.03 0 .06-.05.1-.02.04.05.06.1.07.17h.03c0 .05.03.08.03.12 0 .03 0 .06.03.08l.24.3H4c.05-.02.04-.07.07-.08.13 0 .2.1.3.1l.07.1c0 .03 0 .06.04.08.08.02.17.03.24.07.1.06.2.06.3.1.04-.03.06-.06.03-.1l-.2-.1c0-.05.02-.07 0-.1-.02 0-.06 0-.07-.03 0-.03.02-.04.04-.05.1 0 .22.04.33.1.1.03.17.06.27.06.06 0 .12.03.2.04v.09c-.04.05-.1.04-.15.08 0 .02-.02.05 0 .1l.24.08c.05-.02.06-.05.06-.1-.06-.06-.1-.14-.04-.24.02-.03-.02-.07.02-.1.06-.03.14-.02.2-.06.13-.07.24 0 .35.06.2-.03.35.08.5.18.06 0 .1-.02.14-.07-.14-.05-.14-.05-.16-.2 0-.02 0-.04-.02-.07.13-.06.27 0 .4-.05-.02-.03-.04-.04-.06-.03-.07.02-.14 0-.2 0-.04 0-.07 0-.08-.04 0-.02.03-.03.05-.03H7c.13 0 .26.02.32.14.05.02.1-.02.15 0 .1.05.02.15.05.22h.02c-.04.03-.08.06-.13.07-.03 0-.07-.03-.1-.02-.05.02-.05.04-.03.1.15-.06.3-.04.44-.15.02-.02.06 0 .1.02v.06c-.02.03-.06.05-.03.1.08.02.1-.07.17-.1H8c.12 0 .24-.02.32-.1 0-.02 0-.02.02-.03.06 0 .12.02.2 0 0 0 .02 0 .02.04-.05.02-.1.04-.15.08h-.1c-.03.06-.08.1-.16.1l-.07.05-.26.08c.1-.07.25-.13.34-.14 0 0 .03 0 .02-.04-.1 0-.22.03-.34.05-.04.1-.12.12-.2.14-.03 0-.06 0-.08.02-.02 0-.04.02-.04.05l.07.06s.03 0 .03.03H7.6v-.04l-.1.02c-.03 0-.04-.02-.05-.03 0-.02 0-.03-.03-.04l-.03.03h-.05c-.1.03-.18.04-.27.05H7c-.03-.02-.06-.02-.1-.02v-.04c-.06-.03-.1 0-.14 0l-.05-.03c.06-.02.1 0 .16-.04.05-.04.15-.03.14-.14-.04 0-.06 0-.1.02-.06-.02-.12 0-.2.02-.03-.03-.05-.07-.1-.1h-.06c-.02 0-.04 0-.07-.02-.03 0-.04.02-.06.04H6.4h.02c-.02.04-.04.06-.08.07-.06 0-.1-.03-.17 0 0 .04-.05.08-.08.12a.09.09 0 0 0-.1 0c-.04.04-.08-.02-.12 0l-.03.12c.05.1.15.12.23.18.06.05.13.03.2-.03l.04-.1h.04c.02.08.02.08.05.08.08 0 .15.04.22.1.02 0 .05-.02.06 0 .04.1.05.1.15.06 0-.03 0-.05-.02-.08.08-.02.15 0 .2.02.06.03.1.04.16.05v.05c.03 0 .08 0 .1.02.07.03.12.04.16-.04h.09c.04 0 .05-.04.08-.04.08.02.08.02.18 0 .03.03.02.08.1.1.05 0 .14 0 .22-.04.08-.04.18-.04.26-.1.06.06.1.1.17.13l.08-.06c.08-.07.16-.1.27-.08H9c.1-.03.17-.02.3.02-.14.12-.3.1-.45.14v-.04c0-.02 0-.03-.03-.04-.03 0-.06-.02-.08 0l-.04.08c-.1.04-.22.04-.3.13 0 .05.05.06.08.07.22.04.43.04.63-.06.04 0 .06-.03.1-.04.03 0 .08-.04.13-.04.1 0 .2-.02.3-.04.02-.06.1-.07.14-.14-.07 0-.12-.03-.18-.04l-.2.02c.02-.07.02-.13.07-.14.08 0 .1.05.18.02l.17-.1v-.1c.02-.03.04-.06.1-.07l.3-.08c.04 0 .07-.05.06-.1 0-.04-.05-.07-.1-.06l-.07.02s-.03 0-.05-.02c.15 0 .27-.12.43-.08 0 .07-.05.07-.08.1-.02 0-.05.02-.04.06.02.03.05.03.08.02.04-.02.07.02.1 0 .03-.05.08-.06.13-.07.05-.02.1-.02.16-.03v.07c.03 0 .06 0 .1.02.14.04.16.02.2-.14-.04 0-.1 0-.12-.05.1-.04.18-.1.27-.1.15-.04.3-.08.43-.14.07-.03.14-.08.22-.1.22-.06.43-.15.62-.26.02 0-.02-.04-.1-.1-.03.03-.08.04-.13.05l.1-.07c-.03 0-.05-.02-.07-.03.04-.02.08-.05.1-.08 0 .06-.02.1-.04.1 0 .02.03.03.05.05l.05-.03c.02-.04.03-.06.02-.1 0-.03-.03-.05-.07-.03.1-.1.15-.2.18-.32.1-.02.16-.1.25-.12.05.03.02.1.08.12.03 0 .05 0 .08-.03.05-.05.1-.1.16-.12.1-.03.18-.1.25-.16h.02-.06c.08-.07.14-.12.2-.14.03 0 .05.02.05.06 0 0-.03 0-.04.02h.05c.05 0 .1 0 .14.02.14.05.25 0 .36-.1.07-.08.13-.15.2-.2.06-.06.1-.12.13-.2.03-.08.08-.17.2-.2l.05-.06c.1-.1.2-.24.26-.37.07-.1.12-.2.2-.3.15-.22.3-.45.43-.68 0-.02 0-.03-.02-.05-.05.02-.08.08-.12.13-.05.05-.1.1-.13.17l-.13.15c-.04.05-.06.12-.16.17.05-.07.08-.1.1-.15.02-.04.05-.07.05-.1.02-.08.06-.14.1-.2.03-.02.02-.04 0-.06-.06 0-.1.04-.12.08l-.14.15c.05-.14.14-.25.2-.4-.02-.06 0-.13.06-.2.03-.03.07-.07.06-.13-.03-.02-.06-.02-.08 0-.03 0-.06.03-.08.05v-.03l.07-.23.04-.04.02-.07c.08-.2.14-.38.16-.6v-.02l-.02-.02c0-.16.08-.3.1-.46h.02c0-.02 0-.04.02-.07 0 0 .02-.03.04-.03.06.05-.03.12 0 .17.03 0 .05 0 .06-.02.04-.1.08-.2.07-.3 0-.04 0-.08.02-.13l.02-.15c.04-.3.04-.58.1-.87 0-.13 0-.24-.04-.34zM.5 6.14c-.03-.03 0-.05.02-.06 0 0 0 .04-.02.05zm.2 2.8c-.05.02-.12 0-.14.07 0-.03 0-.06-.02-.1 0-.03.03-.07.04-.1 0-.03.06-.02.06-.07 0-.03-.06 0-.07-.05v-.1l.04-.22.03.06c0 .06-.04.1-.02.16.04.04.07.08.1.14 0 .06.02.13 0 .2zm.15-4.13c0-.03-.02-.06 0-.1v.02c.02 0 .02-.02.03-.03.03.03.04.06.03.08 0 .03-.02.04-.05.04zm.08 5.3L.9 10.1v-.04L.85 10c0-.02.04-.03.06-.04.06.06.05.1 0 .17zm.06 1v.02c0 .02 0 .05.02.07a.11.11 0 0 1-.03-.1zm-.02-.78zm.1-4.5c0-.02 0-.02.02-.03v.03zm1.1 6.12zm-.43-.45l-.02-.02a.584.584 0 0 1-.04-.18v-.07c0 .06.03.1.06.16l.12.14.07.1.08.15s.03.03.03.05c0 .02 0 .03.02.05-.1-.13-.24-.25-.33-.4zm.3.62c.05 0 .08 0 .1-.02l.05.08c-.05 0-.1 0-.14-.06zm.2.18h.02s0 .02.02.03c-.02 0-.04-.02-.05-.03zm.26-9.52v.02zm.13 10.42c-.04 0-.05-.02-.06-.06.04-.04.1-.03.13-.02 0 .04 0 .04-.07.08zm.24.1c-.03-.02-.07-.02-.1-.06 0-.02 0-.04.03-.05.02.03.04.05.07.06v.03c.04 0 .06.02.07.06-.04 0-.06-.03-.07-.07zm.67-11.6c-.12.1-.2.2-.3.33-.1 0-.2.04-.26.14-.03.04-.08.03-.12.07-.02.1-.1.2-.2.28l-.04.06-.05.07-.02-.08c0-.05.03-.1.04-.14 0-.12.08-.23.1-.35l.2-.13c.04-.05.1-.08.18-.1l.5-.22-.04.07zm2.9 13.58h-.02.02zm.23-.24v-.02h.05c-.02 0-.03 0-.05.02zm.15.35v-.08l.2.02c-.07.06-.15 0-.2.05zm.76 0zm.12-.22c0-.02.03-.04.06-.03.06 0 .12-.02.17-.04.03.02.04.03.04.05-.03.03-.2.05-.27.03zm.77-.03c-.05.02-.1.02-.14.05-.06.04-.13.04-.22.03.14-.06.26-.08.37-.12.02 0 .04 0 .05.02l-.05.03zM4.6 1.25h-.06c0-.03.03-.03.05 0zm-.1 13.42c0-.04-.02-.05-.07-.05.04-.02.07-.05.12-.05.04.03.1.02.17.08-.08 0-.15 0-.2.02zm.35-.4l-.14-.16c.05 0 .08 0 .15.05 0 .04.02.08 0 .12zm.5.27c-.04 0-.07-.02-.1-.05 0-.1.04-.12.1-.14.07.03.12.07.14.13-.07-.02-.1.03-.14.04zm-.12-1.16c0-.02.02-.03.05-.04.03 0 .05.02.06.05h-.06c-.02 0-.03 0-.05-.02zm.2 0v.1c-.03-.03-.03-.04 0-.1zm.24.48l-.03-.02c-.05-.05-.1-.1-.17-.12l.02-.02c.04 0 .06.04.1.04h.02c.07.02.12.06.16.12-.02-.02-.04-.04-.08-.04l-.03.04zm-.1-.54h.02s.02 0 .02.02-.02 0-.02 0v-.02h-.02zm.95 1.1c-.08.03-.14-.04-.2-.03-.08 0-.15.02-.23.03-.04 0-.08 0-.1-.05-.02-.04 0-.05.03-.06.06-.02.07.04.12.04.02 0 .02-.03 0-.05-.05-.05-.13-.05-.2-.03-.1.03-.2 0-.25-.1.06-.08.15-.05.23-.07 0 .02 0 .03.02.05.07 0 .13-.07.2-.03.05.02.1 0 .15-.03.04 0 .07.04.12.04l.1.1c-.02.06 0 .13 0 .2zm-.7-.94h.02c.02 0 .03 0 .02.03 0 0 0 .02-.02.02l-.02-.04zm.27.48l.06.05H6.1v-.04zm1.07.3c-.06 0-.1-.02-.14-.06-.03-.05 0-.08-.02-.12l-.13-.05C6.82 14 6.75 14 6.7 14v-.02c.1 0 .2 0 .28.03.03.02.06 0 .1.02.05 0 .1 0 .14.02-.03.07 0 .15-.05.2zm.5-.08l-.2-.1h.14c.1 0 .17.03.24.05h.03v.02l.08.03-.03.04c-.1 0-.2 0-.26-.04zm.12-.15h.02c.02 0 .04 0 .06.03-.03 0-.06 0-.1-.03zm.3.3c-.06.06-.12.08-.18.1v-.02H8l.02-.02-.06-.06c.05-.02.1-.04.15 0v.02zm.17-.15l.03-.1a.2.2 0 0 1-.15.02l.05-.08c.1 0 .16.04.2.12.02.04.05.04.08.07-.08.03-.15.04-.2-.02zm.17.45c.02 0 .04-.03.06-.04.02 0 .05 0 .06.02-.04.04-.08.02-.12 0zm.14-.4h-.02c-.03-.06.02-.08.04-.1.04 0 .08.02.1.04v.02c-.04 0-.08 0-.12.03zm0 .85h.04zm.18-.54c-.05 0-.1 0-.15-.03.02 0 .04-.02.05-.03.07 0 .1.03.16 0v.04l-.04.04.03-.03v.04c0 .02-.03 0-.04 0zm.06.35c0-.02 0-.02 0 0 0-.02 0-.02 0 0zm-.03-.8v-.02c.03-.03.03-.03.08 0-.03.03-.06.04-.1.02zm.2.93zm.8 0c0-.03 0-.03.02-.04l.03-.02c.04 0 .07-.02.1-.04-.03.07-.03.07-.16.08zm2.16-8.78v.24c0 2.43-1.85 5.24-5.24 5.24-1.04 0-2-.3-2.83-.83.13.03.28.04.43.04.87 0 1.66-.3 2.3-.8-.83 0-1.5-.54-1.74-1.27.1.02.2.03.33.03.17 0 .33-.02.5-.06-.85-.17-1.5-.92-1.5-1.8V7c.26.15.54.23.85.24-.5-.34-.83-.9-.83-1.54 0-.34.1-.66.25-.93a5.22 5.22 0 0 0 3.8 1.93c-.02-.14-.04-.28-.04-.42 0-1.02.83-1.85 1.85-1.85.54 0 1.02.22 1.36.58.42-.07.82-.23 1.17-.44-.14.44-.43.8-.8 1.03.36-.05.72-.15 1.05-.3-.25.37-.56.7-.92.95zm2.94 4.18l.02.02-.03.07h-.02c0-.03 0-.06.02-.1zm-.15.5v-.02.04zm.06-.1h-.02v-.03h.03c.02 0 0 .03 0 .03zm.12-.2c0 .02 0 .04-.02.07-.02.02-.04.03-.07 0l.04-.12c0 .02.03.03.05.04zm.65-3.92c.04 0 .04.03.04.05l.03.2h-.03l-.03-.24zm.04 2.2c-.02-.07 0-.13.02-.18.04.05.05.12 0 .2z"/><path d="M1.76 3.7c0 .02.03.03.05.04v-.1s-.04 0-.04.05zm4.51 11.05c.02.02.02 0 .03 0v-.02c-.02 0-.03.02-.03.02zm7.33-1.5c-.04 0-.1.02-.13.06.05 0 .1-.03.14-.05zm-.47.7c.07-.04.1-.08.12-.18-.1.02-.16.05-.2.1 0 .07.03.07.08.08zM.26 6.8c-.08.06-.08.06-.03.1.03-.02.03-.02.03-.1zm2.22-4.5c-.04-.03-.06-.03-.08 0-.03.03-.08.07-.08.15.08-.04.13-.08.16-.15zm3.05 12.53c.05.05.05.05.1.02-.03-.03-.06-.04-.1-.02zm9.93-5.15zM7.5 14.93c-.1 0-.1 0-.13.06.06 0 .1 0 .14-.07zm-3.25-.01c.03 0 .06 0 .06-.05a.254.254 0 0 0-.18-.08c0 .08.06.1.13.12zm1.63.38c-.04-.04-.08-.05-.13-.04 0 .07.06.08.13.03zm-.4-.02c.04-.03.1.02.15-.05-.1-.05-.2-.04-.27-.1-.06.05-.13.03-.2.05.1.1.2.17.32.16 0 0-.02-.03 0-.06zm.72.29h-.02c0 .02 0 .03.02.04 0 .02.03 0 .03 0 0-.02-.02-.03-.03-.03zm6.96-1.33c-.02 0-.03 0-.03.03 0 .02 0 .03.03.04h.03c0-.03 0-.06-.04-.06zm-7.88.84c-.04-.06-.1-.1-.15-.15-.02-.02-.05-.02-.06.02.03.05.1.08.1.15a.415.415 0 0 0-.27-.02c0 .03 0 .04.02.05.1.05.18.04.26-.03.03 0 .07.04.1-.02zm.27.32c.06.02.13.05.2.02a.46.46 0 0 0-.27-.07c.02.03.04.05.07.06zm1.41.27c-.03 0-.06-.02-.1 0-.07 0-.15 0-.22-.03 0 0 .03 0 .04-.03-.07 0-.07 0-.13.02 0 0 .02 0 .03.02l-.02.02c.13.06.27.07.42.08.02-.05 0-.07-.02-.07zM4.5 14.9c-.05 0-.1-.04-.14-.1 0 0-.03 0-.05.02 0 .04.04.06.07.08l.17.14.05.03c.02 0 .03 0 .03-.03a.254.254 0 0 1-.12-.13zm7.15 0c.06 0 .1-.02.1-.07-.06 0-.1 0-.1.07zm.35-.02c-.03 0-.04.04-.04.07 0 .03 0 .06.06.07.06-.04.14-.08.22-.17-.1-.02-.18 0-.24.03zm.65-.33s0 .02.02.02c.03 0 .04 0 .04-.04-.02-.03-.05-.02-.05.02zm.35-.35c-.1.04-.2.14-.36.1h-.02c-.2.1-.4.16-.6.2l-.15.08c-.03.02-.06.04-.06.1.02.03.05.07.1.08.1 0 .16-.07.24-.1.17-.03.3-.12.44-.24.02.03.05.03.07 0h-.07c.02-.03.05-.02.07 0 .15-.04.33-.13.4-.22 0-.02-.03-.02-.05 0zm-2.63.93c-.05.05-.1.1-.17.12-.07.03-.06.1.03.15.08-.1.18-.15.28-.22-.05-.08-.1-.1-.13-.05zm-2.77.47c.04.07.04.07.1 0-.03 0-.06-.06-.1 0zm-.5.06v.1c.22.03.26.02.3-.1-.1-.02-.2-.02-.3 0zm1.04.34c.08 0 .08 0 .1-.06-.04 0-.08-.02-.1.05z"/></symbol></svg>