<svg xmlns="http://www.w3.org/2000/svg" version="1.1" style="display:none"><symbol id="icon--arrow-left" viewBox="0 0 10.3 16" class="icon--arrow-left"><path d="M8.1 4.5c-.1.1 0 .1 0 0zm-.8 10.6c0 .1 0 .1 0 0-.1 0-.3-.3-.4-.4.2.1.3.3.4.4 0 .1-.1 0 0 0zm-.4-.2c-.1 0-.1 0 0 0-.1 0 0 0 0 0zm-2-7s-.1.2-.2.2l.2-.2zM1.6 5.6c.1-.1.7-.9.8-.8-.6.7-1.3 1.4-2 2 .3-.4.8-.8 1.2-1.2.1-.1-.1.1 0 0zm3.6 8.2c.1.1.4.3.3.5 0 0-.3-.4-.3-.5.1.1 0 0 0 0zm-.2-6c0-.1 0-.1 0 0 .1-.1 0 .1 0 0-.1 0 0-.1 0 0zm.9 6.7c.1.1.1.1.2 0h-.2c0-.1 0 0 0 0l-.1.1h.1v-.1zm0 .2c0 .1.1.2.2.2.2-.2-.1-.2-.2-.2zm0-.3s0-.1 0 0c-.1 0 0 0 0 0zm0 0zm1.2.8l.3.3c-.1 0-.4-.4-.5-.5.1 0 .2.1.2.2 0 0 0-.1 0 0zm-2.5-2.1c.1 0 .3.2.3.3-.2.1-.3-.3-.3-.3zm2 2.3c.2 0 .1.2 0 0 0 .1 0 0 0 0zM5 7.5c0 .1 0 .1 0 0-.1 0 .1 0 0 0zm1.1 6.6c.1.1.3.2.4.4-.2-.1-.4-.2-.4-.4.1.1 0 .1 0 0zM5 13.5v.1c0 .1-.1-.1 0-.1-.1-.1 0 0 0 0 0 .1-.1 0 0 0zm.3-6.2c0 .1-.1.1-.2.1 0-.1.2-.1.2-.1-.1.1 0 0 0 0zm0 0zm-1.1 5.4c.4.1-.1 0 0 0zm.8 1s0-.1 0 0z"/><path d="M5.2 13.8c.1.1-.2-.2-.2-.1.1-.1.2-.1.2.1 0 0 0-.1 0 0zM4.6 8c.1 0-.1.1 0 0-.1.1-.1 0 0 0 0 0-.1 0 0 0zm1.2 1.6c-.1 0-.2-.1-.2-.2.1 0 .2.1.2.2 0 0 0-.1 0 0zm2.3 6.3c0 .1-.2.2-.3.1.1 0 .2-.2.3-.1 0 0 0-.1 0 0zm-.5-.2l-.2-.2c.1 0 .1.1.2.2 0 0-.1-.1 0 0zM4.8 7.8c0 .1-.1.1 0 0-.1 0 0 0 0 0zm4.7 6.1l.1.1s-.1 0-.1-.1zm-1.2-2s-.2 0-.1-.1c0 0 0 .1.1.1zm-.2-.1zM.4 6.9c0 .1-.3.3-.4.4.2-.2.3-.4.4-.4zM7 15.8c0-.1 0-.1.1-.1 0 0-.1 0-.1.1zm1.9-3.5c0-.1 0-.1.1.1 0-.1 0-.1-.1-.1 0 0 .1 0 0 0zM4.8 7.7c.1.1 0 .1 0 0 0 .1 0 .1 0 0 0 .1 0 .1 0 0zm4.1 4.9s.1.2.1.1c0 0 0-.2-.1-.1 0 0 .1 0 0 0zm-2.4 1.7s.1 0 .1.1l-.1-.1zM2.6 4.7l-.1.1c0-.1.1-.1.1-.1zM6 14c-.1 0-.1-.1-.1-.1s0 .1.1.1c-.1 0-.1 0 0 0zm.6.7c-.1 0-.1-.1-.1-.1s.1 0 .1.1zm-.7-.7c.1 0 0 .1 0 .2 0 0 .1-.1 0-.2zm0-4.8c-.1 0-.1 0-.1-.1l.1.1c-.1-.1-.1-.1 0 0zM2.8 4.4c0 .1 0 .1-.1.1l.1-.1c-.1.1-.1.1 0 0zM9 3.1c0-.1.1.1 0 0 0 .1 0 .1 0 0zm-2.5 7.1l-.1-.1.1.1zm1.2 5.6s-.1 0 0 0zm-1-1l-.1-.1c.1 0 .1.1.1.1zM4.6 7.9c.1.1-.1.1 0 0zm1.8 6.2c.1 0 .1.1.1.1s-.1 0-.1-.1zM5 7.5zm0 0c.1 0 .1 0 0 0zM2.6 4.6zm0 .1zm2.8 4c-.1 0-.1 0 0 0-.1 0 0 0 0 0zm.2.6c0 .1-.1 0 0 0 0 .1 0 0 0 0zm.4.4s-.1 0 0 0zm0 .1c.1 0 .1 0 0 0zm3.2 2.8c0 .1 0 0 0 0zM7.3 11c.1 0 .1 0 0 0zM5.7 9zm-.2.3s0-.1 0 0c0-.1 0 0 0 0zm0 0zm-3.8.1c-.1 0-.1 0 0 0zm7.7 5.4c0 .1-.1.1 0 0-.1 0-.1 0 0 0zM5.2 9c-.1-.1.1.1 0 0zm3.9 4.2c.1 0 0 0 0 0zm-2.3-2.7c.1 0 .1 0 0 0zm-3.7.2c-.1 0-.1 0 0 0-.1 0-.1 0 0 0zm5.7 1.4zm-.7-.4c0 .1 0 .1 0 0 0 .1 0 .1 0 0zm-3.7 1.1s-.1 0 0 0c-.1 0-.1 0 0 0zM1.6 9.3c-.1 0-.1 0 0 0zm4.7.7zM4.6 8zm2.1 6.5zm.3-3.8zm-1 3.4s.1 0 0 0zm2.8-2zm0 0c0 .1 0 0 0 0zm0 .2c-.1 0-.1 0 0 0-.1 0-.1 0 0 0-.1 0-.1 0 0 0zm-2 2.3zm2.3-2.1s.1 0 0 0zm-2.4-2.1c.1 0 .1 0 0 0 .1 0 0 0 0 0zM4.8 7.7c.1 0 .1 0 0 0zM1.5 9.3c.1 0 0 .1 0 0zm6.8 2.3zm0 0zm0 0c0-.1 0-.1 0 0zm-.3.1zm.1-7.2c-.1 0 0 0 0 0zM6.4 6zm1.4 5.3zM9.2 2.7c-.1.2 0-.1 0 0zM9.3.5c-.1-.1-.1-.1 0 0-.1-.1-.1 0 0 0zm0 0z"/><path d="M10 1.3c-.1-.1-.2-.3-.3-.5 0 0-.3-.2-.4-.3 0 0-.2 0-.2-.1h.2c0-.1-.2-.2-.3-.3-.2-.1-.4-.1-.6-.1-.2 0-.2 0-.4.1s-.4.2-.5.3C6.7.9 6 1.4 5.4 2 4.1 3.2 2.8 4.6 1.6 5.9l.6-.5c.1-.1.2-.3.3-.4.1 0 .1-.1.2-.1.3-.4.7-.9 1.2-1.2 0 .1-.1.1-.1.1.2-.1.5-.4.7-.6.1-.2.5-.7.7-.7 0 .1-.3.4-.4.4-.2.3-.5.5-.7.7-.3.4-.7.9-1 1.2-.8.8-1.7 1.8-2.5 2.7-.2.2-.6.5-.6.7 0 .2.7.6.9.8.6.5 1.2 1.1 1.8 1.7l2 2c.1 0 0-.1 0-.1v.1c.2 0-.2-.3-.2-.3l-.6-.6c-.2-.2-.5-.4-.7-.6l-.6-.6c-.4-.3-.7-.7-1.1-1.1-.4-.4-.8-.8-1.2-1.1-.3-.2-.3-.2 0-.5l.5-.5c.7-.7 1.3-1.4 2-2.1-.2.4-.7.8-1 1.2-.5.5-1 1.1-1.6 1.6.3.2.6.7.9.8 0-.1-.5-.5-.6-.6-.2-.2-.2-.1 0-.3.1-.2.4-.5.5-.5 0 0-.5.6-.6.7 1 .9 2 1.9 3 2.8.4.4.8.7 1.1 1.1.2.2.3.4.5.6.2.2.4.4.5.6 0 .1-.6-.6-.6-.5-.1.1.4.5.4.5.1.1.2.2.2.4-.2-.1-.6-.9-.8-.9 0 .1.9 1.2.9 1.2.1-.1-.1-.2 0-.3 0-.1.1.1.1-.1.1 0 .5.6.6.6-.1 0-.1-.1-.1-.1.1-.1.1.2.1.2.1 0-.5-.6-.4-.7.2.1.5.5.6.7.3.3.5.7.8 1 .2.2.3.4.6.4h.2c.2 0 .1.1.2-.1l.1.1c.1 0 .1.2.2.1-.1-.2-.2-.2-.3-.4l.1.1-.1-.3c0 .1.5.4.5.4.2-.4-.2-.2-.2-.5.2 0 0-.2.1-.1s.3.2.3.3c.1 0-.1-.2-.1-.2s.1.1.1 0h.1c-.1 0-.1-.1 0-.1 0-.1 0-.3.1-.3-.1-.1-.1 0-.1-.2l.2.1c-.1-.1-.2-.1-.1-.2-.1-.1 0-.2 0-.3 0-.1-.1-.1-.1-.2 0 0-.2-.2-.2-.3 0 0-.1-.2 0-.2s.1 0 .1.1c0 0-.1-.4-.1-.5v.1l-.4-.4c.1-.1-.1-.1-.1-.2 0 0-.2-.1-.1-.1l-.3-.3c0-.1-.1-.3-.2-.3v.1c-.1 0-.2-.1-.3-.3 0 0-.1 0 0 0-.1-.1-.1-.2-.2-.2 0-.4 0-.4-.1-.5-.2-.1-.3-.3-.5-.5-.3-.3-.6-.6-1-.9-.1 0-.2-.1-.2-.2 0 0-.3-.3-.1-.2-.1-.1-.4-.2-.5-.4H5c-.2-.1-.2-.1-.3-.1 0 0-.3-.4-.4-.5.3-.3.7-.7 1-1.1l.6-.6c-.1.2-.1.3-.2.4-.1.1-.4.4-.4.5.7-.4 1-1.2 1.5-1.7-.1.1-.2.2-.3.4.2-.2.3-.4.5-.5-.1 0-.1.1-.2.1 0-.1.5-.5.7-.6.2-.2.4-.3.6-.4.2-.2.4-.5.6-.7.1-.1.1-.5.2-.6l.2-.3c-.2 0 0-.3.1-.3 0-.1 0-.1.1-.2-.1 0-.1-.1-.1-.2.3 0 .4-.3.7-.2-.2-.1.1.1.2-.1s0-.3.2-.3c-.1-.1-.2-.2-.3-.4zm-7.1 4c0-.1 0-.1.1-.1l-.1.1zm6.3 8.9c.1.1 0 0 0 0zm0 .5c-.1 0-.1 0 0 0 0-.1 0-.1 0 0zm-.1-.5s-.1 0 0 0c0-.1 0-.1 0 0zM9 12.9c-.1.1-.1.1 0 0zm-.8-.7c-.1 0-.1 0-.1-.1.1 0 .1 0 .1.1zm-.2 3h-.1.1zm-.1-3.4c.1.1.1-.1 0 0 .1.1 0 0 0 0zm0-.1c-.1.1-.1 0 0 0-.1 0-.1 0 0 0zm-.1 3.6s-.1 0 0 0c0-.1 0-.1 0 0zm-.1-3.8c-.1 0-.1 0 0 0-.1 0 0 0 0 0zm-.1-.2s-.1 0-.1-.1l.1.1zM4.7 8.8c.5.2.8.7 1.2 1 .6.5 1.2 1.1 1.7 1.6-.2 0-.7-.6-.8-.8-.4-.4-.9-.8-1.3-1.2-.3-.2-.6-.5-.8-.6 0-.1 0-.1 0 0zM6.2 6c-.1.1-.1.2-.2.4.1-.2.1-.4.2-.5.1-.2.4-.3.5-.5.2-.1.4-.5.7-.5-.3.4-.8.7-1.2 1.1zM9.4.4h-.1.1zM6.9 14.7zm-.7-.8z"/></symbol><symbol id="icon--arrow-right" viewBox="0 0 10.5 16" class="icon--arrow-right"><path d="M5.5 7.9l.2.2s-.1-.2-.2-.2zm3.4-2.2c-.1-.1-.7-.9-.8-.9.6.7 1.3 1.4 2 2-.4-.4-.8-.8-1.2-1.1-.1-.2.1.1 0 0zm-4.4 8.9s-.5 0-.3.1.3-.1.3-.1zm.7-.7c-.1.1-.3.3-.2.5 0 0 .3-.5.2-.5 0 0 .1 0 0 0zm.3-6.1s-.1-.1 0 0c-.1 0 0 .1 0 0 0 .1 0 0 0 0zm-1.3 6.6c.1.1.4.1.4-.1-.1.1-.3.1-.4.1 0 .1.1 0 0 0zm-1 .7l-.3.3c.1 0 .4-.4.5-.5-.1 0-.1.1-.2.2 0 0 .1-.1 0 0zm2.7-2c-.1 0-.3.2-.3.3.1.2.2-.2.3-.3zM3.1 15c.1-.1.2-.2.3-.4-.1.1-.4.4-.4.6 0-.1.1-.1.1-.2 0 0 0 .1 0 0zm.6.3c-.2 0-.1.2 0 0 .1.1 0 .1 0 0 0 0 0 .1 0 0zm1.7-7.7c.1 0 0 .1 0 0 .1 0 0 0 0 0zM4.2 14c-.1.1-.3.2-.4.4.2 0 .4-.2.4-.4-.1.2 0 .1 0 0zm1.3-.4c-.1 0-.1.1-.1.1.1 0 .2-.2.1-.1 0-.1 0-.1 0 0zm-.3-6.3c0 .1.1.1.2.1 0 0-.3-.1-.2-.1 0 .1 0 0 0 0zm0 0zm1.1 5.4c-.4.2.1.1 0 0-.1 0 0 0 0 0zm-.9 1zm-.1.1c-.1.1.2-.1.2-.1-.2 0-.2 0-.2.1zm.6-5.7c-.1 0 .1 0 0 0 .1 0 0 0 0 0zM4.6 9.6c.1 0 .2-.1.2-.2l-.2.2c.1 0 .1-.1 0 0zm-2.3 6.3s0 .1 0 0c.1.1.1 0 .2 0h-.2s.1 0 0 0zm.4-.3l.2-.2c0 .1-.1.1-.2.2 0 0 .1-.1 0 0zm3-7.7c0-.1 0 0 0 0zM.8 14.2l-.1.1s.1 0 .1-.1c-.1 0 0 0 0 0zM2.2 12s.2 0 .1-.1c0 0-.1 0-.1.1zm.1-.2c0 .1 0 .1 0 0 0 .1 0 .1 0 0zm7.8-4.9l.2.2c-.2-.1-.2-.1-.2-.2zm-6.7 8.8l-.1-.1s0 .1.1.1zm-1.9-3.4c0-.1 0-.1-.1.1 0 0 .1 0 .1-.1 0 0 0 .1 0 0zm4.1-4.5s.1 0 0 0c.1 0 .1 0 0 0 0 0 .1 0 0 0zM1.1 13l.1-.1c-.1 0-.1.1-.1.1.1 0 0 0 0 0zm2.7 1.2s-.1 0-.1.1l.1-.1zm4.1-9.5l.1.1-.1-.1zm-3.5 9.2c.1 0 .1-.1.1-.1-.1 0-.1.1-.1.1zm-.7.7c.1 0 .1-.1.1-.1s-.1 0-.1.1zm.8-.5h-.2.2zm.1-4.9c.1 0 .1 0 .1-.1l-.1.1zm3.1-4.7c0 .1 0 .1.1.1 0-.1-.1-.1-.1-.1zM.6 3.9c0-.1-.1 0 0 0zM4 10.2l.1-.1c-.1 0-.1.1-.1.1zm-1.4 5.5s.1 0 0 0zm1-1l.1-.1c-.1 0-.1.1-.1.1zM5.8 8c-.1 0 .1 0 0 0 0 0 .1 0 0 0zm-1.9 6c-.1 0-.1.1-.1.1.1 0 .1 0 .1-.1zm1.5-6.5zm0 0c0 .1 0 0 0 0zm2.4-2.9c0 .1.1.1 0 0 .1 0 .1 0 0 0zm.1.1zM5.1 8.8c0-.1 0-.1 0 0 0 0 0-.1 0 0zm-.3.6c.1 0 .1 0 0 0 .1-.1.1 0 0 0 .1 0 .1 0 0 0zm-.3.4c0-.1 0-.1 0 0 0 0 0-.1 0 0zm-.1 0zm-3.3 3s-.1 0 0 0c0 .1 0 0 0 0zm1.7-1.4z"/><path d="M9.8 7.4l-.5-.5c-.6-.7-1.3-1.4-1.9-2-.4-.5-.8-.9-1.2-1.4l-.6-.6c-.1-.1-.4-.3-.4-.4.2 0 .6.5.8.7.1.1.5.6.7.6 0-.1-.1-.1-.1-.1.3.2.5.5.8.8.2.2.3.3.5.4.1.1.2.3.3.4l.6.6C7.7 4.5 6.4 3.2 5 2 4.4 1.4 3.7.9 3 .4 2.8.3 2.6.1 2.4 0H2c-.2 0-.4 0-.5.1-.1 0-.4.2-.4.3 0 0 .2 0 .2.1S.9.5.9.5C.9.7.7.7.6.7L.3 1c-.1.3.1.5-.2.7.3 0 .2.1.1.3 0 .1-.2.8-.2.8.1.1.1-.1.2-.1h.3c.1 0 .2-.1.3-.1.2.1 0 .1 0 .2.1.1.2.2 0 .3.1.2.1.4 0 .5-.1.1-.2.2-.1.3 0 0 .4.1.4.2.2.1.4.2.5.3.4.2.8.4 1.1.6l.6.6c.2.2.4.6.6.6-.1-.1-.3-.2-.4-.4.2-.1 1.5 1.4 1.7 1.5.1-.1-1-1-1.1-1.1-.4-.4-.8-.7-1.2-1.1.3 0 .8.6 1 .8.3.2.5.5.8.7l1 1c.1.1.2.3.3.4.1.1.2.2.1.3-.1.1-.5.3-.4.4-.1 0 0-.1-.2.1h.1c-.1 0-.1 0-.2.1s0 .1-.1.2-.1-.1-.2.1c.2-.1 0 .1-.1.2l-.2.2c-.3.3-.6.6-1 .9-.2.2-.5.4-.7.6 0 0 .1 0 .1-.1-.1 0-.1 0-.1.1-.1 0-.1.2-.2.3-.1.2-.2.3-.3.3v-.1c-.1.1-.2.3-.3.4 0 0-.2.1-.1.1 0 0-.3.2-.2.3-.2 0-.4.3-.5.5-.2.1-.6.6-.5.7 0 0 .1-.2.1-.1v.1c-.1.1-.1.1-.1.2s.1.1 0 .1c0 .1-.1.1-.1.1 0 .1.1.2 0 .3.1.1 0 .1-.1.2l.2-.1-.1.2c.1 0 0 .2 0 .3 0 .3 0 .1.2.2 0 0-.2.2-.1.2.1-.1.3-.2.4-.3.1-.1.2-.3.4-.3 0 .4-.7.9-.6 1.2.2.1.5-.7.7-.6 0 .3-.4.5-.5.8.1.1.6-.6.7-.6 0 .2 0 .1.2.2h.2c.2-.1.4-.4.6-.6.3-.3.5-.6.8-1 .2-.2.4-.6.6-.7.1.1-.1.2-.1.3.1.1.2 0 .3 0 0 .1 0 .1-.1.1.1 0 .2-.1.3-.2 0 .2.1 0 .1.1s-.1.2 0 .3c.1 0 .9-1 .9-1.2 0 0-.3.3-.4.3-.2.2-.3.4-.5.6.1-.2.1-.3.3-.4 0 0 .4-.4.4-.5-.1 0-.6.6-.6.5.1-.2.3-.5.5-.7.1-.2.3-.4.4-.5.2-.4.6-.8 1-1.1 1-.9 2-1.8 3-2.8 0 0-.6-.6-.6-.7.3.1.6.5.7.7-.1.1-.8.7-.8.8.4-.2.6-.5.9-.8-.5-.6-1-1.1-1.6-1.6-.1-.3-.3-.5-.5-.7-.2-.2-.4-.4-.5-.6.4.3.7.8 1.1 1.1.6.6 1.1 1.2 1.7 1.8-.9.9-2 1.8-2.9 2.7l-.8.8-.6.6c-.1.1-.5.4-.3.4.1.1.6-.5.7-.7l.5-.5c.8-.8 1.7-1.6 2.5-2.4.1-.1.3-.3.5-.4.1-.1.5-.4.5-.5 0-.2-.5-.6-.7-.8zM1.1 2.1c0-.1-.1 0 0 0 0-.1.1 0 0 0zm2.4 3.7s-.1 0-.1-.1c0 0 .1 0 .1.1zM2.2 2.2c.1 0 .2.1.3.1-.1.1-.2 0-.3-.1.1.1.1.1 0 0zM1.8 2c.2.2-.4-.1-.4-.2.2.1 0-.1 0-.2.1 0 .2.1.3.2.1-.1-.2-.1-.2-.2 0-.2.4.1.4.1.1.1.9.5.8.7-.1.1-.8-.5-.9-.4zm-.7 12.6c-.1 0 0 0 0 0zm0 .4c0-.1 0-.1 0 0 .1 0 .1 0 0 0zm.2-1.7c-.1.1 0 .1-.1.1-.1-.1 0-.2.1-.1zm.6-.9c0-.1 0-.1 0 0zm.4-.2c-.1 0 0-.1 0-.1v.1zm.1-.1c-.1.1-.1 0 0 0zm.1-.2s0-.1 0 0c0 0 0 .1 0 0-.1.1 0 0 0 0zm-.1 3.4l.1-.2c.1.1 0 .2-.1.2zm.2-3.5s0-.1 0 0c.1 0 0 0 0 0zm.2-.2zm.1-.3c0-.1.1-.1 0 0 .1 0 0 .1 0 0zm2.8-2.5c-.2.3-.5.5-.7.7-.4.4-.8.7-1.2 1.1-.2.2-.4.3-.5.5-.1.1-.3.4-.4.4.6-.6 1.2-1.2 1.9-1.8.2-.2.4-.5.7-.7l.2-.2zm.1 0c0-.1 0-.1 0 0 0-.1 0-.1 0 0zm.1-.1s0-.1 0 0zm1.5-3.5c.1 0 .1 0 .1.1 0 0 0-.1-.1-.1zm-1.7 7.5z"/><path d="M4.8 9c-.1.1-.1.1 0 0 0 .1 0 .1 0 0zm.1.3c.1 0 .1 0 0 0 .1 0 0 .1 0 0zm0 0zm3.8.2c.1-.1.1-.1 0 0 .1-.1 0-.1 0 0zM.9 15.2c0-.1 0-.1 0 0zm.1-1.6c-.1 0 0 0 0 0zm2.5 1.2zm.1-4.3c0 .1 0 .1 0 0 0 .1 0 .1 0 0zm3.8.3c.1-.1.1-.1 0 0 .1-.1 0-.1 0 0zm-5.7 1.3c-.1 0-.1 0 0 0-.1.1 0 0 0 0zm.7-.3c-.1 0-.1 0 0 0-.1 0 0 0 0 0zm3.7 1.1zm2.8-3.6s.1 0 0 0zm1.5-1.7s0-.1 0 0c0 0 .1 0 0 0zM4.2 10c-.1 0-.1 0 0 0 0 .1 0 .1 0 0zm1.7-2s-.1 0 0 0zm-2.3 6.4zm-.2-3.7zm.9 3.3zm-2.7-1.8zm0 0zm.1.2s0-.1 0 0c0-.1 0-.1 0 0 0 0 0-.1 0 0zm-.4.1c0 .1 0 0 0 0zm2.4-2zm1.9-2.7zM9 9.4c-.1 0 0 0 0 0zm-6.9 2.2zm0 0zm0 0c.1 0 .1 0 0 0 .1 0 .1 0 0 0zm.3.1zm0 .1s0-.1 0 0c0-.1 0-.1 0 0zM4 6.3c-.1-.1-.1 0 0 0zm-1.4 5zM5 8.8s0 .1 0 0zM1.6 1.9h-.2c.1 0 .2.1.3.1 0-.1 0-.1-.1-.1 0-.1.1 0 0 0zm.1.1c.1 0 .1 0 0 0z"/></symbol><symbol id="icon--date" viewBox="0 0 14 16" class="icon--date"><path d="M12.5 2h-.7v-.7c0-.7-.6-1.3-1.3-1.3h-.2c-.8 0-1.4.6-1.4 1.3V2H5.1v-.7C5.1.6 4.5 0 3.8 0h-.2c-.8 0-1.4.6-1.4 1.3V2h-.7C.7 2 0 2.7 0 3.5v11c0 .8.7 1.5 1.5 1.5h11c.8 0 1.5-.7 1.5-1.5v-11c0-.8-.7-1.5-1.5-1.5zm-3-.7c0-.4.3-.7.7-.7h.2c.4 0 .7.3.7.7v2.2c0 .4-.3.7-.7.7h-.2c-.4 0-.7-.3-.7-.7V1.3zm-6.6 0c0-.4.3-.7.7-.7h.2c.4 0 .7.3.7.7v2.2c0 .4-.3.7-.7.7h-.2c-.4 0-.7-.3-.7-.7V1.3zM12 14H2V6h10v8z"/></symbol><symbol id="icon--link" viewBox="0 0 16 16" class="icon--link"><path d="M3.4 7.5c0 .3 0 .6.1.9 0 .1.1.3.1.4v.1c-.1.1-.2.1-.2.2l-.3.3c-.4.4-.9.8-1.1 1.3-.4.8-.3 1.8.2 2.5s1.4 1.2 2.3 1.1c.4 0 .9-.2 1.2-.5.1-.1.3-.2.4-.3l.9-.9 1.3-1.3.9-.9c.2-.2.4-.4.5-.6.2-.5.3-1.1.2-1.7-.2-1-1-1.9-2.1-2l.2-.2.9-.9.2-.2.1-.1s.1.1.2.1.2.1.3.1c.2.1.3.2.5.3 1.2.9 1.8 2.5 1.5 4-.1.8-.5 1.5-1 2.1l-.4.4-1.8 1.8-1.2 1.2c-.9.9-2.3 1.3-3.6 1.1-1.3-.2-2.5-1.1-3.1-2.3-.6-1.2-.6-2.6 0-3.8.1-.2.4-.6.7-.9l.7-.7 1.4-1.4v.8zm5.5-6.3c-.5.4-.9.8-1.3 1.2C7 3 6.4 3.6 5.9 4.2c-.2.2-.5.4-.6.7-.5.6-.8 1.4-.9 2.2-.1 1.5.6 3 1.9 3.9.1.1.2.1.3.2 0 0 .1 0 .1.1 0 0 .1.1.2.1l.1-.1.4-.4.9-.9.1-.1C7.2 9.7 6.4 9 6.1 8c-.1-.9.1-1.8.7-2.4l.8-.8c.4-.4.9-.8 1.3-1.2l1-1 .3-.3c.4-.3.8-.5 1.2-.6.9-.1 1.8.2 2.4 1 .5.7.7 1.7.3 2.5-.2.5-.7.9-1.1 1.4l-.5.5v.2c0 .1 0 .2.1.2.1.3.1.6.1.9 0 .3 0 .6-.1.9L13.9 8c.5-.5 1.1-1.1 1.5-1.7.6-1.1.7-2.5.2-3.7C15.1 1.4 14 .5 12.7.1c-1.2-.3-2.6 0-3.6.8 0 .1-.1.2-.2.3z"/></symbol><symbol id="icon--location" viewBox="0 0 9.4 16" class="icon--location"><path d="M4.7 0C2.1 0 0 2.1 0 4.7c0 .7.2 1.5.5 2.1L4.7 16l4.2-9.3c.3-.6.5-1.3.5-2C9.4 2.1 7.3 0 4.7 0zm0 7.4C3.2 7.4 2 6.2 2 4.7 2 3.2 3.2 2 4.7 2s2.7 1.2 2.7 2.7c0 1.5-1.2 2.7-2.7 2.7z"/></symbol><symbol id="icon--logo" viewBox="0 0 294.6 32" class="icon--logo"><path d="M54 28.3c-.3 0-1.2.2-1.7.2-1 0-1-.8-1-1.5v-7.5c0-2.8.4-5.9.4-6.1 0-.4-.2-.6-.6-.6-1 0-2 .1-3 .1-2.4 0-2.9-.1-3.5-.1-.3 0-.3.2-.3.8 0 .4.6.4 1.3.4 2.1 0 2.5.2 2.5 2.4v10.4c0 1.2-2.5 2.1-4 2.1-3 0-3.9-1.7-3.9-4.7V13.4c0-.6-.1-.6-.3-.6-.6 0-2.1.1-3.5.1-1.3 0-2-.1-2.4-.1-.4 0-.4.5-.4.8 0 .4.6.4.9.4 2.1 0 2.5.2 2.5 3.8V24c0 4.2 1.1 6.7 5.1 6.7 1.5 0 4-.7 6-2.2 0 .4-.1 1-.1 1.5 0 .3.2.6.5.6.2 0 1.2-.5 4.6-1 1.3-.2 1.3-.3 1.3-.5-.1-.8-.2-.8-.4-.8zM68 28c-.2 0-1.4.9-2.7.9-3.2 0-3.5-1.5-3.5-5.8v-8.4c3.3 0 5.2.2 5.5.2.8 0 1.1-.5 1.1-1 0-.6-.1-.8-.4-.8h-6.2c0-2.3.1-3 .1-3.7 0-.4-.2-.5-.5-.5-.8 0-1.6 2.1-5.3 4.9-.2.2-.2.4-.2.6 0 .2.1.4.2.4h2c.3 0 .4.2.4.5v10.5c0 1 0 5 4.6 5 3.6 0 5.3-1.9 5.3-2.1 0-.3-.2-.7-.4-.7zM107.1 29.3c-2.5 0-2.6-.8-2.6-1.4v-9.6c0-5.7-3.9-6-5.3-6-2.4 0-4.2 1-6.3 2.4V6.2c0-5.2.2-5.6.2-5.8 0-.2-.1-.4-.2-.4-.4 0-2.1 1-4.9 1.6-.3.1-.6.1-.9.2-.4.1-.7.2-1.1.3-.8.3-1.8.7-2.8 1.3-.5.3-.9.7-1.3 1.2s-.7 1-.9 1.6c-.1.3-.2.6-.2.9 0 .3-.1.6-.1.9v.5c0 .1 0 .3.1.4 0 .1 0 .3.1.4 0 .1.1.3.1.4.1.3.1.5.2.8.1.3.2.5.3.7.1.2.2.5.3.7l.3.6c-.9-.3-1.9-.5-3.3-.5-5.2 0-9.1 3.6-9.1 9.5 0 5.7 3.6 9 8.3 9 2.6 0 5-1.1 7-3.4.2-.2.3-.4.3-.6 0-.3-.5-.6-.6-.6-.2 0-.4.4-.7.6-.8.7-2.6 1.7-4 1.7-6.1 0-6.8-5-6.8-6.8 0-6.6 3.1-8.5 5.6-8.5 2.1 0 2.4 1.3 2.5 1.9.4 2.2.6 2.6 1.9 2.6 1.5 0 2.1-1.2 2.1-1.7 0-.3-.1-.7-.3-1-.3-.5-.6-1-1.1-1.3-.2-.2-.4-.3-.6-.4-.1-.1-.2-.1-.3-.2-.1-.1-.2-.2-.2-.3-.1-.1-.1-.3-.2-.4l-.3-.6c-.1-.2-.2-.4-.3-.7-.1-.2-.2-.5-.2-.7-.1-.2-.1-.5-.2-.7 0-.1-.1-.3-.1-.4v-.4-.8c0-.3.1-.5.1-.8.1-.3.1-.5.2-.8.2-.5.5-.9.8-1.3.3-.4.7-.7 1.2-1 .8-.6 1.8-.9 2.5-1.1.3-.1.7-.2 1-.2.4 0 .7 0 1.1.1.2 0 .3.1.5.2.1.1.2.1.3.2.1.1.2.2.2.3.1.2.1.3.2.5 0 .2.1.4.1.6v16.2c0 1.7-.1 7-.2 7.4-.2.6-.6 1-1.4 1-1.5 0-1.5.1-1.5.6 0 .2 0 .4.3.4.4 0 1.4-.1 5.2-.1 2.8 0 3.3.1 3.5.1.4 0 .4-.3.4-.5 0-.5-.1-.5-1.2-.5-1.8 0-1.8-.5-1.8-2.8V15.9c.2-.7 2.1-1.5 3.8-1.5 4.2 0 4.5 2.5 4.5 6.2v7.2c0 1.3-.4 1.5-2.3 1.5-.5 0-.6.4-.6.6 0 .2 0 .5.3.5s1-.1 4.2-.1c2.1 0 2.8.1 4 .1.6 0 .6-.3.6-.5 0-.4 0-.6-.4-.6zM26 4.2c-2.2-1.5-4.2-2.2-7-2.5-.3-1-1.2-1.7-2.2-1.7-.6 0-1.2.3-1.7.7a2.413 2.413 0 0 0-3.4 0c-.7.6-2.1 1.1-3.9 1.1-1.6 0-3.1-.5-3.8-1.1C3.6.3 3 0 2.3 0 1.1 0 0 1.1 0 2.3 0 3 .3 3.6.7 4c.6.7 1.1 2.3 1.1 4.3S1.3 12 .7 12.7c-.4.4-.7 1-.7 1.6 0 .7.3 1.3.7 1.7-.4.4-.7 1-.7 1.7 0 .6.3 1.2.7 1.6.6.6 1.1 2.4 1.1 4.4 0 2-.5 3.7-1.1 4.3-.4.4-.7 1-.7 1.7C0 30.9 1.1 32 2.3 32c.7 0 1.3-.3 1.7-.7.7-.6 2.1-1.1 3.9-1.1 1.7 0 3.2.4 3.9 1.1.4.4 1 .7 1.7.7.6 0 1.2-.3 1.7-.7.4.4 1 .7 1.7.7 1.1 0 2-.8 2.3-1.8 3.4-.7 6.2-2.3 8-3.9 2.8-2.6 4.4-6.5 4.4-10.9-.2-3.8-1.7-8.6-5.6-11.2zm-7.3 24.1c-.4-.6-1.1-1-1.9-1-.6 0-1.2.3-1.7.7-.4-.4-1-.7-1.7-.7-.6 0-1.2.3-1.6.7H4v-8.7c.4-.4.7-1 .7-1.6 0-.7-.3-1.3-.7-1.7.4-.4.7-1 .7-1.7 0-.6-.3-1.2-.7-1.6V4h7.8c.4.4 1 .7 1.6.7.6 0 1.2-.3 1.7-.7.4.4 1 .7 1.7.7.9 0 1.7-.5 2.1-1.3.8.3 1.7.6 2.4 1.1 2.2 1.3 5.2 4.7 5.3 11.1.2 6.5-3.2 10.9-7.9 12.7zm.4-2.2c.7-.4 1.3-.8 1.9-1.2H7.1V7.1h14.5c-.4-.4-.8-.7-1.3-1-.1-.1-.2-.1-.3-.2H5.9v20.3h13.2zM126.8 19.9c-1.2 0-1.3 0-1.6.8-1.7 4.4-2.2 6.2-2.2 6.9 0 .5 0 1.4 2.1 1.4 2.4 0 2.6.2 2.6.6 0 .5-.1.6-.5.6-.3 0-.8-.1-5.6-.1-2.4 0-2.8.1-3.2.1-.2 0-.3-.2-.3-.7 0-.3.4-.5 1.5-.5.8 0 1.5-.5 2-2 2.4-7.1 5.5-15.7 9.4-25.4.1-.4.3-.4.8-.4.4 0 .5 0 .7.5.3.7 7 19 9.8 25.4.6 1.5 1.5 1.9 3 1.9.4 0 1.2.1 1.2.4 0 .3-.1.8-.4.8-.4 0-.7-.1-5.6-.1-5.4 0-5.7.1-6 .1-.2 0-.2-.3-.2-.7 0-.4.9-.5 1.7-.5 1.6 0 2.1-.2 2.1-.9 0-1-2.4-6.6-3-8.3h-8.3zm7.7-1.3l-4.2-11.7h-.1c-.3 0-4.1 10.7-4.1 11.3 0 .4.2.4 1.5.4h6.9zM150.7 15.4c0-1.7-.4-2.1-1.2-2.2l-1.6-.1c-.2 0-.4-.1-.4-.6 0-.2.1-.5.3-.5.5 0 2.2.1 4.5.1 1.7 0 3.3-.1 5-.1 3.8 0 5.9 1.8 5.9 4.6 0 3.9-3.8 4.2-3.8 4.6 0 .1.2.4.6 1.1l3.5 6c.3.5.7.8 1.5.8.7 0 1 .1 1 .4 0 .5 0 .7-.2.7-.9 0-1.8-.1-2.7-.1-.8 0-1.6.1-2.3.1-.4 0-.6-.3-1-1.3l-2.7-5.6c-.5-1-.8-1.2-1.6-1.2H154V27c0 1.7.4 2.1 1 2.2l1.4.2c.3 0 .5.1.5.5 0 .2-.1.5-.3.5-.5 0-2.2-.1-4.2-.1s-3.7.1-4.2.1c-.2 0-.3-.3-.3-.5 0-.4.2-.4.5-.5l1.4-.2c.6-.1 1-.4 1-2.2V15.4zM154 21h1.9c2 0 3.9-1.4 3.9-3.7 0-2.7-1.9-4-3.9-4-1.8 0-2 .1-2 3.4V21zM175.5 15c0-1.6-.3-1.7-1-1.7h-2.2c-2.4 0-3.6.2-4.6 1.9-.6 1.1-.8 1.2-1.1 1.2-.4 0-.7-.1-.7-.3 0-.1.2-.6.2-.9l1-3.2c.1-.2.2-.3.3-.3.1 0 .2.1.4.2s.4.2.6.2H185c.2 0 .3-.1.5-.2s.3-.2.4-.2c.3 0 .5.2.6.6l.9 2.5c.2.5.2.8.2 1 0 .2-.1.3-.7.3-.2 0-.4-.3-1-1.1-1-1.5-1.6-1.7-4.4-1.7-2.6 0-2.8.1-2.8 1.3V27c0 1.7.3 2.1 1.4 2.2l1.6.1c.3 0 .5.1.5.6 0 .2-.1.5-.3.5-.5 0-2.2-.1-4.8-.1-2.7 0-4.3.1-4.8.1-.2 0-.3-.3-.3-.5 0-.5.2-.6.5-.6l1.6-.1c1.2 0 1.4-.4 1.4-2.2V15zM201 11.2c0-2.8 0-3.8-.1-5.6 0-2.4-.7-2.7-3.6-2.7-.4 0-.4-.3-.4-.7 0-.2.1-.5.4-.5.3 0 3.8.2 6.3.2 2.1 0 3.9-.2 5.1-.2 6.1 0 9.1.4 12.5 2.7 3.8 2.5 5.3 7.3 5.3 11 0 4.4-1.6 8.2-4.3 10.8-2.3 2.1-6.4 4.2-11.2 4.2-1 0-2.6-.1-7.3-.1-5.9 0-6 .1-6.3.1-.3 0-.3-.2-.3-.5 0-.4 0-.7 1.1-.7 1.9 0 2.8-.7 2.8-1.8.1-2 .1-4.6.1-6.3v-9.9zm4 16c0 1.4 1.2 1.9 3.8 1.9 7.2 0 13.2-5 13-13.5-.2-6.4-3.1-9.6-5.2-11-2.2-1.4-5-1.8-7.5-1.8-4 0-4 .2-4 3v21.4zM236.4 11.6c0-.1.4-.2.6-.2.2 0 .5 0 .6.2l5.5 15.4c.6 1.8 1.2 2 1.7 2.1l1 .2c.2 0 .3.1.3.2 0 .5 0 .7-.3.7-1.4 0-2.7-.1-4.2-.1s-2.8.1-4.2.1c-.2 0-.3-.2-.3-.5 0-.4 0-.6.5-.6h.9c1 0 1.2-.4 1.2-.9 0-.9-.7-2.7-1.4-4.6h-5.8c-.2 0-.4.2-1 1.7-.5 1.2-1 2.2-1 2.8 0 .6.2 1 .8 1l1.6.2c.5 0 .6.1.6.4v.4c0 .2-.1.2-.2.2-1 0-2.3-.1-3.4-.1s-2.4.1-3.4.1c-.1 0-.2-.1-.2-.2v-.5c0-.2.2-.2.4-.2l1.2-.2c.5-.1.8-.5 1.2-1.2l7.3-16.4zm-.7 4.5c-1.6 3.1-2.9 6-2.9 6.1 0 .1 0 .3.2.3h4.8l-2.1-6.4zM250.7 15.2c0-1.6-.3-1.9-.9-2l-1.4-.2c-.4 0-.5-.1-.5-.5 0-.3.1-.5.3-.5.5 0 2.2.1 4.2.1s3.7-.1 4.2-.1c.2 0 .3.2.3.5 0 .4-.2.4-.5.5l-1.4.2c-.6.1-.9.4-.9 2v12c0 1.6.3 1.9.9 2l1.4.2c.4 0 .5.1.5.5 0 .3-.1.5-.3.5-.5 0-2.2-.1-4.2-.1s-3.6.1-4.2.1c-.2 0-.3-.2-.3-.5 0-.4.2-.4.5-.5l1.4-.2c.6-.1.9-.4.9-2v-12zM262.4 15.4c0-1.6-.3-2.1-1.1-2.2l-1.6-.2c-.4 0-.5-.2-.5-.5 0-.2.1-.5.3-.5.5 0 2.2.1 4.5.1s4-.1 4.5-.1c.2 0 .3.3.3.5 0 .4-.2.4-.5.5l-1.7.2c-.7.1-1 .6-1 2.2v10.3c0 3.4.4 3.5 2.8 3.5 3.4 0 4.2-.7 5.1-2.2l.9-1.6c.3-.6.4-.6.4-.6.1 0 .4 0 .7.1.1 0 .2.1.2.2s-.2 1-.3 1.4l-.7 3c-.2.8-.2 1-.6 1-2.3 0-5.1-.1-7.6-.1-2.3 0-4.7.1-7 .1-.2 0-.3-.3-.3-.5 0-.4.2-.4.5-.5l1.7-.2c.7-.1 1-.6 1-2.2V15.4zM282.5 24v-.6l-.3-.6L278 16c-1.4-2.3-1.7-2.7-2.2-2.8l-1.2-.2c-.3 0-.3-.2-.3-.5 0-.4 0-.6.4-.6 1.4 0 2.9.1 4.3.1s2.9-.1 4.3-.1c.2 0 .3.2.3.6 0 .4-.2.4-.4.4-2 0-2.3.3-2.3.9 0 .3.2.6.5 1.1l2.9 4.8c.7 1.1 1 1.6 1.1 1.6.2 0 .4-.5.8-1l1.5-2.4c1.3-2.1 1.8-3.2 1.8-3.8 0-1-1.5-1-2.1-1-.3 0-.4-.1-.4-.3 0-.6 0-.8.3-.8 1.2 0 2.4.1 3.6.1s2.4-.1 3.5-.1c.2 0 .3.2.3.6 0 .3 0 .4-.3.4-1.5 0-2.3.4-2.9 1.2l-5.1 7.7c-.4.7-.6 1.3-.6 2.2v2.6c0 1.9.6 2.2 1.5 2.3l1.2.1c.3 0 .4.2.4.5s-.2.5-.5.5c-1.4 0-2.9-.1-4.6-.1-1.7 0-3.2.1-4.6.1-.2 0-.3-.2-.3-.5 0-.4.1-.6.3-.6l1.8-.1c1.2 0 1.4-.6 1.4-2.8V24z"/></symbol><symbol id="icon--medium" viewBox="0 0 16 16" class="icon--medium"><path d="M0 7.9c0-2 .8-4 2.3-5.6 3.1-3.1 8.2-3.1 11.3 0s3.1 8.2 0 11.3c-1.5 1.5-3.5 2.3-5.6 2.3h-.2c-.4 0-.9 0-1.3-.1-.6-.1-1.1-.4-1.5-.8-.3-.3-.5-.7-.5-1.1-.1-.5 0-.9.3-1.3.2-.2.3-.5.3-.8 0-.2-.2-.5-.4-.7-.2-.2-.4-.4-.7-.4-.3 0-.6.2-.8.3-.4.3-.8.3-1.3.3-.4-.1-.8-.3-1.1-.5-.3-.3-.5-.8-.7-1.3C.1 9 0 8.6 0 8.2v-.3zm2.1-.6c.5.5 1.3.5 1.8 0s.5-1.3 0-1.8-1.3-.5-1.8 0-.5 1.3 0 1.8zm2.1-4.1c0 .7.6 1.2 1.2 1.2s1.2-.6 1.2-1.2S6.1 2 5.5 2s-1.3.5-1.3 1.2zm4.5-1.4c-.5.5-.5 1.3 0 1.8s1.3.5 1.8 0 .5-1.3 0-1.8-1.4-.5-1.8 0zM12.8 4c-.7 0-1.2.6-1.2 1.2s.6 1.2 1.2 1.2S14 5.9 14 5.2 13.5 4 12.8 4zm1.4 4.4c-.5-.5-1.3-.5-1.8 0s-.5 1.3 0 1.8 1.3.5 1.8 0 .4-1.3 0-1.8zm-6 1.5c-.5-.5-1.3-.5-1.8 0s-.5 1.3 0 1.8 1.3.5 1.8 0 .5-1.3 0-1.8z"/></symbol><symbol id="icon--size" viewBox="0 0 16 16" class="icon--size"><path d="M16 0h-2v3h-1V0h-2v2h-1V0H8v3H7V0H5v2H4V0H0v4h3v1H0v2h2v1H0v2h3v1H0v2h2v1H0v2h5V5h11z"/></symbol></svg>