<svg xmlns="http://www.w3.org/2000/svg" width="48" height="48" viewBox="0 0 48 48"><title>icon-github</title><path d="M47,24A23,23,0,0,0,1,24c0,.07,0,.14,0,.22s0,.23,0,.35A23.13,23.13,0,0,0,16.72,46.5c1.17.21,1.59-.51,1.59-1.11s0-2.38,0-4.3c0,0-6.41,1.38-7.76-2.74,0,0-1-2.68-2.54-3.37,0,0-2.1-1.45.15-1.42a4.85,4.85,0,0,1,3.53,2.38c2,3.55,5.36,2.53,6.68,1.93a5.07,5.07,0,0,1,1.47-3.1C14.69,34.2,9.33,32.21,9.33,23.36a8.94,8.94,0,0,1,2.36-6.19A8.39,8.39,0,0,1,11.93,11c1.92-.6,6.32,2.38,6.32,2.38a21.32,21.32,0,0,1,11.5,0s4.4-3,6.32-2.38a8.39,8.39,0,0,1,.24,6.14,8.94,8.94,0,0,1,2.36,6.19c0,8.88-5.39,10.84-10.51,11.41A5.44,5.44,0,0,1,29.72,39c0,3.1,0,5.6,0,6.35s.42,1.32,1.59,1.11A23.13,23.13,0,0,0,47,24.57c0-.12,0-.24,0-.35S47,24.07,47,24Z"/><path d="M15.21,39.18c0,.22.22.37.53.34s.49-.16.49-.34-.25-.37-.53-.34S15.21,39,15.21,39.18Z"/><path d="M13.39,38.59c-.06.18.12.4.4.46a.45.45,0,0,0,.58-.18c.06-.19-.12-.41-.4-.5A.48.48,0,0,0,13.39,38.59Z"/><path d="M17.07,39.28c0,.19.27.31.55.25s.46-.25.43-.43-.27-.31-.55-.28S17,39.07,17.07,39.28Z"/><path d="M9.92,35.21c-.12.09-.09.31.06.49s.37.22.5.09.09-.31-.06-.49S10.05,35.08,9.92,35.21Z"/><path d="M9,34.42c-.06.12,0,.27.22.36a.27.27,0,0,0,.4-.06c.06-.12,0-.27-.22-.37S9,34.32,9,34.42Z"/><path d="M10.86,36.5c-.16.1-.16.34,0,.56s.4.31.52.21.16-.36,0-.58A.37.37,0,0,0,10.86,36.5Z"/><path d="M12.14,37.46c-.15.12-.09.4.12.59s.5.24.62.09.06-.4-.12-.59S12.26,37.31,12.14,37.46Z"/></svg>