<svg xmlns="http://www.w3.org/2000/svg" width="48" height="48" viewBox="0 0 48 48"><title>icon-pinterest</title><path d="M47,24A23,23,0,0,1,24,47a22.48,22.48,0,0,1-6.53-1,19.05,19.05,0,0,0,2.34-4.91s.27-1,1.61-6.32c.78,1.53,3.12,2.88,5.6,2.88,7.4,0,12.43-6.74,12.43-15.79,0-6.79-5.78-13.17-14.58-13.17C14,8.73,8.46,16.57,8.46,23.1c0,3.95,1.49,7.49,4.7,8.81a.79.79,0,0,0,1.14-.6c.12-.39.36-1.41.48-1.83a1.14,1.14,0,0,0-.33-1.29,6.66,6.66,0,0,1-1.53-4.52,10.89,10.89,0,0,1,11.32-11c6.17,0,9.58,3.77,9.58,8.83,0,6.62-2.93,12.22-7.3,12.22a3.56,3.56,0,0,1-3.63-4.43c.69-2.9,2-6.05,2-8.15,0-1.88-1-3.47-3.12-3.47-2.45,0-4.43,2.55-4.43,6a9.54,9.54,0,0,0,.75,3.65c-2.52,10.67-3,12.52-3,12.52a20.14,20.14,0,0,0-.39,5.3A23,23,0,1,1,47,24Z" fill-rule="evenodd"/></svg>