<svg xmlns="http://www.w3.org/2000/svg" width="48" height="48" viewBox="0 0 48 48"><title>icon-date</title><path d="M39.81,6.72H37.72V4.81A3.82,3.82,0,0,0,33.9,1h-.61a3.82,3.82,0,0,0-3.81,3.81V6.72h-11V4.81A3.82,3.82,0,0,0,14.71,1H14.1a3.82,3.82,0,0,0-3.82,3.81V6.72H8.19A4.3,4.3,0,0,0,3.88,11V42.69A4.3,4.3,0,0,0,8.19,47H39.81a4.3,4.3,0,0,0,4.31-4.31V11A4.3,4.3,0,0,0,39.81,6.72Zm-8.5-1.91a2,2,0,0,1,2-2h.61a2,2,0,0,1,2,2v6.35a2,2,0,0,1-2,2h-.61a2,2,0,0,1-2-2V4.81Zm-19.2,0a2,2,0,0,1,2-2h.61a2,2,0,0,1,2,2v6.35a2,2,0,0,1-2,2H14.1a2,2,0,0,1-2-2V4.81ZM38.38,41.25H9.62v-23H38.38Z"/></svg>