<svg height="48" viewBox="0 0 48 48" width="48" xmlns="http://www.w3.org/2000/svg"><path d="m24 1a23 23 0 1 0 23 23 23 23 0 0 0 -23-23zm12.25 18.23v.75c0 7.67-5.84 16.52-16.52 16.52a16.41 16.41 0 0 1 -8.9-2.61 12.52 12.52 0 0 0 1.39.08 11.72 11.72 0 0 0 7.21-2.48 5.82 5.82 0 0 1 -5.43-4 5.68 5.68 0 0 0 1.09.11 5.49 5.49 0 0 0 1.53-.21 5.81 5.81 0 0 1 -4.62-5.73v-.07a5.68 5.68 0 0 0 2.63.72 5.8 5.8 0 0 1 -1.8-7.75 16.45 16.45 0 0 0 12 6.07 5.81 5.81 0 0 1 9.89-5.3 11.51 11.51 0 0 0 3.69-1.4 5.88 5.88 0 0 1 -2.56 3.21 11.32 11.32 0 0 0 3.34-.92 11.86 11.86 0 0 1 -2.94 3.01z"/></svg>