<svg height="48" viewBox="0 0 48 48" width="48" xmlns="http://www.w3.org/2000/svg"><path d="m47 24a23 23 0 0 0 -46 0v.22s0 .23 0 .35a23.13 23.13 0 0 0 15.72 21.93c1.17.21 1.59-.51 1.59-1.11s0-2.38 0-4.3c0 0-6.41 1.38-7.76-2.74 0 0-1-2.68-2.54-3.37 0 0-2.1-1.45.15-1.42a4.85 4.85 0 0 1 3.53 2.38c2 3.55 5.36 2.53 6.68 1.93a5.07 5.07 0 0 1 1.47-3.1c-5.15-.57-10.51-2.56-10.51-11.41a8.94 8.94 0 0 1 2.36-6.19 8.39 8.39 0 0 1 .24-6.17c1.92-.6 6.32 2.38 6.32 2.38a21.32 21.32 0 0 1 11.5 0s4.4-3 6.32-2.38a8.39 8.39 0 0 1 .24 6.14 8.94 8.94 0 0 1 2.36 6.19c0 8.88-5.39 10.84-10.51 11.41a5.44 5.44 0 0 1 1.56 4.26v6.35s.42 1.32 1.59 1.11a23.13 23.13 0 0 0 15.69-21.89c0-.12 0-.24 0-.35s0-.15 0-.22z"/><path d="m15.21 39.18c0 .22.22.37.53.34s.49-.16.49-.34-.25-.37-.53-.34-.49.16-.49.34z"/><path d="m13.39 38.59c-.06.18.12.4.4.46a.45.45 0 0 0 .58-.18c.06-.19-.12-.41-.4-.5a.48.48 0 0 0 -.58.22z"/><path d="m17.07 39.28c0 .19.27.31.55.25s.46-.25.43-.43-.27-.31-.55-.28-.5.25-.43.46z"/><path d="m9.92 35.21c-.12.09-.09.31.06.49s.37.22.5.09.09-.31-.06-.49-.37-.22-.5-.09z"/><path d="m9 34.42c-.06.12 0 .27.22.36a.27.27 0 0 0 .4-.06c.06-.12 0-.27-.22-.37s-.4-.03-.4.07z"/><path d="m10.86 36.5c-.16.1-.16.34 0 .56s.4.31.52.21.16-.36 0-.58a.37.37 0 0 0 -.52-.19z"/><path d="m12.14 37.46c-.15.12-.09.4.12.59s.5.24.62.09.06-.4-.12-.59-.5-.24-.62-.09z"/></svg>