<svg height="48" viewBox="0 0 48 48" width="48" xmlns="http://www.w3.org/2000/svg"><path d="m14.31 18.53a11.18 11.18 0 0 1 2.41-1.81 10.71 10.71 0 0 1 14.08 3.45l-3.75 3.74a5.61 5.61 0 0 0 -9.11-1.75l-7.17 7.17a5.59 5.59 0 1 0 7.9 7.9l2.21-2.23a14.18 14.18 0 0 0 6.3 1l-4.89 4.88a10.71 10.71 0 0 1 -15.15-15.17zm11.4-11.39-4.88 4.86a14.16 14.16 0 0 1 6.29 1l2.22-2.21a5.58 5.58 0 0 1 7.89 7.9l-7.17 7.17a5.6 5.6 0 0 1 -7.9 0 5.91 5.91 0 0 1 -1.16-1.77l-3.74 3.74a10.2 10.2 0 0 0 1.32 1.64 10.72 10.72 0 0 0 12.75 1.81 10.94 10.94 0 0 0 2.41-1.81l7.17-7.18a10.71 10.71 0 0 0 -15.2-15.15z"/></svg>