<svg height="48" viewBox="0 0 48 48" width="48" xmlns="http://www.w3.org/2000/svg"><path d="m2 23.72a22 22 0 1 1 22.28 22.28h-.7a21.38 21.38 0 0 1 -3.58-.36 7.89 7.89 0 0 1 -4.11-2.13 5.71 5.71 0 0 1 -1.47-2.95 4.38 4.38 0 0 1 .69-3.48 3.87 3.87 0 0 0 .89-2.24 2.91 2.91 0 0 0 -1-1.84 2.91 2.91 0 0 0 -1.87-1 3.87 3.87 0 0 0 -2.24.91 4.38 4.38 0 0 1 -3.48.69 5.71 5.71 0 0 1 -2.92-1.5 7.89 7.89 0 0 1 -2.13-4.1 21.38 21.38 0 0 1 -.36-3.58c0-.2 0-.41 0-.61 0-.03 0-.06 0-.09zm5.7-1.56a3.41 3.41 0 1 0 0-4.82 3.41 3.41 0 0 0 0 4.82zm5.92-11.32a3.41 3.41 0 1 0 3.38-3.41 3.41 3.41 0 0 0 -3.38 3.41zm12.19-3.84a3.41 3.41 0 1 0 4.82 0 3.39 3.39 0 0 0 -4.82 0zm11.32 5.91a3.41 3.41 0 1 0 3.41 3.41 3.41 3.41 0 0 0 -3.41-3.39zm3.87 12.21a3.41 3.41 0 1 0 0 4.82 3.41 3.41 0 0 0 0-4.82zm-16.4 4.15a3.41 3.41 0 1 0 0 4.82 3.42 3.42 0 0 0 0-4.82z"/></svg>