<svg xmlns="http://www.w3.org/2000/svg" width="48" height="48" viewBox="0 0 48 48"><title>icon-link</title><path d="M14.31,18.53a11.18,11.18,0,0,1,2.41-1.81A10.71,10.71,0,0,1,30.8,20.17l-3.75,3.74a5.61,5.61,0,0,0-9.11-1.75l-7.17,7.17a5.59,5.59,0,1,0,7.9,7.9L20.88,35a14.18,14.18,0,0,0,6.3,1l-4.89,4.88A10.71,10.71,0,0,1,7.14,25.71ZM25.71,7.14,20.83,12a14.16,14.16,0,0,1,6.29,1l2.22-2.21a5.58,5.58,0,0,1,7.89,7.9l-7.17,7.17a5.6,5.6,0,0,1-7.9,0A5.91,5.91,0,0,1,21,24.09l-3.74,3.74a10.2,10.2,0,0,0,1.32,1.64,10.72,10.72,0,0,0,12.75,1.81,10.94,10.94,0,0,0,2.41-1.81l7.17-7.18A10.71,10.71,0,0,0,25.71,7.14Z"/></svg>