<svg xmlns="http://www.w3.org/2000/svg" width="48" height="48" viewBox="0 0 48 48"><title>icon-medium</title><path d="M2,23.72A22,22,0,1,1,24.28,46h-.7A21.38,21.38,0,0,1,20,45.64a7.89,7.89,0,0,1-4.11-2.13,5.71,5.71,0,0,1-1.47-2.95,4.38,4.38,0,0,1,.69-3.48A3.87,3.87,0,0,0,16,34.84,2.91,2.91,0,0,0,15,33a2.91,2.91,0,0,0-1.87-1,3.87,3.87,0,0,0-2.24.91,4.38,4.38,0,0,1-3.48.69A5.71,5.71,0,0,1,4.49,32.1,7.89,7.89,0,0,1,2.36,28,21.38,21.38,0,0,1,2,24.42c0-.2,0-.41,0-.61C2,23.78,2,23.75,2,23.72Zm5.7-1.56a3.41,3.41,0,1,0,0-4.82A3.41,3.41,0,0,0,7.7,22.16Zm5.92-11.32A3.41,3.41,0,1,0,17,7.43,3.41,3.41,0,0,0,13.62,10.84ZM25.81,7a3.41,3.41,0,1,0,4.82,0A3.39,3.39,0,0,0,25.81,7Zm11.32,5.91a3.41,3.41,0,1,0,3.41,3.41A3.41,3.41,0,0,0,37.13,12.93ZM41,25.12a3.41,3.41,0,1,0,0,4.82A3.41,3.41,0,0,0,41,25.12ZM24.6,29.27a3.41,3.41,0,1,0,0,4.82A3.42,3.42,0,0,0,24.6,29.27Z"/></svg>