<svg xmlns="http://www.w3.org/2000/svg" width="48" height="48" viewBox="0 0 48 48"><title>icon-twitter</title><path d="M24,1A23,23,0,1,0,47,24,23,23,0,0,0,24,1ZM36.25,19.23c0,.25,0,.5,0,.75,0,7.67-5.84,16.52-16.52,16.52a16.41,16.41,0,0,1-8.9-2.61,12.52,12.52,0,0,0,1.39.08,11.72,11.72,0,0,0,7.21-2.48,5.82,5.82,0,0,1-5.43-4,5.68,5.68,0,0,0,1.09.11,5.49,5.49,0,0,0,1.53-.21A5.81,5.81,0,0,1,12,21.66v-.07a5.68,5.68,0,0,0,2.63.72,5.8,5.8,0,0,1-1.8-7.75,16.45,16.45,0,0,0,12,6.07,5.81,5.81,0,0,1,9.89-5.3,11.51,11.51,0,0,0,3.69-1.4,5.88,5.88,0,0,1-2.56,3.21,11.32,11.32,0,0,0,3.34-.92A11.86,11.86,0,0,1,36.25,19.23Z"/></svg>