<svg height="48" viewBox="0 0 48 48" width="48" xmlns="http://www.w3.org/2000/svg"><path d="m39.81 6.72h-2.09v-1.91a3.82 3.82 0 0 0 -3.82-3.81h-.61a3.82 3.82 0 0 0 -3.81 3.81v1.91h-11v-1.91a3.82 3.82 0 0 0 -3.77-3.81h-.61a3.82 3.82 0 0 0 -3.82 3.81v1.91h-2.09a4.3 4.3 0 0 0 -4.31 4.28v31.69a4.3 4.3 0 0 0 4.31 4.31h31.62a4.3 4.3 0 0 0 4.31-4.31v-31.69a4.3 4.3 0 0 0 -4.31-4.28zm-8.5-1.91a2 2 0 0 1 2-2h.61a2 2 0 0 1 2 2v6.35a2 2 0 0 1 -2 2h-.61a2 2 0 0 1 -2-2zm-19.2 0a2 2 0 0 1 2-2h.61a2 2 0 0 1 2 2v6.35a2 2 0 0 1 -2 2h-.62a2 2 0 0 1 -2-2v-6.35zm26.27 36.44h-28.76v-23h28.76z"/></svg>