<?xml version="1.0" standalone="no"?>
<!DOCTYPE svg PUBLIC "-//W3C//DTD SVG 1.1//EN" "http://www.w3.org/Graphics/SVG/1.1/DTD/svg11.dtd" >
<svg>
<metadata>
Created by FontForge 20110222 at Sat Feb 22 09:22:19 2014
 By Orthosie Webhosting
(c) 1988, 2002 Adobe Systems Incorporated. All rights reserved.
</metadata>
<defs>
<font id="JansonTextLTStd76BoldItalic" horiz-adv-x="556" >
  <font-face 
    font-family="JansonTextLTStd76BoldItalic"
    font-weight="700"
    font-style="italic"
    font-stretch="normal"
    units-per-em="1000"
    panose-1="2 3 7 3 6 7 6 9 3 3"
    ascent="755"
    descent="-245"
    x-height="454"
    cap-height="713"
    bbox="-217 -281 1167 993"
    underline-thickness="50"
    underline-position="-50"
    slope="-15"
    unicode-range="U+0020-FB02"
  />
<missing-glyph horiz-adv-x="627" 
d="M127 0v700h500v-700h-500zM377 395l170 255h-340zM407 350l170 -255v510zM207 50h340l-170 255zM177 605v-510l170 255z" />
    <glyph glyph-name="f_i" unicode="fi" horiz-adv-x="611" 
d="M407 383h-144q-7 0 -9 -3.5t-5 -13.5l-77 -324q-41 -173 -111.5 -244t-170.5 -71q-83 0 -83 62q0 19 15.5 33.5t34.5 14.5q25 0 54.5 -31t42.5 -31q36 0 60 107q2 5 2 7q26 116 54 238t42.5 182.5t14.5 61.5q0 9 -2 10.5t-11 1.5h-84q-13 0 -13 10q0 7 3.5 17t9.5 10
q74 4 93.5 11.5t27.5 32.5q28 86 42.5 117.5t41.5 67.5q24 32 91.5 61.5t145.5 29.5q53 0 94.5 -21t41.5 -63q0 -19 -17.5 -31t-40.5 -12t-40.5 13.5t-26.5 30t-23 30t-30 13.5q-39 0 -84.5 -61t-63.5 -140q-1 -2 -5 -17.5t-7 -29t-3 -17.5q0 -7 15 -7h145q34 0 78 11
q3 1 28.5 8t26.5 7q9 0 9 -12q0 -10 -59.5 -182t-59.5 -184q0 -9 12 -9t38 21.5t47.5 43t22.5 21.5q20 0 20 -16q0 -7 -34 -42t-92.5 -71t-108.5 -36q-15 0 -27.5 7t-12.5 21q0 31 55.5 188t55.5 165q0 14 -19 14z" />
    <glyph glyph-name="f_l" unicode="fl" horiz-adv-x="611" 
d="M278 428h154q8 0 11 10l64 197q-24 5 -38.5 16.5t-19 22t-12 18.5t-19.5 8q-4 0 -9 -0.5t-17.5 -5.5t-23 -13t-23.5 -26.5t-23 -43.5q-55 -145 -55 -173q0 -10 11 -10zM405 383h-142q-7 0 -9 -3.5t-5 -13.5l-77 -324q-41 -173 -111.5 -244t-170.5 -71q-83 0 -83 62
q0 19 15.5 33.5t34.5 14.5q25 0 54.5 -31t42.5 -31q36 0 60 107q2 5 2 7q26 116 54 238t42.5 182.5t14.5 61.5q0 9 -2 10.5t-11 1.5h-84q-13 0 -13 10q0 7 3.5 17t9.5 10q74 4 93.5 11.5t27.5 32.5q28 86 42.5 117.5t41.5 67.5q23 31 83.5 61t111.5 30q61 0 96 -9
q31 -8 99 -8q22 0 22 -17q0 -13 -11 -47t-41 -124t-58 -178q-81 -250 -81 -257q0 -16 11 -16q16 0 39.5 22t43 44t25.5 22q4 0 10 -5.5t6 -9.5q0 -3 -13 -20.5t-36 -42.5t-51 -48.5t-63 -40.5t-66 -17q-20 0 -33 13t-13 33q0 19 26.5 101t53 157.5t26.5 77.5q0 13 -17 13z
" />
    <glyph glyph-name=".notdef" horiz-adv-x="627" 
d="M127 0v700h500v-700h-500zM377 395l170 255h-340zM407 350l170 -255v510zM207 50h340l-170 255zM177 605v-510l170 255z" />
    <glyph glyph-name=".null" horiz-adv-x="0" 
 />
    <glyph glyph-name="nonmarkingreturn" horiz-adv-x="333" 
 />
    <glyph glyph-name="space" unicode=" " horiz-adv-x="278" 
 />
    <glyph glyph-name="exclam" unicode="!" horiz-adv-x="333" 
d="M341 602l-162 -349q-7 -15 -18 -15q-10 0 -18 4.5t-8 9.5q0 23 71 406q11 55 54 55q26 0 61.5 -14.5t35.5 -37.5q0 -24 -16 -59zM35 67q0 31 21.5 52.5t52.5 21.5t52.5 -21.5t21.5 -52.5t-21.5 -52.5t-52.5 -21.5t-52.5 21.5t-21.5 52.5z" />
    <glyph glyph-name="quotedbl" unicode="&#x22;" horiz-adv-x="500" 
d="M404 387h-46l24 251q3 33 25 54t55 21q52 0 52 -51q0 -17 -16.5 -60.5t-52.5 -123.5t-41 -91zM182 387h-46l24 251q3 33 25 54t55 21q52 0 52 -51q0 -17 -16.5 -60.5t-52.5 -123.5t-41 -91z" />
    <glyph glyph-name="numbersign" unicode="#" 
d="M529 300l-30 -93h-104l-65 -207h-89l65 207h-89l-65 -207h-89l65 207h-104l30 93h104l27 88h-104l30 93h104l65 207h89l-65 -207h89l65 207h89l-65 -207h104l-30 -93h-104l-27 -88h104zM363 388h-89l-27 -88h89z" />
    <glyph glyph-name="dollar" unicode="$" 
d="M318 452l59 230q-54 -3 -92 -35.5t-38 -85.5q0 -50 71 -109zM316 282l-65 -258q59 0 99.5 39.5t40.5 96.5q0 63 -75 122zM417 679l-64 -254q3 -2 25.5 -18.5t27.5 -21t24.5 -20t26 -23t21 -23t20 -27t13.5 -27t11 -31.5t3 -33q0 -89 -71 -151t-200 -62h-12l-18 -69
q-1 -5 -4.5 -6t-19.5 -1q-18 0 -18 6q0 4 7 29l12 45q-43 7 -86 27t-56 20q-9 0 -19.5 -10t-18.5 -10t-8 10q0 1 1.5 14t5 49.5t6.5 88.5q2 44 19 44q11 0 14.5 -3t5.5 -13q21 -81 53.5 -125t91.5 -55l71 278q-3 2 -27.5 19.5t-29.5 21.5t-25.5 20t-26.5 23.5t-19.5 24
t-18 29t-9 29.5t-4.5 35q0 88 69 150.5t181 62.5h17l15 60q1 4 19 4q14 0 17 -1t3 -6q0 -3 -11 -47l-4 -16q29 -7 67 -22.5t48 -15.5q16 0 26 5q3 1 10 7.5t12 7.5q9 0 9 -17q0 -9 -7 -79t-7 -87q0 -12 -15 -12q-14 0 -16 5q-20 71 -50.5 115.5t-86.5 55.5z" />
    <glyph glyph-name="percent" unicode="%" horiz-adv-x="926" 
d="M316 667q-29 0 -51 -21.5t-33.5 -54t-16.5 -63.5t-5 -58q0 -29 15 -51t43 -22q36 0 60.5 38t32.5 78.5t8 76.5q0 30 -12.5 53.5t-40.5 23.5zM265 365q-64 0 -106 43t-42 107q0 78 58.5 131t136.5 53q64 0 107 -40t43 -104q0 -81 -57.5 -135.5t-139.5 -54.5zM719 699
l-403 -710h-59l403 710h59zM664 -9q-64 0 -106 43t-42 107q0 78 58.5 131t136.5 53q64 0 107 -40t43 -104q0 -81 -57.5 -135.5t-139.5 -54.5zM715 293q-29 0 -51 -21.5t-33.5 -54t-16.5 -63.5t-5 -58q0 -29 15 -51t43 -22q36 0 60.5 38t32.5 78.5t8 76.5q0 30 -12.5 53.5
t-40.5 23.5z" />
    <glyph glyph-name="ampersand" unicode="&#x26;" horiz-adv-x="833" 
d="M678 370q-17 -163 -112.5 -272.5t-253.5 -109.5q-111 0 -174.5 58.5t-63.5 166.5q0 113 74.5 198t159.5 85q24 0 45 -7q72 153 72 179q0 7 -14.5 23.5t-14.5 36.5q0 24 18 38.5t43 14.5q22 0 38.5 -14.5t16.5 -40.5q0 -6 -137.5 -287t-137.5 -319q0 -7 14.5 -17t44.5 -19
t64 -9q128 0 199.5 86t81.5 218q-14 2 -65 26.5t-62 24.5q-12 0 -23.5 -10.5t-11.5 -22.5q0 -8 24 -29t24 -40q0 -20 -14 -32t-34 -12q-57 0 -57 62q0 47 42.5 101.5t107.5 54.5q34 0 104 -34t97 -34q26 0 26 11q0 10 -7.5 16.5t-16.5 10t-16.5 13.5t-7.5 27q0 19 16 33
t35 14q25 0 41 -17.5t16 -42.5q0 -56 -43.5 -94t-107.5 -38q-21 0 -30 3zM197 143l111 249q-42 21 -64 21q-52 0 -77 -43t-25 -99q0 -69 55 -128z" />
    <glyph glyph-name="quotesingle" unicode="'" horiz-adv-x="278" 
d="M182 387h-46l24 251q3 33 25 54t55 21q52 0 52 -51q0 -17 -16.5 -60.5t-52.5 -123.5t-41 -91z" />
    <glyph glyph-name="parenleft" unicode="(" horiz-adv-x="352" 
d="M82 179q0 307 305 511q53 33 57 33q7 0 14 -5t7 -12t-16 -19q-137 -120 -199 -256.5t-62 -315.5q0 -139 83 -295q10 -13 10 -20q0 -5 -7 -11.5t-11 -6.5q-20 0 -85 98q-96 146 -96 299z" />
    <glyph glyph-name="parenright" unicode=")" horiz-adv-x="352" 
d="M280 326q0 -307 -305 -511q-53 -33 -57 -33q-7 0 -14 5t-7 12t16 19q137 120 199 256.5t62 315.5q0 139 -83 295q-10 13 -10 20q0 5 7 11.5t11 6.5q20 0 85 -98q96 -146 96 -299z" />
    <glyph glyph-name="asterisk" unicode="*" horiz-adv-x="426" 
d="M292 616q0 107 56 107q14 0 23.5 -14t9.5 -28q0 -16 -8.5 -36.5t-17 -33t-26 -35t-20.5 -27.5l2 -2q18 11 55.5 25.5t54.5 14.5q67 0 67 -37q0 -21 -18.5 -32.5t-40.5 -11.5q-36 0 -117 27l-2 -2q28 -25 55 -61t27 -61q0 -45 -39 -45q-35 0 -48.5 60t-7.5 101l-2 2
q-2 -4 -12.5 -22.5t-16 -27.5t-17 -25t-21 -24.5t-23 -15t-27.5 -6.5t-24 9.5t-10 23.5q0 22 18 39.5t37 26t52 20t40 14.5v1q-111 12 -142 42q-16 16 -16 37q0 14 11 24.5t25 10.5q45 0 119 -95q4 -5 6 -7l2 2q0 5 -2 27t-2 35z" />
    <glyph glyph-name="plus" unicode="+" 
d="M245 277v177h96v-177h175v-96h-175v-181h-96v181h-175v96h175z" />
    <glyph glyph-name="comma" unicode="," horiz-adv-x="278" 
d="M88 144q49 0 74 -34.5t25 -85.5q0 -45 -26 -88t-60 -69.5t-61.5 -42.5t-35.5 -16q-3 0 -7.5 7.5t-4.5 11.5q0 3 28.5 23t57 52t28.5 65q0 23 -14 34.5t-31.5 14.5t-31.5 17.5t-14 41.5q0 28 22.5 48.5t50.5 20.5z" />
    <glyph glyph-name="hyphen" unicode="-" horiz-adv-x="426" 
d="M80 280h284q18 0 18 -10q0 -6 -8 -32t-10 -38q-1 -9 -18 -9h-284q-18 0 -18 10q0 6 8 32t10 38q1 9 18 9z" />
    <glyph glyph-name="period" unicode="." horiz-adv-x="278" 
d="M35 67q0 31 21.5 52.5t52.5 21.5t52.5 -21.5t21.5 -52.5t-21.5 -52.5t-52.5 -21.5t-52.5 21.5t-21.5 52.5z" />
    <glyph glyph-name="slash" unicode="/" horiz-adv-x="352" 
d="M10 49l337 634q8 18 11.5 22t8.5 4h75q18 0 18 -6q0 -2 -44 -85l-322 -605q-6 -13 -16 -13h-76q-12 0 -12 7q0 5 20 42z" />
    <glyph glyph-name="zero" unicode="0" 
d="M385 699q51 0 87 -23t54 -62.5t26 -82t8 -91.5q0 -41 -11.5 -95.5t-38.5 -117t-64 -115t-94 -87t-124 -34.5q-12 0 -25 1.5t-42 14.5t-49.5 36t-37.5 72t-17 116q0 63 24.5 143t66 153t105 122.5t132.5 49.5zM449 576q0 87 -65 87q-49 0 -101.5 -108t-83.5 -236.5
t-31 -203.5q0 -34 15 -61t48 -27q43 0 85.5 66t70 157.5t45 181.5t17.5 144z" />
    <glyph glyph-name="one" unicode="1" 
d="M323 126q-10 -42 -10 -60q0 -10 2.5 -14.5t18 -9t46.5 -4.5q24 0 24 -9q0 -11 -3.5 -21t-9.5 -10q-9 0 -73 1.5t-74 1.5q-18 0 -84 -1.5t-73 -1.5q-9 0 -9 5q0 19 9.5 27t38.5 8q13 0 21 1.5t20 13.5t18 35q111 434 111 460q0 24 -10 30t-64 8q-17 1 -21 3t-4 9
q0 21 10 24q107 19 216 73q7 4 21 4q19 0 19 -9q0 -5 -18 -76.5t-55.5 -221t-66.5 -266.5z" />
    <glyph glyph-name="two" unicode="2" 
d="M178 106h214q20 0 41.5 16t37 32t20.5 16q18 0 18 -13q0 -6 -42.5 -71t-55.5 -83q-4 -5 -26 -5q-5 0 -28 1t-59.5 1.5t-76.5 0.5q-36 0 -67 -0.5t-51 -1t-35 -0.5t-23 -0.5t-9 -0.5q-13 0 -13 14q0 6 56.5 68.5t126.5 137t80 86.5q104 119 104 197q0 52 -32 82t-85 30
q-38 0 -71 -17.5t-51 -35t-20 -17.5q-3 0 -12 7t-9 9q0 6 8.5 21t27.5 35.5t44 39t63.5 31.5t80.5 13q77 0 133.5 -42.5t56.5 -117.5q0 -33 -10.5 -63.5t-36 -62.5t-40.5 -48t-49 -50q-44 -44 -101 -93.5t-89 -76t-32 -30.5q0 -9 12 -9z" />
    <glyph glyph-name="three" unicode="3" 
d="M352 400q112 -49 112 -153q0 -68 -46.5 -122.5t-116 -84.5t-139 -45.5t-127.5 -15.5q-8 0 -8 24q0 8 22 12q134 31 206.5 85t72.5 125q0 49 -32.5 75.5t-82.5 26.5q-26 0 -55 -6.5t-30 -6.5q-3 0 -5.5 10t-2.5 15t37 16q76 22 128.5 50.5t74.5 55t30 45t8 34.5
q0 34 -25.5 56.5t-48.5 22.5q-36 0 -68 -15.5t-49 -31t-18 -15.5q-5 0 -14 8t-9 12q0 2 10 15t29.5 31t43.5 35t56 29t63 12q65 0 110.5 -27.5t45.5 -88.5q0 -31 -16 -60t-45 -52.5t-53.5 -38.5t-57.5 -32z" />
    <glyph glyph-name="four" unicode="4" 
d="M135 308h156q16 0 20.5 6t14.5 41q40 152 58 204q2 6 2 7q0 7 -2 7q-6 0 -130.5 -126.5t-124.5 -131.5q0 -7 6 -7zM270 212h-237q-18 0 -18 28q0 29 235 257q208 202 258 202q11 0 16 -0.5t9.5 -4t4.5 -10.5q0 -2 -51.5 -184t-51.5 -185q0 -7 22 -7h93q10 0 10 -9
q0 -8 -9 -40t-13 -40q-3 -7 -25 -7h-98q-4 0 -7 -1.5t-5 -6t-3 -7.5t-3 -11q-41 -163 -50 -178q-5 -8 -11 -8h-104q-5 0 -5 8q0 5 26 100.5t26 98.5q0 5 -9 5z" />
    <glyph glyph-name="five" unicode="5" 
d="M343 436q47 -38 73.5 -76.5t26.5 -88.5q0 -73 -35.5 -132t-91 -93t-116.5 -52t-119 -18q-21 0 -21 26q0 9 7 10q72 13 125 40t78 58.5t36 58.5t11 50q0 37 -17.5 69t-42.5 52.5t-49.5 37.5t-42 31t-17.5 25q0 18 52 141t62 123q21 0 57 -5.5t41 -5.5t24.5 -3.5t45.5 -5.5
t58 -2q31 0 43 14q5 6 9.5 12.5t6.5 10t4.5 5.5t4.5 2q6 0 15 -5t9 -9q0 -14 -35.5 -74t-52.5 -60q-23 0 -127 8q-11 1 -41 5.5t-46 4.5q-19 0 -31 -12.5t-12 -31.5q0 -16 16 -32t92 -78z" />
    <glyph glyph-name="six" unicode="6" 
d="M281 419q48 3 49 3q84 -5 131 -51.5t47 -130.5q0 -37 -15 -78t-43.5 -80.5t-78.5 -65t-112 -25.5q-185 0 -185 200q0 89 38 172t96.5 142t127 104.5t131 68t107.5 22.5q12 0 12 -25q0 -3 -8 -8t-20.5 -10.5t-24 -10t-24.5 -9t-15 -5.5q-67 -27 -124.5 -85.5t-88.5 -127.5
zM189 131q0 -104 69 -104q32 0 57 27t39 67t21 77.5t7 65.5q0 46 -20.5 84t-63.5 38q-35 0 -61.5 -53.5t-37 -109.5t-10.5 -92z" />
    <glyph glyph-name="seven" unicode="7" 
d="M223 688h274q11 0 33.5 1t33.5 1q18 0 22 -2t4 -12q0 -16 -134.5 -267.5t-134.5 -275.5q0 -20 19 -43.5t19 -45.5q0 -18 -15.5 -35.5t-48.5 -17.5t-46.5 19.5t-13.5 41.5q0 19 2 29t14 37t40 79q39 73 96 178q102 188 102 198q0 3 -26 3h-249q-18 0 -53 -42.5t-47 -42.5
q-19 0 -19 9q0 12 15 53.5t34 89.5t23 60q1 3 6 3q1 0 17 -9t33 -9z" />
    <glyph glyph-name="eight" unicode="8" 
d="M365 398q104 74 104 164q0 41 -19.5 71t-58.5 30q-42 0 -70.5 -31.5t-28.5 -74.5q0 -65 73 -159zM273 309q-46 -30 -80.5 -78t-34.5 -96q0 -47 19.5 -77.5t63.5 -30.5q45 0 72 39t27 87q0 70 -67 156zM385 369q81 -85 81 -172q0 -60 -36.5 -109t-88.5 -73t-105 -24
q-68 0 -118 35.5t-50 101.5q0 32 12.5 60.5t26.5 47t45.5 41t46.5 31t52 29.5q-79 104 -79 168q0 85 65 139.5t152 54.5q72 0 117.5 -35t45.5 -105q0 -31 -15.5 -60.5t-44 -54t-51.5 -40.5t-56 -35z" />
    <glyph glyph-name="nine" unicode="9" 
d="M236 394q0 -38 23 -66.5t67 -28.5q34 0 70.5 95.5t36.5 185.5q0 26 -16 54.5t-50 28.5q-35 0 -62 -31t-41 -76.5t-21 -87.5t-7 -74zM333 264q-11 -1 -32 -1q-80 0 -135.5 43.5t-55.5 121.5q0 112 72 191.5t184 79.5q84 0 131 -54t47 -140q0 -29 -5 -64.5t-25.5 -95.5
t-53.5 -113.5t-98 -110t-150 -93.5q-39 -17 -94 -34.5t-76 -17.5q-18 0 -18 25q0 5 8 8q97 30 175.5 97t125.5 158z" />
    <glyph glyph-name="colon" unicode=":" horiz-adv-x="278" 
d="M35 67q0 31 21.5 52.5t52.5 21.5t52.5 -21.5t21.5 -52.5t-21.5 -52.5t-52.5 -21.5t-52.5 21.5t-21.5 52.5zM105 364q0 31 21.5 52.5t52.5 21.5t52.5 -21.5t21.5 -52.5t-21.5 -52.5t-52.5 -21.5t-52.5 21.5t-21.5 52.5z" />
    <glyph glyph-name="semicolon" unicode=";" horiz-adv-x="278" 
d="M88 144q49 0 74 -34.5t25 -85.5q0 -45 -26 -88t-60 -69.5t-61.5 -42.5t-35.5 -16q-3 0 -7.5 7.5t-4.5 11.5q0 3 28.5 23t57 52t28.5 65q0 23 -14 34.5t-31.5 14.5t-31.5 17.5t-14 41.5q0 28 22.5 48.5t50.5 20.5zM105 364q0 31 21.5 52.5t52.5 21.5t52.5 -21.5
t21.5 -52.5t-21.5 -52.5t-52.5 -21.5t-52.5 21.5t-21.5 52.5z" />
    <glyph glyph-name="less" unicode="&#x3c;" 
d="M516 103v-111l-446 190v94l446 190v-111l-330 -126z" />
    <glyph glyph-name="equal" unicode="=" 
d="M516 368v-96h-446v96h446zM516 186v-96h-446v96h446z" />
    <glyph glyph-name="greater" unicode="&#x3e;" 
d="M70 355v111l446 -190v-94l-446 -190v111l330 126z" />
    <glyph glyph-name="question" unicode="?" horiz-adv-x="444" 
d="M260 234q20 0 45.5 12.5t26.5 12.5q6 0 10.5 -6t4.5 -13q0 -5 -15.5 -16t-43 -20.5t-53.5 -9.5q-53 0 -87.5 34t-34.5 86q0 38 28 72t68 59t80.5 48t68.5 50t28 56q0 23 -13.5 40t-35.5 17q-27 0 -59 -29.5t-58 -29.5q-23 0 -39.5 15t-16.5 38q0 33 26 49t60 16
q52 0 90.5 -15t57 -34.5t29.5 -44.5t13 -38t2 -22q0 -40 -17.5 -74t-43 -55.5t-56 -42t-56 -36.5t-43 -36.5t-17.5 -42.5q0 -14 16 -27t35 -13zM72 67q0 31 21.5 52.5t52.5 21.5t52.5 -21.5t21.5 -52.5t-21.5 -52.5t-52.5 -21.5t-52.5 21.5t-21.5 52.5z" />
    <glyph glyph-name="at" unicode="@" horiz-adv-x="860" 
d="M458 296l41 128q13 37 1.5 67.5t-40.5 30.5q-41 0 -75 -55t-49.5 -116.5t-15.5 -103.5q0 -59 43 -63q22 -2 45.5 24.5t33.5 48t16 39.5zM641 545l-98 -310q-4 -16 3 -28t20 -12q55 0 96.5 62.5t41.5 154.5q0 113 -70 182t-190 69q-128 0 -207 -88.5t-79 -220.5t79 -220.5
t207 -88.5q76 0 136 31.5t89 73.5h96q-46 -71 -130.5 -118t-190.5 -47q-161 0 -268.5 107t-107.5 262t107.5 262t268.5 107q96 0 174 -32.5t127 -99.5t49 -159q0 -116 -72 -202t-184 -86q-24 0 -47.5 13.5t-33.5 34.5q-24 -18 -36 -25.5t-33 -15t-43 -7.5q-55 0 -90.5 44.5
t-35.5 101.5q0 96 63 184t153 88q66 0 97 -49l11 32h98z" />
    <glyph glyph-name="A" unicode="A" horiz-adv-x="722" 
d="M277 303h167q29 0 30 12l32 262h-3q-28 -24 -129.5 -141t-101.5 -128q0 -5 5 -5zM446 263h-198q-12 0 -19 -9l-107 -136q-1 -2 -4 -5.5t-4 -4.5t-3 -4t-3 -5t-2 -5t-1.5 -6t-1 -7t-0.5 -9q0 -34 69 -34q26 0 26 -10q0 -30 -14 -30q-3 0 -17.5 1t-46 1.5t-76.5 0.5
q-25 0 -58.5 -1.5t-39.5 -1.5q-9 0 -9 11q0 24 12 25q24 2 36 7.5t29 21.5q16 15 174.5 211t267.5 313q134 143 173 143q21 0 21 -23q0 -26 -33 -310t-33 -321q0 -24 13 -31t43 -7q27 0 27 -12q0 -28 -12 -28q-9 0 -53 1.5t-88 1.5q-50 0 -86.5 -0.5t-54.5 -1.5t-23 -1
q-6 0 -6 8q0 21 8 26.5t32 5.5q51 0 56 29q25 131 25 189q0 7 -19 7z" />
    <glyph glyph-name="B" unicode="B" horiz-adv-x="648" 
d="M517 550q0 58 -31.5 92.5t-88.5 34.5q-24 0 -28 -15q-2 -10 -20 -76.5t-32.5 -124t-14.5 -63.5q0 -12 31 -12q78 0 131 44t53 120zM226 68q0 -18 10.5 -24t33.5 -6q92 0 136 58t44 134q0 15 -1 25.5t-8 30t-20.5 32t-41 22.5t-65.5 10q-5 0 -9 -0.5t-7 -2.5t-5 -4
t-4 -5.5t-3.5 -5.5t-2.5 -7t-1.5 -7t-2 -7.5t-1.5 -7.5q-52 -213 -52 -235zM86 81q31 129 58 236.5t40 157t23 88.5t13 56t3 33q0 21 -41 21q-11 0 -33.5 4t-22.5 7q0 29 13 29q18 0 46 -1t40 -1q78 0 148.5 1t94.5 1q81 0 134.5 -37.5t53.5 -114.5q0 -94 -68.5 -142.5
t-167.5 -54.5v-2q72 -9 122 -46t50 -104q0 -58 -31 -110t-83 -77q-56 -27 -164 -27q-35 0 -105.5 1t-101.5 1q-17 0 -50 -1t-50 -1q-15 0 -15 7q0 33 24 33q18 0 27 1t19 5t15 13t9 24z" />
    <glyph glyph-name="C" unicode="C" horiz-adv-x="685" 
d="M593 21q-1 -9 -13 -12q-25 -7 -102.5 -14t-109.5 -7q-125 0 -209.5 72.5t-84.5 204.5q0 88 31 171t85 146.5t133.5 102t169.5 38.5q47 0 89 -13.5t70 -26.5t41 -13q2 0 17.5 7t17.5 7q8 0 8 -10q0 -6 -3.5 -18.5t-13.5 -54.5t-22 -101q-2 -12 -18 -12q-18 0 -22 26
q-5 31 -9.5 49.5t-15.5 44t-26 40t-42 25t-63 10.5q-59 0 -108.5 -41t-80 -99.5t-52 -126.5t-30 -118.5t-8.5 -78.5q0 -93 39.5 -142t131.5 -49q113 0 183 128q12 24 18.5 30.5t17.5 6.5q19 0 19 -9q0 -11 -18 -79.5t-20 -83.5z" />
    <glyph glyph-name="D" unicode="D" horiz-adv-x="815" 
d="M234 71q0 -12 5.5 -19t16.5 -10t18.5 -3.5t21.5 -0.5q81 0 144.5 29t100.5 72t61 99t32.5 103t8.5 91q0 120 -61.5 182.5t-172.5 62.5q-27 0 -37 -12.5t-17 -43.5q-17 -76 -32.5 -145.5t-26.5 -116.5t-20.5 -90t-15.5 -69t-11 -48.5t-7.5 -34.5t-4.5 -22t-2.5 -14.5
t-0.5 -9.5zM797 398q0 -53 -14.5 -106t-49.5 -107t-87.5 -95t-136 -66.5t-186.5 -25.5q-4 0 -63.5 1t-139.5 1h-48t-32 -0.5t-18 -1t-10.5 -0.5h-5.5q-6 0 -6 4q0 26 9 31t55 5q10 0 16.5 9t9.5 18.5t7 31.5q22 109 53.5 247t49.5 217t18 87q0 25 -44 25q-52 0 -52 11
q0 29 13 29q19 0 58 -2t58 -2q51 0 108 2t72 2q106 0 186 -31t130 -103.5t50 -180.5z" />
    <glyph glyph-name="E" unicode="E" horiz-adv-x="667" 
d="M313 394h120q35 0 52.5 15.5t37.5 66.5q9 23 23 23q21 0 21 -12q0 -8 -31.5 -99.5t-37.5 -128.5q-2 -11 -4 -17.5t-7.5 -11t-14.5 -4.5q-19 0 -19 15q0 13 2 40t2 41q0 32 -63 32h-93q-13 0 -15 -13q-65 -241 -65 -278q0 -9 3 -14t6.5 -5.5t11.5 -0.5h224q23 0 35 6
t23 22q25 35 54 78q21 31 26 36t15 5q20 0 20 -7q0 -10 -18.5 -86.5t-23.5 -90.5q-3 -8 -9 -8q-1 0 -11.5 0.5t-34 0.5t-60 0.5t-102.5 1t-147 0.5q-42 0 -123 -1.5t-119 -1.5q-9 0 -9 4q0 5 1.5 12.5t6 15.5t12.5 8q44 0 58 8t22 41q136 515 136 556q0 16 -18.5 22.5
t-71.5 7.5q-8 0 -8 10q0 30 20 30q7 0 97 -2t114 -2q128 0 217 2t90 2q14 0 14 -21q0 -19 6 -73.5t6 -81.5q0 -9 -17 -9q-13 0 -18 6q-4 6 -23.5 45t-39.5 64t-40 25h-146q-21 0 -30.5 -15.5t-16.5 -41.5q-1 -3 -1 -5q-51 -193 -51 -204q0 -8 12 -8z" />
    <glyph glyph-name="F" unicode="F" horiz-adv-x="630" 
d="M391 348h-81q-14 0 -17 -15t-19.5 -78.5t-30.5 -119.5t-14 -67q0 -30 67 -30q16 0 24.5 -1.5t10 -3.5t1.5 -6q0 -9 -3 -19t-7 -10q-8 0 -77.5 1.5t-82.5 1.5q-36 0 -88.5 -1.5t-74.5 -1.5q-9 0 -9 4q0 5 1.5 12.5t6 15.5t12.5 8q44 0 58 8t22 41q136 515 136 556
q0 16 -18.5 22.5t-71.5 7.5q-8 0 -8 10q0 30 20 30q7 0 97 -2t114 -2q128 0 217 2t90 2q14 0 14 -21q0 -19 6 -73.5t6 -81.5q0 -9 -17 -9q-13 0 -18 6q-4 6 -23.5 45t-39.5 64t-40 25h-146q-21 0 -30.5 -15.5t-16.5 -41.5q-1 -3 -1 -5q-51 -188 -51 -214q0 -4 37 -4h80
q38 0 58.5 25t29 49.5t14.5 24.5q20 0 25 -3t5 -12q0 -2 -14.5 -55.5t-29.5 -112t-16 -71.5q0 -8 -16 -8q-15 0 -18 3.5t-3 19.5v38q0 37 -18 49.5t-52 12.5z" />
    <glyph glyph-name="G" unicode="G" horiz-adv-x="796" 
d="M698 232q-36 -150 -36 -166q0 -20 52 -20q7 0 7 -4q0 -32 -14 -32q-10 0 -120.5 -11t-194.5 -11q-87 0 -152.5 28.5t-99.5 72.5t-50 87.5t-16 84.5q0 82 32 164t88.5 148.5t142 108t184.5 41.5q52 0 100 -14.5t79.5 -28.5t43.5 -14t28 9t21 9q7 0 7 -9q0 -7 -7.5 -40.5
t-16.5 -72.5t-11 -48q-1 -7 -2 -10t-4.5 -6t-10.5 -3q-16 0 -19 5q-11 41 -19 64t-22.5 49t-32.5 39t-46 22t-67 9q-78 0 -142.5 -51t-101.5 -126t-56.5 -150t-19.5 -135q0 -92 51 -142.5t143 -50.5q35 0 58 5t34.5 16.5t15 20t8.5 25.5q33 132 33 147q0 23 -11 28.5
t-51 7.5q-41 2 -41 13q0 6 3.5 16.5t8.5 10.5q48 0 96.5 -2t55.5 -2q10 0 57.5 2t101.5 2q9 0 9 -8q0 -16 -5.5 -23t-24.5 -9q-39 -4 -49 -10.5t-17 -35.5z" />
    <glyph glyph-name="H" unicode="H" horiz-adv-x="833" 
d="M582 344h-275q-8 0 -11 -3.5t-7 -17.5q-56 -209 -56 -246q0 -21 10 -30t43 -9q40 0 40 -10v-11t-1.5 -9t-5 -8t-9.5 -2q-26 0 -78 1.5t-78 1.5q-9 0 -62 -1.5t-81 -1.5q-21 0 -21 7q0 18 6.5 25.5t29.5 7.5q36 0 47 11.5t20 47.5l114 454q16 61 16 83t-13 30.5t-52 8.5
q-23 0 -23 10q0 6 4.5 18t10.5 12q27 0 66 -2t70 -2q62 0 108.5 2t48.5 2q16 0 16 -6q0 -34 -18 -34q-43 0 -57 -11.5t-24 -55.5l-45 -173q-8 -27 -8 -35q0 -9 8 -9h274q18 0 23.5 6.5t10.5 32.5q11 51 22 93.5t15.5 60.5t7.5 32t3 25q0 17 -12.5 25.5t-52.5 8.5
q-24 0 -24 10q0 30 14 30q4 0 21 -1t48.5 -2t69.5 -1q56 0 109 2l54 2q9 0 9 -7q0 -29 -29 -33q-38 -6 -52 -21.5t-30 -82.5l-93 -368q-26 -104 -26 -127q0 -13 5.5 -21t18 -11t20 -3.5t23.5 -0.5q19 0 19 -9q0 -31 -14 -31q-3 0 -64 2t-81 2q-21 0 -89 -2t-74 -2q-8 0 -8 5
q0 35 29 35q40 0 53.5 10.5t22.5 46.5q62 238 62 240q0 9 -18 9z" />
    <glyph glyph-name="I" unicode="I" horiz-adv-x="389" 
d="M224 642q0 17 -17 24t-59 7q-14 0 -14 11q0 8 4 18.5t11 10.5q16 0 62 -2t88 -2q32 0 88.5 2t63.5 2q8 0 8 -7q0 -33 -22 -33q-36 -1 -49.5 -9t-20.5 -34q-134 -550 -134 -568q0 -15 10.5 -19.5t58.5 -4.5q28 0 28 -9q0 -8 -4.5 -19.5t-9.5 -11.5q-36 0 -97.5 1.5
t-65.5 1.5q-25 0 -85 -1.5t-65 -1.5q-19 0 -19 4q0 36 26 36q49 0 60 9t24 59q125 492 129 520q1 9 1 16z" />
    <glyph glyph-name="J" unicode="J" horiz-adv-x="519" 
d="M449 370h76q9 0 9 -9q0 -7 -8 -27q-3 -9 -16 -9h-77q-10 0 -14 -16q-74 -254 -108.5 -340t-79.5 -134q-43 -46 -103.5 -71t-125.5 -25q-43 0 -81.5 17.5t-38.5 55.5q0 25 18 40.5t43 15.5q22 0 37.5 -14.5t22 -32t15.5 -32t20 -14.5q25 0 56 33t39 51q8 17 17 40.5
t21.5 63t23 71.5t30.5 97t34 108q22 69 22 79q0 7 -17 7h-110q-7 0 -7 8t5.5 22.5t10.5 14.5h111q24 0 26 3q6 9 25 55t47 97.5t59 85.5l-2 2q-43 -15 -76 -15q-41 0 -108 22t-95 22q-8 0 -17 -6t-9 -14q0 -11 8 -18t17 -10t17 -13t8 -27q0 -18 -16 -32t-35 -14
q-29 0 -43 19t-14 49q0 6 3.5 20t16 36.5t32 42t55.5 34t82 14.5q72 0 196 -62q8 88 70 88q23 0 38.5 -13.5t15.5 -36.5q0 -21 -16.5 -40t-38.5 -28q-9 -13 -45 -127t-36 -131q0 -3 10 -3z" />
    <glyph glyph-name="K" unicode="K" horiz-adv-x="741" 
d="M353 575l-46 -186q20 0 40 12.5t61 45.5l147 122q82 70 82 90q0 14 -37 14q-24 0 -24 11q0 29 11 29q8 0 56 -2t60 -2q19 0 56 2t56 2q6 0 6 -9q0 -26 -28 -31q-55 -9 -108 -52l-247 -199q-6 -6 -6 -9q0 -9 193 -312q40 -63 83 -63q34 0 34 -11q0 -6 -5 -17.5t-9 -11.5
h-4q-4 0 -11.5 0.5t-17 1t-23 0.5t-28 0.5t-33 0.5h-36.5q-52 0 -102.5 -1.5t-69.5 -1.5q-7 0 -7 3q0 37 24 37q30 0 43 3.5t13 17.5q0 12 -31 68t-73.5 126.5t-46.5 77.5q-9 19 -19 19q-6 0 -9.5 -8.5t-11.5 -38.5q-52 -203 -52 -233q0 -32 61 -32q21 0 26.5 -3t5.5 -11
q0 -26 -15 -26q-9 0 -74 1.5t-82 1.5q-30 0 -81.5 -1.5t-56.5 -1.5q-23 0 -23 4q0 21 6 28.5t26 7.5q35 0 47.5 10.5t21.5 42.5q131 494 131 547q0 35 -74 35q-14 0 -14 11q0 29 15 29q30 0 74.5 -2t76.5 -2q34 0 80.5 2t70.5 2q7 0 7 -5q0 -34 -19 -35q-33 -1 -46 -6.5
t-22.5 -24t-21.5 -67.5z" />
    <glyph glyph-name="L" unicode="L" horiz-adv-x="648" 
d="M278 43h176q19 0 35 11t26 23.5t32.5 46t39.5 55.5q9 11 23 11q16 0 16 -15q0 -5 -19 -80.5t-23 -88.5q-2 -8 -10 -8q-63 0 -164 1.5t-103 1.5q-53 0 -158 -1.5t-157 -1.5q-8 0 -8 3q0 21 9 29t39 8q22 0 33 7.5t17 29.5q139 541 139 565q0 33 -61 33q-32 0 -32 14
q0 11 4.5 18.5t10.5 7.5q42 0 108 -2t70 -2q7 0 58.5 2t83.5 2q8 0 8 -6q0 -34 -27 -34q-46 0 -63.5 -16t-35.5 -89q-25 -103 -49 -200t-35 -140.5t-20 -81t-11.5 -52.5t-2.5 -25q0 -17 10 -21.5t41 -4.5z" />
    <glyph glyph-name="M" unicode="M" horiz-adv-x="981" 
d="M795 610l-391 -601q-15 -21 -26 -21q-15 0 -20 26q-1 2 -1 3q-6 25 -12.5 75t-26 186t-47.5 311q0 8 -5 8q-7 0 -10 -16q-98 -344 -117 -415t-19 -95q0 -33 54 -33h19.5t10.5 -1.5t6 -4t1 -7.5q0 -4 -4.5 -15.5t-7.5 -11.5t-17.5 1t-39.5 1.5t-54 0.5q-34 0 -66.5 -1.5
t-47.5 -1.5q-5 0 -5 5q0 35 20 35q48 0 65.5 20t40.5 102q30 105 56 196.5t39 135.5t23 78.5t13 46.5t3 18q0 17 -16 25t-65 13q-30 3 -30 10q0 30 13 30q2 0 51 -2t61 -2q8 0 66.5 2t64.5 2q10 0 12.5 -6.5t9.5 -46.5q41 -213 69 -438q2 -14 10 -14q7 0 21 23l249 379
q32 49 49.5 72.5t23 27t11.5 3.5q16 0 56.5 -2t49.5 -2q12 0 52.5 2t60.5 2q11 0 11 -7q0 -32 -28 -33q-43 -2 -55.5 -12t-22.5 -55q-120 -520 -120 -539q0 -9 3 -14t19.5 -10t48.5 -5q17 0 17 -10q0 -30 -12 -30q-30 0 -82 1.5t-76 1.5q-26 0 -77 -1.5t-76 -1.5q-7 0 -7 4
q0 23 8 29.5t45 6.5q30 0 39.5 18t25.5 87l113 485q1 3 -0.5 6t-4.5 3q-4 0 -22 -27z" />
    <glyph glyph-name="N" unicode="N" horiz-adv-x="815" 
d="M585 19l-335 541q-5 0 -19 -55q-8 -30 -13 -50q-18 -79 -35 -148.5t-25 -101.5t-14 -58.5t-8 -38.5t-2 -24q0 -24 9 -33t48 -13q38 -4 38 -10q0 -31 -13 -30q-19 0 -56.5 1.5t-56.5 1.5t-55 -1.5t-55 -1.5q-6 0 -6 5q0 35 23 35q22 0 38.5 9t25.5 23.5t13.5 24t6.5 19.5
l114 449q7 30 7 38q0 18 -24.5 45t-52.5 27q-48 0 -48 10q0 6 3 18t7 12q34 0 71 -2t39 -2q5 0 36.5 2t60.5 2q10 0 14 -3t12 -16l290 -475q2 -4 5.5 -10.5t5.5 -10t4.5 -7t4.5 -5t4 -1.5q105 426 105 439q0 20 -12.5 34.5t-39.5 14.5q-13 0 -24.5 2t-17.5 4t-6 4
q0 11 3.5 20.5t7.5 9.5q40 0 81.5 -2t44.5 -2q16 0 49 2t62 2q12 0 12 -6q0 -17 -5 -24.5t-23 -9.5q-53 -5 -71 -32q-15 -22 -40 -124l-125 -505q-2 -9 -4 -14t-8 -9t-16 -4q-14 0 -35 34z" />
    <glyph glyph-name="O" unicode="O" horiz-adv-x="778" 
d="M491 723q126 0 205 -81.5t79 -206.5q0 -46 -13 -101t-45 -117t-78.5 -112.5t-121.5 -83.5t-167 -33q-55 0 -101.5 17t-78.5 45.5t-54 66.5t-32 79t-10 84q0 116 58.5 219t155 163.5t203.5 60.5zM492 687q-60 0 -114.5 -58.5t-88.5 -141.5t-53.5 -165.5t-19.5 -137.5
q0 -50 15 -84.5t38 -49.5t41.5 -20.5t35.5 -5.5q56 0 105.5 42.5t81.5 105t55.5 134.5t34 129t10.5 90q0 162 -141 162z" />
    <glyph glyph-name="P" unicode="P" horiz-adv-x="630" 
d="M367 657q-24 -75 -48.5 -168.5t-24.5 -116.5q0 -14 29 -14q51 0 91 18t62.5 46.5t33.5 59t11 60.5q0 40 -14 68t-34.5 40.5t-36.5 17.5t-28 5q-36 0 -41 -16zM97 126q122 496 122 513q0 19 -17 26.5t-54 7.5q-27 0 -27 11q0 6 4 17.5t8 11.5q47 0 92.5 -2t49.5 -2
q8 0 56 2t102 2q129 0 182.5 -45.5t53.5 -138.5q0 -90 -71 -150.5t-185 -60.5q-24 0 -45 1t-35 2t-24 2t-15.5 2t-6.5 1q-7 0 -9 -11q-8 -36 -16.5 -72.5t-13 -56t-9 -39.5t-7 -29.5t-4 -19t-2 -15t-0.5 -11.5q0 -21 13 -27.5t69 -6.5q20 0 20 -9q0 -5 -3 -18t-5 -13
t-23.5 1t-64 2t-96.5 1q-38 0 -70 -1t-50 -2t-22 -1q-7 0 -7 9q0 14 7 20.5t15.5 8t31.5 2.5t33.5 20t22.5 68z" />
    <glyph glyph-name="Q" unicode="Q" horiz-adv-x="778" 
d="M595 -117q16 0 43 11.5t28 11.5q7 0 12 -11t5 -18q0 -5 -25.5 -20.5t-68.5 -30.5t-82 -15q-46 0 -96 26.5t-90.5 52.5t-63.5 26q-15 0 -30.5 -6t-26 -12.5t-11.5 -6.5q-5 0 -11 10t-6 16q0 3 17 19.5t44.5 34t48.5 20.5v2q-99 20 -153.5 105t-54.5 182q0 116 58.5 219
t155 163.5t203.5 60.5q126 0 205 -81.5t79 -206.5q0 -52 -14 -108.5t-45.5 -115.5t-76 -106.5t-112.5 -79.5t-148 -37v-2q54 -24 97.5 -52.5t65.5 -39.5t53 -11zM492 687q-60 0 -114.5 -58.5t-88.5 -141.5t-53.5 -165.5t-19.5 -137.5q0 -50 15 -84.5t38 -49.5t41.5 -20.5
t35.5 -5.5q56 0 105.5 42.5t81.5 105t55.5 134.5t34 129t10.5 90q0 162 -141 162z" />
    <glyph glyph-name="R" unicode="R" horiz-adv-x="685" 
d="M367 652q-11 -40 -39 -152.5t-28 -117.5q0 -14 45 -14q82 0 130.5 53t48.5 135q0 55 -35 88t-90 33q-17 0 -22.5 -5t-9.5 -20zM444 31l-103 261q-9 24 -16.5 32t-26.5 8q-14 0 -17 -23q-13 -60 -25.5 -110t-17.5 -69t-8 -35.5t-3 -31.5q0 -25 47 -25q49 0 49 -11
q0 -29 -13 -29l-74 2q-74 1 -86 1q-53 0 -87 -0.5t-48 -1.5t-20 -1q-7 0 -7 3q0 24 4.5 30t25.5 7q40 1 51 11t21 46q18 65 75.5 298.5t57.5 247.5q0 20 -14 26t-41 6q-42 0 -42 12q0 8 3 18t7 10q10 0 76.5 -2t84.5 -2q20 0 81 2t80 2q57 0 98.5 -15t62 -34t32 -44.5
t13.5 -39.5t2 -27q0 -83 -61.5 -138t-147.5 -68q10 -17 28 -61l79 -194q22 -54 71 -54q34 0 34 -8q0 -32 -11 -32q-15 0 -46.5 1.5t-47.5 1.5t-47 -1.5t-46 -1.5q-9 0 -13.5 5t-13.5 28z" />
    <glyph glyph-name="S" unicode="S" horiz-adv-x="593" 
d="M403 160q0 41 -28 76t-67.5 62t-79 55t-67.5 68t-28 88q0 88 69 151t181 63q44 0 116 -27q41 -18 55 -18q16 0 26 5q3 1 10 7.5t12 7.5q9 0 9 -17q0 -9 -7 -79t-7 -87q0 -12 -15 -12q-2 0 -6 1.5t-9 7t-7 14.5q-18 68 -57 112.5t-99 44.5q-61 0 -103 -33t-42 -88
q0 -35 28.5 -69t69.5 -63t82 -60.5t69.5 -75t28.5 -93.5q0 -89 -71 -151t-200 -62q-51 0 -91 13t-65 25.5t-39 12.5q-9 0 -19.5 -10t-18.5 -10t-8 10q0 1 1.5 14t5 49.5t6.5 88.5q2 44 19 44q11 0 14.5 -3t5.5 -13q26 -94 66.5 -137.5t132.5 -43.5q50 0 88.5 38.5t38.5 93.5
z" />
    <glyph glyph-name="T" unicode="T" horiz-adv-x="722" 
d="M198 709h519q23 0 40.5 8.5t20.5 8.5q7 0 10.5 -4.5t3.5 -8.5q2 -28 7 -68.5t9.5 -69.5t4.5 -32q0 -12 -17 -12q-13 0 -23 14q-14 18 -32.5 52t-32 50.5t-26.5 16.5h-122q-13 0 -21 -30l-137 -510q-12 -42 -12 -52q0 -22 12 -28t44 -6q18 0 26.5 -1.5t10 -3.5t1.5 -6
q0 -6 -3.5 -17.5t-7.5 -11.5h-13q-14 1 -34 1t-41.5 0.5t-41.5 1t-30 0.5q-22 0 -89 -1.5t-71 -1.5q-12 0 -12 9q0 20 6.5 25.5t26.5 5.5q41 0 55.5 11.5t27.5 59.5l136 508q1 3 3.5 12t4 16.5t1.5 11.5q0 7 -8 7h-164q-11 0 -36 -27.5t-51.5 -61t-37.5 -41.5q-4 -3 -15 -3
q-14 0 -14 12q0 7 31.5 95t36.5 88t21.5 -8.5t32.5 -8.5z" />
    <glyph glyph-name="U" unicode="U" horiz-adv-x="796" 
d="M349 622q-20 -84 -39.5 -165.5t-27.5 -114t-15 -65t-8.5 -47t-1.5 -32.5q0 -67 39.5 -108t107.5 -41q32 0 59.5 5.5t48.5 12.5t40.5 23.5t32 27.5t26 37t20.5 39t18 46t14.5 46.5t14.5 50.5t33.5 147.5t22.5 122.5q0 37 -13.5 48t-68.5 18q-17 2 -17 11q0 29 12 29
q39 0 75.5 -2t46.5 -2q5 0 41.5 2t77.5 2q7 0 7 -6q0 -13 -2 -19t-13.5 -10.5t-35.5 -4.5q-27 0 -40.5 -25.5t-32.5 -99.5q-85 -325 -105 -375q-38 -93 -118.5 -139t-185.5 -46q-104 0 -175.5 53.5t-71.5 153.5q0 40 46.5 238.5t46.5 204.5q0 19 -11.5 25t-54.5 10
q-23 2 -23 9q0 12 4 21.5t9 9.5q54 0 101 -2t54 -2q13 0 62 2t90 2q2 0 5 -2t3 -4q0 -33 -17 -34q-47 -5 -60 -12t-21 -39z" />
    <glyph glyph-name="V" unicode="V" horiz-adv-x="704" 
d="M753 639l-570 -626q-24 -28 -48 -28q-19 0 -19 16q0 22 29.5 308.5t29.5 316.5q0 32 -10.5 39.5t-42.5 7.5q-33 0 -33 11q0 29 15 29q4 0 63.5 -2t85.5 -2q8 0 77 2t81 2q7 0 7 -5q0 -22 -9 -28.5t-41 -6.5q-28 0 -40.5 -13.5t-16.5 -53.5q-11 -112 -22.5 -223.5
t-17.5 -164.5t-6 -63h3q48 55 176 199t195 224q36 44 36 68q0 14 -14.5 19.5t-51.5 7.5q-36 2 -36 9q0 10 3.5 20.5t7.5 10.5q8 0 59 -2t75 -2q31 0 80 2t50 2q7 0 7 -4q0 -36 -37 -36q-10 0 -32 -10.5t-33 -23.5z" />
    <glyph glyph-name="W" unicode="W" horiz-adv-x="1019" 
d="M670 202l292 383q29 39 29 59q0 28 -54 29q-45 1 -45 11q0 12 4 20.5t9 8.5q9 0 61.5 -2t63.5 -2q12 0 67 2t65 2q5 0 5 -4q0 -36 -23 -36q-36 0 -53 -11.5t-64 -66.5q-10 -12 -171.5 -218.5t-221.5 -279.5q-2 -3 -16 -20.5t-25 -30t-26 -28.5t-28.5 -24.5t-23.5 -8.5
q-14 0 -18 4.5t-4 15.5q0 14 5.5 58t17 151t22.5 245l-2 2q-74 -103 -285 -362q-12 -14 -27.5 -35t-24 -32t-20 -22.5t-23.5 -18.5q-10 -6 -23 -6q-17 0 -17 24q0 10 30 298t30 335q0 16 -10.5 23.5t-38.5 7.5q-23 0 -28.5 3t-5.5 10q0 27 13 27q7 0 69 -2t80 -2
q14 0 75.5 2t71.5 2q8 0 8 -6q0 -20 -5.5 -27t-22.5 -7q-46 0 -58 -12t-17 -61l-43 -426h3l251 321q28 36 29 62q1 10 4 42.5t3 43.5q0 10 -2 14.5t-16 9.5t-43 6q-15 1 -18 3t-3 9q0 8 2 15t4.5 10t4.5 3q7 0 67.5 -2t77.5 -2q14 0 80 2t77 2q6 0 6 -7q0 -20 -7.5 -26.5
t-35.5 -6.5q-34 0 -45.5 -10.5t-14.5 -34.5l-46 -457l2 -2q4 6 13.5 17.5t12.5 15.5z" />
    <glyph glyph-name="X" unicode="X" horiz-adv-x="741" 
d="M442 419l164 164q38 37 38 61q0 25 -44 29q-45 4 -45 8q0 32 10 32q9 0 64 -2t65 -2q14 0 67.5 2t63.5 2q6 0 6 -6q0 -33 -19 -34q-43 -4 -60.5 -11.5t-43.5 -33.5q-180 -176 -213.5 -209.5t-33.5 -37.5q0 -5 13 -33l119 -254q26 -56 81 -56q27 0 27 -11q0 -29 -12 -29
q-27 0 -80.5 1.5t-80.5 1.5t-79.5 -1.5t-77.5 -1.5q-6 0 -6 4q0 35 25 36t36.5 2.5t19.5 6.5t8 16q0 7 -23 58t-49.5 108t-30.5 68q-7 -8 -64.5 -62.5t-97.5 -100.5t-40 -68q0 -11 13.5 -19.5t27.5 -8.5q48 0 48 -9q0 -31 -12 -31l-8 1q-7 1 -27 1.5t-51 0.5
q-52 0 -89.5 -0.5t-56 -1.5t-25.5 -1q-9 0 -9 7q0 9 2 15t10.5 12t24.5 6q41 2 85 46q77 77 167 166q58 57 70 70t12 18q-3 6 -23.5 50.5t-39 82t-41.5 83t-41 74t-27 33.5q-23 12 -43 12q-22 0 -22 10q0 30 14 30q12 0 77.5 -2t81.5 -2q10 0 78.5 2t82.5 2q6 0 6 -4
q0 -25 -6 -30.5t-36 -5.5q-24 0 -38 -5.5t-14 -12.5q0 -26 102 -236z" />
    <glyph glyph-name="Y" unicode="Y" horiz-adv-x="630" 
d="M367 363l206 237q18 20 18 36q0 20 -13 26.5t-50 10.5q-26 3 -26 11q0 29 13 29q7 0 59.5 -2t64.5 -2t68 2t66 2q5 0 5 -5q0 -7 -3.5 -21t-8.5 -14q-42 0 -70 -16.5t-79 -72.5l-233 -256q-9 -9 -22 -56q-51 -191 -51 -198q0 -22 13.5 -29t55.5 -7q27 0 27 -9
q0 -31 -13 -31q-26 0 -79 1t-80 1t-83 -1t-83 -1q-6 0 -6 6q0 34 22 34q49 1 64.5 9t22.5 37q3 12 20 71.5t32.5 113t15.5 56.5q0 7 -62 277q-10 45 -18 56q-10 14 -62 15q-18 0 -18 10q0 30 11 30q4 0 63.5 -2t73.5 -2q19 0 89.5 2t77.5 2q5 0 5 -6q0 -22 -6.5 -28
t-33.5 -6q-49 0 -49 -21q0 -17 13.5 -85t27.5 -134t15 -70z" />
    <glyph glyph-name="Z" unicode="Z" horiz-adv-x="685" 
d="M27 44l509 625h-244q-18 0 -41 -7.5t-33 -21.5q-1 -1 -9 -13t-15.5 -22.5t-19 -25.5t-20.5 -25.5t-18 -18t-14 -7.5q-16 0 -16 9q0 17 24.5 89.5t25.5 82.5q1 6 5.5 11t8.5 5q1 0 12.5 -6t25.5 -6q69 0 169 -2t113 -2q15 0 109 2t103 2q17 0 17 -9q0 -16 -63 -93
l-465 -568h297q44 0 78 51q46 68 59 83.5t23 15.5q19 0 19 -11q0 -7 -8.5 -41.5t-19 -76t-13.5 -54.5q-3 -12 -16 -12h-3h-6.5t-11 0.5t-19.5 0.5h-30t-44 0.5t-59.5 0.5h-78.5h-99h-67.5h-54t-41 -0.5t-30 -0.5h-20.5t-14 -0.5t-8 -0.5h-4h-2q-15 0 -15 8q0 7 24 38z" />
    <glyph glyph-name="bracketleft" unicode="[" horiz-adv-x="333" 
d="M302 621q-186 -749 -186 -755q0 -17 12.5 -22.5t63.5 -5.5q22 0 30.5 -4t8.5 -18q0 -18 -18 -18l-31 1q-32 1 -69 1q-16 0 -48 -1t-48 -1q-19 0 -19 13q0 9 207 843q10 41 14 50t11 9q6 0 36.5 -1t46.5 -1q19 0 57 1t57 1q10 0 13 -2.5t3 -11.5q0 -17 -10 -21.5t-41 -4.5
q-54 0 -67.5 -7t-22.5 -45z" />
    <glyph glyph-name="backslash" unicode="\" horiz-adv-x="352" 
d="M60 709h102l250 -709h-102z" />
    <glyph glyph-name="bracketright" unicode="]" horiz-adv-x="333" 
d="M42 -110q186 749 186 755q0 17 -12.5 22.5t-63.5 5.5q-22 0 -30.5 4t-8.5 18q0 18 18 18l31 -1q32 -1 69 -1q16 0 48 1t48 1q19 0 19 -13q0 -9 -207 -843q-10 -41 -14 -50t-11 -9q-6 0 -36.5 1t-46.5 1q-19 0 -57 -1t-57 -1q-10 0 -13 2.5t-3 11.5q0 17 10 21.5t41 4.5
q54 0 67.5 7t22.5 45z" />
    <glyph glyph-name="asciicircum" unicode="^" 
d="M194 281h-114l163 407h120l163 -407h-114l-108 319h-2z" />
    <glyph glyph-name="underscore" unicode="_" horiz-adv-x="500" 
d="M500 -125h-500v50h500v-50z" />
    <glyph glyph-name="grave" unicode="`" horiz-adv-x="278" 
d="M291 559h-49q-78 52 -113 78t-42.5 35.5t-7.5 21.5q0 20 15 33t31 13q14 0 25.5 -8t43 -46t97.5 -127z" />
    <glyph glyph-name="a" unicode="a" horiz-adv-x="519" 
d="M141 74q36 0 87.5 65t86.5 138.5t35 102.5q0 17 -9 30.5t-25 13.5q-35 0 -72.5 -45t-62.5 -103.5t-41.5 -109t-16.5 -67.5q0 -25 18 -25zM398 172q-31 -78 -31 -93q0 -14 13 -14q14 0 56.5 49.5t48.5 49.5q4 0 9.5 -5t5.5 -11q0 -1 -12.5 -17t-35.5 -40t-49.5 -47
t-59 -39.5t-59.5 -16.5q-40 0 -40 34q0 9 14 45.5t27.5 70t13.5 34.5q0 6 -4 6q-2 0 -16 -19.5t-37.5 -47.5t-52.5 -56t-66.5 -47.5t-72.5 -19.5q-25 0 -39 16t-14 42q0 50 25.5 120.5t66.5 136t101 111.5t122 46q25 0 41.5 -9t23 -18.5t8.5 -9.5q3 0 13 26q4 12 10 14.5
t36 2.5q63 0 63 -6q0 -2 -109 -288z" />
    <glyph glyph-name="b" unicode="b" horiz-adv-x="500" 
d="M141 72q0 -19 11.5 -31.5t30.5 -12.5q46 0 87 59.5t62 129t21 114.5q0 12 -9.5 23t-21.5 11q-34 0 -77.5 -54t-73.5 -123.5t-30 -115.5zM304 636l-99 -324l3 -3l12 15q11 16 30 37t43 42t56 36t63 15q67 0 67 -87q0 -30 -12.5 -74.5t-41 -98t-68.5 -99t-102.5 -76.5
t-134.5 -31q-45 0 -69 21.5t-24 48.5q0 16 3 34t14 59.5t23.5 84t41 143t56.5 201.5q18 64 18 70q0 9 -7 13t-35 10q-7 2 -13 7t-6 10q0 13 12 16t74 7q15 1 49.5 5.5t46.5 4.5q22 0 22 -8q0 -2 -22 -79z" />
    <glyph glyph-name="c" unicode="c" horiz-adv-x="370" 
d="M145 142q0 -82 50 -82q22 0 46.5 18t40 36t17.5 18q6 0 13 -6.5t7 -10.5q0 -3 -8 -16t-25 -32t-39 -36.5t-53 -30t-64 -12.5q-111 0 -111 136q0 71 36 147t101.5 129.5t138.5 53.5q99 0 99 -63q0 -26 -18.5 -40t-44.5 -14q-22 0 -35.5 12t-17 26.5t-10.5 26.5t-19 12
q-30 0 -67 -96t-37 -176z" />
    <glyph glyph-name="d" unicode="d" horiz-adv-x="519" 
d="M295 204q53 121 53 166q0 48 -37 48t-81.5 -60.5t-73 -134.5t-28.5 -118q0 -12 8.5 -20.5t20.5 -8.5q31 0 76 44t62 84zM412 178q-23 -83 -23 -96q0 -14 13 -14q14 0 56.5 49t43.5 49q3 0 10 -5.5t7 -11.5q0 -2 -11.5 -18.5t-32.5 -40t-46.5 -46.5t-57 -39.5t-60.5 -16.5
q-47 0 -47 47q0 15 7.5 40.5t14.5 44.5l8 20q0 6 -3 6t-27.5 -31t-65.5 -69t-81 -50q-26 -8 -44 -8q-34 0 -52.5 25.5t-18.5 60.5q0 76 46.5 166.5t114.5 152t127 61.5q39 0 73 -28l2 -2q17 49 37.5 132t20.5 94q0 9 -7 13t-35 10q-7 2 -13 7t-6 10q0 13 12 16t74 7
q15 1 49.5 5.5t46.5 4.5q22 0 22 -8q0 -17 -154 -537z" />
    <glyph glyph-name="e" unicode="e" horiz-adv-x="426" 
d="M158 211q-11 -20 -11 -55q0 -39 18.5 -67.5t55.5 -28.5q29 0 56.5 18.5t44 37t20.5 18.5q7 0 12 -5.5t5 -10.5q0 -2 -9 -15t-26.5 -32.5t-39.5 -38t-53.5 -31.5t-62.5 -13q-66 0 -103 38t-37 104q0 130 85 227t197 97q38 0 71.5 -18t33.5 -61q0 -35 -27 -65.5t-69 -49.5
t-82.5 -31t-78.5 -18zM314 382q0 36 -27 36q-20 0 -39.5 -17t-33.5 -40.5t-24.5 -48.5t-16 -41.5t-5.5 -18.5q0 -5 7 -5q39 0 89 39.5t50 95.5z" />
    <glyph glyph-name="f" unicode="f" horiz-adv-x="333" 
d="M114 383h-84q-13 0 -13 10q0 7 3.5 17t9.5 10q74 4 93.5 11.5t27.5 32.5q28 86 42.5 117.5t41.5 67.5q23 31 83.5 61t111.5 30q61 0 94 -14.5t33 -54.5q0 -21 -20.5 -37t-37.5 -16q-19 0 -34.5 13t-24 28t-18 28t-18.5 13q-79 0 -123 -201q-1 -2 -5 -17.5t-7 -29
t-3 -17.5q0 -7 15 -7h108q7 0 7 -4q0 -41 -25 -41h-108q-7 0 -9 -3.5t-5 -13.5l-77 -324q-41 -173 -111.5 -244t-170.5 -71q-83 0 -83 62q0 19 15.5 33.5t34.5 14.5q25 0 54.5 -31t42.5 -31q36 0 60 107q2 5 2 7q26 116 54 238t42.5 182.5t14.5 61.5q0 9 -2 10.5t-11 1.5z
" />
    <glyph glyph-name="g" unicode="g" horiz-adv-x="519" 
d="M280 424q-33 0 -60 -44.5t-39 -93.5t-12 -81q0 -73 45 -73q34 0 61 41t39 88t12 81q0 39 -9 60.5t-37 21.5zM134 -53q-26 -13 -42.5 -23.5t-34.5 -31.5t-18 -43q0 -35 26 -58t58 -31t66 -8q77 0 116.5 23.5t39.5 66.5q0 30 -37.5 48t-173.5 57zM286 10
q107 -26 138.5 -52.5t31.5 -74.5q0 -24 -12 -49.5t-39.5 -52.5t-83.5 -44.5t-133 -17.5q-43 0 -80.5 5t-71.5 17t-54 35t-20 54q0 24 13.5 45t38.5 38t43 26.5t45 21.5l-2 1l-4 4t-5 5.5l-6 7t-6 8t-5 9.5t-3.5 10.5t-1.5 10.5q0 22 14.5 44t28.5 35l14 13q-68 44 -68 109
q0 103 56.5 172.5t145.5 69.5q13 0 24.5 -1t23 -5t19 -6.5t20 -9t17.5 -9t19.5 -12t18.5 -11.5q3 0 19 12t40.5 24t49.5 12t37.5 -14.5t12.5 -32.5q0 -20 -11.5 -33.5t-31.5 -13.5t-37 19t-25 19q-11 0 -21 -6.5t-10 -16.5q0 -7 6 -30t6 -38q0 -79 -57.5 -145t-157.5 -66
q-32 0 -66 6q-15 -12 -15 -26q0 -18 34 -32.5t111 -33.5z" />
    <glyph glyph-name="h" unicode="h" 
d="M108 0h-78q-17 0 -17 16q0 8 93.5 318.5t93.5 314.5q0 11 -3 14.5t-16 7.5q-3 1 -13 2.5t-15.5 3t-11 6t-5.5 11.5q0 13 23 17q19 3 90 12t82 9q9 0 9 -12q0 -7 -61.5 -210t-61.5 -217l2 -2q11 13 34 41t39 45t39 37t48.5 30t54.5 10q40 0 63 -28t23 -67q0 -38 -19 -98
t-51.5 -122t-85.5 -106.5t-112 -44.5q-24 0 -39.5 13t-15.5 36q0 22 11 37t32 15q16 0 24.5 -7t10.5 -16t6.5 -16t12.5 -7q33 0 66.5 118t33.5 167q0 44 -33 44q-44 0 -132 -119q-25 -33 -39.5 -67.5t-63.5 -175.5q-4 -10 -18 -10z" />
    <glyph glyph-name="i" unicode="i" horiz-adv-x="315" 
d="M31 36q0 32 58 175.5t58 161.5q0 7 -16 7q-8 0 -47 -37t-40 -37q-5 0 -10 4t-5 8q0 15 33.5 48.5t86.5 63.5t95 30q15 0 26 -9.5t11 -27.5q0 -22 -29.5 -105t-59 -158.5t-29.5 -78.5q0 -13 11 -13q8 0 31.5 19.5t44 39t21.5 19.5q5 0 11 -4.5t6 -9.5q0 -4 -11.5 -19
t-33 -36.5t-47.5 -41t-59 -33.5t-63 -14q-43 0 -43 48zM185 639q0 29 20.5 49.5t49.5 20.5t49.5 -20.5t20.5 -49.5t-20.5 -49.5t-49.5 -20.5t-49.5 20.5t-20.5 49.5z" />
    <glyph glyph-name="j" unicode="j" horiz-adv-x="315" 
d="M-13 -156q10 37 53 165.5t79 240t36 128.5q0 10 -14 10q-17 0 -43.5 -26t-47 -51.5t-24.5 -25.5q-5 0 -11 6t-6 9t11 19.5t34 40t51.5 46t69 38.5t81.5 16q12 0 17.5 -1t9.5 -7t4 -18q0 -46 -64 -254t-127 -317q-30 -52 -89 -94.5t-138 -42.5q-31 0 -56.5 15t-25.5 45
q0 21 15.5 35t36.5 14q24 0 40.5 -15.5t30.5 -31t32 -15.5q14 0 27 25.5t18 45.5zM185 639q0 29 20.5 49.5t49.5 20.5t49.5 -20.5t20.5 -49.5t-20.5 -49.5t-49.5 -20.5t-49.5 20.5t-20.5 49.5z" />
    <glyph glyph-name="k" unicode="k" horiz-adv-x="537" 
d="M186 196q30 11 58.5 23t70 33t67 46t25.5 48q0 36 -34 36q-31 0 -81 -38t-86 -95q-10 -17 -20 -53zM257 58l-50 117l-26 -14q-3 -2 -7 -9.5t-9.5 -23t-10 -31t-13 -41l-15.5 -46.5q-4 -10 -18 -10h-78q-17 0 -17 16q0 8 93.5 318.5t93.5 314.5q0 11 -3 14.5t-16 7.5
q-3 1 -13 2.5t-15.5 3t-11 6t-5.5 11.5q0 13 23 17q19 3 90 12t82 9q9 0 9 -12q0 -3 -52 -180.5t-66 -219.5l2 -2q1 0 14 14t34 34t47.5 40t61 34t66.5 14q31 0 53.5 -19t22.5 -49q0 -19 -7 -36t-23.5 -32t-29.5 -26t-38.5 -24t-38 -18.5t-40 -17t-31.5 -13.5
q40 -97 58 -126t33 -29q14 0 35.5 20.5t24.5 20.5q5 0 12 -6t7 -9q0 -7 -22 -31t-58 -47.5t-65 -23.5q-13 0 -21 1.5t-19.5 8t-22 21.5t-20.5 39z" />
    <glyph glyph-name="l" unicode="l" horiz-adv-x="296" 
d="M78 247q127 394 127 403t-7 13t-35 10q-7 2 -13 7t-6 10q0 13 12 16t74 7q15 1 49.5 5.5t46.5 4.5q22 0 22 -8q0 -6 -12 -43t-42.5 -130.5t-59.5 -184.5q-81 -250 -81 -257q0 -16 11 -16q20 0 61 44t47 44q4 0 10 -5.5t6 -9.5q0 -3 -13 -20.5t-36 -42.5t-51 -48.5
t-63 -40.5t-66 -17q-20 0 -33 13t-13 33q0 11 4 26t10 32.5t21 62t30 92.5z" />
    <glyph glyph-name="m" unicode="m" horiz-adv-x="870" 
d="M135 0h-89q-17 0 -17 8q0 2 21 58q52 136 111 293q11 32 10 47q0 9 -15 9q-67 0 -122 -141q-2 -7 -13 -7q-12 0 -12 20q0 23 14.5 55.5t33.5 55.5q54 62 217 62q11 0 16 -2t6 -4t1 -7q0 -12 -38.5 -106.5t-38.5 -101.5q0 -5 4 -5q3 0 28 35.5t58 77.5t83.5 77.5
t99.5 35.5q24 0 45 -10t21 -31q0 -11 -31.5 -92.5t-31.5 -87.5q-5 -5 4 -5q6 0 33.5 35.5t60.5 77.5t78.5 77.5t82.5 35.5q31 0 48.5 -13t17.5 -30q0 -46 -61 -191.5t-61 -159.5t11 -14q15 0 43.5 27t50.5 55l23 27q7 0 13.5 -4.5t6.5 -8.5q0 -3 -10 -18.5t-29 -37
t-42.5 -42.5t-55 -35.5t-62.5 -14.5h-76q-15 0 -15 9q0 19 69 184t69 179q0 4 -3.5 7t-7.5 3q-23 0 -108 -98t-110 -147q-19 -36 -48 -125q-4 -12 -14 -12h-91q-18 0 -18 13q0 1 34.5 83t69 170.5t34.5 105.5q0 7 -6 11.5t-14 4.5q-27 0 -83.5 -64t-87.5 -119
q-26 -47 -84 -190q-6 -15 -23 -15z" />
    <glyph glyph-name="n" unicode="n" horiz-adv-x="593" 
d="M125 0h-75q-7 0 -14 4t-7 10q0 1 68.5 187t68.5 197q0 17 -9 17q-31 0 -63.5 -37t-41.5 -77q-3 -14 -15 -14q-14 0 -14 12q0 21 10.5 46.5t32.5 52t63 44.5t93 18h35q9 0 19 -5t10 -13q0 -6 -39.5 -116t-39.5 -116l5 -3q12 9 36.5 52t49 86.5t65.5 79t85 35.5
q16 0 25.5 -0.5t26.5 -3.5t26.5 -8t17 -16.5t7.5 -27.5q0 -31 -60 -179.5t-60 -159.5q0 -7 9 -7q21 0 45 24t41 48t19 24q7 0 13.5 -5t6.5 -9q0 -2 -8 -15.5t-26 -34.5t-41 -41t-58 -34.5t-72 -14.5h-44q-22 0 -22 8q0 15 65.5 190t65.5 176q0 11 -5 18t-9 8.5t-7 1.5
q-13 0 -29 -13t-33.5 -35.5t-30.5 -41.5t-28.5 -44t-18.5 -30q-49 -74 -95 -192q-12 -30 -20 -38t-24 -8z" />
    <glyph glyph-name="o" unicode="o" horiz-adv-x="463" 
d="M430 281q0 -72 -29 -138t-87 -110.5t-131 -44.5q-23 0 -46 7t-49.5 24.5t-43 56.5t-16.5 95q0 104 69 196.5t169 92.5q76 0 120 -50t44 -129zM324 341q0 18 -1 28t-4 25t-12 22.5t-23 7.5q-35 0 -71 -61t-57.5 -139.5t-21.5 -135.5q0 -24 11 -44t33 -20q37 0 73 68
t54.5 141t18.5 108z" />
    <glyph glyph-name="p" unicode="p" horiz-adv-x="500" 
d="M176 531h88q8 0 8 -10q0 -11 -12 -51t-12 -45q0 -7 5 -7l19 9q20 9 47.5 18t46.5 9q17 0 33.5 -4.5t36 -16.5t31.5 -38t12 -64q0 -34 -13 -87t-39 -112.5t-76 -101.5t-112 -42q-12 0 -33.5 4.5t-38.5 9.5l-17 4q-8 0 -11 -21q-3 -15 -23 -95.5t-20 -96.5q0 -18 50 -18
q31 0 31 -21q0 -15 -25 -15q-18 0 -54.5 1.5t-54.5 1.5q-30 0 -56.5 -1t-42.5 -1.5t-18 -0.5q-23 0 -23 15q0 12 4.5 16t20.5 5q30 3 38 8t12 20l116 456q4 17 8 29t5 16t1 6q0 7 -5 7q-14 -1 -46 -23t-34 -22q-4 0 -9 6.5t-5 11.5q0 2 9.5 10.5t37 29.5t66.5 46
q9 18 17.5 70t13.5 70q2 6 3 8.5t6 4.5t14 2zM231 359l-57 -218q-12 -48 -12 -63q0 -21 17.5 -37.5t38.5 -16.5q31 0 58 35t43 84.5t25 96t9 75.5q0 24 -8 41.5t-20.5 24.5t-21 9.5t-14.5 2.5q-49 0 -58 -34z" />
    <glyph glyph-name="q" unicode="q" horiz-adv-x="519" 
d="M27 96q0 85 49 169.5t121.5 136.5t141.5 52q22 0 38.5 -14t25.5 -28t12 -14q9 0 27.5 23.5t27.5 29.5q5 3 18 3q11 0 15.5 -1.5t5.5 -3.5t1 -6q0 -5 -105 -323.5t-105 -321.5q0 -17 41 -23q24 -4 24 -18q0 -18 -28 -18q-16 0 -50 1.5t-51 1.5q-20 0 -59 -1.5t-58 -1.5
q-29 0 -29 17q0 18 22 19q40 1 51 6.5t21 26.5q2 5 27.5 80.5t49.5 149t24 74.5q0 7 -3 7q-5 0 -22.5 -20.5t-38 -45t-53 -45t-64.5 -20.5q-26 0 -51.5 25t-25.5 83zM138 102q0 -44 25 -44q40 0 90.5 66.5t83 144t32.5 116.5q0 33 -35 33q-40 0 -88.5 -68.5t-78 -143
t-29.5 -104.5z" />
    <glyph glyph-name="r" unicode="r" horiz-adv-x="444" 
d="M132 0h-92q-16 0 -16 12q0 6 65 192t65 203q0 3 -4 6.5t-9 3.5q-25 0 -55 -42.5t-41 -75.5q-3 -15 -15 -15q-13 0 -13 17q0 16 4.5 34.5t17.5 41.5t32.5 41t53 30t75.5 12q74 0 74 -14q0 -10 -40 -120.5t-40 -122.5q0 -3 6 -3q3 0 12.5 16.5t26.5 49.5t33 59q18 29 28 44
t31.5 40.5t43.5 38t45 12.5q29 0 48.5 -16.5t19.5 -44.5q0 -25 -19 -42t-44 -17q-29 0 -49 17t-23 17q-18 0 -56 -64q-61 -101 -82.5 -143.5t-68.5 -153.5q-3 -7 -4 -9t-3 -3t-7 -1z" />
    <glyph glyph-name="s" unicode="s" horiz-adv-x="352" 
d="M25 101q14 0 26.5 -12t20.5 -26.5t21.5 -26.5t28.5 -12q5 0 15 3.5t22 16.5t12 34q0 24 -53 118q-53 98 -53 127q0 46 47 88.5t136 42.5q38 0 78.5 -16.5t40.5 -49.5q0 -21 -14.5 -37t-35.5 -16q-29 0 -53 42q-10 15 -14 20.5t-13.5 13t-20.5 7.5q-18 0 -31.5 -13
t-13.5 -30q0 -7 2.5 -15t5.5 -15t9 -19t10 -18.5t13 -21t13 -20.5q53 -84 53 -135q0 -60 -60.5 -101.5t-133.5 -41.5q-105 0 -105 62q0 21 13.5 36t33.5 15z" />
    <glyph glyph-name="t" unicode="t" horiz-adv-x="333" 
d="M201 550h98q4 0 4 -8q0 -5 -16.5 -54t-16.5 -53q0 -7 8 -7h92q7 0 7 -8q0 -7 -6.5 -22t-17.5 -15h-88q-12 0 -16 -10q-14 -38 -54 -170t-40 -138q0 -19 15 -19q14 0 43.5 21t53.5 43l24 21q3 0 10.5 -7t7.5 -9q0 -3 -10 -16.5t-31 -32t-48 -36t-66 -30t-80 -12.5
q-18 0 -32.5 10.5t-14.5 33.5q0 24 51.5 181.5t51.5 158.5q0 11 -8 11h-76q-17 0 -17 4q0 5 8 23t16 18h85q13 0 23 31l27 81q4 10 13 10z" />
    <glyph glyph-name="u" unicode="u" horiz-adv-x="574" 
d="M441 454h104q7 0 7 -4t-64 -187.5t-64 -194.5q0 -13 10 -13q19 0 44 25.5t42.5 51t19.5 25.5q6 0 12 -3.5t6 -7.5t-8.5 -19.5t-27 -38t-43 -43.5t-60.5 -36t-75 -15q-17 0 -24.5 0.5t-14 4.5t-6.5 13q0 8 51 161q12 36 12 38q0 7 -3 7q-5 0 -27.5 -36t-50.5 -79t-75 -79
t-96 -36q-28 0 -50 14t-22 45q0 13 64 181.5t64 179.5q0 12 -10 12q-24 0 -63 -42.5t-50 -86.5q-2 -8 -12 -8q-15 0 -15 12q0 9 4 25.5t18 41.5t35 46t61.5 36.5t91.5 15.5h44q33 0 33 -16q0 -14 -69.5 -182.5t-69.5 -183.5q0 -23 19 -23q8 0 19.5 7.5t25 22.5t25 29
t26 35.5t22 33t19.5 30.5l12 19q18 27 41.5 80t39 92.5t16.5 44.5t12 5z" />
    <glyph glyph-name="v" unicode="v" horiz-adv-x="500" 
d="M85 454h188q11 0 11 -7q0 -8 -22.5 -53t-45 -106t-22.5 -109q0 -95 61 -95q44 0 82.5 40t58.5 88t20 83q0 29 -26.5 54.5t-26.5 49.5q0 27 17.5 48t44.5 21q59 0 59 -79q0 -25 -11.5 -71t-36.5 -103.5t-58.5 -107.5t-84 -84.5t-105.5 -34.5q-47 0 -76 33.5t-29 80.5
q0 29 12.5 65.5t30 68.5t35 60t30 45t12.5 18q0 4 -25 4h-102q-13 0 -27.5 -32.5t-18.5 -32.5q-21 0 -21 8q0 2 9.5 31t20.5 62t13 38q5 17 33 17z" />
    <glyph glyph-name="w" unicode="w" horiz-adv-x="704" 
d="M215 363h-112q-42 0 -53 -36q-8 -27 -12.5 -34.5t-13.5 -7.5q-17 0 -17 10q0 5 10 34.5t22 63t14 41.5q6 20 33 20h199q12 0 12 -10q0 -16 -27 -69t-53.5 -115.5t-26.5 -103.5q0 -72 55 -72q40 0 75 38.5t52 84t17 79.5q0 22 -14.5 51.5t-14.5 46.5q0 32 18 54t51 22
q32 0 42 -12t10 -41q0 -20 -34.5 -111t-34.5 -149q0 -28 15.5 -49t42.5 -21q38 0 72.5 42.5t52.5 94t18 87.5q0 21 -32 47t-32 56q0 25 18 44.5t42 19.5q33 0 49.5 -25t16.5 -59q0 -49 -21 -116t-56 -130t-88 -106.5t-110 -43.5q-39 0 -60 23t-17 61q-2 -2 -16.5 -14
t-18 -15t-17 -13.5t-19.5 -14t-18.5 -10.5t-21.5 -9.5t-21 -5t-23 -2.5q-44 0 -69 28.5t-25 72.5t36.5 108.5t73 111.5t36.5 50q0 4 -5 4z" />
    <glyph glyph-name="x" unicode="x" horiz-adv-x="519" 
d="M275 357l17 -77q127 180 179 180q23 0 34.5 -16.5t11.5 -38.5q0 -27 -13 -64.5t-31 -37.5q-8 0 -11.5 5t-4 9.5t-0.5 18.5q0 15 -1 22t-7 12.5t-17 5.5q-6 0 -13.5 -3.5t-16 -10.5t-16 -14t-17 -18t-16 -19t-16 -20.5t-13.5 -18.5t-11.5 -16.5t-8.5 -11.5q15 -76 27 -116
t19 -49t16 -9q19 0 30.5 19t19 38.5t15.5 19.5q17 0 17 -14q0 -31 -41.5 -88t-99.5 -57q-27 0 -40.5 9.5t-27 45t-30.5 115.5q-7 -10 -32 -46.5t-42 -59t-45 -43.5t-53 -21q-23 0 -36.5 17.5t-13.5 40.5q0 25 13.5 58.5t34.5 33.5q12 0 12 -10q0 -6 -2.5 -18t-2.5 -18
q0 -32 25 -32q12 0 25.5 8t24.5 18.5t25 28.5t21.5 28.5t19.5 29t14 21.5q-13 71 -24 107t-18 43.5t-17 7.5q-19 0 -29.5 -21t-11.5 -43q0 -9 -13 -9q-10 0 -13 3.5t-3 17.5q0 51 38 102.5t88 51.5q61 0 81 -97z" />
    <glyph glyph-name="y" unicode="y" horiz-adv-x="463" 
d="M189 -117q-62 -85 -112.5 -120.5t-126.5 -35.5q-35 0 -59 14t-24 46q0 20 15.5 33.5t35.5 13.5q25 0 56 -31t43 -31q44 0 86.5 76t42.5 194q0 96 -15 210.5t-48 114.5q-18 0 -28 -21t-17 -68q-2 -10 -5 -13t-13 -3q-14 0 -14 13q0 22 13.5 61.5t46 78.5t74.5 39
q40 0 64 -33t38 -121t15 -244h2q7 9 21.5 38t40.5 118t43 202q6 40 20 40q17 0 43 -13.5t26 -26.5q0 -50 -84 -224t-180 -307z" />
    <glyph glyph-name="z" unicode="z" horiz-adv-x="500" 
d="M423 375l-274 -257q51 0 133 -32t98 -32q11 0 20.5 9t9.5 19q0 8 -7.5 14t-16 10.5t-16 15t-7.5 26.5q0 21 17 34.5t38 13.5q26 0 39 -19.5t13 -46.5q0 -57 -56 -99.5t-122 -42.5q-38 0 -105 20q-101 29 -115 29q-12 0 -16.5 -4t-4.5 -15q0 -30 -30 -30q-8 0 -16 7t-8 16
q0 15 28 42l292 273v2q-34 0 -104 30t-88 30q-8 0 -18 -5.5t-10 -13.5q0 -13 20 -27t20 -31q0 -18 -13.5 -30.5t-31.5 -12.5q-21 0 -38 13t-17 33q0 58 54.5 99t110.5 41q44 0 112.5 -25t75.5 -25q12 0 30 22.5t30 22.5q28 0 28 -16q0 -5 -7.5 -13t-23.5 -22.5t-24 -22.5z
" />
    <glyph glyph-name="braceleft" unicode="{" horiz-adv-x="352" 
d="M355 713h71q14 0 14 -10q0 -7 -6.5 -16.5t-14.5 -9.5q-46 0 -68.5 -13t-30.5 -49q-36 -164 -60.5 -235t-45.5 -92t-65 -29v-3q34 -11 45.5 -28t11.5 -48q0 -21 -39 -156t-39 -144q0 -46 68 -46q13 0 13 -11q0 -5 -4.5 -15t-10.5 -10h-72q-55 0 -77.5 15.5t-22.5 46.5
q0 42 40 170q38 128 38 150q0 30 -17 43t-34 17t-17 15q0 9 14.5 15t33.5 9.5t38.5 21t27.5 46.5q70 270 82 300q6 14 14 27q12 20 48 29.5t65 9.5z" />
    <glyph glyph-name="bar" unicode="|" 
d="M230 0v688h96v-688h-96z" />
    <glyph glyph-name="braceright" unicode="}" horiz-adv-x="394" 
d="M-18 -202h-71q-14 0 -14 10q0 7 6.5 16.5t14.5 9.5q46 0 68.5 13t30.5 49q36 164 60.5 235t45.5 92t65 29v3q-34 11 -45.5 28t-11.5 48q0 21 39 156t39 144q0 46 -68 46q-13 0 -13 11q0 5 4.5 15t10.5 10h72q55 0 77.5 -15.5t22.5 -46.5q0 -42 -40 -170
q-38 -128 -38 -150q0 -24 10.5 -37.5t23.5 -16t23.5 -7.5t10.5 -14t-14.5 -15t-33.5 -9.5t-38.5 -21t-27.5 -46.5q-70 -270 -82 -300q-6 -14 -14 -27q-12 -20 -48 -29.5t-65 -9.5z" />
    <glyph glyph-name="asciitilde" unicode="~" 
d="M451 328l65 -73q-30 -54 -61.5 -80.5t-83.5 -26.5q-36 0 -88 33q-49 33 -71 33q-25 0 -41.5 -21t-35.5 -63l-65 74q57 106 150 106q41 0 90 -33q3 -2 12 -7.5t12.5 -8t11 -6.5t12 -6t10.5 -3.5t12 -1.5q14 0 27 12.5t20 24.5t19 37q3 7 5 10z" />
    <glyph glyph-name="uni00A0" unicode="&#xa0;" horiz-adv-x="278" 
 />
    <glyph glyph-name="exclamdown" unicode="&#xa1;" horiz-adv-x="333" 
d="M1 -149l162 349q7 15 18 15q10 0 18 -4.5t8 -9.5q0 -23 -71 -406q-11 -55 -54 -55q-26 0 -61.5 14.5t-35.5 37.5q0 24 16 59zM159 386q0 31 21.5 52.5t52.5 21.5t52.5 -21.5t21.5 -52.5t-21.5 -52.5t-52.5 -21.5t-52.5 21.5t-21.5 52.5z" />
    <glyph glyph-name="cent" unicode="&#xa2;" 
d="M210 100l117 303q-6 11 -19 11q-30 0 -67 -96t-37 -176q0 -27 4 -42h2zM349 356l-114 -296h19q22 0 46.5 18t40 36t17.5 18q6 0 13 -6.5t7 -10.5q0 -5 -14.5 -24.5t-37 -42t-55.5 -41t-64 -19.5q-38 -98 -40 -98q-6 0 -19 4.5t-13 9.5q0 2 32 84q-89 15 -89 136
q0 70 35 144.5t98.5 128.5t134.5 57q33 84 36 84q7 0 18.5 -5.5t11.5 -11.5q0 -3 -26 -69q67 -10 67 -61q0 -26 -18.5 -40t-44.5 -14q-27 0 -41 19z" />
    <glyph glyph-name="sterling" unicode="&#xa3;" 
d="M161 82q-53 37 -82 37q-19 0 -33 -12t-14 -31t16 -29.5t36 -10.5q45 0 77 46zM212 302h-124q-24 0 -24 8q0 10 4.5 29.5t13.5 19.5h109q-1 2 -8 16.5t-9 18t-8 17t-8.5 19.5t-7 18t-6.5 19.5t-4.5 18t-3.5 20t-1 18.5q0 87 72 138t163 51q103 0 153 -49.5t50 -103.5
q0 -35 -20.5 -62t-53.5 -27q-27 0 -44 15.5t-17 42.5q0 15 19 41.5t19 48.5q0 27 -31.5 40.5t-62.5 13.5q-55 0 -92 -30t-37 -84q0 -26 30.5 -105.5t34.5 -94.5h166q10 0 10 -7t-7 -28.5t-13 -21.5h-149q8 -75 -75 -182q83 -36 139 -36q14 0 27 3.5t23 8t20 14t16.5 16
t15 20t12.5 21t12.5 23t12.5 21.5q3 3 6 3q9 0 17.5 -4t8.5 -10q0 -8 -13 -39.5t-34.5 -71.5t-57.5 -71t-75 -31q-44 0 -79.5 11t-51.5 21.5t-48 34.5q-49 -63 -120 -63q-38 0 -65 25.5t-27 63.5q0 37 29 64.5t66 27.5q47 0 113 -33q30 52 30 102q0 33 -15 61z" />
    <glyph glyph-name="currency" unicode="&#xa4;" 
d="M49 165l44 44q-39 65 -39 128q0 72 39 131l-44 43l79 80l44 -44q63 38 129 38q73 0 134 -38l44 44l77 -80l-44 -43q40 -59 40 -130q0 -76 -40 -129l44 -44l-77 -79l-44 44q-65 -39 -129 -39q-74 0 -134 39l-44 -44zM180 338q0 -82 33.5 -123t89.5 -41t89.5 41t33.5 123
t-33.5 123t-89.5 41t-89.5 -41t-33.5 -123z" />
    <glyph glyph-name="yen" unicode="&#xa5;" 
d="M521 214h-189q-36 -126 -36 -140q0 -22 12.5 -29t51.5 -7q32 0 32 -9q0 -31 -13 -31q-28 0 -78.5 1t-70.5 1q-28 0 -83 -1t-83 -1q-6 0 -6 6q0 19 6 26.5t21 7.5q45 1 59.5 9t22.5 37l37 130h-179q-10 0 -10 6q0 7 4.5 23t9.5 16h189q17 65 17 66q0 5 -4 27h-171
q-10 0 -10 6q0 7 4.5 23t9.5 16h157l-38 205q-10 45 -18 56q-10 14 -47 15q-33 1 -33 10q0 30 11 30q3 0 55 -2t72 -2t78 2t59 2q15 0 15 -6q0 -22 -6.5 -28t-33.5 -6q-34 0 -34 -21q0 -17 10.5 -74t24 -122.5t16.5 -80.5l160 227q19 25 19 44q0 13 -9.5 18.5t-33.5 8.5
q-26 3 -26 11q0 29 13 29q7 0 52 -2t57 -2q13 0 46.5 2t37.5 2q15 0 15 -5q0 -29 -22 -35q-45 -12 -55 -22q-58 -55 -193 -254h147q10 0 10 -6q0 -7 -4.5 -23t-9.5 -16h-176q-22 -31 -36 -93h181q10 0 10 -6q0 -7 -4.5 -23t-9.5 -16z" />
    <glyph glyph-name="brokenbar" unicode="&#xa6;" 
d="M230 413v275h96v-275h-96zM230 0v275h96v-275h-96z" />
    <glyph glyph-name="section" unicode="&#xa7;" 
d="M235 572q9 74 61 107.5t126 33.5q29 0 54.5 -4t49.5 -20.5t24 -44.5q0 -22 -16.5 -38t-38.5 -16q-21 0 -59.5 40.5t-66.5 40.5q-24 0 -37.5 -17t-13.5 -41q0 -41 26.5 -100.5t59 -112t59 -118.5t26.5 -118q0 -53 -21 -102t-52.5 -82t-53 -51t-38.5 -28q-4 -2 -8 -7
t-6.5 -9.5l-7.5 -13.5t-10 -16q-50 -75 -172 -75q-17 0 -35.5 3.5t-38 10.5t-32 20.5t-12.5 31.5q0 22 16 37.5t38 15.5q21 0 39.5 -12t29 -26.5t27 -26.5t34.5 -12q26 0 43.5 20.5t17.5 47.5q0 45 -43 137t-86 179.5t-43 121.5q0 83 43.5 146.5t116.5 97.5zM236 534
q-71 -46 -71 -122q0 -40 25 -96t54.5 -105t54.5 -113t25 -117q0 -15 -2 -43q77 66 77 153q0 58 -38.5 138.5t-79.5 163t-45 141.5z" />
    <glyph glyph-name="dieresis" unicode="&#xa8;" horiz-adv-x="278" 
d="M278 634q0 26 19.5 45.5t45.5 19.5t45 -19.5t19 -45.5t-19 -45t-45 -19t-45.5 19t-19.5 45zM65 634q0 26 19.5 45.5t45.5 19.5t45 -19.5t19 -45.5t-19 -45t-45 -19t-45.5 19t-19.5 45z" />
    <glyph glyph-name="copyright" unicode="&#xa9;" horiz-adv-x="860" 
d="M597 523v-105h-38q-7 43 -31 70t-68 27q-54 0 -79.5 -42t-25.5 -107q0 -44 10.5 -81.5t39 -66t72.5 -28.5q25 0 45 10t30 20.5t26 31.5l31 -11q-19 -47 -63.5 -71.5t-97.5 -24.5q-89 0 -144 57.5t-55 145.5q0 89 58.5 148t146.5 59q32 0 75 -9t68 -23zM444 -15
q-161 0 -268.5 107t-107.5 262t107.5 262t268.5 107t269 -107.5t108 -261.5t-108 -261.5t-269 -107.5zM444 45q128 0 207.5 88.5t79.5 220.5t-79.5 220.5t-207.5 88.5t-207 -88.5t-79 -220.5t79 -220.5t207 -88.5z" />
    <glyph glyph-name="ordfeminine" unicode="&#xaa;" horiz-adv-x="311" 
d="M292 601q18 49 18 50q0 8 -6 14t-16 6q-45 0 -84 -71.5t-39 -105.5q0 -15 12 -15q24 0 64 46.5t51 75.5zM355 709h60q7 0 7 -8q0 -1 -44.5 -106.5t-44.5 -113.5q0 -7 6 -7q3 0 29.5 26t30.5 26t8.5 -5.5t4.5 -9.5t-20.5 -26t-54.5 -45t-61 -23q-35 0 -35 21q0 4 31 81
l-3 3q-1 0 -10 -11t-23.5 -26t-32 -30.5t-41.5 -26.5t-47 -11q-45 0 -45 35q0 39 28.5 96t80.5 104t106 47q33 0 49 -22q9 23 12 27.5t9 4.5z" />
    <glyph glyph-name="guillemotleft" unicode="&#xab;" horiz-adv-x="537" 
d="M360 231q4 -8 28.5 -47.5t45.5 -75.5t21 -43q0 -5 -7 -10.5t-11 -5.5q-3 0 -13 9.5t-45 42t-81 72.5q-6 5 -14 11.5t-12.5 10.5t-10.5 9t-10 8.5l-8 7t-6 6l-4 5t-3 4.5t-1 4q0 4 18.5 14t88.5 52t161 103q24 16 28 16t10 -7t6 -12q0 -8 -80.5 -84t-100.5 -90zM156 231
q4 -8 28.5 -47.5t45.5 -75.5t21 -43q0 -5 -7 -10.5t-11 -5.5q-3 0 -13 9.5t-45 42t-81 72.5q-6 5 -14 11.5t-12.5 10.5t-10.5 9t-10 8.5l-8 7t-6 6l-4 5t-3 4.5t-1 4q0 4 18.5 14t88.5 52t161 103q24 16 28 16t10 -7t6 -12q0 -8 -80.5 -84t-100.5 -90z" />
    <glyph glyph-name="logicalnot" unicode="&#xac;" 
d="M420 90v182h-350v96h446v-278h-96z" />
    <glyph glyph-name="uni00AD" unicode="&#xad;" horiz-adv-x="426" 
d="M80 280h284q18 0 18 -10q0 -6 -8 -32t-10 -38q-1 -9 -18 -9h-284q-18 0 -18 10q0 6 8 32t10 38q1 9 18 9z" />
    <glyph glyph-name="registered" unicode="&#xae;" horiz-adv-x="860" 
d="M276 530v29h159q34 0 56 -2.5t48.5 -11.5t40 -30.5t13.5 -55.5q0 -38 -28.5 -66t-66.5 -34v-2q23 -2 44 -28t33 -56t28.5 -55t33.5 -25v-25h-61q-35 0 -47.5 14t-36.5 69q-8 17 -16 36.5t-12 26t-8.5 15t-11.5 10t-15.5 2.5t-25.5 1v-119q0 -30 19 -30h21v-25h-169v25h7
q28 0 32 7q4 6 4 19v294q0 5 -1.5 8.5t-3.5 5.5t-7 2.5t-8 1t-10 0t-11 -0.5zM403 517v-145q45 -7 74.5 14.5t29.5 66.5q0 44 -27.5 63t-71.5 12q-5 -2 -5 -11zM444 -15q-161 0 -268.5 107t-107.5 262t107.5 262t268.5 107t269 -107.5t108 -261.5t-108 -261.5t-269 -107.5z
M444 45q128 0 207.5 88.5t79.5 220.5t-79.5 220.5t-207.5 88.5t-207 -88.5t-79 -220.5t79 -220.5t207 -88.5z" />
    <glyph glyph-name="macron" unicode="&#xaf;" horiz-adv-x="278" 
d="M360 596h-288l16 70h288z" />
    <glyph glyph-name="degree" unicode="&#xb0;" horiz-adv-x="400" 
d="M400 549q0 -62 -44 -106t-106 -44t-106 44t-44 106q-1 61 43.5 105.5t106.5 44.5t106 -44.5t44 -105.5zM165 549q0 -37 23.5 -61t61.5 -24q37 0 61 24t24 61t-24.5 61t-61.5 24t-61 -24t-23 -61z" />
    <glyph glyph-name="plusminus" unicode="&#xb1;" 
d="M245 352v102h96v-102h175v-96h-175v-102h-96v102h-175v96h175zM516 0h-446v96h446v-96z" />
    <glyph glyph-name="twosuperior" unicode="&#xb2;" horiz-adv-x="333" 
d="M158 353h111q18 0 39.5 22t23.5 22q19 0 19 -13q0 -9 -25.5 -56t-33.5 -47h-246q-9 0 -9 11t36 47t78.5 76t78.5 88t36 79q0 23 -18.5 39t-47.5 16q-26 0 -47 -10.5t-32.5 -21t-12.5 -10.5q-7 0 -13 6t-6 14q0 7 16 26t53.5 38.5t81.5 19.5q123 0 123 -103
q0 -32 -33.5 -75t-73 -75t-73 -58t-33.5 -29q0 -6 8 -6z" />
    <glyph glyph-name="threesuperior" unicode="&#xb3;" horiz-adv-x="333" 
d="M266 520q35 -10 56.5 -32.5t21.5 -49.5q0 -44 -27.5 -78.5t-71.5 -54t-92.5 -29t-97.5 -9.5q-5 0 -5 19q0 13 14 13q92 19 137 45.5t45 70.5q0 29 -21.5 45t-53.5 16q-17 0 -36 -4l-19 -4q-6 0 -6 20q0 8 24 15q40 11 69.5 23.5t44.5 23t24 21.5t11 17t2 11
q0 19 -16 30.5t-40 11.5q-15 0 -33 -9.5t-31 -18.5t-15 -9q-4 0 -9.5 5.5t-5.5 11.5q0 5 18.5 23.5t52.5 36.5t66 18q42 0 71.5 -16.5t29.5 -53.5q0 -19 -10 -36t-29.5 -31.5t-32.5 -22.5t-35 -19z" />
    <glyph glyph-name="acute" unicode="&#xb4;" horiz-adv-x="278" 
d="M199 559h-49q12 10 53.5 58t80 85.5t57.5 37.5q21 0 34.5 -14t13.5 -35q0 -18 -32 -41t-158 -91z" />
    <glyph glyph-name="mu" unicode="&#xb5;" 
d="M432 454h104q7 0 7 -4t-64 -187.5t-64 -194.5q0 -13 10 -13q19 0 44 25.5t42.5 51t19.5 25.5q6 0 12 -3.5t6 -7.5t-8.5 -19.5t-27 -38t-43 -43.5t-60.5 -36t-75 -15q-17 0 -24.5 0.5t-14 4.5t-6.5 13q0 8 51 161q12 36 12 38q0 7 -3 7t-26.5 -36t-53 -79t-70 -79
t-73.5 -36q-29 0 -43 16q-5 -14 -5 -62q0 -26 5 -61t5 -55q0 -43 -22 -43q-19 0 -56.5 26t-37.5 51q0 49 92 295t92 253q0 12 -10 12q-24 0 -63 -42.5t-50 -86.5q-2 -8 -12 -8q-15 0 -15 12q0 9 4 25.5t18 41.5t35 46t61.5 36.5t91.5 15.5h44q33 0 33 -16
q0 -14 -69.5 -182.5t-69.5 -183.5q0 -23 19 -23q8 0 19.5 7.5t25 22.5t25 29t26 35.5t22 33t19.5 30.5l12 19q18 27 41.5 80t39 92.5t16.5 44.5t12 5z" />
    <glyph glyph-name="paragraph" unicode="&#xb6;" 
d="M126 -90l87 336q-38 1 -65 8t-52 25t-37.5 54t-12.5 89q0 24 8 58t27.5 75.5t47 76t73.5 58t100 23.5q56 0 110 -2t58 -2q65 0 115 1t75 2t30 1h8t7 -1t5.5 -3.5t0.5 -6.5q-4 -16 -11 -21q-25 -4 -46 -4q-47 -1 -66 -76q-11 -47 -59 -227.5t-86 -331.5t-38 -169
q0 -38 30 -39q34 -1 42.5 -2.5t8.5 -8.5q0 -25 -24 -25q-17 0 -88.5 1.5t-142.5 1.5t-135.5 -1.5t-69.5 -1.5q-24 0 -24 8q0 5 5 14t7 10q25 4 46 4q47 1 66 76zM507 673h-83l-216 -835h83zM224 286l100 388q-39 0 -64 -30q-21 -25 -53.5 -146.5t-32.5 -155.5q0 -18 2 -28
t13.5 -19t34.5 -9z" />
    <glyph glyph-name="periodcentered" unicode="&#xb7;" horiz-adv-x="278" 
d="M72 229q0 31 21.5 52.5t52.5 21.5t52.5 -21.5t21.5 -52.5t-21.5 -52.5t-52.5 -21.5t-52.5 21.5t-21.5 52.5z" />
    <glyph glyph-name="cedilla" unicode="&#xb8;" horiz-adv-x="278" 
d="M-50 -191l22 33q51 -17 63 -17q59 0 59 41q0 18 -13.5 27.5t-32.5 9.5q-15 0 -32 -5l-12 14l66 88h46l-45 -59q38 9 76 -9.5t38 -58.5q0 -45 -38.5 -66.5t-86.5 -21.5q-54 0 -110 24z" />
    <glyph glyph-name="onesuperior" unicode="&#xb9;" horiz-adv-x="333" 
d="M247 366q-7 -26 -7 -36q0 -5 1 -8t4.5 -5t10.5 -2q31 0 39.5 -4t8.5 -14q0 -11 -3.5 -14.5t-14.5 -3.5q-5 0 -49 1t-57 1q-12 0 -55 -1t-47 -1q-11 0 -11 13q0 10 14.5 16.5t36.5 6.5q20 0 24 18q67 261 67 276q0 5 -2 7t-13.5 3.5t-37.5 2.5q-11 0 -13.5 4t-2.5 13
q0 13 6 14q72 10 151 43q7 3 23 3q13 0 13 -5q0 -3 -12 -47t-34 -127t-40 -154z" />
    <glyph glyph-name="ordmasculine" unicode="&#xba;" horiz-adv-x="278" 
d="M378 593q0 -68 -46.5 -122t-124.5 -54q-15 0 -31 4t-35 14.5t-31.5 34t-12.5 56.5q0 63 46.5 118t117.5 55q51 0 84 -30.5t33 -75.5zM298 628q0 43 -27 43q-33 0 -63.5 -68.5t-30.5 -118.5q0 -39 27 -39q35 0 64.5 72t29.5 111z" />
    <glyph glyph-name="guillemotright" unicode="&#xbb;" horiz-adv-x="537" 
d="M181 242q-4 8 -28.5 47.5t-45.5 75.5t-21 43q0 5 7 10.5t11 5.5q3 0 13 -9.5t45 -42t81 -72.5q6 -5 14 -11.5t12.5 -10.5t10.5 -9t10 -8.5l8 -7t6 -6l4 -5t3 -4.5t1 -4q0 -4 -18.5 -14t-88.5 -52t-161 -103q-24 -16 -28 -16t-10 7t-6 12q0 8 80.5 84t100.5 90zM385 242
q-4 8 -28.5 47.5t-45.5 75.5t-21 43q0 5 7 10.5t11 5.5q3 0 13 -9.5t45 -42t81 -72.5q6 -5 14 -11.5t12.5 -10.5t10.5 -9t10 -8.5l8 -7t6 -6l4 -5t3 -4.5t1 -4q0 -4 -18.5 -14t-88.5 -52t-161 -103q-24 -16 -28 -16t-10 7t-6 12q0 8 80.5 84t100.5 90z" />
    <glyph glyph-name="onequarter" unicode="&#xbc;" horiz-adv-x="834" 
d="M656 185l46 147l-2 2q-29 -21 -87.5 -79t-58.5 -64t11 -6h91zM625 118h-151q-7 0 -11.5 6t-4.5 13q0 28 155 167q125 115 148 115h37q9 0 9 -9q0 -5 -31 -110t-31 -110t14 -5h60q7 0 7 -6t-6.5 -33.5t-11.5 -27.5h-74q-11 0 -15 -22q-19 -96 -34 -96h-76q-4 0 -4 5
q0 3 15.5 53t15.5 56q0 4 -11 4zM661 699l-403 -710h-59l403 710h59zM247 366q-7 -26 -7 -36q0 -5 1 -8t4.5 -5t10.5 -2q31 0 39.5 -4t8.5 -14q0 -11 -3.5 -14.5t-14.5 -3.5q-5 0 -49 1t-57 1q-12 0 -55 -1t-47 -1q-11 0 -11 13q0 10 14.5 16.5t36.5 6.5q20 0 24 18
q67 261 67 276q0 5 -2 7t-13.5 3.5t-37.5 2.5q-11 0 -13.5 4t-2.5 13q0 13 6 14q72 10 151 43q7 3 23 3q13 0 13 -5q0 -3 -12 -47t-34 -127t-40 -154z" />
    <glyph glyph-name="onehalf" unicode="&#xbd;" horiz-adv-x="834" 
d="M661 699l-403 -710h-59l403 710h59zM598 72h111q18 0 39.5 22t23.5 22q19 0 19 -13q0 -9 -25.5 -56t-33.5 -47h-246q-9 0 -9 11t36 47t78.5 76t78.5 88t36 79q0 23 -18.5 39t-47.5 16q-26 0 -47 -10.5t-32.5 -21t-12.5 -10.5q-7 0 -13 6t-6 14q0 7 16 26t53.5 38.5
t81.5 19.5q123 0 123 -103q0 -32 -33.5 -75t-73 -75t-73 -58t-33.5 -29q0 -6 8 -6zM247 366q-7 -26 -7 -36q0 -5 1 -8t4.5 -5t10.5 -2q31 0 39.5 -4t8.5 -14q0 -11 -3.5 -14.5t-14.5 -3.5q-5 0 -49 1t-57 1q-12 0 -55 -1t-47 -1q-11 0 -11 13q0 10 14.5 16.5t36.5 6.5
q20 0 24 18q67 261 67 276q0 5 -2 7t-13.5 3.5t-37.5 2.5q-11 0 -13.5 4t-2.5 13q0 13 6 14q72 10 151 43q7 3 23 3q13 0 13 -5q0 -3 -12 -47t-34 -127t-40 -154z" />
    <glyph glyph-name="threequarters" unicode="&#xbe;" horiz-adv-x="834" 
d="M266 520q35 -10 56.5 -32.5t21.5 -49.5q0 -44 -27.5 -78.5t-71.5 -54t-92.5 -29t-97.5 -9.5q-5 0 -5 19q0 13 14 13q92 19 137 45.5t45 70.5q0 29 -21.5 45t-53.5 16q-17 0 -36 -4l-19 -4q-6 0 -6 20q0 8 24 15q40 11 69.5 23.5t44.5 23t24 21.5t11 17t2 11
q0 19 -16 30.5t-40 11.5q-15 0 -33 -9.5t-31 -18.5t-15 -9q-4 0 -9.5 5.5t-5.5 11.5q0 5 18.5 23.5t52.5 36.5t66 18q42 0 71.5 -16.5t29.5 -53.5q0 -19 -10 -36t-29.5 -31.5t-32.5 -22.5t-35 -19zM661 699l-403 -710h-59l403 710h59zM656 185l46 147l-2 2
q-29 -21 -87.5 -79t-58.5 -64t11 -6h91zM625 118h-151q-7 0 -11.5 6t-4.5 13q0 28 155 167q125 115 148 115h37q9 0 9 -9q0 -5 -31 -110t-31 -110t14 -5h60q7 0 7 -6t-6.5 -33.5t-11.5 -27.5h-74q-11 0 -15 -22q-19 -96 -34 -96h-76q-4 0 -4 5q0 3 15.5 53t15.5 56
q0 4 -11 4z" />
    <glyph glyph-name="questiondown" unicode="&#xbf;" horiz-adv-x="444" 
d="M177 219q-20 0 -45.5 -12.5t-26.5 -12.5q-6 0 -10.5 6t-4.5 13q0 5 15.5 16t43 20.5t53.5 9.5q53 0 87.5 -34t34.5 -86q0 -38 -28 -72t-68 -59t-80.5 -48t-68.5 -50t-28 -56q0 -23 13.5 -40t35.5 -17q27 0 59 29.5t58 29.5q23 0 39.5 -15t16.5 -38q0 -33 -26 -49t-60 -16
q-52 0 -90.5 15t-57 34.5t-29.5 44.5t-13 38t-2 22q0 40 17.5 74t43 55.5t56 42t56 36.5t43 36.5t17.5 42.5q0 14 -16 27t-35 13zM365 386q0 -31 -21.5 -52.5t-52.5 -21.5t-52.5 21.5t-21.5 52.5t21.5 52.5t52.5 21.5t52.5 -21.5t21.5 -52.5z" />
    <glyph glyph-name="Agrave" unicode="&#xc0;" horiz-adv-x="722" 
d="M277 303h167q29 0 30 12l32 262h-3q-28 -24 -129.5 -141t-101.5 -128q0 -5 5 -5zM446 263h-198q-12 0 -19 -9l-107 -136q-1 -2 -4 -5.5t-4 -4.5t-3 -4t-3 -5t-2 -5t-1.5 -6t-1 -7t-0.5 -9q0 -34 69 -34q26 0 26 -10q0 -30 -14 -30q-3 0 -17.5 1t-46 1.5t-76.5 0.5
q-25 0 -58.5 -1.5t-39.5 -1.5q-9 0 -9 11q0 24 12 25q24 2 36 7.5t29 21.5q16 15 174.5 211t267.5 313q134 143 173 143q21 0 21 -23q0 -26 -33 -310t-33 -321q0 -24 13 -31t43 -7q27 0 27 -12q0 -28 -12 -28q-9 0 -53 1.5t-88 1.5q-50 0 -86.5 -0.5t-54.5 -1.5t-23 -1
q-6 0 -6 8q0 21 8 26.5t32 5.5q51 0 56 29q25 131 25 189q0 7 -19 7zM613 812h-49q-78 52 -113 78t-42.5 35.5t-7.5 21.5q0 20 15 33t31 13q14 0 25.5 -8t43 -46t97.5 -127z" />
    <glyph glyph-name="Aacute" unicode="&#xc1;" horiz-adv-x="722" 
d="M277 303h167q29 0 30 12l32 262h-3q-28 -24 -129.5 -141t-101.5 -128q0 -5 5 -5zM446 263h-198q-12 0 -19 -9l-107 -136q-1 -2 -4 -5.5t-4 -4.5t-3 -4t-3 -5t-2 -5t-1.5 -6t-1 -7t-0.5 -9q0 -34 69 -34q26 0 26 -10q0 -30 -14 -30q-3 0 -17.5 1t-46 1.5t-76.5 0.5
q-25 0 -58.5 -1.5t-39.5 -1.5q-9 0 -9 11q0 24 12 25q24 2 36 7.5t29 21.5q16 15 174.5 211t267.5 313q134 143 173 143q21 0 21 -23q0 -26 -33 -310t-33 -321q0 -24 13 -31t43 -7q27 0 27 -12q0 -28 -12 -28q-9 0 -53 1.5t-88 1.5q-50 0 -86.5 -0.5t-54.5 -1.5t-23 -1
q-6 0 -6 8q0 21 8 26.5t32 5.5q51 0 56 29q25 131 25 189q0 7 -19 7zM641 812h-49q12 10 53.5 58t80 85.5t57.5 37.5q21 0 34.5 -14t13.5 -35q0 -18 -32 -41t-158 -91z" />
    <glyph glyph-name="Acircumflex" unicode="&#xc2;" horiz-adv-x="722" 
d="M277 303h167q29 0 30 12l32 262h-3q-28 -24 -129.5 -141t-101.5 -128q0 -5 5 -5zM446 263h-198q-12 0 -19 -9l-107 -136q-1 -2 -4 -5.5t-4 -4.5t-3 -4t-3 -5t-2 -5t-1.5 -6t-1 -7t-0.5 -9q0 -34 69 -34q26 0 26 -10q0 -30 -14 -30q-3 0 -17.5 1t-46 1.5t-76.5 0.5
q-25 0 -58.5 -1.5t-39.5 -1.5q-9 0 -9 11q0 24 12 25q24 2 36 7.5t29 21.5q16 15 174.5 211t267.5 313q134 143 173 143q21 0 21 -23q0 -26 -33 -310t-33 -321q0 -24 13 -31t43 -7q27 0 27 -12q0 -28 -12 -28q-9 0 -53 1.5t-88 1.5q-50 0 -86.5 -0.5t-54.5 -1.5t-23 -1
q-6 0 -6 8q0 21 8 26.5t32 5.5q51 0 56 29q25 131 25 189q0 7 -19 7zM674 986l87 -174h-51l-88 95l-137 -95h-51l159 174h81z" />
    <glyph glyph-name="Atilde" unicode="&#xc3;" horiz-adv-x="722" 
d="M277 303h167q29 0 30 12l32 262h-3q-28 -24 -129.5 -141t-101.5 -128q0 -5 5 -5zM446 263h-198q-12 0 -19 -9l-107 -136q-1 -2 -4 -5.5t-4 -4.5t-3 -4t-3 -5t-2 -5t-1.5 -6t-1 -7t-0.5 -9q0 -34 69 -34q26 0 26 -10q0 -30 -14 -30q-3 0 -17.5 1t-46 1.5t-76.5 0.5
q-25 0 -58.5 -1.5t-39.5 -1.5q-9 0 -9 11q0 24 12 25q24 2 36 7.5t29 21.5q16 15 174.5 211t267.5 313q134 143 173 143q21 0 21 -23q0 -26 -33 -310t-33 -321q0 -24 13 -31t43 -7q27 0 27 -12q0 -28 -12 -28q-9 0 -53 1.5t-88 1.5q-50 0 -86.5 -0.5t-54.5 -1.5t-23 -1
q-6 0 -6 8q0 21 8 26.5t32 5.5q51 0 56 29q25 131 25 189q0 7 -19 7zM767 942h40q-10 -51 -40 -81q-33 -36 -83 -36q-25 0 -75 21q-46 21 -75 21q-14 0 -29 -13t-19 -29h-40q11 49 42 81q34 36 81 36q26 0 79 -21q59 -21 70 -21q31 0 49 42z" />
    <glyph glyph-name="Adieresis" unicode="&#xc4;" horiz-adv-x="722" 
d="M277 303h167q29 0 30 12l32 262h-3q-28 -24 -129.5 -141t-101.5 -128q0 -5 5 -5zM446 263h-198q-12 0 -19 -9l-107 -136q-1 -2 -4 -5.5t-4 -4.5t-3 -4t-3 -5t-2 -5t-1.5 -6t-1 -7t-0.5 -9q0 -34 69 -34q26 0 26 -10q0 -30 -14 -30q-3 0 -17.5 1t-46 1.5t-76.5 0.5
q-25 0 -58.5 -1.5t-39.5 -1.5q-9 0 -9 11q0 24 12 25q24 2 36 7.5t29 21.5q16 15 174.5 211t267.5 313q134 143 173 143q21 0 21 -23q0 -26 -33 -310t-33 -321q0 -24 13 -31t43 -7q27 0 27 -12q0 -28 -12 -28q-9 0 -53 1.5t-88 1.5q-50 0 -86.5 -0.5t-54.5 -1.5t-23 -1
q-6 0 -6 8q0 21 8 26.5t32 5.5q51 0 56 29q25 131 25 189q0 7 -19 7zM660 887q0 26 19.5 45.5t45.5 19.5t45 -19.5t19 -45.5t-19 -45t-45 -19t-45.5 19t-19.5 45zM447 887q0 26 19.5 45.5t45.5 19.5t45 -19.5t19 -45.5t-19 -45t-45 -19t-45.5 19t-19.5 45z" />
    <glyph glyph-name="Aring" unicode="&#xc5;" horiz-adv-x="722" 
d="M277 303h167q29 0 30 12l32 262h-3q-28 -24 -129.5 -141t-101.5 -128q0 -5 5 -5zM446 263h-198q-12 0 -19 -9l-107 -136q-1 -2 -4 -5.5t-4 -4.5t-3 -4t-3 -5t-2 -5t-1.5 -6t-1 -7t-0.5 -9q0 -34 69 -34q26 0 26 -10q0 -30 -14 -30q-3 0 -17.5 1t-46 1.5t-76.5 0.5
q-25 0 -58.5 -1.5t-39.5 -1.5q-9 0 -9 11q0 24 12 25q24 2 36 7.5t29 21.5q16 15 174.5 211t267.5 313q134 143 173 143q21 0 21 -23q0 -26 -33 -310t-33 -321q0 -24 13 -31t43 -7q27 0 27 -12q0 -28 -12 -28q-9 0 -53 1.5t-88 1.5q-50 0 -86.5 -0.5t-54.5 -1.5t-23 -1
q-6 0 -6 8q0 21 8 26.5t32 5.5q51 0 56 29q25 131 25 189q0 7 -19 7zM616 771q-45 0 -76.5 35t-31.5 81q0 45 34 75.5t80 30.5q43 0 75 -34t32 -78q0 -46 -33.5 -78t-79.5 -32zM622 817q23 0 42 18.5t19 41.5q0 30 -19 50t-49 20q-24 0 -42.5 -20t-18.5 -44q0 -28 20 -47
t48 -19z" />
    <glyph glyph-name="AE" unicode="&#xc6;" horiz-adv-x="963" 
d="M274 307h177q7 0 19 43.5t79 311.5l-2 2q-67 -78 -174.5 -212.5t-107.5 -139.5t9 -5zM426 267h-190q-8 0 -24 -19q-86 -100 -103 -130q-16 -27 -16 -49q0 -5 1 -9.5t4 -7.5t6 -5t7.5 -3.5t8 -2.5t9.5 -1.5t9 -1t9 -0.5h8q19 -1 24.5 -3.5t5.5 -9.5q0 -18 -4.5 -22.5
t-20.5 -4.5q-22 0 -65.5 1.5t-65.5 1.5q-16 0 -46.5 -1.5t-45.5 -1.5q-11 0 -11 10q0 30 36 30q13 0 23.5 9t33.5 35q76 87 269 326q136 169 160.5 201.5t24.5 43.5t-10.5 14t-57.5 6q-13 1 -16.5 3t-3.5 8q0 29 22 29q23 0 98 -2t163 -2q94 0 159.5 1t95 2t35.5 1
q14 0 14 -21q0 -19 6 -73.5t6 -81.5q0 -9 -17 -9q-13 0 -18 6q-5 7 -23.5 45t-37.5 63.5t-35 25.5h-136q-21 0 -30.5 -15.5t-16.5 -41.5q-1 -3 -1 -5q-51 -193 -51 -204q0 -8 12 -8h108q35 0 52.5 15.5t37.5 66.5q9 23 23 23q21 0 21 -12q0 -8 -31.5 -99.5t-37.5 -128.5
q-2 -11 -4 -17.5t-7.5 -11t-14.5 -4.5q-19 0 -19 15q0 13 2 40t2 41q0 32 -51 32h-93q-13 0 -15 -13q-65 -241 -65 -278q0 -9 3 -14t6.5 -5.5t11.5 -0.5h206q23 0 35 6t23 22q25 35 54 78q21 31 26 36t15 5q20 0 20 -7q0 -10 -18.5 -86.5t-23.5 -90.5q-3 -8 -9 -8
q-1 0 -9.5 0.5t-29.5 0.5t-55 0.5t-98 1t-145 0.5q-42 0 -123 -1.5t-119 -1.5q-9 0 -9 4q0 5 1.5 12.5t6 15.5t12.5 8q45 0 61.5 11t23.5 39q41 164 41 166q0 13 -19 13z" />
    <glyph glyph-name="Ccedilla" unicode="&#xc7;" horiz-adv-x="685" 
d="M593 21q-1 -9 -13 -12q-25 -7 -102.5 -14t-109.5 -7q-30 0 -54 4l-39 -51q38 9 76 -9.5t38 -58.5q0 -45 -38.5 -66.5t-86.5 -21.5q-54 0 -110 24l22 33q51 -17 63 -17q59 0 59 41q0 18 -13.5 27.5t-32.5 9.5q-15 0 -32 -5l-12 14l66 88q-89 24 -144.5 92t-55.5 173
q0 88 31 171t85 146.5t133.5 102t169.5 38.5q47 0 89 -13.5t70 -26.5t41 -13q2 0 17.5 7t17.5 7q8 0 8 -10q0 -6 -3.5 -18.5t-13.5 -54.5t-22 -101q-2 -12 -18 -12q-18 0 -22 26q-5 31 -9.5 49.5t-15.5 44t-26 40t-42 25t-63 10.5q-59 0 -108.5 -41t-80 -99.5t-52 -126.5
t-30 -118.5t-8.5 -78.5q0 -93 39.5 -142t131.5 -49q114 0 183 128q13 24 19 30.5t17 6.5q19 0 19 -9q0 -11 -18 -79.5t-20 -83.5z" />
    <glyph glyph-name="Egrave" unicode="&#xc8;" horiz-adv-x="667" 
d="M313 394h120q35 0 52.5 15.5t37.5 66.5q9 23 23 23q21 0 21 -12q0 -8 -31.5 -99.5t-37.5 -128.5q-2 -11 -4 -17.5t-7.5 -11t-14.5 -4.5q-19 0 -19 15q0 13 2 40t2 41q0 32 -63 32h-93q-13 0 -15 -13q-65 -241 -65 -278q0 -9 3 -14t6.5 -5.5t11.5 -0.5h224q23 0 35 6
t23 22q25 35 54 78q21 31 26 36t15 5q20 0 20 -7q0 -10 -18.5 -86.5t-23.5 -90.5q-3 -8 -9 -8q-1 0 -11.5 0.5t-34 0.5t-60 0.5t-102.5 1t-147 0.5q-42 0 -123 -1.5t-119 -1.5q-9 0 -9 4q0 5 1.5 12.5t6 15.5t12.5 8q44 0 58 8t22 41q136 515 136 556q0 16 -18.5 22.5
t-71.5 7.5q-8 0 -8 10q0 30 20 30q7 0 97 -2t114 -2q128 0 217 2t90 2q14 0 14 -21q0 -19 6 -73.5t6 -81.5q0 -9 -17 -9q-13 0 -18 6q-4 6 -23.5 45t-39.5 64t-40 25h-146q-21 0 -30.5 -15.5t-16.5 -41.5q-1 -3 -1 -5q-51 -193 -51 -204q0 -8 12 -8zM486 812h-49
q-78 52 -113 78t-42.5 35.5t-7.5 21.5q0 20 15 33t31 13q14 0 25.5 -8t43 -46t97.5 -127z" />
    <glyph glyph-name="Eacute" unicode="&#xc9;" horiz-adv-x="667" 
d="M313 394h120q35 0 52.5 15.5t37.5 66.5q9 23 23 23q21 0 21 -12q0 -8 -31.5 -99.5t-37.5 -128.5q-2 -11 -4 -17.5t-7.5 -11t-14.5 -4.5q-19 0 -19 15q0 13 2 40t2 41q0 32 -63 32h-93q-13 0 -15 -13q-65 -241 -65 -278q0 -9 3 -14t6.5 -5.5t11.5 -0.5h224q23 0 35 6
t23 22q25 35 54 78q21 31 26 36t15 5q20 0 20 -7q0 -10 -18.5 -86.5t-23.5 -90.5q-3 -8 -9 -8q-1 0 -11.5 0.5t-34 0.5t-60 0.5t-102.5 1t-147 0.5q-42 0 -123 -1.5t-119 -1.5q-9 0 -9 4q0 5 1.5 12.5t6 15.5t12.5 8q44 0 58 8t22 41q136 515 136 556q0 16 -18.5 22.5
t-71.5 7.5q-8 0 -8 10q0 30 20 30q7 0 97 -2t114 -2q128 0 217 2t90 2q14 0 14 -21q0 -19 6 -73.5t6 -81.5q0 -9 -17 -9q-13 0 -18 6q-4 6 -23.5 45t-39.5 64t-40 25h-146q-21 0 -30.5 -15.5t-16.5 -41.5q-1 -3 -1 -5q-51 -193 -51 -204q0 -8 12 -8zM444 812h-49
q12 10 53.5 58t80 85.5t57.5 37.5q21 0 34.5 -14t13.5 -35q0 -18 -32 -41t-158 -91z" />
    <glyph glyph-name="Ecircumflex" unicode="&#xca;" horiz-adv-x="667" 
d="M313 394h120q35 0 52.5 15.5t37.5 66.5q9 23 23 23q21 0 21 -12q0 -8 -31.5 -99.5t-37.5 -128.5q-2 -11 -4 -17.5t-7.5 -11t-14.5 -4.5q-19 0 -19 15q0 13 2 40t2 41q0 32 -63 32h-93q-13 0 -15 -13q-65 -241 -65 -278q0 -9 3 -14t6.5 -5.5t11.5 -0.5h224q23 0 35 6
t23 22q25 35 54 78q21 31 26 36t15 5q20 0 20 -7q0 -10 -18.5 -86.5t-23.5 -90.5q-3 -8 -9 -8q-1 0 -11.5 0.5t-34 0.5t-60 0.5t-102.5 1t-147 0.5q-42 0 -123 -1.5t-119 -1.5q-9 0 -9 4q0 5 1.5 12.5t6 15.5t12.5 8q44 0 58 8t22 41q136 515 136 556q0 16 -18.5 22.5
t-71.5 7.5q-8 0 -8 10q0 30 20 30q7 0 97 -2t114 -2q128 0 217 2t90 2q14 0 14 -21q0 -19 6 -73.5t6 -81.5q0 -9 -17 -9q-13 0 -18 6q-4 6 -23.5 45t-39.5 64t-40 25h-146q-21 0 -30.5 -15.5t-16.5 -41.5q-1 -3 -1 -5q-51 -193 -51 -204q0 -8 12 -8zM507 986l87 -174h-51
l-88 95l-137 -95h-51l159 174h81z" />
    <glyph glyph-name="Edieresis" unicode="&#xcb;" horiz-adv-x="667" 
d="M313 394h120q35 0 52.5 15.5t37.5 66.5q9 23 23 23q21 0 21 -12q0 -8 -31.5 -99.5t-37.5 -128.5q-2 -11 -4 -17.5t-7.5 -11t-14.5 -4.5q-19 0 -19 15q0 13 2 40t2 41q0 32 -63 32h-93q-13 0 -15 -13q-65 -241 -65 -278q0 -9 3 -14t6.5 -5.5t11.5 -0.5h224q23 0 35 6
t23 22q25 35 54 78q21 31 26 36t15 5q20 0 20 -7q0 -10 -18.5 -86.5t-23.5 -90.5q-3 -8 -9 -8q-1 0 -11.5 0.5t-34 0.5t-60 0.5t-102.5 1t-147 0.5q-42 0 -123 -1.5t-119 -1.5q-9 0 -9 4q0 5 1.5 12.5t6 15.5t12.5 8q44 0 58 8t22 41q136 515 136 556q0 16 -18.5 22.5
t-71.5 7.5q-8 0 -8 10q0 30 20 30q7 0 97 -2t114 -2q128 0 217 2t90 2q14 0 14 -21q0 -19 6 -73.5t6 -81.5q0 -9 -17 -9q-13 0 -18 6q-4 6 -23.5 45t-39.5 64t-40 25h-146q-21 0 -30.5 -15.5t-16.5 -41.5q-1 -3 -1 -5q-51 -193 -51 -204q0 -8 12 -8zM503 887q0 26 19.5 45.5
t45.5 19.5t45 -19.5t19 -45.5t-19 -45t-45 -19t-45.5 19t-19.5 45zM290 887q0 26 19.5 45.5t45.5 19.5t45 -19.5t19 -45.5t-19 -45t-45 -19t-45.5 19t-19.5 45z" />
    <glyph glyph-name="Igrave" unicode="&#xcc;" horiz-adv-x="389" 
d="M224 642q0 17 -17 24t-59 7q-14 0 -14 11q0 8 4 18.5t11 10.5q16 0 62 -2t88 -2q32 0 88.5 2t63.5 2q8 0 8 -7q0 -33 -22 -33q-36 -1 -49.5 -9t-20.5 -34q-134 -550 -134 -568q0 -15 10.5 -19.5t58.5 -4.5q28 0 28 -9q0 -8 -4.5 -19.5t-9.5 -11.5q-36 0 -97.5 1.5
t-65.5 1.5q-25 0 -85 -1.5t-65 -1.5q-19 0 -19 4q0 36 26 36q49 0 60 9t24 59q125 492 129 520q1 9 1 16zM347 812h-49q-78 52 -113 78t-42.5 35.5t-7.5 21.5q0 20 15 33t31 13q14 0 25.5 -8t43 -46t97.5 -127z" />
    <glyph glyph-name="Iacute" unicode="&#xcd;" horiz-adv-x="389" 
d="M224 642q0 17 -17 24t-59 7q-14 0 -14 11q0 8 4 18.5t11 10.5q16 0 62 -2t88 -2q32 0 88.5 2t63.5 2q8 0 8 -7q0 -33 -22 -33q-36 -1 -49.5 -9t-20.5 -34q-134 -550 -134 -568q0 -15 10.5 -19.5t58.5 -4.5q28 0 28 -9q0 -8 -4.5 -19.5t-9.5 -11.5q-36 0 -97.5 1.5
t-65.5 1.5q-25 0 -85 -1.5t-65 -1.5q-19 0 -19 4q0 36 26 36q49 0 60 9t24 59q125 492 129 520q1 9 1 16zM315 812h-49q12 10 53.5 58t80 85.5t57.5 37.5q21 0 34.5 -14t13.5 -35q0 -18 -32 -41t-158 -91z" />
    <glyph glyph-name="Icircumflex" unicode="&#xce;" horiz-adv-x="389" 
d="M224 642q0 17 -17 24t-59 7q-14 0 -14 11q0 8 4 18.5t11 10.5q16 0 62 -2t88 -2q32 0 88.5 2t63.5 2q8 0 8 -7q0 -33 -22 -33q-36 -1 -49.5 -9t-20.5 -34q-134 -550 -134 -568q0 -15 10.5 -19.5t58.5 -4.5q28 0 28 -9q0 -8 -4.5 -19.5t-9.5 -11.5q-36 0 -97.5 1.5
t-65.5 1.5q-25 0 -85 -1.5t-65 -1.5q-19 0 -19 4q0 36 26 36q49 0 60 9t24 59q125 492 129 520q1 9 1 16zM398 986l87 -174h-51l-88 95l-137 -95h-51l159 174h81z" />
    <glyph glyph-name="Idieresis" unicode="&#xcf;" horiz-adv-x="389" 
d="M224 642q0 17 -17 24t-59 7q-14 0 -14 11q0 8 4 18.5t11 10.5q16 0 62 -2t88 -2q32 0 88.5 2t63.5 2q8 0 8 -7q0 -33 -22 -33q-36 -1 -49.5 -9t-20.5 -34q-134 -550 -134 -568q0 -15 10.5 -19.5t58.5 -4.5q28 0 28 -9q0 -8 -4.5 -19.5t-9.5 -11.5q-36 0 -97.5 1.5
t-65.5 1.5q-25 0 -85 -1.5t-65 -1.5q-19 0 -19 4q0 36 26 36q49 0 60 9t24 59q125 492 129 520q1 9 1 16zM374 887q0 26 19.5 45.5t45.5 19.5t45 -19.5t19 -45.5t-19 -45t-45 -19t-45.5 19t-19.5 45zM161 887q0 26 19.5 45.5t45.5 19.5t45 -19.5t19 -45.5t-19 -45t-45 -19
t-45.5 19t-19.5 45z" />
    <glyph glyph-name="Eth" unicode="&#xd0;" horiz-adv-x="815" 
d="M152 344h-119l11 45h118q56 255 56 259q0 25 -44 25q-52 0 -52 11q0 29 13 29q19 0 58 -2t58 -2q51 0 108 2t72 2q106 0 186 -31t130 -103.5t50 -180.5q0 -53 -14.5 -106t-49.5 -107t-87.5 -95t-136 -66.5t-186.5 -25.5q-4 0 -63.5 1t-139.5 1h-48t-32 -0.5t-18 -1
t-10.5 -0.5h-5.5q-6 0 -6 4q0 26 9 31t55 5q10 0 16.5 9t9.5 18.5t7 31.5zM439 344h-146q-59 -262 -59 -273q0 -12 5.5 -19t16.5 -10t18.5 -3.5t21.5 -0.5q81 0 144.5 29t100.5 72t61 99t32.5 103t8.5 91q0 120 -61.5 182.5t-172.5 62.5q-27 0 -37 -12.5t-17 -43.5l-52 -232
h148z" />
    <glyph glyph-name="Ntilde" unicode="&#xd1;" horiz-adv-x="815" 
d="M585 19l-335 541q-5 0 -19 -55q-8 -30 -13 -50q-18 -79 -35 -148.5t-25 -101.5t-14 -58.5t-8 -38.5t-2 -24q0 -24 9 -33t48 -13q38 -4 38 -10q0 -31 -13 -30q-19 0 -56.5 1.5t-56.5 1.5t-55 -1.5t-55 -1.5q-6 0 -6 5q0 35 23 35q22 0 38.5 9t25.5 23.5t13.5 24t6.5 19.5
l114 449q7 30 7 38q0 18 -24.5 45t-52.5 27q-48 0 -48 10q0 6 3 18t7 12q34 0 71 -2t39 -2q5 0 36.5 2t60.5 2q10 0 14 -3t12 -16l290 -475q2 -4 5.5 -10.5t5.5 -10t4.5 -7t4.5 -5t4 -1.5q105 426 105 439q0 20 -12.5 34.5t-39.5 14.5q-13 0 -24.5 2t-17.5 4t-6 4
q0 11 3.5 20.5t7.5 9.5q40 0 81.5 -2t44.5 -2q16 0 49 2t62 2q12 0 12 -6q0 -17 -5 -24.5t-23 -9.5q-53 -5 -71 -32q-15 -22 -40 -124l-125 -505q-2 -9 -4 -14t-8 -9t-16 -4q-14 0 -35 34zM674 942h40q-10 -51 -40 -81q-33 -36 -83 -36q-25 0 -75 21q-46 21 -75 21
q-14 0 -29 -13t-19 -29h-40q11 49 42 81q34 36 81 36q26 0 79 -21q59 -21 70 -21q31 0 49 42z" />
    <glyph glyph-name="Ograve" unicode="&#xd2;" horiz-adv-x="778" 
d="M491 723q126 0 205 -81.5t79 -206.5q0 -46 -13 -101t-45 -117t-78.5 -112.5t-121.5 -83.5t-167 -33q-55 0 -101.5 17t-78.5 45.5t-54 66.5t-32 79t-10 84q0 116 58.5 219t155 163.5t203.5 60.5zM492 687q-60 0 -114.5 -58.5t-88.5 -141.5t-53.5 -165.5t-19.5 -137.5
q0 -50 15 -84.5t38 -49.5t41.5 -20.5t35.5 -5.5q56 0 105.5 42.5t81.5 105t55.5 134.5t34 129t10.5 90q0 162 -141 162zM541 812h-49q-78 52 -113 78t-42.5 35.5t-7.5 21.5q0 20 15 33t31 13q14 0 25.5 -8t43 -46t97.5 -127z" />
    <glyph glyph-name="Oacute" unicode="&#xd3;" horiz-adv-x="778" 
d="M491 723q126 0 205 -81.5t79 -206.5q0 -46 -13 -101t-45 -117t-78.5 -112.5t-121.5 -83.5t-167 -33q-55 0 -101.5 17t-78.5 45.5t-54 66.5t-32 79t-10 84q0 116 58.5 219t155 163.5t203.5 60.5zM492 687q-60 0 -114.5 -58.5t-88.5 -141.5t-53.5 -165.5t-19.5 -137.5
q0 -50 15 -84.5t38 -49.5t41.5 -20.5t35.5 -5.5q56 0 105.5 42.5t81.5 105t55.5 134.5t34 129t10.5 90q0 162 -141 162zM499 812h-49q12 10 53.5 58t80 85.5t57.5 37.5q21 0 34.5 -14t13.5 -35q0 -18 -32 -41t-158 -91z" />
    <glyph glyph-name="Ocircumflex" unicode="&#xd4;" horiz-adv-x="778" 
d="M491 723q126 0 205 -81.5t79 -206.5q0 -46 -13 -101t-45 -117t-78.5 -112.5t-121.5 -83.5t-167 -33q-55 0 -101.5 17t-78.5 45.5t-54 66.5t-32 79t-10 84q0 116 58.5 219t155 163.5t203.5 60.5zM492 687q-60 0 -114.5 -58.5t-88.5 -141.5t-53.5 -165.5t-19.5 -137.5
q0 -50 15 -84.5t38 -49.5t41.5 -20.5t35.5 -5.5q56 0 105.5 42.5t81.5 105t55.5 134.5t34 129t10.5 90q0 162 -141 162zM572 986l87 -174h-51l-88 95l-137 -95h-51l159 174h81z" />
    <glyph glyph-name="Otilde" unicode="&#xd5;" horiz-adv-x="778" 
d="M491 723q126 0 205 -81.5t79 -206.5q0 -46 -13 -101t-45 -117t-78.5 -112.5t-121.5 -83.5t-167 -33q-55 0 -101.5 17t-78.5 45.5t-54 66.5t-32 79t-10 84q0 116 58.5 219t155 163.5t203.5 60.5zM492 687q-60 0 -114.5 -58.5t-88.5 -141.5t-53.5 -165.5t-19.5 -137.5
q0 -50 15 -84.5t38 -49.5t41.5 -20.5t35.5 -5.5q56 0 105.5 42.5t81.5 105t55.5 134.5t34 129t10.5 90q0 162 -141 162zM635 942h40q-10 -51 -40 -81q-33 -36 -83 -36q-25 0 -75 21q-46 21 -75 21q-14 0 -29 -13t-19 -29h-40q11 49 42 81q34 36 81 36q26 0 79 -21
q59 -21 70 -21q31 0 49 42z" />
    <glyph glyph-name="Odieresis" unicode="&#xd6;" horiz-adv-x="778" 
d="M491 723q126 0 205 -81.5t79 -206.5q0 -46 -13 -101t-45 -117t-78.5 -112.5t-121.5 -83.5t-167 -33q-55 0 -101.5 17t-78.5 45.5t-54 66.5t-32 79t-10 84q0 116 58.5 219t155 163.5t203.5 60.5zM492 687q-60 0 -114.5 -58.5t-88.5 -141.5t-53.5 -165.5t-19.5 -137.5
q0 -50 15 -84.5t38 -49.5t41.5 -20.5t35.5 -5.5q56 0 105.5 42.5t81.5 105t55.5 134.5t34 129t10.5 90q0 162 -141 162zM558 887q0 26 19.5 45.5t45.5 19.5t45 -19.5t19 -45.5t-19 -45t-45 -19t-45.5 19t-19.5 45zM345 887q0 26 19.5 45.5t45.5 19.5t45 -19.5t19 -45.5
t-19 -45t-45 -19t-45.5 19t-19.5 45z" />
    <glyph glyph-name="multiply" unicode="&#xd7;" 
d="M225 223l-155 155l68 68l155 -155l155 155l68 -68l-155 -155l155 -155l-68 -68l-155 155l-155 -155l-68 68z" />
    <glyph glyph-name="Oslash" unicode="&#xd8;" horiz-adv-x="778" 
d="M216 166l400 448q-31 73 -124 73q-60 0 -114.5 -58.5t-88.5 -141.5t-53.5 -165.5t-19.5 -137.5v-18zM630 566l-402 -453q16 -50 49.5 -69.5t68.5 -19.5q56 0 105.5 42.5t81.5 105t55.5 134.5t34 129t10.5 90q0 19 -3 41zM778 730l-80 -90q77 -80 77 -205q0 -46 -13 -101
t-45 -117t-78.5 -112.5t-121.5 -83.5t-167 -33q-112 0 -179 62l-84 -95l-33 29l87 98q-67 80 -67 198q0 116 58.5 219t155 163.5t203.5 60.5q99 0 174 -54l80 90z" />
    <glyph glyph-name="Ugrave" unicode="&#xd9;" horiz-adv-x="796" 
d="M349 622q-20 -84 -39.5 -165.5t-27.5 -114t-15 -65t-8.5 -47t-1.5 -32.5q0 -67 39.5 -108t107.5 -41q32 0 59.5 5.5t48.5 12.5t40.5 23.5t32 27.5t26 37t20.5 39t18 46t14.5 46.5t14.5 50.5t33.5 147.5t22.5 122.5q0 37 -13.5 48t-68.5 18q-17 2 -17 11q0 29 12 29
q39 0 75.5 -2t46.5 -2q5 0 41.5 2t77.5 2q7 0 7 -6q0 -13 -2 -19t-13.5 -10.5t-35.5 -4.5q-27 0 -40.5 -25.5t-32.5 -99.5q-85 -325 -105 -375q-38 -93 -118.5 -139t-185.5 -46q-104 0 -175.5 53.5t-71.5 153.5q0 40 46.5 238.5t46.5 204.5q0 19 -11.5 25t-54.5 10
q-23 2 -23 9q0 12 4 21.5t9 9.5q54 0 101 -2t54 -2q13 0 62 2t90 2q2 0 5 -2t3 -4q0 -33 -17 -34q-47 -5 -60 -12t-21 -39zM550 812h-49q-78 52 -113 78t-42.5 35.5t-7.5 21.5q0 20 15 33t31 13q14 0 25.5 -8t43 -46t97.5 -127z" />
    <glyph glyph-name="Uacute" unicode="&#xda;" horiz-adv-x="796" 
d="M349 622q-20 -84 -39.5 -165.5t-27.5 -114t-15 -65t-8.5 -47t-1.5 -32.5q0 -67 39.5 -108t107.5 -41q32 0 59.5 5.5t48.5 12.5t40.5 23.5t32 27.5t26 37t20.5 39t18 46t14.5 46.5t14.5 50.5t33.5 147.5t22.5 122.5q0 37 -13.5 48t-68.5 18q-17 2 -17 11q0 29 12 29
q39 0 75.5 -2t46.5 -2q5 0 41.5 2t77.5 2q7 0 7 -6q0 -13 -2 -19t-13.5 -10.5t-35.5 -4.5q-27 0 -40.5 -25.5t-32.5 -99.5q-85 -325 -105 -375q-38 -93 -118.5 -139t-185.5 -46q-104 0 -175.5 53.5t-71.5 153.5q0 40 46.5 238.5t46.5 204.5q0 19 -11.5 25t-54.5 10
q-23 2 -23 9q0 12 4 21.5t9 9.5q54 0 101 -2t54 -2q13 0 62 2t90 2q2 0 5 -2t3 -4q0 -33 -17 -34q-47 -5 -60 -12t-21 -39zM518 812h-49q12 10 53.5 58t80 85.5t57.5 37.5q21 0 34.5 -14t13.5 -35q0 -18 -32 -41t-158 -91z" />
    <glyph glyph-name="Ucircumflex" unicode="&#xdb;" horiz-adv-x="796" 
d="M349 622q-20 -84 -39.5 -165.5t-27.5 -114t-15 -65t-8.5 -47t-1.5 -32.5q0 -67 39.5 -108t107.5 -41q32 0 59.5 5.5t48.5 12.5t40.5 23.5t32 27.5t26 37t20.5 39t18 46t14.5 46.5t14.5 50.5t33.5 147.5t22.5 122.5q0 37 -13.5 48t-68.5 18q-17 2 -17 11q0 29 12 29
q39 0 75.5 -2t46.5 -2q5 0 41.5 2t77.5 2q7 0 7 -6q0 -13 -2 -19t-13.5 -10.5t-35.5 -4.5q-27 0 -40.5 -25.5t-32.5 -99.5q-85 -325 -105 -375q-38 -93 -118.5 -139t-185.5 -46q-104 0 -175.5 53.5t-71.5 153.5q0 40 46.5 238.5t46.5 204.5q0 19 -11.5 25t-54.5 10
q-23 2 -23 9q0 12 4 21.5t9 9.5q54 0 101 -2t54 -2q13 0 62 2t90 2q2 0 5 -2t3 -4q0 -33 -17 -34q-47 -5 -60 -12t-21 -39zM601 986l87 -174h-51l-88 95l-137 -95h-51l159 174h81z" />
    <glyph glyph-name="Udieresis" unicode="&#xdc;" horiz-adv-x="796" 
d="M349 622q-20 -84 -39.5 -165.5t-27.5 -114t-15 -65t-8.5 -47t-1.5 -32.5q0 -67 39.5 -108t107.5 -41q32 0 59.5 5.5t48.5 12.5t40.5 23.5t32 27.5t26 37t20.5 39t18 46t14.5 46.5t14.5 50.5t33.5 147.5t22.5 122.5q0 37 -13.5 48t-68.5 18q-17 2 -17 11q0 29 12 29
q39 0 75.5 -2t46.5 -2q5 0 41.5 2t77.5 2q7 0 7 -6q0 -13 -2 -19t-13.5 -10.5t-35.5 -4.5q-27 0 -40.5 -25.5t-32.5 -99.5q-85 -325 -105 -375q-38 -93 -118.5 -139t-185.5 -46q-104 0 -175.5 53.5t-71.5 153.5q0 40 46.5 238.5t46.5 204.5q0 19 -11.5 25t-54.5 10
q-23 2 -23 9q0 12 4 21.5t9 9.5q54 0 101 -2t54 -2q13 0 62 2t90 2q2 0 5 -2t3 -4q0 -33 -17 -34q-47 -5 -60 -12t-21 -39zM577 887q0 26 19.5 45.5t45.5 19.5t45 -19.5t19 -45.5t-19 -45t-45 -19t-45.5 19t-19.5 45zM364 887q0 26 19.5 45.5t45.5 19.5t45 -19.5t19 -45.5
t-19 -45t-45 -19t-45.5 19t-19.5 45z" />
    <glyph glyph-name="Yacute" unicode="&#xdd;" horiz-adv-x="630" 
d="M367 363l206 237q18 20 18 36q0 20 -13 26.5t-50 10.5q-26 3 -26 11q0 29 13 29q7 0 59.5 -2t64.5 -2t68 2t66 2q5 0 5 -5q0 -7 -3.5 -21t-8.5 -14q-42 0 -70 -16.5t-79 -72.5l-233 -256q-9 -9 -22 -56q-51 -191 -51 -198q0 -22 13.5 -29t55.5 -7q27 0 27 -9
q0 -31 -13 -31q-26 0 -79 1t-80 1t-83 -1t-83 -1q-6 0 -6 6q0 34 22 34q49 1 64.5 9t22.5 37q3 12 20 71.5t32.5 113t15.5 56.5q0 7 -62 277q-10 45 -18 56q-10 14 -62 15q-18 0 -18 10q0 30 11 30q4 0 63.5 -2t73.5 -2q19 0 89.5 2t77.5 2q5 0 5 -6q0 -22 -6.5 -28
t-33.5 -6q-49 0 -49 -21q0 -17 13.5 -85t27.5 -134t15 -70zM435 812h-49q12 10 53.5 58t80 85.5t57.5 37.5q21 0 34.5 -14t13.5 -35q0 -18 -32 -41t-158 -91z" />
    <glyph glyph-name="Thorn" unicode="&#xde;" horiz-adv-x="630" 
d="M293 253q101 0 149 47.5t48 111.5q0 31 -15 53.5t-36.5 33t-38.5 15t-29 4.5q-36 0 -41 -16q-58 -182 -58 -235q0 -14 21 -14zM97 126q122 496 122 513q0 19 -17 26.5t-54 7.5q-27 0 -27 11q0 6 4 17.5t8 11.5q44 0 94.5 -2t64.5 -2q32 0 88.5 2t63.5 2q8 0 8 -7
q0 -33 -22 -33q-36 -1 -49.5 -9t-20.5 -34q-16 -58 -16 -63q0 -6 4 -7.5t20 -1.5q85 0 139.5 -10t82.5 -32t38 -48.5t10 -67.5q0 -86 -74 -136.5t-182 -50.5q-28 0 -55.5 2t-43.5 4l-16 2q-7 0 -24 -66.5t-17 -82.5q0 -21 13 -27.5t69 -6.5q20 0 20 -9q0 -5 -3 -18t-5 -13
t-23.5 1t-64 2t-96.5 1q-38 0 -70 -1t-50 -2t-22 -1q-7 0 -7 9q0 14 7 20.5t15.5 8t31.5 2.5t33.5 20t22.5 68z" />
    <glyph glyph-name="germandbls" unicode="&#xdf;" 
d="M277 541l-129 -499q-41 -173 -111.5 -244t-170.5 -71q-83 0 -83 62q0 19 15.5 33.5t34.5 14.5q25 0 54.5 -31t42.5 -31q41 0 69 131l3 12l116 498q41 178 117.5 251t190.5 73q61 0 110.5 -30.5t49.5 -88.5q0 -40 -33.5 -83t-101.5 -102q-22 -19 -22 -37q0 -25 40 -111
q40 -84 40 -124q0 -66 -62.5 -121t-129.5 -55q-44 0 -71.5 19.5t-27.5 60.5q0 16 12.5 28t27.5 12q21 0 34.5 -12.5t19.5 -27.5t17 -27.5t27 -12.5q21 0 31.5 26t10.5 49q0 41 -38 125q-37 84 -37 115q0 23 16.5 44.5t66.5 63.5q69 58 69 145q0 39 -19.5 73.5t-55.5 34.5
q-23 0 -42.5 -12t-31.5 -26.5t-22.5 -41t-15 -41.5t-11.5 -42z" />
    <glyph glyph-name="agrave" unicode="&#xe0;" horiz-adv-x="519" 
d="M141 74q36 0 87.5 65t86.5 138.5t35 102.5q0 17 -9 30.5t-25 13.5q-35 0 -72.5 -45t-62.5 -103.5t-41.5 -109t-16.5 -67.5q0 -25 18 -25zM398 172q-31 -78 -31 -93q0 -14 13 -14q14 0 56.5 49.5t48.5 49.5q4 0 9.5 -5t5.5 -11q0 -1 -12.5 -17t-35.5 -40t-49.5 -47
t-59 -39.5t-59.5 -16.5q-40 0 -40 34q0 9 14 45.5t27.5 70t13.5 34.5q0 6 -4 6q-2 0 -16 -19.5t-37.5 -47.5t-52.5 -56t-66.5 -47.5t-72.5 -19.5q-25 0 -39 16t-14 42q0 50 25.5 120.5t66.5 136t101 111.5t122 46q25 0 41.5 -9t23 -18.5t8.5 -9.5q3 0 13 26q4 12 10 14.5
t36 2.5q63 0 63 -6q0 -2 -109 -288zM402 559h-49q-78 52 -113 78t-42.5 35.5t-7.5 21.5q0 20 15 33t31 13q14 0 25.5 -8t43 -46t97.5 -127z" />
    <glyph glyph-name="aacute" unicode="&#xe1;" horiz-adv-x="519" 
d="M141 74q36 0 87.5 65t86.5 138.5t35 102.5q0 17 -9 30.5t-25 13.5q-35 0 -72.5 -45t-62.5 -103.5t-41.5 -109t-16.5 -67.5q0 -25 18 -25zM398 172q-31 -78 -31 -93q0 -14 13 -14q14 0 56.5 49.5t48.5 49.5q4 0 9.5 -5t5.5 -11q0 -1 -12.5 -17t-35.5 -40t-49.5 -47
t-59 -39.5t-59.5 -16.5q-40 0 -40 34q0 9 14 45.5t27.5 70t13.5 34.5q0 6 -4 6q-2 0 -16 -19.5t-37.5 -47.5t-52.5 -56t-66.5 -47.5t-72.5 -19.5q-25 0 -39 16t-14 42q0 50 25.5 120.5t66.5 136t101 111.5t122 46q25 0 41.5 -9t23 -18.5t8.5 -9.5q3 0 13 26q4 12 10 14.5
t36 2.5q63 0 63 -6q0 -2 -109 -288zM320 559h-49q12 10 53.5 58t80 85.5t57.5 37.5q21 0 34.5 -14t13.5 -35q0 -18 -32 -41t-158 -91z" />
    <glyph glyph-name="acircumflex" unicode="&#xe2;" horiz-adv-x="519" 
d="M141 74q36 0 87.5 65t86.5 138.5t35 102.5q0 17 -9 30.5t-25 13.5q-35 0 -72.5 -45t-62.5 -103.5t-41.5 -109t-16.5 -67.5q0 -25 18 -25zM398 172q-31 -78 -31 -93q0 -14 13 -14q14 0 56.5 49.5t48.5 49.5q4 0 9.5 -5t5.5 -11q0 -1 -12.5 -17t-35.5 -40t-49.5 -47
t-59 -39.5t-59.5 -16.5q-40 0 -40 34q0 9 14 45.5t27.5 70t13.5 34.5q0 6 -4 6q-2 0 -16 -19.5t-37.5 -47.5t-52.5 -56t-66.5 -47.5t-72.5 -19.5q-25 0 -39 16t-14 42q0 50 25.5 120.5t66.5 136t101 111.5t122 46q25 0 41.5 -9t23 -18.5t8.5 -9.5q3 0 13 26q4 12 10 14.5
t36 2.5q63 0 63 -6q0 -2 -109 -288zM423 733l87 -174h-51l-88 95l-137 -95h-51l159 174h81z" />
    <glyph glyph-name="atilde" unicode="&#xe3;" horiz-adv-x="519" 
d="M141 74q36 0 87.5 65t86.5 138.5t35 102.5q0 17 -9 30.5t-25 13.5q-35 0 -72.5 -45t-62.5 -103.5t-41.5 -109t-16.5 -67.5q0 -25 18 -25zM398 172q-31 -78 -31 -93q0 -14 13 -14q14 0 56.5 49.5t48.5 49.5q4 0 9.5 -5t5.5 -11q0 -1 -12.5 -17t-35.5 -40t-49.5 -47
t-59 -39.5t-59.5 -16.5q-40 0 -40 34q0 9 14 45.5t27.5 70t13.5 34.5q0 6 -4 6q-2 0 -16 -19.5t-37.5 -47.5t-52.5 -56t-66.5 -47.5t-72.5 -19.5q-25 0 -39 16t-14 42q0 50 25.5 120.5t66.5 136t101 111.5t122 46q25 0 41.5 -9t23 -18.5t8.5 -9.5q3 0 13 26q4 12 10 14.5
t36 2.5q63 0 63 -6q0 -2 -109 -288zM496 679h40q-10 -51 -40 -81q-33 -36 -83 -36q-25 0 -75 21q-46 21 -75 21q-14 0 -29 -13t-19 -29h-40q11 49 42 81q34 36 81 36q26 0 79 -21q59 -21 70 -21q31 0 49 42z" />
    <glyph glyph-name="adieresis" unicode="&#xe4;" horiz-adv-x="519" 
d="M141 74q36 0 87.5 65t86.5 138.5t35 102.5q0 17 -9 30.5t-25 13.5q-35 0 -72.5 -45t-62.5 -103.5t-41.5 -109t-16.5 -67.5q0 -25 18 -25zM398 172q-31 -78 -31 -93q0 -14 13 -14q14 0 56.5 49.5t48.5 49.5q4 0 9.5 -5t5.5 -11q0 -1 -12.5 -17t-35.5 -40t-49.5 -47
t-59 -39.5t-59.5 -16.5q-40 0 -40 34q0 9 14 45.5t27.5 70t13.5 34.5q0 6 -4 6q-2 0 -16 -19.5t-37.5 -47.5t-52.5 -56t-66.5 -47.5t-72.5 -19.5q-25 0 -39 16t-14 42q0 50 25.5 120.5t66.5 136t101 111.5t122 46q25 0 41.5 -9t23 -18.5t8.5 -9.5q3 0 13 26q4 12 10 14.5
t36 2.5q63 0 63 -6q0 -2 -109 -288zM399 634q0 26 19.5 45.5t45.5 19.5t45 -19.5t19 -45.5t-19 -45t-45 -19t-45.5 19t-19.5 45zM186 634q0 26 19.5 45.5t45.5 19.5t45 -19.5t19 -45.5t-19 -45t-45 -19t-45.5 19t-19.5 45z" />
    <glyph glyph-name="aring" unicode="&#xe5;" horiz-adv-x="519" 
d="M141 74q36 0 87.5 65t86.5 138.5t35 102.5q0 17 -9 30.5t-25 13.5q-35 0 -72.5 -45t-62.5 -103.5t-41.5 -109t-16.5 -67.5q0 -25 18 -25zM398 172q-31 -78 -31 -93q0 -14 13 -14q14 0 56.5 49.5t48.5 49.5q4 0 9.5 -5t5.5 -11q0 -1 -12.5 -17t-35.5 -40t-49.5 -47
t-59 -39.5t-59.5 -16.5q-40 0 -40 34q0 9 14 45.5t27.5 70t13.5 34.5q0 6 -4 6q-2 0 -16 -19.5t-37.5 -47.5t-52.5 -56t-66.5 -47.5t-72.5 -19.5q-25 0 -39 16t-14 42q0 50 25.5 120.5t66.5 136t101 111.5t122 46q25 0 41.5 -9t23 -18.5t8.5 -9.5q3 0 13 26q4 12 10 14.5
t36 2.5q63 0 63 -6q0 -2 -109 -288zM375 518q-45 0 -76.5 35t-31.5 81q0 45 34 75.5t80 30.5q43 0 75 -34t32 -78q0 -46 -33.5 -78t-79.5 -32zM381 564q23 0 42 18.5t19 41.5q0 30 -19 50t-49 20q-24 0 -42.5 -20t-18.5 -44q0 -28 20 -47t48 -19z" />
    <glyph glyph-name="ae" unicode="&#xe6;" horiz-adv-x="630" 
d="M518 382q0 36 -27 36q-20 0 -39.5 -17t-33.5 -40.5t-24.5 -48.5t-16 -41.5t-5.5 -18.5q0 -5 7 -5q39 0 89 39.5t50 95.5zM243 96q-36 -43 -82 -75.5t-90 -32.5q-74 0 -74 90q0 70 63 137.5t139 110.5q60 34 170 81t145 47q38 0 71.5 -18t33.5 -61q0 -35 -27 -65.5
t-69 -49.5t-82.5 -31t-78.5 -18q-11 -20 -11 -55q0 -39 18.5 -67.5t55.5 -28.5q29 0 56.5 18.5t44 37t20.5 18.5q7 0 12 -5.5t5 -10.5q0 -2 -9 -15t-26.5 -32.5t-39.5 -38t-53.5 -31.5t-62.5 -13q-113 0 -129 108zM112 123q0 -51 35 -51q8 0 15 1.5t11 2.5t12.5 6.5t11 7.5
t14 11t15.5 12q11 8 11 30q0 14 3.5 37.5t22 73.5t49.5 93l-2 2q-50 -23 -88.5 -53t-58.5 -56t-32.5 -52.5t-15.5 -41t-3 -23.5z" />
    <glyph glyph-name="ccedilla" unicode="&#xe7;" horiz-adv-x="370" 
d="M145 142q0 -82 50 -82q22 0 46.5 18t40 36t17.5 18q6 0 13 -6.5t7 -10.5q0 -2 -7 -13.5t-22 -28.5t-34 -34t-46 -31t-56 -18l-37 -49q38 9 76 -9.5t38 -58.5q0 -45 -38.5 -66.5t-86.5 -21.5q-54 0 -110 24l22 33q51 -17 63 -17q59 0 59 41q0 18 -13.5 27.5t-32.5 9.5
q-15 0 -32 -5l-12 14l58 77q-89 13 -89 135q0 71 36 147t101.5 129.5t138.5 53.5q99 0 99 -63q0 -26 -18.5 -40t-44.5 -14q-22 0 -35.5 12t-17 26.5t-10.5 26.5t-19 12q-30 0 -67 -96t-37 -176z" />
    <glyph glyph-name="egrave" unicode="&#xe8;" horiz-adv-x="426" 
d="M158 211q-11 -20 -11 -55q0 -39 18.5 -67.5t55.5 -28.5q29 0 56.5 18.5t44 37t20.5 18.5q7 0 12 -5.5t5 -10.5q0 -2 -9 -15t-26.5 -32.5t-39.5 -38t-53.5 -31.5t-62.5 -13q-66 0 -103 38t-37 104q0 130 85 227t197 97q38 0 71.5 -18t33.5 -61q0 -35 -27 -65.5t-69 -49.5
t-82.5 -31t-78.5 -18zM314 382q0 36 -27 36q-20 0 -39.5 -17t-33.5 -40.5t-24.5 -48.5t-16 -41.5t-5.5 -18.5q0 -5 7 -5q39 0 89 39.5t50 95.5zM345 559h-49q-78 52 -113 78t-42.5 35.5t-7.5 21.5q0 20 15 33t31 13q14 0 25.5 -8t43 -46t97.5 -127z" />
    <glyph glyph-name="eacute" unicode="&#xe9;" horiz-adv-x="426" 
d="M158 211q-11 -20 -11 -55q0 -39 18.5 -67.5t55.5 -28.5q29 0 56.5 18.5t44 37t20.5 18.5q7 0 12 -5.5t5 -10.5q0 -2 -9 -15t-26.5 -32.5t-39.5 -38t-53.5 -31.5t-62.5 -13q-66 0 -103 38t-37 104q0 130 85 227t197 97q38 0 71.5 -18t33.5 -61q0 -35 -27 -65.5t-69 -49.5
t-82.5 -31t-78.5 -18zM314 382q0 36 -27 36q-20 0 -39.5 -17t-33.5 -40.5t-24.5 -48.5t-16 -41.5t-5.5 -18.5q0 -5 7 -5q39 0 89 39.5t50 95.5zM293 559h-49q12 10 53.5 58t80 85.5t57.5 37.5q21 0 34.5 -14t13.5 -35q0 -18 -32 -41t-158 -91z" />
    <glyph glyph-name="ecircumflex" unicode="&#xea;" horiz-adv-x="426" 
d="M158 211q-11 -20 -11 -55q0 -39 18.5 -67.5t55.5 -28.5q29 0 56.5 18.5t44 37t20.5 18.5q7 0 12 -5.5t5 -10.5q0 -2 -9 -15t-26.5 -32.5t-39.5 -38t-53.5 -31.5t-62.5 -13q-66 0 -103 38t-37 104q0 130 85 227t197 97q38 0 71.5 -18t33.5 -61q0 -35 -27 -65.5t-69 -49.5
t-82.5 -31t-78.5 -18zM314 382q0 36 -27 36q-20 0 -39.5 -17t-33.5 -40.5t-24.5 -48.5t-16 -41.5t-5.5 -18.5q0 -5 7 -5q39 0 89 39.5t50 95.5zM356 733l87 -174h-51l-88 95l-137 -95h-51l159 174h81z" />
    <glyph glyph-name="edieresis" unicode="&#xeb;" horiz-adv-x="426" 
d="M158 211q-11 -20 -11 -55q0 -39 18.5 -67.5t55.5 -28.5q29 0 56.5 18.5t44 37t20.5 18.5q7 0 12 -5.5t5 -10.5q0 -2 -9 -15t-26.5 -32.5t-39.5 -38t-53.5 -31.5t-62.5 -13q-66 0 -103 38t-37 104q0 130 85 227t197 97q38 0 71.5 -18t33.5 -61q0 -35 -27 -65.5t-69 -49.5
t-82.5 -31t-78.5 -18zM314 382q0 36 -27 36q-20 0 -39.5 -17t-33.5 -40.5t-24.5 -48.5t-16 -41.5t-5.5 -18.5q0 -5 7 -5q39 0 89 39.5t50 95.5zM352 634q0 26 19.5 45.5t45.5 19.5t45 -19.5t19 -45.5t-19 -45t-45 -19t-45.5 19t-19.5 45zM139 634q0 26 19.5 45.5t45.5 19.5
t45 -19.5t19 -45.5t-19 -45t-45 -19t-45.5 19t-19.5 45z" />
    <glyph glyph-name="igrave" unicode="&#xec;" horiz-adv-x="315" 
d="M31 36q0 32 58 175.5t58 161.5q0 7 -16 7q-8 0 -47 -37t-40 -37q-5 0 -10 4t-5 8q0 15 33.5 48.5t86.5 63.5t95 30q15 0 26 -9.5t11 -27.5q0 -22 -29.5 -105t-59 -158.5t-29.5 -78.5q0 -13 11 -13q8 0 31.5 19.5t44 39t21.5 19.5q5 0 11 -4.5t6 -9.5q0 -4 -11.5 -19
t-33 -36.5t-47.5 -41t-59 -33.5t-63 -14q-43 0 -43 48zM300 559h-49q-78 52 -113 78t-42.5 35.5t-7.5 21.5q0 20 15 33t31 13q14 0 25.5 -8t43 -46t97.5 -127z" />
    <glyph glyph-name="iacute" unicode="&#xed;" horiz-adv-x="315" 
d="M31 36q0 32 58 175.5t58 161.5q0 7 -16 7q-8 0 -47 -37t-40 -37q-5 0 -10 4t-5 8q0 15 33.5 48.5t86.5 63.5t95 30q15 0 26 -9.5t11 -27.5q0 -22 -29.5 -105t-59 -158.5t-29.5 -78.5q0 -13 11 -13q8 0 31.5 19.5t44 39t21.5 19.5q5 0 11 -4.5t6 -9.5q0 -4 -11.5 -19
t-33 -36.5t-47.5 -41t-59 -33.5t-63 -14q-43 0 -43 48zM218 559h-49q12 10 53.5 58t80 85.5t57.5 37.5q21 0 34.5 -14t13.5 -35q0 -18 -32 -41t-158 -91z" />
    <glyph glyph-name="icircumflex" unicode="&#xee;" horiz-adv-x="315" 
d="M31 36q0 32 58 175.5t58 161.5q0 7 -16 7q-8 0 -47 -37t-40 -37q-5 0 -10 4t-5 8q0 15 33.5 48.5t86.5 63.5t95 30q15 0 26 -9.5t11 -27.5q0 -22 -29.5 -105t-59 -158.5t-29.5 -78.5q0 -13 11 -13q8 0 31.5 19.5t44 39t21.5 19.5q5 0 11 -4.5t6 -9.5q0 -4 -11.5 -19
t-33 -36.5t-47.5 -41t-59 -33.5t-63 -14q-43 0 -43 48zM301 733l87 -174h-51l-88 95l-137 -95h-51l159 174h81z" />
    <glyph glyph-name="idieresis" unicode="&#xef;" horiz-adv-x="315" 
d="M31 36q0 32 58 175.5t58 161.5q0 7 -16 7q-8 0 -47 -37t-40 -37q-5 0 -10 4t-5 8q0 15 33.5 48.5t86.5 63.5t95 30q15 0 26 -9.5t11 -27.5q0 -22 -29.5 -105t-59 -158.5t-29.5 -78.5q0 -13 11 -13q8 0 31.5 19.5t44 39t21.5 19.5q5 0 11 -4.5t6 -9.5q0 -4 -11.5 -19
t-33 -36.5t-47.5 -41t-59 -33.5t-63 -14q-43 0 -43 48zM297 634q0 26 19.5 45.5t45.5 19.5t45 -19.5t19 -45.5t-19 -45t-45 -19t-45.5 19t-19.5 45zM84 634q0 26 19.5 45.5t45.5 19.5t45 -19.5t19 -45.5t-19 -45t-45 -19t-45.5 19t-19.5 45z" />
    <glyph glyph-name="eth" unicode="&#xf0;" horiz-adv-x="463" 
d="M324 341q0 18 -1 28t-4 25t-12 22.5t-23 7.5q-35 0 -71 -61t-57.5 -139.5t-21.5 -135.5q0 -24 11 -44t33 -20q37 0 73 68t54.5 141t18.5 108zM394 664l154 76v-45l-131 -65q48 -79 48 -205q0 -96 -32.5 -194.5t-99.5 -170.5t-150 -72q-23 0 -46 7t-49.5 24.5t-43 56.5
t-16.5 95q0 104 69 196.5t169 92.5q29 0 49 -8q22 -9 25 -9q14 0 14 77q0 38 -11 73l-168 -83v45l154 77q-7 20 -21.5 34t-26.5 20t-21.5 12.5t-9.5 13.5q0 18 25 18q68 0 119 -66z" />
    <glyph glyph-name="ntilde" unicode="&#xf1;" horiz-adv-x="593" 
d="M125 0h-75q-7 0 -14 4t-7 10q0 1 68.5 187t68.5 197q0 17 -9 17q-31 0 -63.5 -37t-41.5 -77q-3 -14 -15 -14q-14 0 -14 12q0 21 10.5 46.5t32.5 52t63 44.5t93 18h35q9 0 19 -5t10 -13q0 -6 -39.5 -116t-39.5 -116l5 -3q12 9 36.5 52t49 86.5t65.5 79t85 35.5
q16 0 25.5 -0.5t26.5 -3.5t26.5 -8t17 -16.5t7.5 -27.5q0 -31 -60 -179.5t-60 -159.5q0 -7 9 -7q21 0 45 24t41 48t19 24q7 0 13.5 -5t6.5 -9q0 -2 -8 -15.5t-26 -34.5t-41 -41t-58 -34.5t-72 -14.5h-44q-22 0 -22 8q0 15 65.5 190t65.5 176q0 11 -5 18t-9 8.5t-7 1.5
q-13 0 -29 -13t-33.5 -35.5t-30.5 -41.5t-28.5 -44t-18.5 -30q-49 -74 -95 -192q-12 -30 -20 -38t-24 -8zM533 679h40q-10 -51 -40 -81q-33 -36 -83 -36q-25 0 -75 21q-46 21 -75 21q-14 0 -29 -13t-19 -29h-40q11 49 42 81q34 36 81 36q26 0 79 -21q59 -21 70 -21
q31 0 49 42z" />
    <glyph glyph-name="ograve" unicode="&#xf2;" horiz-adv-x="463" 
d="M430 281q0 -72 -29 -138t-87 -110.5t-131 -44.5q-23 0 -46 7t-49.5 24.5t-43 56.5t-16.5 95q0 104 69 196.5t169 92.5q76 0 120 -50t44 -129zM324 341q0 18 -1 28t-4 25t-12 22.5t-23 7.5q-35 0 -71 -61t-57.5 -139.5t-21.5 -135.5q0 -24 11 -44t33 -20q37 0 73 68
t54.5 141t18.5 108zM364 559h-49q-78 52 -113 78t-42.5 35.5t-7.5 21.5q0 20 15 33t31 13q14 0 25.5 -8t43 -46t97.5 -127z" />
    <glyph glyph-name="oacute" unicode="&#xf3;" horiz-adv-x="463" 
d="M430 281q0 -72 -29 -138t-87 -110.5t-131 -44.5q-23 0 -46 7t-49.5 24.5t-43 56.5t-16.5 95q0 104 69 196.5t169 92.5q76 0 120 -50t44 -129zM324 341q0 18 -1 28t-4 25t-12 22.5t-23 7.5q-35 0 -71 -61t-57.5 -139.5t-21.5 -135.5q0 -24 11 -44t33 -20q37 0 73 68
t54.5 141t18.5 108zM292 559h-49q12 10 53.5 58t80 85.5t57.5 37.5q21 0 34.5 -14t13.5 -35q0 -18 -32 -41t-158 -91z" />
    <glyph glyph-name="ocircumflex" unicode="&#xf4;" horiz-adv-x="463" 
d="M430 281q0 -72 -29 -138t-87 -110.5t-131 -44.5q-23 0 -46 7t-49.5 24.5t-43 56.5t-16.5 95q0 104 69 196.5t169 92.5q76 0 120 -50t44 -129zM324 341q0 18 -1 28t-4 25t-12 22.5t-23 7.5q-35 0 -71 -61t-57.5 -139.5t-21.5 -135.5q0 -24 11 -44t33 -20q37 0 73 68
t54.5 141t18.5 108zM375 733l87 -174h-51l-88 95l-137 -95h-51l159 174h81z" />
    <glyph glyph-name="otilde" unicode="&#xf5;" horiz-adv-x="463" 
d="M430 281q0 -72 -29 -138t-87 -110.5t-131 -44.5q-23 0 -46 7t-49.5 24.5t-43 56.5t-16.5 95q0 104 69 196.5t169 92.5q76 0 120 -50t44 -129zM324 341q0 18 -1 28t-4 25t-12 22.5t-23 7.5q-35 0 -71 -61t-57.5 -139.5t-21.5 -135.5q0 -24 11 -44t33 -20q37 0 73 68
t54.5 141t18.5 108zM448 679h40q-10 -51 -40 -81q-33 -36 -83 -36q-25 0 -75 21q-46 21 -75 21q-14 0 -29 -13t-19 -29h-40q11 49 42 81q34 36 81 36q26 0 79 -21q59 -21 70 -21q31 0 49 42z" />
    <glyph glyph-name="odieresis" unicode="&#xf6;" horiz-adv-x="463" 
d="M430 281q0 -72 -29 -138t-87 -110.5t-131 -44.5q-23 0 -46 7t-49.5 24.5t-43 56.5t-16.5 95q0 104 69 196.5t169 92.5q76 0 120 -50t44 -129zM324 341q0 18 -1 28t-4 25t-12 22.5t-23 7.5q-35 0 -71 -61t-57.5 -139.5t-21.5 -135.5q0 -24 11 -44t33 -20q37 0 73 68
t54.5 141t18.5 108zM371 634q0 26 19.5 45.5t45.5 19.5t45 -19.5t19 -45.5t-19 -45t-45 -19t-45.5 19t-19.5 45zM158 634q0 26 19.5 45.5t45.5 19.5t45 -19.5t19 -45.5t-19 -45t-45 -19t-45.5 19t-19.5 45z" />
    <glyph glyph-name="divide" unicode="&#xf7;" 
d="M516 181h-446v96h446v-96zM223 68q0 29 20.5 49.5t49.5 20.5t49.5 -20.5t20.5 -49.5t-20.5 -49.5t-49.5 -20.5t-49.5 20.5t-20.5 49.5zM223 390q0 29 20.5 49.5t49.5 20.5t49.5 -20.5t20.5 -49.5t-20.5 -49.5t-49.5 -20.5t-49.5 20.5t-20.5 49.5z" />
    <glyph glyph-name="oslash" unicode="&#xf8;" horiz-adv-x="463" 
d="M143 148l179 228q-4 48 -38 48q-30 0 -61.5 -46t-52.5 -108t-29 -120zM320 316l-185 -237q1 -22 11.5 -38.5t31.5 -16.5q34 0 67 57t52 121t25 112zM451 479l-59 -74q38 -51 38 -124q0 -72 -29 -138t-87 -110.5t-131 -44.5q-54 0 -95 32l-59 -75l-29 25l62 78
q-34 44 -34 123q0 104 69 196.5t169 92.5q62 0 99 -30l56 71z" />
    <glyph glyph-name="ugrave" unicode="&#xf9;" horiz-adv-x="574" 
d="M441 454h104q7 0 7 -4t-64 -187.5t-64 -194.5q0 -13 10 -13q19 0 44 25.5t42.5 51t19.5 25.5q6 0 12 -3.5t6 -7.5t-8.5 -19.5t-27 -38t-43 -43.5t-60.5 -36t-75 -15q-17 0 -24.5 0.5t-14 4.5t-6.5 13q0 8 51 161q12 36 12 38q0 7 -3 7q-5 0 -27.5 -36t-50.5 -79t-75 -79
t-96 -36q-28 0 -50 14t-22 45q0 13 64 181.5t64 179.5q0 12 -10 12q-24 0 -63 -42.5t-50 -86.5q-2 -8 -12 -8q-15 0 -15 12q0 9 4 25.5t18 41.5t35 46t61.5 36.5t91.5 15.5h44q33 0 33 -16q0 -14 -69.5 -182.5t-69.5 -183.5q0 -23 19 -23q8 0 19.5 7.5t25 22.5t25 29
t26 35.5t22 33t19.5 30.5l12 19q18 27 41.5 80t39 92.5t16.5 44.5t12 5zM429 559h-49q-78 52 -113 78t-42.5 35.5t-7.5 21.5q0 20 15 33t31 13q14 0 25.5 -8t43 -46t97.5 -127z" />
    <glyph glyph-name="uacute" unicode="&#xfa;" horiz-adv-x="574" 
d="M441 454h104q7 0 7 -4t-64 -187.5t-64 -194.5q0 -13 10 -13q19 0 44 25.5t42.5 51t19.5 25.5q6 0 12 -3.5t6 -7.5t-8.5 -19.5t-27 -38t-43 -43.5t-60.5 -36t-75 -15q-17 0 -24.5 0.5t-14 4.5t-6.5 13q0 8 51 161q12 36 12 38q0 7 -3 7q-5 0 -27.5 -36t-50.5 -79t-75 -79
t-96 -36q-28 0 -50 14t-22 45q0 13 64 181.5t64 179.5q0 12 -10 12q-24 0 -63 -42.5t-50 -86.5q-2 -8 -12 -8q-15 0 -15 12q0 9 4 25.5t18 41.5t35 46t61.5 36.5t91.5 15.5h44q33 0 33 -16q0 -14 -69.5 -182.5t-69.5 -183.5q0 -23 19 -23q8 0 19.5 7.5t25 22.5t25 29
t26 35.5t22 33t19.5 30.5l12 19q18 27 41.5 80t39 92.5t16.5 44.5t12 5zM367 559h-49q12 10 53.5 58t80 85.5t57.5 37.5q21 0 34.5 -14t13.5 -35q0 -18 -32 -41t-158 -91z" />
    <glyph glyph-name="ucircumflex" unicode="&#xfb;" horiz-adv-x="574" 
d="M441 454h104q7 0 7 -4t-64 -187.5t-64 -194.5q0 -13 10 -13q19 0 44 25.5t42.5 51t19.5 25.5q6 0 12 -3.5t6 -7.5t-8.5 -19.5t-27 -38t-43 -43.5t-60.5 -36t-75 -15q-17 0 -24.5 0.5t-14 4.5t-6.5 13q0 8 51 161q12 36 12 38q0 7 -3 7q-5 0 -27.5 -36t-50.5 -79t-75 -79
t-96 -36q-28 0 -50 14t-22 45q0 13 64 181.5t64 179.5q0 12 -10 12q-24 0 -63 -42.5t-50 -86.5q-2 -8 -12 -8q-15 0 -15 12q0 9 4 25.5t18 41.5t35 46t61.5 36.5t91.5 15.5h44q33 0 33 -16q0 -14 -69.5 -182.5t-69.5 -183.5q0 -23 19 -23q8 0 19.5 7.5t25 22.5t25 29
t26 35.5t22 33t19.5 30.5l12 19q18 27 41.5 80t39 92.5t16.5 44.5t12 5zM430 733l87 -174h-51l-88 95l-137 -95h-51l159 174h81z" />
    <glyph glyph-name="udieresis" unicode="&#xfc;" horiz-adv-x="574" 
d="M441 454h104q7 0 7 -4t-64 -187.5t-64 -194.5q0 -13 10 -13q19 0 44 25.5t42.5 51t19.5 25.5q6 0 12 -3.5t6 -7.5t-8.5 -19.5t-27 -38t-43 -43.5t-60.5 -36t-75 -15q-17 0 -24.5 0.5t-14 4.5t-6.5 13q0 8 51 161q12 36 12 38q0 7 -3 7q-5 0 -27.5 -36t-50.5 -79t-75 -79
t-96 -36q-28 0 -50 14t-22 45q0 13 64 181.5t64 179.5q0 12 -10 12q-24 0 -63 -42.5t-50 -86.5q-2 -8 -12 -8q-15 0 -15 12q0 9 4 25.5t18 41.5t35 46t61.5 36.5t91.5 15.5h44q33 0 33 -16q0 -14 -69.5 -182.5t-69.5 -183.5q0 -23 19 -23q8 0 19.5 7.5t25 22.5t25 29
t26 35.5t22 33t19.5 30.5l12 19q18 27 41.5 80t39 92.5t16.5 44.5t12 5zM426 634q0 26 19.5 45.5t45.5 19.5t45 -19.5t19 -45.5t-19 -45t-45 -19t-45.5 19t-19.5 45zM213 634q0 26 19.5 45.5t45.5 19.5t45 -19.5t19 -45.5t-19 -45t-45 -19t-45.5 19t-19.5 45z" />
    <glyph glyph-name="yacute" unicode="&#xfd;" horiz-adv-x="463" 
d="M189 -117q-62 -85 -112.5 -120.5t-126.5 -35.5q-35 0 -59 14t-24 46q0 20 15.5 33.5t35.5 13.5q25 0 56 -31t43 -31q44 0 86.5 76t42.5 194q0 96 -15 210.5t-48 114.5q-18 0 -28 -21t-17 -68q-2 -10 -5 -13t-13 -3q-14 0 -14 13q0 22 13.5 61.5t46 78.5t74.5 39
q40 0 64 -33t38 -121t15 -244h2q7 9 21.5 38t40.5 118t43 202q6 40 20 40q17 0 43 -13.5t26 -26.5q0 -50 -84 -224t-180 -307zM302 559h-49q12 10 53.5 58t80 85.5t57.5 37.5q21 0 34.5 -14t13.5 -35q0 -18 -32 -41t-158 -91z" />
    <glyph glyph-name="thorn" unicode="&#xfe;" horiz-adv-x="500" 
d="M122 376q61 246 61 274q0 9 -7 13t-35 10q-7 2 -13 7t-6 10q0 13 12 16t74 7q15 1 49.5 5.5t46.5 4.5q22 0 22 -8q0 -2 -39 -134.5t-39 -155.5q0 -7 5 -7l19 9q20 9 47.5 18t46.5 9q17 0 33.5 -4.5t36 -16.5t31.5 -38t12 -64q0 -34 -13 -87t-39 -112.5t-76 -101.5
t-112 -42q-12 0 -33.5 4.5t-38.5 9.5l-17 4q-8 0 -11 -21q-3 -15 -23 -95.5t-20 -96.5q0 -18 50 -18q31 0 31 -21q0 -15 -25 -15q-18 0 -54.5 1.5t-54.5 1.5q-30 0 -56.5 -1t-42.5 -1.5t-18 -0.5q-23 0 -23 15q0 12 4.5 16t20.5 5q30 3 38 8t12 20l116 456q4 17 8 29t5 16
t1 6q0 7 -5 7q-14 -1 -46 -23t-34 -22q-4 0 -9 6.5t-5 11.5q0 2 9.5 10.5t37 29.5t66.5 46zM231 359l-57 -218q-12 -48 -12 -63q0 -21 17.5 -37.5t38.5 -16.5q31 0 58 35t43 84.5t25 96t9 75.5q0 24 -8 41.5t-20.5 24.5t-21 9.5t-14.5 2.5q-49 0 -58 -34z" />
    <glyph glyph-name="ydieresis" unicode="&#xff;" horiz-adv-x="463" 
d="M189 -117q-62 -85 -112.5 -120.5t-126.5 -35.5q-35 0 -59 14t-24 46q0 20 15.5 33.5t35.5 13.5q25 0 56 -31t43 -31q44 0 86.5 76t42.5 194q0 96 -15 210.5t-48 114.5q-18 0 -28 -21t-17 -68q-2 -10 -5 -13t-13 -3q-14 0 -14 13q0 22 13.5 61.5t46 78.5t74.5 39
q40 0 64 -33t38 -121t15 -244h2q7 9 21.5 38t40.5 118t43 202q6 40 20 40q17 0 43 -13.5t26 -26.5q0 -50 -84 -224t-180 -307zM351 634q0 26 19.5 45.5t45.5 19.5t45 -19.5t19 -45.5t-19 -45t-45 -19t-45.5 19t-19.5 45zM138 634q0 26 19.5 45.5t45.5 19.5t45 -19.5
t19 -45.5t-19 -45t-45 -19t-45.5 19t-19.5 45z" />
    <glyph glyph-name="dotlessi" unicode="&#x131;" horiz-adv-x="315" 
d="M31 36q0 32 58 175.5t58 161.5q0 7 -16 7q-8 0 -47 -37t-40 -37q-5 0 -10 4t-5 8q0 15 33.5 48.5t86.5 63.5t95 30q15 0 26 -9.5t11 -27.5q0 -22 -29.5 -105t-59 -158.5t-29.5 -78.5q0 -13 11 -13q8 0 31.5 19.5t44 39t21.5 19.5q5 0 11 -4.5t6 -9.5q0 -4 -11.5 -19
t-33 -36.5t-47.5 -41t-59 -33.5t-63 -14q-43 0 -43 48z" />
    <glyph glyph-name="Lslash" unicode="&#x141;" horiz-adv-x="648" 
d="M20 225v48l126 54q75 294 75 313q0 33 -61 33q-32 0 -32 14q0 11 4.5 18.5t10.5 7.5q42 0 108 -2t70 -2q7 0 58.5 2t83.5 2q8 0 8 -6q0 -34 -27 -34q-46 0 -63.5 -16t-35.5 -89l-43 -175l158 67v-48l-171 -73q-62 -246 -62 -270q0 -17 10 -21.5t41 -4.5h176q19 0 35 11
t26 23.5t32.5 46t39.5 55.5q9 11 23 11q16 0 16 -15q0 -5 -19 -80.5t-23 -88.5q-2 -8 -10 -8q-63 0 -164 1.5t-103 1.5q-53 0 -158 -1.5t-157 -1.5q-8 0 -8 3q0 21 9 29t39 8q22 0 33 7.5t17 29.5l50 198z" />
    <glyph glyph-name="lslash" unicode="&#x142;" horiz-adv-x="296" 
d="M353 407l-116 -41q-84 -258 -84 -266q0 -16 11 -16q20 0 61 44t47 44q4 0 10 -5.5t6 -9.5q0 -3 -13 -20.5t-36 -42.5t-51 -48.5t-63 -40.5t-66 -17q-20 0 -33 13t-13 33q0 9 2 18.5t8.5 31t15 45.5t26 77t36.5 112l-120 -43l18 53l119 42q87 271 87 280t-7 13t-35 10
q-7 2 -13 7t-6 10q0 13 12 16t74 7q15 1 49.5 5.5t46.5 4.5q22 0 22 -8q0 -3 -94 -296l117 41z" />
    <glyph glyph-name="OE" unicode="&#x152;" horiz-adv-x="1019" 
d="M599 43h219q23 0 35 6t23 22q25 35 54 78q21 31 26 36t15 5q20 0 20 -7q0 -10 -18.5 -86.5t-23.5 -90.5q-3 -8 -9 -8q-1 0 -8 0.5t-24 1t-39 0.5q-14 0 -106.5 0.5t-177.5 0.5q-63 0 -177 -3q-14 -1 -31.5 -2t-27.5 -1.5t-17 -0.5q-63 0 -114 25t-81.5 67t-46.5 92.5
t-16 105.5q0 106 52 206t145 165t200 65q12 0 25.5 -1t32.5 -2t32 -2q74 -6 147 -6q128 0 216 2q17 0 36.5 0.5t30.5 1t19 0.5q14 0 14 -21q0 -19 6 -73.5t6 -81.5q0 -9 -17 -9q-13 0 -18 6q-4 6 -23.5 45t-39.5 64t-40 25h-141q-21 0 -30.5 -15.5t-16.5 -41.5q-1 -3 -1 -5
q-51 -193 -51 -204q0 -8 12 -8h120q35 0 52.5 15.5t37.5 66.5q9 23 23 23q21 0 21 -12q0 -8 -31.5 -99.5t-37.5 -128.5q-2 -11 -4 -17.5t-7.5 -11t-14.5 -4.5q-19 0 -19 15q0 13 2 40t2 41q0 32 -63 32h-93q-13 0 -15 -13q-65 -241 -65 -278q0 -9 3 -14t6.5 -5.5t11.5 -0.5z
M442 82l126 494q15 60 15 78q0 26 -80 26q-63 0 -119 -53t-91.5 -131t-56 -160t-20.5 -145q0 -82 41 -121.5t90 -39.5q54 0 70.5 11t24.5 41z" />
    <glyph glyph-name="oe" unicode="&#x153;" horiz-adv-x="685" 
d="M324 341q0 18 -1 28t-4 25t-12 22.5t-23 7.5q-35 0 -71 -61t-57.5 -139.5t-21.5 -135.5q0 -24 11 -44t33 -20q37 0 73 68t54.5 141t18.5 108zM573 382q0 36 -27 36q-20 0 -39.5 -17t-33.5 -40.5t-24.5 -48.5t-16 -41.5t-5.5 -18.5q0 -5 7 -5q39 0 89 39.5t50 95.5z
M313 56q-35 -68 -130 -68q-23 0 -46 7t-49.5 24.5t-43 56.5t-16.5 95q0 104 69 196.5t169 92.5q98 0 135 -86q63 80 168 80q38 0 71.5 -18t33.5 -61q0 -35 -27 -65.5t-69 -49.5t-82.5 -31t-78.5 -18q-11 -20 -11 -55q0 -39 18.5 -67.5t55.5 -28.5q29 0 56.5 18.5t44 37
t20.5 18.5q7 0 12 -5.5t5 -10.5q0 -2 -9 -15t-26.5 -32.5t-39.5 -38t-53.5 -31.5t-62.5 -13q-89 0 -114 68z" />
    <glyph glyph-name="Scaron" unicode="&#x160;" horiz-adv-x="593" 
d="M403 160q0 41 -28 76t-67.5 62t-79 55t-67.5 68t-28 88q0 88 69 151t181 63q44 0 116 -27q41 -18 55 -18q16 0 26 5q3 1 10 7.5t12 7.5q9 0 9 -17q0 -9 -7 -79t-7 -87q0 -12 -15 -12q-2 0 -6 1.5t-9 7t-7 14.5q-18 68 -57 112.5t-99 44.5q-61 0 -103 -33t-42 -88
q0 -35 28.5 -69t69.5 -63t82 -60.5t69.5 -75t28.5 -93.5q0 -89 -71 -151t-200 -62q-51 0 -91 13t-65 25.5t-39 12.5q-9 0 -19.5 -10t-18.5 -10t-8 10q0 1 1.5 14t5 49.5t6.5 88.5q2 44 19 44q11 0 14.5 -3t5.5 -13q26 -94 66.5 -137.5t132.5 -43.5q50 0 88.5 38.5t38.5 93.5
zM337 812l-87 174h51l88 -95l137 95h51l-159 -174h-81z" />
    <glyph glyph-name="scaron" unicode="&#x161;" horiz-adv-x="352" 
d="M25 101q14 0 26.5 -12t20.5 -26.5t21.5 -26.5t28.5 -12q5 0 15 3.5t22 16.5t12 34q0 24 -53 118q-53 98 -53 127q0 46 47 88.5t136 42.5q38 0 78.5 -16.5t40.5 -49.5q0 -21 -14.5 -37t-35.5 -16q-29 0 -53 42q-10 15 -14 20.5t-13.5 13t-20.5 7.5q-18 0 -31.5 -13
t-13.5 -30q0 -7 2.5 -15t5.5 -15t9 -19t10 -18.5t13 -21t13 -20.5q53 -84 53 -135q0 -60 -60.5 -101.5t-133.5 -41.5q-105 0 -105 62q0 21 13.5 36t33.5 15zM196 559l-87 174h51l88 -95l137 95h51l-159 -174h-81z" />
    <glyph glyph-name="Ydieresis" unicode="&#x178;" horiz-adv-x="630" 
d="M367 363l206 237q18 20 18 36q0 20 -13 26.5t-50 10.5q-26 3 -26 11q0 29 13 29q7 0 59.5 -2t64.5 -2t68 2t66 2q5 0 5 -5q0 -7 -3.5 -21t-8.5 -14q-42 0 -70 -16.5t-79 -72.5l-233 -256q-9 -9 -22 -56q-51 -191 -51 -198q0 -22 13.5 -29t55.5 -7q27 0 27 -9
q0 -31 -13 -31q-26 0 -79 1t-80 1t-83 -1t-83 -1q-6 0 -6 6q0 34 22 34q49 1 64.5 9t22.5 37q3 12 20 71.5t32.5 113t15.5 56.5q0 7 -62 277q-10 45 -18 56q-10 14 -62 15q-18 0 -18 10q0 30 11 30q4 0 63.5 -2t73.5 -2q19 0 89.5 2t77.5 2q5 0 5 -6q0 -22 -6.5 -28
t-33.5 -6q-49 0 -49 -21q0 -17 13.5 -85t27.5 -134t15 -70zM494 887q0 26 19.5 45.5t45.5 19.5t45 -19.5t19 -45.5t-19 -45t-45 -19t-45.5 19t-19.5 45zM281 887q0 26 19.5 45.5t45.5 19.5t45 -19.5t19 -45.5t-19 -45t-45 -19t-45.5 19t-19.5 45z" />
    <glyph glyph-name="Zcaron" unicode="&#x17d;" horiz-adv-x="685" 
d="M27 44l509 625h-244q-18 0 -41 -7.5t-33 -21.5q-1 -1 -9 -13t-15.5 -22.5t-19 -25.5t-20.5 -25.5t-18 -18t-14 -7.5q-16 0 -16 9q0 17 24.5 89.5t25.5 82.5q1 6 5.5 11t8.5 5q1 0 12.5 -6t25.5 -6q69 0 169 -2t113 -2q15 0 109 2t103 2q17 0 17 -9q0 -16 -63 -93
l-465 -568h297q44 0 78 51q46 68 59 83.5t23 15.5q19 0 19 -11q0 -7 -8.5 -41.5t-19 -76t-13.5 -54.5q-3 -12 -16 -12h-3h-6.5t-11 0.5t-19.5 0.5h-30t-44 0.5t-59.5 0.5h-78.5h-99h-67.5h-54t-41 -0.5t-30 -0.5h-20.5t-14 -0.5t-8 -0.5h-4h-2q-15 0 -15 8q0 7 24 38z
M373 812l-87 174h51l88 -95l137 95h51l-159 -174h-81z" />
    <glyph glyph-name="zcaron" unicode="&#x17e;" horiz-adv-x="500" 
d="M423 375l-274 -257q51 0 133 -32t98 -32q11 0 20.5 9t9.5 19q0 8 -7.5 14t-16 10.5t-16 15t-7.5 26.5q0 21 17 34.5t38 13.5q26 0 39 -19.5t13 -46.5q0 -57 -56 -99.5t-122 -42.5q-38 0 -105 20q-101 29 -115 29q-12 0 -16.5 -4t-4.5 -15q0 -30 -30 -30q-8 0 -16 7t-8 16
q0 15 28 42l292 273v2q-34 0 -104 30t-88 30q-8 0 -18 -5.5t-10 -13.5q0 -13 20 -27t20 -31q0 -18 -13.5 -30.5t-31.5 -12.5q-21 0 -38 13t-17 33q0 58 54.5 99t110.5 41q44 0 112.5 -25t75.5 -25q12 0 30 22.5t30 22.5q28 0 28 -16q0 -5 -7.5 -13t-23.5 -22.5t-24 -22.5z
M240 559l-87 174h51l88 -95l137 95h51l-159 -174h-81z" />
    <glyph glyph-name="florin" unicode="&#x192;" 
d="M199 356h-88q-8 0 -10.5 2t-2.5 11q0 6 4.5 17.5t8.5 11.5q27 0 47 1.5t36.5 3.5t24.5 3t15.5 11.5t11 22.5t7 25t3.5 14q75 234 293 234q39 0 73 -15.5t34 -53.5q0 -23 -17.5 -38.5t-41.5 -15.5q-23 0 -37.5 13t-20 28.5t-15.5 28.5t-24 13q-75 0 -132 -238
q-1 -7 -2 -10q-3 -18 -3 -19q0 -5 9 -5h120q9 0 9 -6q0 -39 -23 -39h-115q-10 0 -14 -6.5t-11 -33.5l-84 -316q-17 -63 -43.5 -111t-54.5 -76t-60.5 -45.5t-58.5 -23.5t-51 -6q-96 0 -96 62q0 21 16.5 36.5t37.5 15.5q22 0 49.5 -32.5t45.5 -32.5q24 0 37.5 24t34.5 109
q108 420 108 426q0 10 -20 10z" />
    <glyph glyph-name="circumflex" unicode="&#x2c6;" horiz-adv-x="278" 
d="M282 733l87 -174h-51l-88 95l-137 -95h-51l159 174h81z" />
    <glyph glyph-name="caron" unicode="&#x2c7;" horiz-adv-x="278" 
d="M169 559l-87 174h51l88 -95l137 95h51l-159 -174h-81z" />
    <glyph glyph-name="uni02C9" unicode="&#x2c9;" horiz-adv-x="278" 
d="M360 596h-288l16 70h288z" />
    <glyph glyph-name="breve" unicode="&#x2d8;" horiz-adv-x="278" 
d="M83 721h43q4 -90 105 -90q94 0 129 90h39q-12 -79 -60.5 -120.5t-127.5 -41.5q-70 0 -99 41.5t-29 120.5z" />
    <glyph glyph-name="dotaccent" unicode="&#x2d9;" horiz-adv-x="278" 
d="M159 634q0 26 19.5 45.5t45.5 19.5t45 -19.5t19 -45.5t-19 -45t-45 -19t-45.5 19t-19.5 45z" />
    <glyph glyph-name="ring" unicode="&#x2da;" horiz-adv-x="278" 
d="M254 518q-45 0 -76.5 35t-31.5 81q0 45 34 75.5t80 30.5q43 0 75 -34t32 -78q0 -46 -33.5 -78t-79.5 -32zM260 564q23 0 42 18.5t19 41.5q0 30 -19 50t-49 20q-24 0 -42.5 -20t-18.5 -44q0 -28 20 -47t48 -19z" />
    <glyph glyph-name="ogonek" unicode="&#x2db;" horiz-adv-x="278" 
d="M119 0h60q-75 -41 -75 -104q0 -41 39 -41q29 0 73 44v-51q-56 -43 -113 -43q-38 0 -61 22.5t-23 54.5t25.5 64t74.5 54z" />
    <glyph glyph-name="tilde" unicode="&#x2dc;" horiz-adv-x="278" 
d="M375 689h40q-10 -51 -40 -81q-33 -36 -83 -36q-25 0 -75 21q-46 21 -75 21q-14 0 -29 -13t-19 -29h-40q11 49 42 81q34 36 81 36q26 0 79 -21q59 -21 70 -21q31 0 49 42z" />
    <glyph glyph-name="hungarumlaut" unicode="&#x2dd;" horiz-adv-x="278" 
d="M143 559h-43q12 12 58.5 62.5t82.5 84.5t50 34q17 0 30.5 -13t13.5 -26q0 -11 -11 -24t-54.5 -42t-126.5 -76zM316 559h-43q12 12 58.5 62.5t82.5 84.5t50 34q17 0 30.5 -13t13.5 -26q0 -11 -11 -24t-54.5 -42t-126.5 -76z" />
    <glyph glyph-name="uni03A9" unicode="&#x3a9;" horiz-adv-x="728" 
d="M674 151l-66 -151h-241l-2 20q6 8 42 54.5t53.5 71t46.5 68.5t47 84t29 79q29 103 18 166t-41.5 89.5t-80.5 26.5q-81 0 -147 -67.5t-106 -218.5q-34 -126 21 -336q3 -12 4 -17l-14 -20h-239l16 151l28 1q3 -46 14.5 -60t43.5 -14h100q-17 18 -27.5 31.5t-27 36t-25 46
t-15.5 52.5t-5 64t12 72q38 141 144.5 226.5t234.5 85.5q129 0 188 -82t22 -222q-11 -40 -33 -79.5t-45.5 -69t-58 -62t-59.5 -52.5t-61 -47h108q31 0 48 13t46 61z" />
    <glyph glyph-name="uni03BC" unicode="&#x3bc;" 
d="M432 454h104q7 0 7 -4t-64 -187.5t-64 -194.5q0 -13 10 -13q19 0 44 25.5t42.5 51t19.5 25.5q6 0 12 -3.5t6 -7.5t-8.5 -19.5t-27 -38t-43 -43.5t-60.5 -36t-75 -15q-17 0 -24.5 0.5t-14 4.5t-6.5 13q0 8 51 161q12 36 12 38q0 7 -3 7t-26.5 -36t-53 -79t-70 -79
t-73.5 -36q-29 0 -43 16q-5 -14 -5 -62q0 -26 5 -61t5 -55q0 -43 -22 -43q-19 0 -56.5 26t-37.5 51q0 49 92 295t92 253q0 12 -10 12q-24 0 -63 -42.5t-50 -86.5q-2 -8 -12 -8q-15 0 -15 12q0 9 4 25.5t18 41.5t35 46t61.5 36.5t91.5 15.5h44q33 0 33 -16
q0 -14 -69.5 -182.5t-69.5 -183.5q0 -23 19 -23q8 0 19.5 7.5t25 22.5t25 29t26 35.5t22 33t19.5 30.5l12 19q18 27 41.5 80t39 92.5t16.5 44.5t12 5z" />
    <glyph glyph-name="pi" unicode="&#x3c0;" horiz-adv-x="569" 
d="M583 471l24 -8q-28 -64 -63 -99q-21 -5 -67 -5q-23 -65 -63 -218q-24 -89 18 -89q22 0 55 27l7 -23q-27 -32 -62 -50t-65 -18q-44 0 -59.5 26.5t1.5 103.5q26 100 75 244q-29 0 -78 1t-67 1l-4 -16q-28 -103 -64 -184.5t-57 -113t-36 -45.5q-45 -16 -68 -17l-2 18
q66 64 115.5 166t73.5 193q-43 1 -70 -8.5t-68 -33.5l-9 25q2 2 15.5 14.5t18.5 16.5t19 15t22.5 15.5t24 12.5t29 11.5t32 6t37.5 2.5q8 0 109.5 -2t157.5 -2q24 0 37.5 6.5t30.5 26.5z" />
    <glyph glyph-name="uni2010" unicode="&#x2010;" horiz-adv-x="426" 
d="M80 280h284q18 0 18 -10q0 -6 -8 -32t-10 -38q-1 -9 -18 -9h-284q-18 0 -18 10q0 6 8 32t10 38q1 9 18 9z" />
    <glyph glyph-name="endash" unicode="&#x2013;" horiz-adv-x="500" 
d="M10 197v78h500v-78h-500z" />
    <glyph glyph-name="emdash" unicode="&#x2014;" horiz-adv-x="1000" 
d="M10 197v78h1000v-78h-1000z" />
    <glyph glyph-name="quoteleft" unicode="&#x2018;" horiz-adv-x="278" 
d="M212 387q-49 0 -74 34.5t-25 85.5q0 45 26 88t60 69.5t61.5 42.5t35.5 16q3 0 7.5 -7.5t4.5 -11.5q0 -3 -28.5 -23t-57 -52t-28.5 -65q0 -23 14 -34.5t31.5 -14.5t31.5 -17.5t14 -41.5q0 -28 -22.5 -48.5t-50.5 -20.5z" />
    <glyph glyph-name="quoteright" unicode="&#x2019;" horiz-adv-x="278" 
d="M209 713q49 0 74 -34.5t25 -85.5q0 -45 -26 -88t-60 -69.5t-61.5 -42.5t-35.5 -16q-3 0 -7.5 7.5t-4.5 11.5q0 3 28.5 23t57 52t28.5 65q0 23 -14 34.5t-31.5 14.5t-31.5 17.5t-14 41.5q0 28 22.5 48.5t50.5 20.5z" />
    <glyph glyph-name="quotesinglbase" unicode="&#x201a;" horiz-adv-x="278" 
d="M88 144q49 0 74 -34.5t25 -85.5q0 -45 -26 -88t-60 -69.5t-61.5 -42.5t-35.5 -16q-3 0 -7.5 7.5t-4.5 11.5q0 3 28.5 23t57 52t28.5 65q0 23 -14 34.5t-31.5 14.5t-31.5 17.5t-14 41.5q0 28 22.5 48.5t50.5 20.5z" />
    <glyph glyph-name="quotedblleft" unicode="&#x201c;" horiz-adv-x="500" 
d="M212 387q-49 0 -74 34.5t-25 85.5q0 45 26 88t60 69.5t61.5 42.5t35.5 16q3 0 7.5 -7.5t4.5 -11.5q0 -3 -28.5 -23t-57 -52t-28.5 -65q0 -23 14 -34.5t31.5 -14.5t31.5 -17.5t14 -41.5q0 -28 -22.5 -48.5t-50.5 -20.5zM434 387q-49 0 -74 34.5t-25 85.5q0 45 26 88
t60 69.5t61.5 42.5t35.5 16q3 0 7.5 -7.5t4.5 -11.5q0 -3 -28.5 -23t-57 -52t-28.5 -65q0 -23 14 -34.5t31.5 -14.5t31.5 -17.5t14 -41.5q0 -28 -22.5 -48.5t-50.5 -20.5z" />
    <glyph glyph-name="quotedblright" unicode="&#x201d;" horiz-adv-x="500" 
d="M431 713q49 0 74 -34.5t25 -85.5q0 -45 -26 -88t-60 -69.5t-61.5 -42.5t-35.5 -16q-3 0 -7.5 7.5t-4.5 11.5q0 3 28.5 23t57 52t28.5 65q0 23 -14 34.5t-31.5 14.5t-31.5 17.5t-14 41.5q0 28 22.5 48.5t50.5 20.5zM209 713q49 0 74 -34.5t25 -85.5q0 -45 -26 -88
t-60 -69.5t-61.5 -42.5t-35.5 -16q-3 0 -7.5 7.5t-4.5 11.5q0 3 28.5 23t57 52t28.5 65q0 23 -14 34.5t-31.5 14.5t-31.5 17.5t-14 41.5q0 28 22.5 48.5t50.5 20.5z" />
    <glyph glyph-name="quotedblbase" unicode="&#x201e;" horiz-adv-x="500" 
d="M310 144q49 0 74 -34.5t25 -85.5q0 -45 -26 -88t-60 -69.5t-61.5 -42.5t-35.5 -16q-3 0 -7.5 7.5t-4.5 11.5q0 3 28.5 23t57 52t28.5 65q0 23 -14 34.5t-31.5 14.5t-31.5 17.5t-14 41.5q0 28 22.5 48.5t50.5 20.5zM88 144q49 0 74 -34.5t25 -85.5q0 -45 -26 -88
t-60 -69.5t-61.5 -42.5t-35.5 -16q-3 0 -7.5 7.5t-4.5 11.5q0 3 28.5 23t57 52t28.5 65q0 23 -14 34.5t-31.5 14.5t-31.5 17.5t-14 41.5q0 28 22.5 48.5t50.5 20.5z" />
    <glyph glyph-name="dagger" unicode="&#x2020;" 
d="M279 422q-15 -2 -69 -16.5t-71 -14.5q-24 0 -37 15.5t-13 40.5q0 23 17.5 35t41.5 12q13 0 39.5 -6.5t59 -16t40.5 -11.5q3 13 7 47.5t9.5 66.5t14.5 65.5t26 53.5t41 20q25 0 37.5 -16t12.5 -42q0 -17 -7 -46.5t-13.5 -49.5t-20 -57t-15.5 -42q18 2 72 18t73 16
q23 0 38 -15.5t15 -38.5t-17.5 -36t-41.5 -13q-20 0 -74.5 15t-76.5 16q-25 -104 -62.5 -236.5t-63 -220t-27.5 -96.5q-2 -12 -29 -14q-25 0 -27 8q2 19 17.5 102.5t45 218.5t58.5 238z" />
    <glyph glyph-name="daggerdbl" unicode="&#x2021;" 
d="M294 473q15 105 29 157t28 67.5t37 15.5q20 0 33 -12t13 -31q0 -24 -9.5 -59t-24 -78t-19.5 -60q27 4 78 16.5t68 12.5q24 0 37 -14t13 -36t-17 -35t-39 -13q-25 0 -77 16t-75 17q-4 -13 -28 -72.5t-29 -82.5q-4 -19 -9 -70.5t-8 -71.5q23 2 72.5 16.5t76.5 14.5
q21 0 35 -12.5t14 -32.5q0 -31 -17.5 -42t-50.5 -11q-16 0 -66.5 14t-69.5 17q-1 -5 -16.5 -92t-28.5 -119q-17 -38 -54 -38q-20 0 -33 12t-13 32q0 24 10.5 61.5t26.5 81t21 62.5q-18 -2 -75 -15.5t-67 -13.5q-52 0 -52 50q0 20 16 34t37 14q26 0 77 -16t75 -17
q7 18 21 52.5t24 61t13 41.5q3 14 8.5 66.5t8.5 75.5q-21 2 -78 -14.5t-70 -16.5q-22 0 -34 15.5t-12 37.5q0 18 14.5 31.5t34.5 13.5q26 0 78 -15t73 -16z" />
    <glyph glyph-name="bullet" unicode="&#x2022;" 
d="M303 173q-75 0 -128 52.5t-53 128.5t53 128.5t128 52.5t128 -52.5t53 -128.5t-53 -128.5t-128 -52.5z" />
    <glyph glyph-name="ellipsis" unicode="&#x2026;" horiz-adv-x="1000" 
d="M35 67q0 31 21.5 52.5t52.5 21.5t52.5 -21.5t21.5 -52.5t-21.5 -52.5t-52.5 -21.5t-52.5 21.5t-21.5 52.5zM368 67q0 31 21.5 52.5t52.5 21.5t52.5 -21.5t21.5 -52.5t-21.5 -52.5t-52.5 -21.5t-52.5 21.5t-21.5 52.5zM701 67q0 31 21.5 52.5t52.5 21.5t52.5 -21.5
t21.5 -52.5t-21.5 -52.5t-52.5 -21.5t-52.5 21.5t-21.5 52.5z" />
    <glyph glyph-name="perthousand" unicode="&#x2030;" horiz-adv-x="1167" 
d="M287 667q-29 0 -51 -21.5t-33.5 -54t-16.5 -63.5t-5 -58q0 -29 15 -51t43 -22q36 0 60.5 38t32.5 78.5t8 76.5q0 30 -12.5 53.5t-40.5 23.5zM236 365q-64 0 -106 43t-42 107q0 78 58.5 131t136.5 53q64 0 107 -40t43 -104q0 -81 -57.5 -135.5t-139.5 -54.5zM650 699
l-403 -710h-59l403 710h59zM942 -9q-64 0 -106 43t-42 107q0 78 58.5 131t136.5 53q64 0 107 -40t43 -104q0 -81 -57.5 -135.5t-139.5 -54.5zM993 293q-29 0 -51 -21.5t-33.5 -54t-16.5 -63.5t-5 -58q0 -29 15 -51t43 -22q36 0 60.5 38t32.5 78.5t8 76.5q0 30 -12.5 53.5
t-40.5 23.5zM555 -9q-64 0 -106 43t-42 107q0 78 58.5 131t136.5 53q64 0 107 -40t43 -104q0 -81 -57.5 -135.5t-139.5 -54.5zM606 293q-29 0 -51 -21.5t-33.5 -54t-16.5 -63.5t-5 -58q0 -29 15 -51t43 -22q36 0 60.5 38t32.5 78.5t8 76.5q0 30 -12.5 53.5t-40.5 23.5z" />
    <glyph glyph-name="guilsinglleft" unicode="&#x2039;" horiz-adv-x="333" 
d="M156 231q4 -8 28.5 -47.5t45.5 -75.5t21 -43q0 -5 -7 -10.5t-11 -5.5q-3 0 -13 9.5t-45 42t-81 72.5q-6 5 -14 11.5t-12.5 10.5t-10.5 9t-10 8.5l-8 7t-6 6l-4 5t-3 4.5t-1 4q0 4 18.5 14t88.5 52t161 103q24 16 28 16t10 -7t6 -12q0 -8 -80.5 -84t-100.5 -90z" />
    <glyph glyph-name="guilsinglright" unicode="&#x203a;" horiz-adv-x="333" 
d="M181 242q-4 8 -28.5 47.5t-45.5 75.5t-21 43q0 5 7 10.5t11 5.5q3 0 13 -9.5t45 -42t81 -72.5q6 -5 14 -11.5t12.5 -10.5t10.5 -9t10 -8.5l8 -7t6 -6l4 -5t3 -4.5t1 -4q0 -4 -18.5 -14t-88.5 -52t-161 -103q-24 -16 -28 -16t-10 7t-6 12q0 8 80.5 84t100.5 90z" />
    <glyph glyph-name="fraction" unicode="&#x2044;" horiz-adv-x="167" 
d="M326 699l-403 -710h-59l403 710h59z" />
    <glyph glyph-name="Euro" unicode="&#x20ac;" 
d="M439 713q39 0 72 -11.5t54.5 -22.5t31.5 -11q1 0 14 7t14 7q7 0 7 -10q0 -6 -3 -18.5t-11 -54t-18 -99.5q-1 -12 -14 -12q-15 0 -18 26q-3 29 -6.5 47.5t-11 42t-18 37t-29.5 23t-44 9.5q-77 0 -133 -76.5t-86 -190.5l2 6h258l-18 -45h-252q-8 -39 -11 -67h234l-18 -45
h-220q-1 -12 -1 -33q0 -92 35 -145t103 -53q63 0 143 49q2 2 6 2q5 0 9.5 -4.5t4.5 -11.5v-3q0 -4 -4 -8q-76 -63 -188 -63t-171 69t-59 192v9h-58l18 45h43q3 29 11 67h-61l18 45h55q18 59 45 110t65.5 95.5t92.5 70t117 25.5z" />
    <glyph glyph-name="afii61289" unicode="&#x2113;" horiz-adv-x="420" 
d="M358 129l16 -19q-94 -117 -205 -117q-72 0 -94 39q-13 23 -13 53.5t16 91.5l21 76l-70 -42l-6 27l86 54l35 131q31 116 55.5 168t66.5 90q56 53 110 53q46 0 61 -39.5t-2 -94.5q-22 -82 -77.5 -149.5t-146.5 -138.5l-23 -87q-25 -97 -14.5 -133t55.5 -36q58 0 129 73z
M256 480l-32 -119q118 106 153 237q27 103 -16 103q-27 0 -49 -47t-56 -174z" />
    <glyph glyph-name="trademark" unicode="&#x2122;" horiz-adv-x="1000" 
d="M207 362v310h-38q-41 0 -57.5 -14.5t-16.5 -54.5h-35v106h390v-106h-35q0 40 -16.5 54.5t-57.5 14.5h-44v-310q2 -38 10 -44t53 -6v-31h-216v31q45 0 53.5 6t9.5 44zM486 681v28h147l111 -276l107 276h149v-28h-19q-22 0 -26.5 -9.5t-4.5 -50.5v-259q0 -33 7.5 -40.5
t42.5 -9.5v-31h-191v31q35 1 43 8.5t8 40.5v267h-2l-128 -347h-22l-136 347h-2v-285q0 -20 12.5 -25.5t36.5 -5.5v-31h-142v31q16 0 24.5 1.5t17 8.5t9.5 21v278q0 39 -4 49.5t-23 10.5h-15z" />
    <glyph glyph-name="Omega" unicode="&#x2126;" horiz-adv-x="728" 
d="M674 151l-66 -151h-241l-2 20q6 8 42 54.5t53.5 71t46.5 68.5t47 84t29 79q29 103 18 166t-41.5 89.5t-80.5 26.5q-81 0 -147 -67.5t-106 -218.5q-34 -126 21 -336q3 -12 4 -17l-14 -20h-239l16 151l28 1q3 -46 14.5 -60t43.5 -14h100q-17 18 -27.5 31.5t-27 36t-25 46
t-15.5 52.5t-5 64t12 72q38 141 144.5 226.5t234.5 85.5q129 0 188 -82t22 -222q-11 -40 -33 -79.5t-45.5 -69t-58 -62t-59.5 -52.5t-61 -47h108q31 0 48 13t46 61z" />
    <glyph glyph-name="estimated" unicode="&#x212e;" horiz-adv-x="979" 
d="M946 335h-636q-5 0 -5 -5v-192q0 -12 8 -22q102 -105 240 -105q152 0 254 118h56q-53 -63 -135 -100t-176 -37q-162 0 -277 103t-115 249q0 147 115 250t277 103q164 0 279 -103t115 -250v-9zM801 360v193q0 14 -9 23q-103 101 -239 101q-137 0 -239 -104q-9 -9 -9 -24
v-189q0 -7 5 -7h487q4 0 4 7z" />
    <glyph glyph-name="partialdiff" unicode="&#x2202;" horiz-adv-x="536" 
d="M320 431h1q36 0 67 -16.5t44 -48.5q23 58 39 107q27 88 16 154q-7 35 -33.5 60t-68.5 25q-69 0 -155 -60q-13 -1 -19.5 25.5t4.5 45.5q78 41 153 41q137 0 174 -142q25 -96 -11 -231q-40 -148 -115 -247q-112 -151 -250 -151q-84 0 -120.5 53.5t-11.5 144.5
q26 97 104 167q83 73 182 73zM333 389h-1q-63 0 -117 -57q-64 -73 -95 -191q-14 -51 0.5 -83.5t55.5 -32.5q60 0 136 105q51 72 100 192q-5 23 -26 45t-53 22z" />
    <glyph glyph-name="Delta" unicode="&#x2206;" horiz-adv-x="639" 
d="M544 0h-568l7 29l432 651l48 12l89 -663zM433 52l-62 496l-323 -496h385z" />
    <glyph glyph-name="product" unicode="&#x220f;" horiz-adv-x="818" 
d="M791 686v-28q-63 -5 -77 -17.5t-14 -60.5v-549q0 -54 14 -68t75 -19v-29h-271v29q57 5 69 17.5t12 68.5v586q0 22 -6.5 28t-30.5 6h-185q-22 0 -27.5 -5t-5.5 -25v-590q0 -55 10 -68t63 -18v-29h-264v29q61 4 75 18t14 68v550q0 48 -14 60.5t-78 17.5v28h641z" />
    <glyph glyph-name="summation" unicode="&#x2211;" horiz-adv-x="679" 
d="M657 108l-45 -198h-460v27l220 332l-216 390v27h457q1 -20 12 -166l-30 -6q-13 66 -34 103q-11 20 -31 27t-74 7h-175l179 -314l-222 -339h248q67 0 88.5 17t53.5 101z" />
    <glyph glyph-name="minus" unicode="&#x2212;" 
d="M516 181h-446v96h446v-96z" />
    <glyph glyph-name="uni2215" unicode="&#x2215;" horiz-adv-x="167" 
d="M326 699l-403 -710h-59l403 710h59z" />
    <glyph glyph-name="uni2219" unicode="&#x2219;" horiz-adv-x="278" 
d="M72 229q0 31 21.5 52.5t52.5 21.5t52.5 -21.5t21.5 -52.5t-21.5 -52.5t-52.5 -21.5t-52.5 21.5t-21.5 52.5z" />
    <glyph glyph-name="radical" unicode="&#x221a;" horiz-adv-x="679" 
d="M665 870l-169 -1022l-23 -12l-214 541l-87 -41l-12 35l166 76l158 -417h2l137 849z" />
    <glyph glyph-name="infinity" unicode="&#x221e;" horiz-adv-x="807" 
d="M760 283v-1q0 -73 -45 -118t-107 -45q-86 0 -174 111q-46 -54 -86.5 -82.5t-93.5 -28.5q-61 0 -105.5 45t-44.5 114q0 70 45 115.5t113 45.5q88 0 175 -110q53 60 81 80q45 30 95 30q64 0 105.5 -43.5t41.5 -112.5zM262 179h1q26 0 54 17.5t41.5 32t41.5 46.5
q-27 36 -41.5 53t-42.5 34.5t-58 17.5q-42 0 -66.5 -29.5t-24.5 -74.5q0 -40 27 -68.5t68 -28.5zM607 380h-1q-14 0 -29 -5.5t-26 -12t-25 -19.5t-20.5 -20.5t-20.5 -23.5t-17 -19q47 -57 77 -79t65 -22q39 0 63.5 30.5t24.5 67.5q0 46 -25 74.5t-66 28.5z" />
    <glyph glyph-name="integral" unicode="&#x222b;" horiz-adv-x="510" 
d="M288 5l-20 401q-5 101 2.5 178t22.5 122.5t38 74.5t46.5 39t50.5 10q24 0 45 -13.5t21 -36.5t-14.5 -36t-34.5 -13q-12 0 -20 8t-12 18t-9.5 18t-12.5 8q-43 0 -36 -159l19 -373q6 -126 -5 -217.5t-35.5 -140.5t-55 -71t-68.5 -22q-28 0 -46.5 15t-18.5 36q-1 22 17 37.5
t40 15.5q16 0 28.5 -28.5t21.5 -28.5q44 0 36 158z" />
    <glyph glyph-name="approxequal" unicode="&#x2248;" horiz-adv-x="590" 
d="M510 433l41 -37q-51 -96 -130 -96q-44 0 -109 38q-51 33 -85 33q-20 0 -38 -11t-28.5 -24t-25.5 -35l-42 36q22 43 59.5 69.5t80.5 26.5q13 0 25 -2t25 -7.5t18.5 -7.5t20.5 -10l15 -9q22 -14 31.5 -19t24 -10t29.5 -5q26 0 46 17t42 53zM510 259l41 -37
q-51 -97 -130 -97q-43 0 -109 39q-53 33 -84 33q-21 0 -39.5 -11.5t-28 -24t-25.5 -35.5l-42 36q22 44 59.5 70.5t80.5 26.5q11 0 22.5 -2t19 -4t18.5 -7t15.5 -7.5t15 -8.5t12.5 -7q5 -3 16.5 -10t17.5 -10t15.5 -7.5t18 -6t17.5 -1.5q27 0 46.5 17t42.5 54z" />
    <glyph glyph-name="notequal" unicode="&#x2260;" horiz-adv-x="612" 
d="M467 494l-39 -87h137v-64h-162l-59 -133h221v-63h-246l-49 -111l-50 21l40 90h-134v63h159l59 133h-218v64h242l49 109z" />
    <glyph glyph-name="lessequal" unicode="&#x2264;" horiz-adv-x="634" 
d="M585 99l-432 216v69l432 215v-74l-367 -174v-2l367 -175v-75zM588 -2h-439v64h439v-64z" />
    <glyph glyph-name="greaterequal" unicode="&#x2265;" horiz-adv-x="634" 
d="M154 599l432 -216v-68l-432 -216v75l367 175v2l-367 174v74zM587 -2h-437v64h437v-64z" />
    <glyph glyph-name="lozenge" unicode="&#x25ca;" horiz-adv-x="686" 
d="M640 330l-195 -400h-76l-194 400l196 402h75zM567 330l-157 333h-3l-160 -332l160 -335h3z" />
    <glyph glyph-name="zero.taboldstyle" unicode="&#xf643;" 
d="M321 460q95 0 144.5 -52.5t49.5 -131.5q0 -107 -81.5 -194.5t-188.5 -87.5q-97 0 -145.5 52t-48.5 133q0 106 81.5 193.5t188.5 87.5zM335 424q-35 0 -60.5 -24.5t-47.5 -70.5q-58 -120 -58 -225q0 -36 18.5 -55t50.5 -19q35 0 66.5 37.5t51 89.5t30.5 101t11 77
q0 89 -62 89z" />
    <glyph glyph-name="one.taboldstyle" unicode="&#xf644;" 
d="M186 107l48 199q14 61 14 80q0 30 -76 30q-14 0 -14 15q0 8 4 16.5t11 8.5q19 0 69.5 -1t80.5 -1q37 0 94 1t61 1q15 0 15 -10q0 -30 -26 -30q-49 -1 -60 -10t-24 -59l-48 -199q-14 -61 -14 -78q0 -18 17 -25t59 -7q14 0 14 -15q0 -8 -4 -16.5t-11 -8.5q-19 0 -69.5 1
t-80.5 1q-38 0 -94 -1t-61 -1q-15 0 -15 10q0 30 26 30q49 0 60 9.5t24 59.5z" />
    <glyph glyph-name="two.taboldstyle" unicode="&#xf645;" 
d="M220 96h174q12 0 23 8.5t31 30.5q5 6 8 9q8 8 21 8q18 0 18 -11q0 -5 -35 -62t-43 -68q-9 -11 -22 -11h-332q-14 0 -17 6l-1 4l1 5q1 5 91 71q182 132 182 209q0 42 -23.5 60.5t-58.5 18.5q-45 0 -83 -28q-20 -15 -31 -15q-14 0 -14 18q0 12 23.5 37t72 49.5t102.5 24.5
q60 0 99 -26.5t39 -86.5q0 -49 -28 -85t-86 -79l-113 -85z" />
    <glyph glyph-name="three.taboldstyle" unicode="&#xf646;" 
d="M481 346q0 -36 -25.5 -71.5t-59.5 -58.5t-59 -36.5t-33 -15.5v-2q25 -8 48.5 -23.5t44.5 -50t21 -79.5q0 -43 -21 -80q-27 -47 -77 -83.5t-100 -55t-103.5 -30.5t-81.5 -15t-39 -3q-15 0 -15 25q0 7 102 35q80 22 139.5 69t59.5 118q0 47 -27 75t-73 28q-23 0 -54.5 -8.5
t-41.5 -8.5q-12 0 -12 25q0 7 27 15q250 80 250 186q0 37 -20.5 58t-56.5 21q-41 0 -82 -25q-10 -7 -21.5 -15t-19 -12.5t-10.5 -6.5h-6q-4 0 -10.5 7t-6.5 13q0 7 41 44q42 38 84 56.5t98 18.5q57 0 98.5 -29t41.5 -85z" />
    <glyph glyph-name="four.taboldstyle" unicode="&#xf647;" 
d="M274 97l69 239l-2 2q-74 -64 -137 -124.5t-92.5 -91.5t-29.5 -35q0 -5 11 -5h162q14 0 19 15zM181 -235l60 217q1 2 -0.5 3t-4.5 1h-236q-17 0 -21 5q-8 10 -8 25q0 10 7 17l86 93q122 131 316 293q32 27 46 34t35 7t27.5 -3t6.5 -14q0 -9 -17 -70l-58 -210
q-5 -19 -11 -37.5t-8.5 -27t-2.5 -10.5q0 -6 10 -6h104q11 0 11 -10q0 -5 -8 -26l-18 -54q-1 -6 -17 -6h-109q-5 0 -9 -8l-63 -228q-3 -8 -14 -8h-98q-10 0 -10 6q0 3 2 9t2 8z" />
    <glyph glyph-name="five.taboldstyle" unicode="&#xf648;" 
d="M108 225l75 177q16 38 23 48t19 10q3 0 102.5 -12.5t119.5 -12.5q17 0 29.5 10.5t20.5 21.5t14 11t13 -3.5t7 -8.5q0 -6 -29 -56.5t-36 -59.5q-17 -21 -33 -21q-25 0 -117 12.5t-98 12.5q-14 0 -22 -10t-9.5 -18.5t-1.5 -16.5q0 -17 15 -30l132 -110q64 -53 64 -142
q0 -50 -17.5 -89t-60.5 -79q-40 -33 -109 -62t-117 -42t-59 -13t-14 6q-7 10 -7 21l2 3q3 3 37 12q41 9 86 30q129 70 129 180q0 34 -23 69t-58 60l-46 34q-35 25 -38 31q-1 3 -1 6q0 11 8 31z" />
    <glyph glyph-name="six.taboldstyle" unicode="&#xf649;" 
d="M186 113q0 -18 4 -35t18.5 -32.5t38.5 -15.5q33 0 59.5 25.5t40.5 64.5t21.5 78.5t7.5 73.5q0 116 -97 116q-15 0 -26 -17q-30 -48 -48.5 -122.5t-18.5 -135.5zM68 189q0 70 32.5 155t100.5 160q47 49 100.5 87t96 58t82 32.5t59 16t25.5 3.5q7 0 11.5 -9t4.5 -16
q0 -4 -48 -20q-152 -51 -258 -232v-4q34 4 55 4q28 0 56.5 -10t55.5 -30t44 -56t17 -82q0 -44 -15 -87t-44 -80.5t-80 -61t-116 -23.5q-179 0 -179 195z" />
    <glyph glyph-name="seven.taboldstyle" unicode="&#xf64a;" 
d="M182 454h361q8 0 8 -13q0 -7 -54 -113t-120 -232.5t-80 -156.5q-17 -37 -17 -56q0 -16 20 -38.5t20 -43.5q0 -25 -17 -42t-46 -17q-33 0 -48 18.5t-15 44.5q0 31 18 65l226 437q12 26 12 31q0 10 -17 10h-255q-10 0 -22 -12l-61 -70q-11 -12 -24 -12q-17 0 -17 9
q0 4 2 10.5t5.5 15t11.5 29.5t17 48q26 77 33 93q7 13 16 13q2 0 13 -7q12 -11 30 -11z" />
    <glyph glyph-name="eight.taboldstyle" unicode="&#xf64b;" 
d="M219 321l32 19l-30 42q-49 70 -49 132q0 60 36 104.5t83.5 63.5t96.5 19q71 0 117.5 -36t46.5 -94q0 -95 -129 -176l-38 -23l28 -39q52 -70 52 -128q0 -90 -70 -150.5t-169 -60.5q-65 0 -111.5 34.5t-46.5 102.5q0 55 36.5 99t114.5 91zM328 454l37 -54l33 27
q70 57 70 149q0 34 -19 61.5t-62 27.5q-39 0 -68 -30.5t-29 -76.5q0 -49 38 -104zM296 275l-24 36l-27 -22q-36 -28 -61.5 -71.5t-25.5 -90.5q0 -97 82 -97q43 0 71 34.5t28 88.5q0 56 -43 122z" />
    <glyph glyph-name="nine.taboldstyle" unicode="&#xf64c;" 
d="M57 196q0 27 5.5 57t23 68.5t44.5 68t75 50t109 20.5q82 0 131 -49.5t49 -151.5q0 -83 -36.5 -167.5t-97.5 -148.5q-45 -47 -97.5 -85t-95 -58.5t-81.5 -34.5t-59 -18.5t-26 -4.5q-7 0 -10 5q-10 12 -10 19q0 6 3 11q4 4 28 11q115 33 188 99.5t102 142.5q-34 -6 -71 -6
q-70 0 -122 45.5t-52 126.5zM183 181q0 -121 87 -121q28 0 46 10q24 13 42 90t18 144q0 120 -67 120q-40 0 -69.5 -38.5t-43 -92.5t-13.5 -112z" />
    <glyph glyph-name="one.fitted" unicode="&#xf6dc;" horiz-adv-x="400" 
d="M255 126q-10 -42 -10 -60q0 -10 2.5 -14.5t18 -9t46.5 -4.5q24 0 24 -9q0 -11 -3.5 -21t-9.5 -10q-9 0 -73 1.5t-74 1.5q-18 0 -84 -1.5t-73 -1.5q-9 0 -9 5q0 19 9.5 27t38.5 8q13 0 21 1.5t20 13.5t18 35q111 434 111 460q0 24 -10 30t-64 8q-17 1 -21 3t-4 9
q0 21 10 24q107 19 216 73q7 4 21 4q19 0 19 -9q0 -5 -18 -76.5t-55.5 -221t-66.5 -266.5z" />
    <glyph glyph-name="fi" unicode="&#xfb01;" horiz-adv-x="611" 
d="M407 383h-144q-7 0 -9 -3.5t-5 -13.5l-77 -324q-41 -173 -111.5 -244t-170.5 -71q-83 0 -83 62q0 19 15.5 33.5t34.5 14.5q25 0 54.5 -31t42.5 -31q36 0 60 107q2 5 2 7q26 116 54 238t42.5 182.5t14.5 61.5q0 9 -2 10.5t-11 1.5h-84q-13 0 -13 10q0 7 3.5 17t9.5 10
q74 4 93.5 11.5t27.5 32.5q28 86 42.5 117.5t41.5 67.5q24 32 91.5 61.5t145.5 29.5q53 0 94.5 -21t41.5 -63q0 -19 -17.5 -31t-40.5 -12t-40.5 13.5t-26.5 30t-23 30t-30 13.5q-39 0 -84.5 -61t-63.5 -140q-1 -2 -5 -17.5t-7 -29t-3 -17.5q0 -7 15 -7h145q34 0 78 11
q3 1 28.5 8t26.5 7q9 0 9 -12q0 -10 -59.5 -182t-59.5 -184q0 -9 12 -9t38 21.5t47.5 43t22.5 21.5q20 0 20 -16q0 -7 -34 -42t-92.5 -71t-108.5 -36q-15 0 -27.5 7t-12.5 21q0 31 55.5 188t55.5 165q0 14 -19 14z" />
    <glyph glyph-name="fl" unicode="&#xfb02;" horiz-adv-x="611" 
d="M278 428h154q8 0 11 10l64 197q-24 5 -38.5 16.5t-19 22t-12 18.5t-19.5 8q-4 0 -9 -0.5t-17.5 -5.5t-23 -13t-23.5 -26.5t-23 -43.5q-55 -145 -55 -173q0 -10 11 -10zM405 383h-142q-7 0 -9 -3.5t-5 -13.5l-77 -324q-41 -173 -111.5 -244t-170.5 -71q-83 0 -83 62
q0 19 15.5 33.5t34.5 14.5q25 0 54.5 -31t42.5 -31q36 0 60 107q2 5 2 7q26 116 54 238t42.5 182.5t14.5 61.5q0 9 -2 10.5t-11 1.5h-84q-13 0 -13 10q0 7 3.5 17t9.5 10q74 4 93.5 11.5t27.5 32.5q28 86 42.5 117.5t41.5 67.5q23 31 83.5 61t111.5 30q61 0 96 -9
q31 -8 99 -8q22 0 22 -17q0 -13 -11 -47t-41 -124t-58 -178q-81 -250 -81 -257q0 -16 11 -16q16 0 39.5 22t43 44t25.5 22q4 0 10 -5.5t6 -9.5q0 -3 -13 -20.5t-36 -42.5t-51 -48.5t-63 -40.5t-66 -17q-20 0 -33 13t-13 33q0 19 26.5 101t53 157.5t26.5 77.5q0 13 -17 13z
" />
    <glyph glyph-name="one.superior" horiz-adv-x="333" 
d="M247 366q-7 -26 -7 -36q0 -5 1 -8t4.5 -5t10.5 -2q31 0 39.5 -4t8.5 -14q0 -11 -3.5 -14.5t-14.5 -3.5q-5 0 -49 1t-57 1q-12 0 -55 -1t-47 -1q-11 0 -11 13q0 10 14.5 16.5t36.5 6.5q20 0 24 18q67 261 67 276q0 5 -2 7t-13.5 3.5t-37.5 2.5q-11 0 -13.5 4t-2.5 13
q0 13 6 14q72 10 151 43q7 3 23 3q13 0 13 -5q0 -3 -12 -47t-34 -127t-40 -154z" />
    <glyph glyph-name="two.superior" horiz-adv-x="333" 
d="M158 353h111q18 0 39.5 22t23.5 22q19 0 19 -13q0 -9 -25.5 -56t-33.5 -47h-246q-9 0 -9 11t36 47t78.5 76t78.5 88t36 79q0 23 -18.5 39t-47.5 16q-26 0 -47 -10.5t-32.5 -21t-12.5 -10.5q-7 0 -13 6t-6 14q0 7 16 26t53.5 38.5t81.5 19.5q123 0 123 -103
q0 -32 -33.5 -75t-73 -75t-73 -58t-33.5 -29q0 -6 8 -6z" />
    <glyph glyph-name="three.superior" horiz-adv-x="333" 
d="M266 520q35 -10 56.5 -32.5t21.5 -49.5q0 -44 -27.5 -78.5t-71.5 -54t-92.5 -29t-97.5 -9.5q-5 0 -5 19q0 13 14 13q92 19 137 45.5t45 70.5q0 29 -21.5 45t-53.5 16q-17 0 -36 -4l-19 -4q-6 0 -6 20q0 8 24 15q40 11 69.5 23.5t44.5 23t24 21.5t11 17t2 11
q0 19 -16 30.5t-40 11.5q-15 0 -33 -9.5t-31 -18.5t-15 -9q-4 0 -9.5 5.5t-5.5 11.5q0 5 18.5 23.5t52.5 36.5t66 18q42 0 71.5 -16.5t29.5 -53.5q0 -19 -10 -36t-29.5 -31.5t-32.5 -22.5t-35 -19z" />
    <glyph glyph-name="a.superior" horiz-adv-x="311" 
d="M292 601q18 49 18 50q0 8 -6 14t-16 6q-45 0 -84 -71.5t-39 -105.5q0 -15 12 -15q24 0 64 46.5t51 75.5zM355 709h60q7 0 7 -8q0 -1 -44.5 -106.5t-44.5 -113.5q0 -7 6 -7q3 0 29.5 26t30.5 26t8.5 -5.5t4.5 -9.5t-20.5 -26t-54.5 -45t-61 -23q-35 0 -35 21q0 4 31 81
l-3 3q-1 0 -10 -11t-23.5 -26t-32 -30.5t-41.5 -26.5t-47 -11q-45 0 -45 35q0 39 28.5 96t80.5 104t106 47q33 0 49 -22q9 23 12 27.5t9 4.5z" />
    <glyph glyph-name="o.superior" horiz-adv-x="278" 
d="M378 593q0 -68 -46.5 -122t-124.5 -54q-15 0 -31 4t-35 14.5t-31.5 34t-12.5 56.5q0 63 46.5 118t117.5 55q51 0 84 -30.5t33 -75.5zM298 628q0 43 -27 43q-33 0 -63.5 -68.5t-30.5 -118.5q0 -39 27 -39q35 0 64.5 72t29.5 111z" />
    <glyph glyph-name="slash.frac" horiz-adv-x="167" 
d="M326 699l-403 -710h-59l403 710h59z" />
    </font>
</defs>
</svg>
