<?xml version="1.0" encoding="utf-8"?>
<!-- Generator: Adobe Illustrator 23.0.1, SVG Export Plug-In . SVG Version: 6.00 Build 0)  -->
<svg version="1.1" id="Layer_1" xmlns="http://www.w3.org/2000/svg" xmlns:xlink="http://www.w3.org/1999/xlink" x="0px" y="0px"
	 viewBox="0 0 39 39" style="enable-background:new 0 0 39 39;" xml:space="preserve">
<style type="text/css">
	.st0{fill:#FFFFFF;}
</style>
<g id="icon--logo">
	<path id="icon--wordmark" class="st0" d="M31.9,5.1c-2.7-1.8-5.1-2.6-8.5-3C23.1,0.9,22,0,20.7,0c-0.8,0-1.5,0.3-2,0.8
		c-0.5-0.5-1.2-0.8-2-0.8c-0.8,0-1.5,0.3-2,0.9h0C13.8,1.6,12,2.2,10,2.2S6.1,1.6,5.3,0.9h0C4.8,0.3,4,0,3.2,0
		C1.7,0,0.4,1.3,0.4,2.8c0,0.8,0.3,1.5,0.8,2h0C2,5.6,2.5,7.7,2.5,10.1c0,2.4-0.6,4.5-1.3,5.3v0c-0.5,0.5-0.8,1.2-0.8,2
		c0,0.8,0.3,1.5,0.8,2c-0.5,0.5-0.8,1.2-0.8,2c0,0.8,0.3,1.5,0.8,2v0c0.8,0.8,1.3,2.9,1.3,5.3c0,2.4-0.5,4.5-1.3,5.3h0
		c-0.5,0.5-0.8,1.2-0.8,2c0,1.6,1.3,2.8,2.8,2.8c0.8,0,1.5-0.3,2-0.9h0c0.8-0.8,2.6-1.3,4.7-1.3s3.8,0.5,4.7,1.3h0
		c0.5,0.5,1.2,0.9,2,0.9c0.8,0,1.5-0.3,2-0.8c0.5,0.5,1.2,0.8,2,0.8c1.3,0,2.5-1,2.8-2.2c4.1-0.8,7.6-2.8,9.7-4.8
		c3.4-3.2,5.3-7.8,5.3-13.2C38.5,14,36.5,8.2,31.9,5.1z M23,34.3c-0.5-0.8-1.4-1.2-2.4-1.2c-0.8,0-1.5,0.3-2,0.8
		c-0.5-0.5-1.2-0.8-2-0.8c-0.8,0-1.5,0.3-2,0.8H5.2V23.4c0.5-0.5,0.8-1.2,0.8-2c0-0.8-0.3-1.5-0.8-2c0.5-0.5,0.8-1.2,0.8-2
		s-0.3-1.5-0.8-2V4.8h9.5c0.5,0.5,1.2,0.8,2,0.8c0.8,0,1.5-0.3,2-0.8c0.5,0.5,1.2,0.8,2,0.8c1.1,0,2.1-0.7,2.5-1.6
		c1,0.3,2,0.8,2.9,1.3c2.6,1.6,6.2,5.7,6.4,13.5C32.8,26.7,28.8,32.1,23,34.3z M23.5,31.6c0.8-0.4,1.6-0.9,2.3-1.5H9V8.6h17.6
		c-0.5-0.5-1-0.9-1.6-1.3l0,0l0,0c-0.1-0.1-0.3-0.2-0.4-0.2H7.5v24.5L23.5,31.6L23.5,31.6z"/>
</g>
</svg>
