<?xml version="1.0" encoding="utf-8"?>
<!-- Generator: Adobe Illustrator 23.0.1, SVG Export Plug-In . SVG Version: 6.00 Build 0)  -->
<svg version="1.1"
  xmlns="http://www.w3.org/2000/svg"
  xmlns:xlink="http://www.w3.org/1999/xlink" x="0px" y="0px" width="131px" height="50px" viewBox="0 0 131 50" enable-background="new 0 0 131 50" xml:space="preserve">
  <g id="icon--logo">
    <g id="icon--secondary-text">
      <path fill="#FFFFFF" d="M35.44,44.05c-0.8,0-0.91,0-1.13,0.48c-1.15,2.52-1.51,3.57-1.51,3.96c0,0.3,0,0.82,1.43,0.82
			c1.65,0,1.76,0.09,1.76,0.32c0,0.27-0.06,0.37-0.33,0.37c-0.22,0-0.58-0.05-3.85-0.05c-1.68,0-1.95,0.05-2.17,0.05
			c-0.14,0-0.19-0.11-0.19-0.39c0-0.18,0.27-0.3,1.02-0.3c0.52,0,1.04-0.27,1.4-1.17c1.68-4.05,3.79-9,6.46-14.54
			c0.08-0.21,0.19-0.21,0.52-0.21c0.25,0,0.33,0,0.47,0.27c0.19,0.39,4.78,10.88,6.71,14.54c0.44,0.85,1.02,1.1,2.09,1.1
			c0.25,0,0.82,0.07,0.82,0.25c0,0.16-0.06,0.44-0.3,0.44c-0.27,0-0.49-0.05-3.82-0.05c-3.71,0-3.9,0.05-4.1,0.05
			c-0.11,0-0.14-0.18-0.14-0.41c0-0.23,0.6-0.27,1.15-0.27c1.1,0,1.46-0.11,1.46-0.5c0-0.55-1.65-3.8-2.09-4.76H35.44z M40.74,43.29
			l-2.91-6.71h-0.06c-0.19,0-2.8,6.14-2.8,6.46c0,0.25,0.17,0.25,1.04,0.25H40.74z"/>
      <path fill="#FFFFFF" d="M53.52,47.1c0,2.11,0.03,2.3,1.07,2.3c0.45,0,0.49,0.03,0.49,0.39c0,0.13-0.04,0.19-0.19,0.19
			c-0.84,0-1.66-0.03-2.5-0.03c-0.84,0-1.66,0.03-2.5,0.03c-0.14,0-0.19-0.06-0.19-0.19c0-0.36,0.04-0.39,0.49-0.39
			c1.04,0,1.07-0.19,1.07-2.3v-4.98c0-1.72-0.09-1.91-1.26-1.91c-0.19,0-0.38-0.09-0.38-0.17c0-0.38,0.01-0.41,0.26-0.41
			c0.84,0,1.66,0.06,2.5,0.06c0.45,0,1.26-0.06,2.42-0.06c3.6,0,3.96,1.9,3.96,2.79c0,1.39-0.97,2.01-2.13,2.46
			c-0.04,0.01-0.17,0.07-0.17,0.14c0,0.06,0.09,0.16,0.27,0.43l2.37,3.39c0.29,0.42,0.62,0.52,1.17,0.55c0.13,0,0.14,0.04,0.14,0.17
			c0,0.36,0,0.41-0.13,0.41c-0.32,0-1.03-0.03-1.62-0.03c-0.46,0-1,0.03-1.42,0.03c-0.14,0-0.38-0.45-0.69-0.93l-1.71-2.69
			c-0.62-0.98-0.82-0.98-1.35-0.98V47.1z M53.52,44.8h0.54c1.77,0,2.32-0.97,2.32-2.16c0-1.27-0.56-2.43-2-2.43
			c-0.38,0-0.85,0.07-0.85,0.68V44.8z"/>
      <path fill="#FFFFFF" d="M70.94,39.7c0.33,0,0.49-0.41,0.72-0.41c0.16,0,0.22,0.07,0.25,0.22c0.04,0.25,0.71,2.4,0.71,2.58
			c0,0.13-0.19,0.13-0.27,0.13c-0.19,0-0.22-0.01-0.32-0.17c-0.81-1.29-1.3-1.76-3.33-1.76c-0.94,0-0.94,0.01-0.94,1v5.83
			c0,2.11,0.03,2.3,1.07,2.3c0.45,0,0.49,0.03,0.49,0.39c0,0.13-0.04,0.19-0.19,0.19c-0.84,0-1.66-0.03-2.5-0.03
			c-0.84,0-1.66,0.03-2.5,0.03c-0.15,0-0.19-0.06-0.19-0.19c0-0.36,0.04-0.39,0.49-0.39c1.04,0,1.07-0.19,1.07-2.3v-5.83
			c0-0.98,0-1-1.03-1c-1.81,0-2.44,0.56-3.26,1.76c-0.1,0.16-0.16,0.2-0.33,0.2c-0.15,0-0.26-0.03-0.26-0.19
			c0-0.25,0.68-2.1,0.71-2.4c0.01-0.16,0.09-0.3,0.29-0.3c0.19,0,0.33,0.35,1.06,0.35H70.94z"/>
      <path fill="#FFFFFF" d="M81.83,42.13c0-1.72-0.09-1.91-1.26-1.91c-0.04,0-0.23-0.09-0.23-0.17c0-0.38,0.01-0.41,0.26-0.41
			c0.69,0,1.52,0.06,2.36,0.06c0.54,0,1.1-0.06,3.08-0.06c5.09,0,5.77,3.37,5.77,4.89c0,2.76-1.65,5.45-6.27,5.45
			c-0.87,0-1.72-0.03-2.59-0.03c-0.84,0-1.66,0.03-2.36,0.03c-0.14,0-0.19-0.06-0.19-0.19c0-0.36,0.04-0.39,0.35-0.39
			c1.04,0,1.07-0.19,1.07-2.3V42.13z M84.09,48.39c0,0.93,0.25,1.01,1.03,1.01c2.43,0,4.09-1.68,4.09-4.7c0-1.32-0.48-4.49-4.2-4.49
			c-0.51,0-0.93,0.04-0.93,0.65V48.39z"/>
      <path fill="#FFFFFF" d="M94.99,46.54c-0.12,0-0.2,0-0.25,0.09c-0.22,0.42-0.78,1.74-0.78,2.2c0,0.29,0.17,0.58,0.77,0.58
			c0.75,0,0.81,0.04,0.81,0.27c0,0.16,0,0.3-0.2,0.3c-0.56,0-1.13-0.03-1.69-0.03c-0.49,0-1,0.03-1.49,0.03
			c-0.09,0-0.16-0.07-0.16-0.25c0-0.27,0.1-0.32,0.52-0.33c0.48-0.01,0.64-0.54,0.94-1.24c0.41-0.93,0.81-1.88,1.13-2.85
			c0.58-1.78,2.23-5.5,2.36-5.74c0.04-0.09,0.29-0.1,0.38-0.1c0.29,0,0.35,0.04,0.41,0.17c0.68,1.72,2.97,7.45,3.66,8.88
			c0.38,0.77,0.51,0.88,1.29,0.88c0.23,0,0.23,0.13,0.23,0.27c0,0.13,0.01,0.3-0.17,0.3c-0.81,0-1.64-0.03-2.42-0.03
			c-1.61,0-2.21,0.03-2.32,0.03c-0.12,0-0.16-0.09-0.16-0.26c0-0.27,0.01-0.32,0.61-0.32c0.39,0,0.65,0,0.65-0.36
			c0-0.29-0.84-2.1-0.95-2.5H94.99z M97.88,45.89l-1.45-3.73c-0.2,0.55-1.39,3.26-1.39,3.62c0,0.03,0.04,0.12,0.32,0.12H97.88z"/>
      <path fill="#FFFFFF" d="M105.62,42.13c0-1.72-0.09-1.91-1.26-1.91c-0.19,0-0.38-0.09-0.38-0.17c0-0.38,0.01-0.41,0.26-0.41
			c0.84,0,1.66,0.06,2.5,0.06s1.66-0.06,2.5-0.06c0.25,0,0.26,0.03,0.26,0.41c0,0.09-0.19,0.17-0.38,0.17
			c-1.17,0-1.26,0.19-1.26,1.91v4.98c0,2.11,0.03,2.3,1.07,2.3c0.45,0,0.49,0.03,0.49,0.39c0,0.13-0.04,0.19-0.19,0.19
			c-0.84,0-1.66-0.03-2.5-0.03s-1.66,0.03-2.5,0.03c-0.14,0-0.19-0.06-0.19-0.19c0-0.36,0.04-0.39,0.49-0.39
			c1.04,0,1.07-0.19,1.07-2.3V42.13z"/>
      <path fill="#FFFFFF" d="M112.51,42.13c0-1.72-0.09-1.91-1.26-1.91c-0.19,0-0.38-0.09-0.38-0.17c0-0.38,0.01-0.41,0.26-0.41
			c0.84,0,1.66,0.06,2.5,0.06c0.84,0,1.66-0.06,2.5-0.06c0.25,0,0.26,0.03,0.26,0.41c0,0.09-0.19,0.17-0.38,0.17
			c-1.17,0-1.26,0.19-1.26,1.91v6.21c0,0.81,0.1,1,1.4,1c2.05,0,2.95-0.03,3.75-2.2c0.06-0.17,0.14-0.17,0.3-0.17
			c0.15,0,0.22,0.01,0.22,0.13c0,0.22-0.54,2.71-0.61,2.81c-0.04,0.09-0.12,0.09-0.22,0.09c-0.62,0-3.11-0.06-4.66-0.06
			c-2.27,0-3.02,0.06-3.82,0.06c-0.15,0-0.19-0.06-0.19-0.19c0-0.36,0.04-0.39,0.49-0.39c1.04,0,1.07-0.19,1.07-2.3V42.13z"/>
      <path fill="#FFFFFF" d="M126.41,47.1c0,2.11,0.03,2.3,1.07,2.3c0.45,0,0.49,0.03,0.49,0.39c0,0.13-0.04,0.19-0.19,0.19
			c-0.84,0-1.66-0.03-2.5-0.03c-0.84,0-1.66,0.03-2.5,0.03c-0.15,0-0.19-0.06-0.19-0.19c0-0.36,0.04-0.39,0.49-0.39
			c1.04,0,1.07-0.19,1.07-2.3v-0.94c0-0.17-0.03-0.26-0.42-0.98l-1.79-3.33c-0.75-1.39-0.78-1.64-1.46-1.64
			c-0.39,0-0.45-0.14-0.45-0.29c0-0.14,0-0.29,0.16-0.29c0.96,0,1.91,0.06,2.5,0.06c0.59,0,1.35-0.06,2.32-0.06
			c0.16,0,0.17,0.15,0.17,0.25c0,0.26,0,0.3-0.48,0.33c-0.56,0.03-0.72,0.1-0.72,0.42c0,0.16,0.48,1.11,1.66,3.34
			c0.36,0.69,0.45,0.87,0.49,0.87c0.06,0,0.19-0.23,0.26-0.36c1.71-3.04,1.87-3.49,1.87-3.72c0-0.32-0.04-0.51-0.78-0.55
			c-0.48-0.03-0.51-0.09-0.51-0.35c0-0.13,0.07-0.23,0.27-0.23c0.55,0,1.09,0.06,1.64,0.06c0.51,0,1-0.06,1.5-0.06
			c0.22,0,0.22,0.1,0.22,0.26c0,0.25-0.01,0.3-0.43,0.32c-0.42,0.01-0.68,0.09-0.95,0.43c-0.27,0.36-1.35,2.37-2.65,4.78
			c-0.16,0.29-0.16,0.35-0.16,0.49V47.1z"/>
    </g>
    <g id="icon--primary-text">
      <path fill="#FFFFFF" d="M65.83,34.33c-0.34,0-1.41,0.19-2.09,0.19c-1.21,0-1.21-1.02-1.21-1.79v-9.12c0-3.44,0.44-7.18,0.44-7.37
			c0-0.48-0.24-0.68-0.68-0.68c-1.21,0-2.47,0.15-3.69,0.15c-2.96,0-3.54-0.15-4.22-0.15c-0.34,0-0.34,0.24-0.34,0.97
			c0,0.49,0.68,0.49,1.55,0.49c2.52,0,3.01,0.29,3.01,2.91v12.56c0,1.5-3.06,2.57-4.8,2.57c-3.59,0-4.75-2.09-4.75-5.72V16.24
			c0-0.68-0.1-0.68-0.39-0.68c-0.68,0-2.52,0.15-4.22,0.15c-1.6,0-2.38-0.15-2.86-0.15c-0.53,0-0.53,0.58-0.53,0.97
			c0,0.49,0.68,0.49,1.07,0.49c2.52,0,3.01,0.29,3.01,4.56v7.56c0,5.04,1.36,8.15,6.16,8.15c1.84,0,4.8-0.87,7.23-2.67
			c-0.05,0.49-0.15,1.26-0.15,1.84c0,0.34,0.24,0.68,0.58,0.68c0.29,0,1.45-0.58,5.58-1.26c1.55-0.24,1.6-0.34,1.6-0.63
			C66.12,34.33,66.02,34.33,65.83,34.33z"/>
      <path fill="#FFFFFF" d="M82.75,33.94c-0.19,0-1.65,1.12-3.3,1.12c-3.83,0-4.27-1.84-4.27-6.98V17.89c4.02,0,6.3,0.24,6.64,0.24
			c1.02,0,1.31-0.58,1.31-1.21c0-0.68-0.15-1.02-0.49-1.02h-7.47c0-2.76,0.15-3.59,0.15-4.46c0-0.44-0.29-0.63-0.58-0.63
			c-0.97,0-1.89,2.57-6.4,5.96c-0.24,0.19-0.29,0.49-0.29,0.68c0,0.29,0.15,0.44,0.29,0.44h2.42c0.34,0,0.48,0.24,0.48,0.63v12.75
			c0,1.21,0,6.01,5.58,6.01c4.41,0,6.45-2.28,6.45-2.57C83.28,34.43,82.94,33.94,82.75,33.94z"/>
      <path fill="#FFFFFF" d="M130.13,35.45c-3.01,0-3.15-0.92-3.15-1.75V22.06c0-6.93-4.75-7.27-6.4-7.27c-2.96,0-5.09,1.21-7.61,2.91
			V7.52c0-6.3,0.24-6.79,0.24-6.98c0-0.29-0.1-0.53-0.29-0.53c-0.45,0-2.51,1.22-5.96,1.94c-0.37,0.08-0.73,0.14-1.1,0.23
			c-0.41,0.1-0.86,0.22-1.34,0.37c-1.03,0.34-2.22,0.82-3.36,1.63c-0.57,0.4-1.12,0.88-1.59,1.46c-0.47,0.57-0.87,1.24-1.1,1.96
			c-0.15,0.35-0.2,0.73-0.28,1.09c-0.03,0.37-0.1,0.74-0.08,1.11l0.01,0.55c0.01,0.18,0.04,0.36,0.06,0.53
			c0.02,0.18,0.04,0.35,0.07,0.52c0.04,0.17,0.08,0.34,0.12,0.5c0.07,0.34,0.16,0.65,0.27,0.96c0.1,0.31,0.2,0.61,0.32,0.89
			c0.12,0.28,0.24,0.56,0.35,0.82c0.13,0.26,0.26,0.5,0.38,0.74c0.01,0.01,0.01,0.02,0.02,0.04c-1.04-0.34-2.34-0.55-3.96-0.55
			c-6.26,0-11.01,4.36-11.01,11.54c0,6.93,4.41,10.96,10.04,10.96c3.2,0,6.01-1.31,8.49-4.12c0.29-0.29,0.39-0.53,0.39-0.73
			c0-0.34-0.58-0.68-0.73-0.68c-0.24,0-0.44,0.44-0.82,0.78c-0.97,0.82-3.1,2.04-4.9,2.04c-7.42,0-8.24-6.06-8.24-8.24
			c0-7.95,3.78-10.28,6.84-10.28c2.52,0,2.86,1.55,3.01,2.28c0.53,2.67,0.73,3.15,2.28,3.15c1.79,0,2.57-1.5,2.57-2.08
			c0-0.42-0.15-0.85-0.34-1.22c-0.31-0.63-0.77-1.18-1.32-1.63c-0.23-0.18-0.48-0.34-0.72-0.51c-0.12-0.08-0.23-0.17-0.34-0.27
			c-0.12-0.11-0.18-0.21-0.26-0.36c-0.08-0.15-0.16-0.32-0.24-0.49c-0.11-0.23-0.22-0.47-0.34-0.72c-0.1-0.25-0.2-0.52-0.31-0.79
			c-0.12-0.27-0.2-0.55-0.28-0.84c-0.09-0.29-0.18-0.59-0.23-0.89c-0.03-0.15-0.06-0.31-0.09-0.46c-0.03-0.16-0.03-0.31-0.05-0.47
			c-0.01-0.16-0.04-0.32-0.04-0.48l0-0.48c-0.02-0.32,0.06-0.63,0.09-0.95c0.09-0.31,0.13-0.63,0.26-0.91
			c0.21-0.6,0.56-1.14,0.96-1.61c0.4-0.48,0.89-0.88,1.4-1.22c1.01-0.69,2.12-1.1,3.08-1.39c0.4-0.12,0.82-0.24,1.24-0.29
			c0.45-0.06,0.88,0,1.31,0.11c0.19,0.05,0.37,0.11,0.55,0.2c0.15,0.08,0.29,0.17,0.41,0.3c0.12,0.12,0.21,0.27,0.29,0.42
			c0.09,0.18,0.15,0.38,0.19,0.58c0.06,0.25,0.09,0.5,0.11,0.76c0.03,0.32,0.05,0.64,0.05,0.97c0.01,0.4,0.02,0.8,0.02,1.21
			c0,0.15,0,0.29,0,0.44v16.97c0,2.09-0.1,8.49-0.29,8.92c-0.29,0.68-0.73,1.16-1.75,1.16c-1.79,0-1.84,0.1-1.84,0.73
			c0,0.24,0,0.53,0.39,0.53c0.48,0,1.75-0.1,6.3-0.1c3.39,0,4.02,0.1,4.27,0.1c0.48,0,0.48-0.34,0.48-0.63
			c0-0.58-0.1-0.63-1.41-0.63c-2.13,0-2.23-0.58-2.23-3.35V19.25c0.19-0.82,2.57-1.79,4.66-1.79c5.04,0,5.43,3.01,5.43,7.52v8.68
			c0,1.6-0.44,1.79-2.76,1.79c-0.58,0-0.68,0.44-0.68,0.68c0,0.24,0.05,0.58,0.34,0.58c0.39,0,1.16-0.1,5.09-0.1
			c2.57,0,3.44,0.1,4.9,0.1c0.68,0,0.68-0.34,0.68-0.63C130.61,35.74,130.61,35.45,130.13,35.45z"/>
    </g>
    <path id="icon--wordmark" fill="#FFFFFF" d="M31.92,5.09c-2.67-1.79-5.14-2.63-8.51-3.01C23.07,0.89,21.99,0,20.69,0
		c-0.78,0-1.49,0.32-2,0.83C18.17,0.32,17.46,0,16.68,0c-0.8,0-1.52,0.34-2.04,0.87h-0.01c-0.82,0.75-2.6,1.28-4.67,1.28
		c-2.07,0-3.85-0.52-4.67-1.28H5.26C4.75,0.34,4.02,0,3.22,0C1.66,0,0.39,1.28,0.39,2.84c0,0.78,0.32,1.49,0.83,2.01H1.21
		c0.77,0.79,1.33,2.84,1.33,5.27c0,2.44-0.56,4.51-1.34,5.28v0.01c-0.5,0.51-0.81,1.21-0.81,1.97c0,0.78,0.32,1.49,0.83,2
		c-0.51,0.51-0.83,1.22-0.83,2c0,0.77,0.31,1.46,0.81,1.97v0.01c0.78,0.78,1.34,2.85,1.34,5.28c0,2.42-0.55,4.47-1.33,5.27h0.01
		c-0.51,0.51-0.83,1.22-0.83,2.01c0,1.56,1.28,2.84,2.84,2.84c0.8,0,1.52-0.34,2.04-0.87h0.01c0.82-0.75,2.6-1.28,4.67-1.28
		c2.07,0,3.85,0.52,4.67,1.28h0.01c0.52,0.54,1.24,0.87,2.04,0.87c0.78,0,1.49-0.32,2.01-0.83c0.51,0.51,1.22,0.83,2,0.83
		c1.34,0,2.47-0.95,2.76-2.2c4.15-0.82,7.57-2.77,9.7-4.76c3.39-3.2,5.31-7.82,5.31-13.23C38.46,14.04,36.55,8.19,31.92,5.09z
		 M23.04,34.33c-0.51-0.75-1.37-1.25-2.35-1.25c-0.78,0-1.49,0.32-2,0.83c-0.51-0.51-1.22-0.83-2.01-0.83
		c-0.77,0-1.47,0.32-1.98,0.83H5.23V23.37c0.51-0.51,0.83-1.21,0.83-1.99c0-0.78-0.32-1.49-0.83-2c0.51-0.51,0.83-1.22,0.83-2
		c0-0.78-0.32-1.48-0.83-1.99V4.85h9.47c0.51,0.51,1.21,0.83,1.98,0.83c0.78,0,1.49-0.32,2.01-0.83c0.51,0.51,1.22,0.83,2,0.83
		c1.11,0,2.07-0.65,2.54-1.59c1.03,0.32,2.02,0.76,2.94,1.35c2.61,1.62,6.25,5.66,6.44,13.48C32.79,26.72,28.77,32.1,23.04,34.33z
		 M23.51,31.65c0.84-0.43,1.6-0.93,2.3-1.51H8.99V8.61h17.56c-0.47-0.46-0.99-0.89-1.58-1.26l-0.01-0.01l-0.01-0.01
		c-0.13-0.08-0.26-0.16-0.4-0.24H7.48v24.55H23.51z"/>
  </g>
</svg>
